<?xml version="1.0" encoding="UTF-8"?>
<!-- Generated by Pixelmator Pro 3.6.18 -->
<svg width="30" height="30" viewBox="0 0 30 30" xmlns="http://www.w3.org/2000/svg">
    <path id="Path" fill="#000000" stroke="none" d="M 3.62 20.01 C 3.62 19.76 3.7 19.549999 3.87 19.379999 C 4.04 19.219999 4.24 19.139999 4.47 19.139999 L 9.89 19.139999 C 10.63 19.139999 11.26 19.4 11.78 19.93 C 12.3 20.459999 12.56 21.09 12.56 21.83 C 12.56 22.57 12.3 23.209999 11.78 23.73 C 11.26 24.25 10.63 24.51 9.89 24.51 C 9.15 24.51 8.51 24.25 7.99 23.719999 C 7.83 23.559999 7.76 23.360001 7.76 23.120001 C 7.76 22.879999 7.84 22.67 7.99 22.52 C 8.14 22.360001 8.34 22.280001 8.59 22.280001 C 8.82 22.280001 9.02 22.360001 9.2 22.52 C 9.4 22.709999 9.63 22.809999 9.89 22.809999 C 10.15 22.809999 10.38 22.709999 10.57 22.52 C 10.76 22.33 10.86 22.1 10.86 21.82 C 10.86 21.559999 10.76 21.33 10.57 21.139999 C 10.38 20.950001 10.15 20.85 9.89 20.85 L 4.47 20.85 C 4.24 20.85 4.04 20.77 3.87 20.6 C 3.7 20.43 3.62 20.25 3.62 20.01 Z M 3.62 16.969999 C 3.62 16.73 3.7 16.52 3.87 16.35 C 4.04 16.190001 4.24 16.110001 4.47 16.110001 L 15.02 16.110001 C 15.28 16.110001 15.51 16.01 15.7 15.82 C 15.89 15.629999 15.99 15.389999 15.99 15.129999 C 15.99 14.87 15.89 14.63 15.7 14.44 C 15.51 14.25 15.28 14.15 15.02 14.15 C 14.74 14.15 14.52 14.24 14.34 14.43 C 14.16 14.58 13.95 14.66 13.7 14.66 C 13.46 14.66 13.26 14.58 13.1 14.43 C 12.95 14.28 12.87 14.08 12.87 13.83 C 12.87 13.58 12.94 13.379999 13.1 13.219999 C 13.61 12.709999 14.25 12.459999 15.02 12.459999 C 15.76 12.459999 16.4 12.720001 16.92 13.24 C 17.440001 13.76 17.700001 14.39 17.700001 15.120001 C 17.700001 15.85 17.440001 16.49 16.92 17.01 C 16.4 17.530001 15.77 17.790001 15.02 17.790001 L 4.47 17.790001 C 4.23 17.790001 4.03 17.709999 3.87 17.549999 C 3.7 17.4 3.62 17.200001 3.62 16.969999 Z M 5.77 14.61 C 5.77 14.69 5.82 14.73 5.93 14.73 L 7.37 14.73 C 7.45 14.73 7.52 14.68 7.59 14.58 C 7.81 14.04 8.17 13.59 8.64 13.23 C 9.12 12.869999 9.65 12.67 10.23 12.630001 L 10.76 12.549999 C 10.89 12.549999 10.96 12.49 10.96 12.380001 L 11.03 11.860001 C 11.14 10.779999 11.59 9.869999 12.4 9.139999 C 13.21 8.41 14.16 8.040001 15.26 8.040001 C 16.370001 8.040001 17.33 8.4 18.139999 9.130001 C 18.950001 9.860001 19.41 10.77 19.530001 11.860001 L 19.6 12.450001 C 19.6 12.560001 19.66 12.619999 19.77 12.619999 L 21.389999 12.619999 C 22.299999 12.619999 23.07 12.939999 23.719999 13.58 C 24.370001 14.22 24.690001 14.98 24.690001 15.879999 C 24.690001 16.77 24.370001 17.540001 23.719999 18.18 C 23.07 18.82 22.299999 19.139999 21.389999 19.139999 L 14.48 19.139999 C 14.36 19.139999 14.29 19.200001 14.29 19.309999 L 14.29 20.700001 C 14.29 20.809999 14.35 20.870001 14.48 20.870001 L 21.389999 20.870001 C 22.299999 20.870001 23.129999 20.65 23.9 20.200001 C 24.67 19.76 25.27 19.15 25.719999 18.389999 C 26.17 17.620001 26.389999 16.790001 26.389999 15.889999 C 26.389999 14.98 26.17 14.15 25.719999 13.389999 C 25.27 12.630001 24.67 12.02 23.9 11.58 C 23.129999 11.139999 22.299999 10.91 21.389999 10.91 L 21.08 10.91 C 20.77 9.58 20.07 8.49 18.98 7.639999 C 17.9 6.790001 16.65 6.369999 15.25 6.369999 C 13.84 6.369999 12.59 6.809999 11.5 7.689999 C 10.41 8.57 9.72 9.689999 9.43 11.060001 C 8.57 11.26 7.81 11.67 7.15 12.290001 C 6.49 12.91 6.03 13.65 5.77 14.5 L 5.77 14.54 C 5.77 14.56 5.77 14.58 5.77 14.61 Z"/>
</svg>
