<?xml version="1.0" encoding="UTF-8"?>
<!-- Generated by Pixelmator Pro 3.6.18 -->
<svg width="30" height="30" viewBox="0 0 30 30" xmlns="http://www.w3.org/2000/svg">
    <path id="Path" fill="#000000" stroke="none" d="M 3.1 20.040001 C 3.1 19.799999 3.18 19.59 3.35 19.43 C 3.52 19.27 3.73 19.190001 3.98 19.190001 L 12.95 19.190001 C 13.19 19.190001 13.38 19.27 13.54 19.43 C 13.7 19.59 13.77 19.790001 13.77 20.040001 C 13.77 20.280001 13.69 20.48 13.53 20.639999 C 13.37 20.799999 13.18 20.879999 12.94 20.879999 L 3.98 20.879999 C 3.73 20.879999 3.52 20.799999 3.35 20.639999 C 3.18 20.48 3.1 20.27 3.1 20.040001 Z M 5.73 16.98 C 5.73 16.74 5.82 16.540001 6 16.379999 C 6.14 16.23 6.34 16.15 6.59 16.15 L 15.59 16.15 C 15.82 16.15 16.01 16.23 16.17 16.379999 C 16.33 16.530001 16.4 16.73 16.4 16.969999 C 16.4 17.209999 16.32 17.41 16.17 17.58 C 16.02 17.75 15.82 17.83 15.59 17.83 L 6.59 17.83 C 6.36 17.83 6.16 17.74 5.99 17.57 C 5.82 17.4 5.73 17.209999 5.73 16.98 Z M 6.35 14.65 C 6.35 14.74 6.41 14.79 6.52 14.79 L 7.95 14.79 C 8.04 14.79 8.12 14.74 8.18 14.65 C 8.41 14.11 8.75 13.66 9.22 13.299999 C 9.69 12.939999 10.21 12.74 10.8 12.700001 L 11.34 12.630001 C 11.45 12.630001 11.51 12.57 11.51 12.450001 L 11.58 11.93 C 11.69 10.84 12.16 9.939999 12.97 9.209999 C 13.79 8.48 14.74 8.119999 15.84 8.119999 C 16.93 8.119999 17.870001 8.48 18.67 9.189999 C 19.469999 9.91 19.940001 10.810001 20.08 11.889999 L 20.15 12.48 C 20.15 12.59 20.209999 12.639999 20.33 12.639999 L 21.93 12.639999 C 22.84 12.639999 23.610001 12.959999 24.25 13.6 C 24.889999 14.24 25.209999 15.01 25.209999 15.92 C 25.209999 16.799999 24.879999 17.559999 24.24 18.200001 C 23.59 18.85 22.82 19.17 21.93 19.17 L 15.04 19.17 C 14.92 19.17 14.86 19.23 14.86 19.34 L 14.86 20.68 C 14.86 20.799999 14.92 20.860001 15.04 20.860001 L 21.93 20.860001 C 22.610001 20.860001 23.25 20.73 23.870001 20.469999 C 24.49 20.209999 25.01 19.860001 25.450001 19.42 C 25.889999 18.98 26.24 18.450001 26.5 17.84 C 26.76 17.23 26.889999 16.59 26.889999 15.92 C 26.889999 15.02 26.67 14.19 26.23 13.43 C 25.790001 12.67 25.190001 12.07 24.43 11.630001 C 23.67 11.189999 22.83 10.970001 21.93 10.970001 L 21.620001 10.970001 C 21.290001 9.630001 20.59 8.529999 19.52 7.67 C 18.440001 6.82 17.219999 6.389999 15.84 6.389999 C 14.42 6.389999 13.17 6.83 12.08 7.720001 C 10.99 8.6 10.3 9.73 10 11.110001 C 9.14 11.299999 8.38 11.709999 7.73 12.32 C 7.08 12.93 6.63 13.67 6.37 14.54 L 6.37 14.56 C 6.36 14.6 6.35 14.62 6.35 14.65 Z M 7.5 23.129999 C 7.5 22.889999 7.59 22.690001 7.76 22.530001 C 7.91 22.370001 8.11 22.299999 8.35 22.299999 L 17.34 22.299999 C 17.58 22.299999 17.790001 22.379999 17.950001 22.540001 C 18.120001 22.700001 18.200001 22.9 18.200001 23.139999 C 18.200001 23.379999 18.120001 23.58 17.950001 23.75 C 17.780001 23.92 17.58 24 17.34 24 L 8.35 24 C 8.12 24 7.92 23.92 7.75 23.75 C 7.58 23.57 7.5 23.370001 7.5 23.129999 Z"/>
</svg>
