<?xml version="1.0" encoding="UTF-8"?>
<!-- Generated by Pixelmator Pro 3.6.18 -->
<svg width="30" height="30" viewBox="0 0 30 30" xmlns="http://www.w3.org/2000/svg">
    <path id="Path" fill="#000000" stroke="none" d="M 0.32 23.059999 C 0.32 23.290001 0.4 23.49 0.57 23.65 C 0.74 23.809999 0.95 23.889999 1.2 23.889999 L 19.91 23.889999 C 20.15 23.889999 20.35 23.809999 20.52 23.65 C 20.690001 23.49 20.77 23.299999 20.77 23.059999 C 20.77 22.82 20.690001 22.620001 20.52 22.459999 C 20.35 22.290001 20.15 22.209999 19.91 22.209999 L 1.2 22.209999 C 0.95 22.209999 0.74 22.290001 0.57 22.459999 C 0.4 22.629999 0.32 22.82 0.32 23.059999 Z M 2.94 19.92 C 2.94 20.15 3.02 20.35 3.19 20.5 C 3.36 20.68 3.56 20.77 3.79 20.77 L 22.51 20.77 C 22.74 20.77 22.940001 20.690001 23.1 20.52 C 23.26 20.35 23.34 20.15 23.34 19.92 C 23.34 19.690001 23.26 19.49 23.110001 19.33 C 22.950001 19.17 22.76 19.09 22.52 19.09 L 3.8 19.09 C 3.56 19.09 3.36 19.17 3.2 19.33 C 3.03 19.5 2.94 19.690001 2.94 19.92 Z M 3.07 17.52 C 3.07 17.610001 3.12 17.65 3.23 17.65 L 4.66 17.65 C 4.73 17.65 4.8 17.6 4.87 17.49 C 5.11 16.970001 5.46 16.549999 5.93 16.220001 C 6.4 15.889999 6.92 15.700001 7.49 15.66 L 8.03 15.59 C 8.14 15.59 8.2 15.529999 8.2 15.41 L 8.27 14.9 C 8.38 13.82 8.83 12.92 9.64 12.189999 C 10.45 11.470001 11.4 11.1 12.5 11.1 C 13.58 11.1 14.53 11.459999 15.34 12.18 C 16.15 12.9 16.610001 13.790001 16.719999 14.860001 L 16.790001 15.439999 C 16.790001 15.549999 16.85 15.610001 16.98 15.610001 L 18.59 15.610001 C 19.23 15.610001 19.82 15.779999 20.35 16.130001 C 20.879999 16.470001 21.27 16.93 21.530001 17.5 C 21.6 17.610001 21.66 17.66 21.73 17.66 L 23.17 17.66 C 23.299999 17.66 23.35 17.59 23.299999 17.43 L 23.1 16.880001 C 23.860001 15.939999 24.23 14.84 24.23 13.57 C 24.23 12.860001 24.09 12.189999 23.82 11.540001 C 23.549999 10.889999 23.18 10.34 22.709999 9.869999 C 22.25 9.4 21.690001 9.030001 21.040001 8.75 C 20.389999 8.469999 19.719999 8.35 19 8.35 C 17.459999 8.35 16.18 8.91 15.18 10.029999 C 14.33 9.610001 13.44 9.4 12.5 9.4 C 11.1 9.4 9.85 9.84 8.76 10.720001 C 7.67 11.6 6.97 12.720001 6.66 14.09 C 4.88 14.560001 3.68 15.67 3.08 17.439999 C 3.07 17.450001 3.07 17.48 3.07 17.52 Z M 4.69 26.129999 C 4.69 26.370001 4.78 26.57 4.96 26.73 C 5.12 26.9 5.31 26.99 5.55 26.99 L 24.290001 26.99 C 24.52 26.99 24.719999 26.91 24.889999 26.74 C 25.059999 26.57 25.139999 26.370001 25.139999 26.129999 C 25.139999 25.9 25.059999 25.709999 24.889999 25.549999 C 24.719999 25.4 24.52 25.32 24.290001 25.32 L 5.55 25.32 C 5.31 25.32 5.11 25.4 4.94 25.549999 C 4.77 25.709999 4.69 25.9 4.69 26.129999 Z M 11.26 6.66 C 11.26 6.9 11.34 7.09 11.49 7.25 L 12.14 7.889999 C 12.31 8.07 12.5 8.16 12.72 8.16 C 12.94 8.16 13.14 8.08 13.32 7.91 C 13.49 7.74 13.58 7.540001 13.58 7.299999 C 13.58 7.059999 13.5 6.85 13.33 6.67 L 12.69 6.059999 C 12.53 5.889999 12.33 5.799999 12.09 5.799999 C 11.85 5.799999 11.65 5.880001 11.49 6.049999 C 11.34 6.209999 11.26 6.42 11.26 6.66 Z M 16.58 11.040001 C 17.25 10.360001 18.059999 10.029999 19.01 10.029999 C 19.99 10.029999 20.83 10.380001 21.52 11.07 C 22.209999 11.76 22.559999 12.6 22.559999 13.57 C 22.559999 14.220001 22.4 14.82 22.07 15.369999 C 21.120001 14.42 19.959999 13.950001 18.6 13.950001 L 18.26 13.950001 C 17.969999 12.77 17.41 11.799999 16.58 11.040001 Z M 18.18 5.809999 C 18.18 6.040001 18.26 6.24 18.42 6.4 C 18.58 6.559999 18.77 6.639999 19.01 6.639999 C 19.26 6.639999 19.469999 6.559999 19.639999 6.4 C 19.809999 6.24 19.889999 6.049999 19.889999 5.809999 L 19.889999 3.76 C 19.889999 3.530001 19.799999 3.33 19.629999 3.16 C 19.450001 2.99 19.24 2.91 19 2.91 C 18.77 2.91 18.57 2.99 18.41 3.16 C 18.25 3.33 18.17 3.530001 18.17 3.76 L 18.17 5.809999 Z M 23.67 8.08 C 23.67 8.299999 23.75 8.51 23.91 8.68 C 24.280001 9.040001 24.690001 9.040001 25.139999 8.68 L 26.57 7.25 C 26.73 7.07 26.809999 6.860001 26.809999 6.610001 C 26.809999 6.380001 26.73 6.18 26.57 6.02 C 26.41 5.860001 26.209999 5.780001 25.98 5.780001 C 25.74 5.780001 25.540001 5.860001 25.379999 6.02 L 23.92 7.49 C 23.75 7.67 23.67 7.869999 23.67 8.08 Z M 24.48 19.879999 C 24.48 20.120001 24.57 20.32 24.74 20.48 L 25.379999 21.129999 C 25.540001 21.290001 25.74 21.370001 25.959999 21.370001 C 26.17 21.370001 26.370001 21.290001 26.57 21.129999 C 26.73 20.959999 26.809999 20.74 26.809999 20.49 C 26.809999 20.27 26.73 20.08 26.57 19.93 L 25.92 19.27 C 25.74 19.110001 25.540001 19.030001 25.32 19.030001 C 25.08 19.030001 24.879999 19.110001 24.719999 19.280001 C 24.559999 19.440001 24.48 19.639999 24.48 19.879999 Z M 25.959999 13.57 C 25.959999 13.810001 26.049999 14.01 26.219999 14.17 C 26.370001 14.34 26.57 14.42 26.809999 14.42 L 28.860001 14.42 C 29.09 14.42 29.290001 14.34 29.450001 14.17 C 29.610001 14 29.690001 13.799999 29.690001 13.57 C 29.690001 13.33 29.610001 13.130001 29.450001 12.970001 C 29.290001 12.810001 29.1 12.73 28.860001 12.73 L 26.809999 12.73 C 26.57 12.73 26.370001 12.810001 26.209999 12.98 C 26.040001 13.139999 25.959999 13.34 25.959999 13.57 Z"/>
</svg>
