<?xml version="1.0" encoding="UTF-8"?>
<!-- Generated by Pixelmator Pro 3.6.18 -->
<svg width="30" height="30" viewBox="0 0 30 30" xmlns="http://www.w3.org/2000/svg">
    <path id="Path" fill="#000000" stroke="none" d="M 1.56 17.879999 C 1.56 19.209999 2.02 20.35 2.95 21.309999 C 3.88 22.27 5.01 22.77 6.35 22.84 C 6.46 22.84 6.52 22.780001 6.52 22.67 L 6.52 21.33 C 6.52 21.209999 6.46 21.15 6.35 21.15 C 5.5 21.110001 4.78 20.77 4.18 20.129999 C 3.58 19.49 3.29 18.74 3.29 17.879999 C 3.29 17.040001 3.57 16.32 4.13 15.71 C 4.69 15.1 5.39 14.75 6.23 14.65 L 6.73 14.610001 C 6.86 14.610001 6.93 14.549999 6.93 14.43 L 6.99 13.9 C 7.1 12.82 7.55 11.91 8.36 11.189999 C 9.17 10.459999 10.12 10.1 11.22 10.1 C 12.31 10.1 13.27 10.459999 14.08 11.189999 C 14.89 11.92 15.35 12.82 15.45 13.9 L 15.52 14.470001 C 15.52 14.59 15.58 14.65 15.7 14.65 L 17.370001 14.65 C 18.25 14.65 19 14.970001 19.639999 15.61 C 20.280001 16.25 20.6 17 20.6 17.879999 C 20.6 18.73 20.299999 19.469999 19.700001 20.1 C 19.1 20.73 18.379999 21.08 17.540001 21.15 C 17.43 21.15 17.370001 21.209999 17.370001 21.33 L 17.370001 22.67 C 17.370001 22.780001 17.43 22.84 17.540001 22.84 C 18.42 22.82 19.209999 22.58 19.940001 22.120001 C 20.67 21.66 21.24 21.07 21.65 20.32 C 22.07 19.57 22.27 18.76 22.27 17.879999 C 22.27 17.17 22.129999 16.51 21.860001 15.92 C 22.620001 14.98 22.99 13.889999 22.99 12.639999 C 22.99 11.93 22.85 11.25 22.58 10.6 C 22.309999 9.950001 21.93 9.4 21.459999 8.93 C 21 8.459999 20.440001 8.09 19.799999 7.82 C 19.15 7.540001 18.469999 7.41 17.76 7.41 C 16.25 7.41 14.98 7.959999 13.95 9.07 C 13.16 8.639999 12.25 8.43 11.22 8.43 C 9.81 8.43 8.56 8.869999 7.47 9.74 C 6.38 10.610001 5.7 11.73 5.4 13.09 C 4.28 13.35 3.35 13.92 2.63 14.810001 C 1.92 15.7 1.56 16.73 1.56 17.879999 Z M 6.97 24.58 C 6.97 24.76 7.02 24.940001 7.13 25.110001 C 7.24 25.290001 7.39 25.4 7.58 25.469999 C 7.77 25.540001 7.98 25.52 8.19 25.41 C 8.41 25.299999 8.55 25.120001 8.63 24.860001 L 8.88 23.809999 C 8.95 23.6 8.93 23.4 8.81 23.190001 C 8.69 22.98 8.52 22.84 8.3 22.77 C 8.05 22.709999 7.83 22.74 7.63 22.85 C 7.43 22.959999 7.31 23.15 7.26 23.379999 L 6.98 24.370001 C 6.98 24.42 6.97 24.49 6.97 24.58 Z M 8.28 19.860001 C 8.28 20.24 8.49 20.5 8.92 20.65 C 9.14 20.73 9.35 20.709999 9.56 20.6 C 9.77 20.49 9.9 20.309999 9.97 20.07 L 10.21 19.040001 C 10.28 18.83 10.26 18.629999 10.14 18.42 C 10.03 18.209999 9.86 18.07 9.63 18 C 9.39 17.940001 9.16 17.959999 8.96 18.08 C 8.76 18.200001 8.64 18.370001 8.59 18.6 L 8.29 19.620001 C 8.29 19.700001 8.28 19.780001 8.28 19.860001 Z M 9.5 27.75 C 9.5 27.91 9.56 28.08 9.67 28.25 C 9.78 28.42 9.95 28.540001 10.16 28.610001 C 10.17 28.610001 10.2 28.610001 10.26 28.620001 C 10.32 28.629999 10.37 28.629999 10.41 28.629999 C 10.55 28.629999 10.67 28.610001 10.78 28.559999 C 10.97 28.48 11.11 28.290001 11.19 27.98 L 11.46 26.99 C 11.53 26.76 11.51 26.540001 11.39 26.34 C 11.27 26.139999 11.1 26 10.88 25.940001 C 10.65 25.870001 10.43 25.889999 10.23 26.01 C 10.03 26.129999 9.89 26.299999 9.83 26.52 L 9.55 27.540001 C 9.51 27.629999 9.5 27.700001 9.5 27.75 Z M 9.96 5.68 C 9.96 5.93 10.04 6.139999 10.21 6.299999 L 10.87 6.950001 C 11.21 7.290001 11.6 7.290001 12.04 6.950001 C 12.2 6.780001 12.28 6.57 12.28 6.34 C 12.28 6.110001 12.2 5.91 12.04 5.73 L 11.41 5.07 C 11.25 4.91 11.05 4.83 10.81 4.83 C 10.58 4.83 10.38 4.91 10.21 5.08 C 10.04 5.24 9.96 5.440001 9.96 5.68 Z M 10.85 22.959999 C 10.85 23.129999 10.9 23.299999 11.01 23.469999 C 11.12 23.639999 11.27 23.75 11.48 23.82 C 11.71 23.889999 11.92 23.870001 12.12 23.77 C 12.31 23.67 12.45 23.48 12.52 23.209999 L 12.76 22.200001 C 12.83 21.969999 12.81 21.75 12.7 21.549999 C 12.59 21.35 12.42 21.209999 12.2 21.139999 C 11.95 21.07 11.72 21.1 11.52 21.219999 C 11.32 21.34 11.19 21.52 11.15 21.75 L 10.87 22.780001 C 10.85 22.809999 10.85 22.870001 10.85 22.959999 Z M 13.63 24.68 C 13.65 25.059999 13.86 25.33 14.26 25.51 L 14.51 25.549999 C 14.67 25.549999 14.83 25.5 14.98 25.389999 C 15.13 25.280001 15.24 25.120001 15.3 24.889999 L 15.59 23.879999 C 15.65 23.639999 15.62 23.42 15.5 23.219999 C 15.38 23.02 15.2 22.889999 14.97 22.85 C 14.76 22.780001 14.56 22.799999 14.35 22.92 C 14.14 23.040001 14.01 23.209999 13.94 23.43 L 13.67 24.450001 C 13.66 24.469999 13.66 24.5 13.65 24.530001 C 13.64 24.559999 13.64 24.59 13.63 24.610001 C 13.62 24.629999 13.63 24.66 13.63 24.68 Z M 15.03 19.92 C 15.03 20.08 15.08 20.24 15.18 20.4 C 15.28 20.559999 15.43 20.67 15.63 20.719999 L 15.88 20.75 C 16.07 20.75 16.25 20.690001 16.4 20.57 C 16.549999 20.450001 16.639999 20.290001 16.68 20.1 L 16.950001 19.110001 C 17.02 18.870001 17 18.66 16.879999 18.459999 C 16.77 18.26 16.6 18.129999 16.370001 18.07 C 16.139999 18 15.92 18.02 15.73 18.129999 C 15.53 18.24 15.4 18.41 15.34 18.629999 L 15.04 19.690001 C 15.04 19.77 15.03 19.85 15.03 19.92 Z M 15.36 10.060001 C 16.02 9.42 16.82 9.1 17.76 9.1 C 18.74 9.1 19.58 9.450001 20.27 10.139999 C 20.959999 10.83 21.309999 11.67 21.309999 12.65 C 21.309999 13.209999 21.15 13.799999 20.84 14.41 C 19.879999 13.450001 18.73 12.98 17.370001 12.98 L 17.030001 12.98 C 16.77 11.84 16.209999 10.869999 15.36 10.060001 Z M 16.9 4.83 C 16.9 5.08 16.98 5.280001 17.139999 5.440001 C 17.299999 5.6 17.5 5.68 17.75 5.68 C 18 5.68 18.200001 5.6 18.360001 5.440001 C 18.52 5.280001 18.6 5.08 18.6 4.83 L 18.6 2.809999 C 18.6 2.559999 18.52 2.35 18.360001 2.190001 C 18.200001 2.030001 18 1.950001 17.75 1.950001 C 17.5 1.950001 17.299999 2.030001 17.139999 2.190001 C 16.98 2.35 16.9 2.559999 16.9 2.809999 L 16.9 4.83 Z M 22.450001 7.119999 C 22.450001 7.369999 22.530001 7.57 22.68 7.73 C 22.889999 7.9 23.09 7.98 23.299999 7.98 C 23.49 7.98 23.68 7.9 23.889999 7.73 L 25.32 6.299999 C 25.48 6.119999 25.559999 5.91 25.559999 5.67 C 25.559999 5.43 25.48 5.23 25.32 5.07 C 25.16 4.91 24.959999 4.83 24.73 4.83 C 24.5 4.83 24.299999 4.91 24.120001 5.07 L 22.68 6.5 C 22.530001 6.68 22.450001 6.880001 22.450001 7.119999 Z M 23.24 18.950001 C 23.24 19.18 23.33 19.389999 23.5 19.58 L 24.120001 20.219999 C 24.33 20.43 24.530001 20.530001 24.74 20.530001 C 24.93 20.530001 25.129999 20.43 25.32 20.219999 C 25.5 20.040001 25.59 19.83 25.58 19.610001 C 25.57 19.379999 25.49 19.18 25.32 19.01 L 24.67 18.35 C 24.51 18.190001 24.32 18.110001 24.1 18.110001 C 23.860001 18.110001 23.66 18.190001 23.49 18.360001 C 23.33 18.52 23.24 18.719999 23.24 18.950001 Z M 24.709999 12.639999 C 24.709999 12.860001 24.790001 13.060001 24.950001 13.220001 C 25.110001 13.380001 25.309999 13.459999 25.530001 13.459999 L 27.57 13.459999 C 27.83 13.459999 28.040001 13.380001 28.200001 13.23 C 28.360001 13.07 28.440001 12.880001 28.440001 12.639999 C 28.440001 12.389999 28.360001 12.18 28.190001 12.02 C 28.02 11.860001 27.82 11.779999 27.57 11.779999 L 25.530001 11.779999 C 25.299999 11.779999 25.1 11.860001 24.940001 12.029999 C 24.790001 12.200001 24.709999 12.41 24.709999 12.639999 Z"/>
</svg>
