<?xml version="1.0" encoding="UTF-8"?>
<!-- Generated by Pixelmator Pro 3.6.18 -->
<svg width="30" height="30" viewBox="0 0 30 30" xmlns="http://www.w3.org/2000/svg">
    <path id="Path" fill="#000000" stroke="none" d="M 1.51 17.889999 C 1.51 19.219999 1.97 20.370001 2.9 21.33 C 3.83 22.290001 4.96 22.799999 6.31 22.860001 C 6.42 22.860001 6.48 22.799999 6.48 22.690001 L 6.48 21.35 C 6.48 21.24 6.42 21.18 6.31 21.18 C 5.45 21.139999 4.72 20.790001 4.12 20.15 C 3.52 19.51 3.22 18.75 3.22 17.889999 C 3.22 17.07 3.5 16.35 4.07 15.73 C 4.64 15.11 5.34 14.76 6.17 14.66 L 6.7 14.610001 C 6.83 14.610001 6.9 14.549999 6.9 14.439999 L 6.97 13.9 C 7.08 12.82 7.53 11.91 8.34 11.18 C 9.15 10.450001 10.1 10.08 11.19 10.08 C 12.28 10.08 13.23 10.450001 14.05 11.18 C 14.87 11.91 15.33 12.82 15.45 13.9 L 15.52 14.470001 C 15.52 14.59 15.58 14.66 15.69 14.66 L 17.309999 14.66 C 18.200001 14.66 18.959999 14.98 19.610001 15.62 C 20.26 16.26 20.58 17.01 20.58 17.889999 C 20.58 18.76 20.280001 19.51 19.68 20.15 C 19.08 20.790001 18.35 21.129999 17.5 21.18 C 17.379999 21.18 17.309999 21.24 17.309999 21.35 L 17.309999 22.690001 C 17.309999 22.799999 17.370001 22.860001 17.5 22.860001 C 18.83 22.82 19.959999 22.309999 20.889999 21.35 C 21.82 20.379999 22.280001 19.23 22.280001 17.9 C 22.280001 17.18 22.139999 16.51 21.860001 15.89 C 22.639999 14.92 23.030001 13.82 23.030001 12.58 C 23.030001 11.630001 22.790001 10.75 22.32 9.939999 C 21.85 9.130001 21.209999 8.49 20.4 8.02 C 19.59 7.549999 18.719999 7.32 17.780001 7.32 C 16.219999 7.32 14.93 7.9 13.9 9.060001 C 13.08 8.619999 12.18 8.4 11.19 8.4 C 9.78 8.4 8.52 8.84 7.43 9.720001 C 6.34 10.6 5.64 11.720001 5.33 13.08 C 4.22 13.34 3.31 13.92 2.59 14.82 C 1.87 15.72 1.51 16.74 1.51 17.889999 Z M 6.91 24.75 C 6.91 24.92 6.96 25.08 7.07 25.24 C 7.18 25.4 7.34 25.51 7.56 25.57 C 7.67 25.59 7.76 25.610001 7.83 25.610001 C 8.22 25.610001 8.48 25.4 8.6 24.969999 L 10.18 19.09 C 10.25 18.85 10.22 18.629999 10.1 18.42 C 9.98 18.209999 9.8 18.09 9.57 18.040001 C 9.35 17.969999 9.14 17.99 8.94 18.110001 C 8.74 18.219999 8.6 18.389999 8.53 18.620001 L 6.95 24.530001 C 6.93 24.66 6.91 24.73 6.91 24.75 Z M 9.52 27.83 C 9.52 28.02 9.57 28.190001 9.67 28.35 C 9.77 28.51 9.94 28.610001 10.19 28.65 C 10.3 28.67 10.39 28.690001 10.45 28.690001 C 10.61 28.690001 10.76 28.629999 10.9 28.52 C 11.04 28.4 11.13 28.24 11.17 28.040001 L 13.57 19.110001 C 13.63 18.879999 13.61 18.66 13.5 18.469999 C 13.39 18.280001 13.22 18.139999 13 18.07 C 12.77 18 12.55 18.02 12.35 18.139999 C 12.15 18.25 12.01 18.42 11.95 18.65 L 9.55 27.58 C 9.53 27.73 9.52 27.82 9.52 27.83 Z M 9.94 5.6 C 9.94 5.84 10.02 6.040001 10.19 6.209999 L 10.84 6.869999 C 11.03 7.02 11.24 7.09 11.46 7.09 C 11.67 7.09 11.87 7.01 12.04 6.860001 C 12.21 6.700001 12.3 6.51 12.3 6.27 C 12.3 6.030001 12.22 5.809999 12.06 5.630001 L 11.42 4.98 C 11.24 4.809999 11.04 4.73 10.82 4.73 C 10.58 4.73 10.37 4.82 10.2 4.99 C 10.03 5.16 9.94 5.369999 9.94 5.6 Z M 13.67 24.77 C 13.67 24.93 13.72 25.09 13.82 25.24 C 13.92 25.389999 14.08 25.5 14.28 25.559999 C 14.39 25.58 14.48 25.6 14.53 25.6 C 14.7 25.6 14.87 25.549999 15.02 25.450001 C 15.17 25.35 15.27 25.190001 15.32 24.959999 L 16.9 19.08 C 16.959999 18.85 16.940001 18.629999 16.83 18.440001 C 16.719999 18.24 16.549999 18.110001 16.33 18.040001 C 16.09 17.969999 15.88 17.99 15.68 18.110001 C 15.48 18.219999 15.35 18.389999 15.29 18.620001 L 13.71 24.530001 C 13.69 24.68 13.67 24.76 13.67 24.77 Z M 15.3 10.029999 C 16.01 9.360001 16.83 9.029999 17.780001 9.029999 C 18.76 9.029999 19.6 9.380001 20.280001 10.07 C 20.969999 10.76 21.309999 11.6 21.309999 12.59 C 21.309999 13.209999 21.139999 13.83 20.790001 14.439999 C 19.82 13.470001 18.66 12.99 17.299999 12.99 L 16.969999 12.99 C 16.700001 11.810001 16.139999 10.83 15.3 10.029999 Z M 16.92 4.780001 C 16.92 5.01 17 5.209999 17.17 5.369999 C 17.34 5.530001 17.540001 5.610001 17.780001 5.610001 C 18.01 5.610001 18.209999 5.530001 18.370001 5.380001 C 18.530001 5.219999 18.610001 5.030001 18.610001 4.790001 L 18.610001 2.73 C 18.610001 2.469999 18.530001 2.26 18.379999 2.1 C 18.219999 1.940001 18.030001 1.860001 17.790001 1.860001 C 17.540001 1.860001 17.33 1.940001 17.17 2.110001 C 17.01 2.280001 16.93 2.48 16.93 2.73 L 16.93 4.780001 Z M 22.450001 7.059999 C 22.450001 7.299999 22.540001 7.5 22.719999 7.65 C 22.860001 7.809999 23.040001 7.889999 23.27 7.91 C 23.5 7.93 23.709999 7.84 23.889999 7.65 L 25.33 6.219999 C 25.51 6.049999 25.59 5.84 25.59 5.59 C 25.59 5.35 25.51 5.139999 25.34 4.98 C 25.17 4.82 24.969999 4.74 24.73 4.74 C 24.52 4.74 24.33 4.82 24.15 4.99 L 22.719999 6.43 C 22.540001 6.6 22.450001 6.809999 22.450001 7.059999 Z M 23.26 18.91 C 23.26 19.15 23.34 19.360001 23.5 19.540001 L 24.15 20.17 C 24.33 20.309999 24.530001 20.379999 24.75 20.379999 L 24.77 20.4 C 25 20.4 25.190001 20.32 25.35 20.16 C 25.51 20 25.59 19.790001 25.59 19.549999 C 25.59 19.309999 25.5 19.120001 25.33 18.969999 L 24.709999 18.309999 C 24.530001 18.15 24.32 18.07 24.09 18.07 C 23.860001 18.07 23.66 18.15 23.5 18.32 C 23.34 18.49 23.26 18.67 23.26 18.91 Z M 24.719999 12.58 C 24.719999 12.82 24.809999 13.01 24.98 13.17 C 25.16 13.35 25.360001 13.43 25.6 13.43 L 27.629999 13.43 C 27.870001 13.43 28.07 13.35 28.24 13.18 C 28.41 13.01 28.49 12.810001 28.49 12.58 C 28.49 12.34 28.41 12.139999 28.24 11.970001 C 28.07 11.799999 27.870001 11.709999 27.629999 11.709999 L 25.6 11.709999 C 25.360001 11.709999 25.16 11.799999 24.98 11.970001 C 24.799999 12.139999 24.719999 12.34 24.719999 12.58 Z"/>
</svg>
