<?xml version="1.0" encoding="UTF-8"?>
<!-- Generated by Pixelmator Pro 3.6.18 -->
<svg width="30" height="30" viewBox="0 0 30 30" xmlns="http://www.w3.org/2000/svg">
    <path id="Path" fill="#000000" stroke="none" d="M 1.52 17.9 C 1.52 19.01 1.85 19.99 2.5 20.860001 C 3.15 21.73 4.01 22.32 5.07 22.639999 L 4.43 24.34 C 4.39 24.48 4.43 24.549999 4.57 24.549999 L 6.7 24.549999 L 5.45 28.5 L 5.74 28.5 L 9.91 23.110001 C 9.95 23.07 9.95 23.02 9.92 22.969999 C 9.9 22.92 9.85 22.9 9.78 22.9 L 7.61 22.9 L 10.08 18.27 C 10.15 18.129999 10.1 18.049999 9.94 18.049999 L 7 18.049999 C 6.91 18.049999 6.83 18.1 6.77 18.190001 L 5.7 21.07 C 4.99 20.889999 4.4 20.5 3.93 19.91 C 3.46 19.32 3.23 18.65 3.23 17.9 C 3.23 17.07 3.51 16.35 4.08 15.73 C 4.65 15.11 5.35 14.76 6.18 14.66 L 6.7 14.6 C 6.83 14.6 6.9 14.540001 6.9 14.42 L 6.96 13.91 C 7.07 12.83 7.53 11.92 8.34 11.189999 C 9.15 10.459999 10.11 10.09 11.2 10.09 C 12.29 10.09 13.24 10.459999 14.05 11.189999 C 14.86 11.92 15.33 12.83 15.45 13.91 L 15.51 14.49 C 15.51 14.6 15.57 14.66 15.69 14.66 L 17.299999 14.66 C 18.209999 14.66 18.98 14.98 19.620001 15.61 C 20.26 16.24 20.58 17 20.58 17.9 C 20.58 18.75 20.280001 19.49 19.690001 20.110001 C 19.1 20.73 18.370001 21.08 17.5 21.15 C 17.370001 21.15 17.299999 21.209999 17.299999 21.33 L 17.299999 22.700001 C 17.299999 22.809999 17.370001 22.870001 17.5 22.870001 C 18.83 22.83 19.959999 22.32 20.889999 21.360001 C 21.82 20.4 22.280001 19.25 22.280001 17.91 C 22.280001 17.17 22.139999 16.5 21.85 15.9 C 22.639999 14.939999 23.030001 13.84 23.030001 12.58 C 23.030001 11.639999 22.790001 10.77 22.32 9.959999 C 21.85 9.15 21.209999 8.51 20.4 8.040001 C 19.59 7.57 18.719999 7.33 17.780001 7.33 C 16.24 7.33 14.94 7.91 13.9 9.060001 C 13.09 8.630001 12.19 8.41 11.2 8.41 C 9.79 8.41 8.53 8.85 7.44 9.720001 C 6.35 10.59 5.65 11.709999 5.34 13.08 C 4.23 13.34 3.32 13.91 2.61 14.810001 C 1.9 15.71 1.52 16.75 1.52 17.9 Z M 9.61 27.48 C 9.6 27.629999 9.64 27.780001 9.75 27.92 C 9.86 28.059999 10.01 28.17 10.21 28.25 C 10.28 28.27 10.35 28.280001 10.42 28.280001 C 10.59 28.280001 10.76 28.23 10.93 28.129999 C 11.1 28.030001 11.21 27.870001 11.27 27.66 L 13.56 19.09 C 13.62 18.860001 13.6 18.639999 13.49 18.450001 C 13.38 18.25 13.22 18.120001 13 18.049999 C 12.77 17.98 12.55 18 12.35 18.120001 C 12.15 18.23 12.01 18.4 11.95 18.629999 L 9.64 27.23 C 9.62 27.299999 9.61 27.389999 9.61 27.48 Z M 9.94 5.630001 C 9.94 5.869999 10.02 6.059999 10.19 6.219999 L 10.83 6.880001 C 11 7.049999 11.2 7.130001 11.44 7.139999 C 11.68 7.139999 11.87 7.059999 12.01 6.880001 C 12.2 6.73 12.29 6.530001 12.29 6.280001 C 12.29 6.040001 12.21 5.85 12.04 5.690001 L 11.41 5.030001 C 11.24 4.869999 11.03 4.790001 10.8 4.790001 C 10.55 4.790001 10.34 4.869999 10.18 5.030001 C 10.02 5.190001 9.94 5.389999 9.94 5.630001 Z M 13.77 24.43 C 13.77 24.549999 13.81 24.67 13.88 24.809999 C 14.01 25.01 14.17 25.15 14.38 25.24 C 14.45 25.27 14.55 25.290001 14.68 25.290001 C 14.83 25.290001 14.94 25.27 15.01 25.23 C 15.21 25.15 15.35 24.950001 15.42 24.65 L 16.91 19.1 C 16.969999 18.860001 16.950001 18.65 16.84 18.450001 C 16.73 18.26 16.559999 18.129999 16.33 18.059999 C 16.1 17.99 15.88 18.01 15.69 18.129999 C 15.49 18.24 15.36 18.41 15.3 18.639999 L 13.8 24.200001 C 13.8 24.219999 13.79 24.26 13.78 24.309999 C 13.77 24.370001 13.77 24.4 13.77 24.43 Z M 15.3 10.040001 C 15.97 9.4 16.790001 9.07 17.780001 9.07 C 18.75 9.07 19.59 9.41 20.280001 10.09 C 20.969999 10.77 21.32 11.6 21.32 12.57 C 21.32 13.189999 21.15 13.810001 20.799999 14.42 C 19.809999 13.439999 18.639999 12.950001 17.299999 12.950001 L 16.99 12.950001 C 16.68 11.779999 16.110001 10.810001 15.3 10.040001 Z M 16.91 4.790001 C 16.91 5.02 17 5.219999 17.17 5.389999 C 17.34 5.559999 17.540001 5.65 17.77 5.65 C 18.01 5.65 18.200001 5.57 18.360001 5.4 C 18.52 5.23 18.59 5.030001 18.59 4.790001 L 18.59 2.73 C 18.59 2.49 18.51 2.290001 18.360001 2.120001 C 18.209999 1.950001 18.01 1.870001 17.77 1.870001 C 17.540001 1.870001 17.34 1.950001 17.17 2.120001 C 17 2.290001 16.91 2.49 16.91 2.73 L 16.91 4.790001 Z M 22.440001 7.07 C 22.440001 7.309999 22.530001 7.51 22.700001 7.67 C 22.84 7.84 23.030001 7.92 23.27 7.92 C 23.51 7.92 23.709999 7.84 23.870001 7.67 L 25.309999 6.219999 C 25.48 6.059999 25.57 5.869999 25.57 5.630001 C 25.57 5.389999 25.49 5.190001 25.32 5.02 C 25.15 4.85 24.950001 4.77 24.709999 4.77 C 24.49 4.77 24.299999 4.860001 24.139999 5.030001 L 22.700001 6.469999 C 22.530001 6.630001 22.440001 6.83 22.440001 7.07 Z M 23.25 18.93 C 23.25 19.15 23.33 19.35 23.49 19.530001 L 24.15 20.16 C 24.27 20.299999 24.459999 20.389999 24.690001 20.4 L 24.700001 20.41 C 24.709999 20.41 24.73 20.41 24.75 20.41 C 24.77 20.41 24.780001 20.41 24.799999 20.41 C 24.99 20.41 25.16 20.32 25.33 20.15 C 25.5 19.99 25.59 19.790001 25.59 19.549999 C 25.59 19.32 25.5 19.120001 25.33 18.940001 L 24.68 18.33 C 24.52 18.15 24.32 18.059999 24.1 18.059999 C 23.870001 18.059999 23.67 18.139999 23.5 18.309999 C 23.33 18.49 23.25 18.700001 23.25 18.93 Z M 24.700001 12.58 C 24.700001 12.810001 24.790001 13.01 24.969999 13.18 C 25.15 13.360001 25.35 13.450001 25.58 13.450001 L 27.610001 13.450001 C 27.84 13.450001 28.040001 13.360001 28.209999 13.189999 C 28.379999 13.02 28.469999 12.810001 28.469999 12.58 C 28.469999 12.35 28.389999 12.15 28.219999 11.99 C 28.049999 11.83 27.85 11.75 27.610001 11.75 L 25.58 11.75 C 25.33 11.75 25.120001 11.83 24.950001 11.99 C 24.780001 12.15 24.700001 12.35 24.700001 12.58 Z"/>
</svg>
