<?xml version="1.0" encoding="UTF-8"?>
<!-- Generated by Pixelmator Pro 3.6.18 -->
<svg width="30" height="30" viewBox="0 0 30 30" xmlns="http://www.w3.org/2000/svg">
    <path id="Path" fill="#000000" stroke="none" d="M 0.35 23.01 C 0.35 23.25 0.44 23.450001 0.62 23.610001 C 0.79 23.780001 0.99 23.860001 1.23 23.860001 L 7.11 23.860001 C 7.37 23.860001 7.59 23.950001 7.79 24.139999 C 7.99 24.33 8.09 24.559999 8.09 24.82 C 8.09 25.08 7.99 25.32 7.79 25.51 C 7.59 25.700001 7.37 25.799999 7.11 25.799999 C 6.85 25.799999 6.63 25.700001 6.43 25.5 C 6.25 25.34 6.05 25.26 5.82 25.26 C 5.58 25.26 5.38 25.34 5.22 25.5 C 5.06 25.66 4.98 25.860001 4.98 26.1 C 4.98 26.34 5.06 26.540001 5.22 26.700001 C 5.75 27.23 6.38 27.5 7.11 27.5 C 7.85 27.5 8.48 27.24 8.99 26.719999 C 9.51 26.200001 9.77 25.57 9.77 24.83 C 9.77 24.09 9.51 23.459999 8.99 22.940001 C 8.47 22.41 7.84 22.15 7.11 22.15 L 1.23 22.15 C 0.99 22.15 0.79 22.24 0.61 22.41 C 0.43 22.58 0.35 22.780001 0.35 23.01 Z M 0.35 20 C 0.35 20.219999 0.44 20.41 0.62 20.57 C 0.79 20.74 0.99 20.82 1.23 20.82 L 12.2 20.82 C 12.94 20.82 13.57 20.559999 14.09 20.040001 C 14.61 19.52 14.87 18.889999 14.87 18.15 C 14.87 17.41 14.61 16.790001 14.09 16.27 C 13.57 15.76 12.94 15.5 12.2 15.5 C 11.44 15.5 10.82 15.75 10.32 16.26 C 10.16 16.42 10.09 16.630001 10.09 16.869999 C 10.09 17.110001 10.17 17.310001 10.32 17.470001 C 10.47 17.619999 10.67 17.700001 10.92 17.700001 C 11.16 17.700001 11.36 17.619999 11.54 17.470001 C 11.73 17.279999 11.95 17.189999 12.21 17.189999 C 12.47 17.189999 12.7 17.279999 12.89 17.470001 C 13.08 17.66 13.18 17.889999 13.18 18.15 C 13.18 18.42 13.08 18.65 12.89 18.84 C 12.7 19.030001 12.47 19.129999 12.21 19.129999 L 1.23 19.129999 C 0.99 19.129999 0.79 19.219999 0.61 19.389999 C 0.43 19.57 0.35 19.77 0.35 20 Z M 3 17.65 C 3 17.73 3.06 17.77 3.17 17.77 L 4.6 17.77 C 4.67 17.77 4.73 17.720001 4.8 17.630001 C 5.02 17.09 5.37 16.639999 5.85 16.279999 C 6.32 15.93 6.85 15.73 7.45 15.68 L 7.98 15.610001 C 8.1 15.610001 8.17 15.549999 8.17 15.439999 L 8.24 14.92 C 8.35 13.84 8.8 12.939999 9.61 12.209999 C 10.42 11.48 11.37 11.119999 12.46 11.119999 C 13.56 11.119999 14.51 11.48 15.32 12.200001 C 16.129999 12.92 16.59 13.83 16.700001 14.91 L 16.77 15.49 C 16.77 15.610001 16.83 15.67 16.950001 15.67 L 18.58 15.67 C 19.48 15.67 20.25 15.98 20.879999 16.610001 C 21.51 17.24 21.83 18 21.83 18.879999 C 21.83 19.77 21.51 20.540001 20.879999 21.17 C 20.25 21.799999 19.48 22.120001 18.58 22.120001 L 11.68 22.120001 C 11.55 22.120001 11.49 22.18 11.49 22.299999 L 11.49 23.67 C 11.49 23.780001 11.55 23.84 11.68 23.84 L 18.58 23.84 C 19.469999 23.84 20.299999 23.620001 21.059999 23.17 C 21.82 22.73 22.42 22.120001 22.860001 21.360001 C 23.299999 20.6 23.52 19.77 23.52 18.879999 C 23.52 18.139999 23.379999 17.470001 23.1 16.85 C 23.860001 15.860001 24.23 14.75 24.23 13.540001 C 24.23 12.6 23.99 11.73 23.52 10.92 C 23.049999 10.110001 22.41 9.469999 21.6 9 C 20.790001 8.530001 19.92 8.290001 18.98 8.290001 C 17.440001 8.290001 16.15 8.869999 15.12 10.02 C 14.32 9.610001 13.43 9.41 12.45 9.41 C 11.04 9.41 9.8 9.85 8.72 10.720001 C 7.64 11.59 6.95 12.709999 6.66 14.060001 C 5.81 14.26 5.06 14.67 4.41 15.290001 C 3.76 15.91 3.3 16.639999 3.05 17.48 L 3.05 17.52 C 3.01 17.59 3 17.619999 3 17.65 Z M 11.18 6.619999 C 11.18 6.85 11.27 7.049999 11.45 7.219999 L 12.06 7.869999 C 12.22 8.030001 12.43 8.110001 12.67 8.110001 C 12.92 8.110001 13.12 8.030001 13.28 7.880001 C 13.44 7.73 13.52 7.530001 13.52 7.280001 C 13.52 7.040001 13.45 6.84 13.29 6.68 L 12.63 6.030001 C 12.47 5.860001 12.28 5.77 12.04 5.77 C 11.8 5.77 11.6 5.85 11.43 6.02 C 11.26 6.190001 11.18 6.389999 11.18 6.619999 Z M 16.5 11.029999 C 17.219999 10.35 18.040001 10.01 18.98 10.01 C 19.950001 10.01 20.780001 10.360001 21.49 11.060001 C 22.190001 11.76 22.540001 12.6 22.540001 13.57 C 22.540001 14.220001 22.370001 14.83 22.02 15.4 C 21.059999 14.439999 19.91 13.970001 18.559999 13.970001 L 18.219999 13.970001 C 17.99 12.880001 17.41 11.9 16.5 11.029999 Z M 18.120001 5.790001 C 18.120001 6.02 18.200001 6.219999 18.370001 6.380001 C 18.540001 6.540001 18.74 6.619999 18.969999 6.619999 C 19.209999 6.619999 19.41 6.540001 19.58 6.380001 C 19.75 6.219999 19.83 6.030001 19.83 5.790001 L 19.83 3.74 C 19.83 3.5 19.75 3.299999 19.58 3.129999 C 19.41 2.959999 19.209999 2.879999 18.969999 2.879999 C 18.73 2.879999 18.530001 2.959999 18.370001 3.129999 C 18.209999 3.299999 18.120001 3.5 18.120001 3.74 L 18.120001 5.790001 Z M 23.67 8.059999 C 23.67 8.299999 23.75 8.5 23.9 8.66 C 24.07 8.83 24.27 8.91 24.51 8.92 C 24.75 8.93 24.940001 8.84 25.08 8.66 L 26.540001 7.23 C 26.709999 7.059999 26.790001 6.860001 26.790001 6.619999 C 26.790001 6.389999 26.709999 6.190001 26.540001 6.02 C 26.370001 5.85 26.17 5.77 25.93 5.77 C 25.690001 5.77 25.49 5.84 25.33 6 L 23.9 7.469999 C 23.75 7.630001 23.67 7.82 23.67 8.059999 Z M 24.440001 19.889999 C 24.440001 20.120001 24.52 20.32 24.690001 20.49 L 25.33 21.139999 C 25.530001 21.299999 25.74 21.379999 25.950001 21.379999 C 26.139999 21.379999 26.34 21.299999 26.540001 21.139999 C 26.709999 20.969999 26.790001 20.77 26.790001 20.540001 C 26.790001 20.32 26.709999 20.120001 26.540001 19.93 L 25.9 19.280001 C 25.74 19.120001 25.540001 19.040001 25.32 19.040001 C 25.07 19.040001 24.860001 19.120001 24.690001 19.290001 C 24.52 19.450001 24.440001 19.65 24.440001 19.889999 Z M 25.950001 13.57 C 25.950001 13.810001 26.030001 14 26.200001 14.16 C 26.35 14.34 26.540001 14.42 26.77 14.42 L 28.790001 14.42 C 29.030001 14.42 29.23 14.34 29.4 14.17 C 29.57 14 29.65 13.799999 29.65 13.57 C 29.65 13.34 29.559999 13.139999 29.389999 12.970001 C 29.219999 12.799999 29.02 12.709999 28.790001 12.709999 L 26.77 12.709999 C 26.530001 12.709999 26.34 12.790001 26.18 12.959999 C 26.030001 13.130001 25.950001 13.33 25.950001 13.57 Z"/>
</svg>
