<?xml version="1.0" encoding="UTF-8"?>
<!-- Generated by Pixelmator Pro 3.6.18 -->
<svg width="30" height="30" viewBox="0 0 30 30" xmlns="http://www.w3.org/2000/svg">
    <path id="Path" fill="#000000" stroke="none" d="M 1.48 23.1 C 1.48 23.34 1.57 23.540001 1.75 23.700001 C 1.92 23.870001 2.12 23.950001 2.36 23.950001 L 8.24 23.950001 C 8.5 23.950001 8.72 24.040001 8.92 24.23 C 9.12 24.42 9.22 24.65 9.22 24.91 C 9.22 25.17 9.12 25.41 8.92 25.6 C 8.72 25.790001 8.5 25.889999 8.24 25.889999 C 7.98 25.889999 7.76 25.790001 7.56 25.59 C 7.38 25.43 7.18 25.35 6.95 25.35 C 6.71 25.35 6.51 25.43 6.35 25.59 C 6.19 25.75 6.11 25.950001 6.11 26.190001 C 6.11 26.43 6.19 26.629999 6.35 26.790001 C 6.88 27.32 7.51 27.59 8.24 27.59 C 8.98 27.59 9.61 27.33 10.12 26.809999 C 10.63 26.290001 10.9 25.66 10.9 24.92 C 10.9 24.18 10.64 23.549999 10.12 23.030001 C 9.6 22.51 8.97 22.25 8.24 22.25 L 2.36 22.25 C 2.12 22.25 1.92 22.33 1.74 22.5 C 1.57 22.67 1.48 22.870001 1.48 23.1 Z M 1.48 20.09 C 1.48 20.32 1.57 20.51 1.75 20.67 C 1.91 20.83 2.12 20.91 2.36 20.91 L 13.33 20.91 C 14.07 20.91 14.7 20.65 15.22 20.129999 C 15.74 19.610001 16 18.98 16 18.24 C 16 17.5 15.74 16.880001 15.22 16.360001 C 14.7 15.85 14.07 15.59 13.33 15.59 C 12.57 15.59 11.95 15.84 11.45 16.35 C 11.29 16.51 11.22 16.720001 11.22 16.959999 C 11.22 17.200001 11.3 17.4 11.45 17.560001 C 11.6 17.709999 11.8 17.790001 12.05 17.790001 C 12.29 17.790001 12.49 17.709999 12.67 17.560001 C 12.86 17.369999 13.08 17.279999 13.35 17.279999 C 13.62 17.279999 13.84 17.369999 14.03 17.560001 C 14.22 17.75 14.32 17.98 14.32 18.24 C 14.32 18.51 14.22 18.74 14.03 18.93 C 13.84 19.120001 13.61 19.219999 13.35 19.219999 L 2.36 19.219999 C 2.12 19.219999 1.92 19.309999 1.74 19.48 C 1.57 19.66 1.48 19.860001 1.48 20.09 Z M 7.27 13.549999 C 7.27 13.310001 7.36 13.110001 7.53 12.93 C 7.71 12.77 7.91 12.689999 8.13 12.689999 L 10.16 12.689999 C 10.39 12.689999 10.58 12.77 10.74 12.939999 C 10.9 13.110001 10.97 13.310001 10.97 13.549999 C 10.97 13.790001 10.89 13.99 10.74 14.15 C 10.58 14.32 10.39 14.4 10.16 14.4 L 8.13 14.4 C 7.89 14.4 7.69 14.32 7.52 14.15 C 7.35 13.98 7.27 13.779999 7.27 13.549999 Z M 10.12 6.630001 C 10.12 6.4 10.2 6.200001 10.35 6.02 C 10.54 5.860001 10.76 5.780001 10.99 5.780001 C 11.21 5.780001 11.41 5.860001 11.58 6.02 L 13.01 7.49 C 13.17 7.639999 13.25 7.84 13.25 8.08 C 13.25 8.32 13.17 8.52 13.01 8.68 C 12.85 8.84 12.65 8.92 12.42 8.92 C 12.18 8.92 11.98 8.84 11.83 8.68 L 10.36 7.25 C 10.2 7.08 10.12 6.880001 10.12 6.630001 Z M 12.68 13.43 L 12.68 13.360001 C 12.7 12.450001 12.95 11.610001 13.42 10.83 C 13.9 10.060001 14.53 9.450001 15.32 9 C 16.110001 8.549999 16.969999 8.33 17.889999 8.33 C 18.59 8.33 19.26 8.469999 19.91 8.75 C 20.549999 9.030001 21.110001 9.4 21.57 9.869999 C 22.040001 10.34 22.41 10.889999 22.68 11.529999 C 22.950001 12.17 23.09 12.85 23.09 13.549999 C 23.09 14.49 22.860001 15.35 22.4 16.15 C 21.940001 16.950001 21.309999 17.58 20.52 18.040001 C 19.73 18.51 18.860001 18.74 17.92 18.75 L 17.709999 18.75 C 17.639999 18.75 17.58 18.73 17.540001 18.68 C 17.49 18.629999 17.469999 18.57 17.469999 18.5 L 17.469999 17.279999 C 17.469999 17.15 17.540001 17.08 17.690001 17.08 L 17.93 17.08 C 18.889999 17.07 19.719999 16.73 20.4 16.029999 C 21.08 15.34 21.43 14.51 21.43 13.540001 C 21.43 12.58 21.08 11.76 20.389999 11.07 C 19.700001 10.389999 18.870001 10.049999 17.889999 10.049999 C 16.950001 10.049999 16.129999 10.369999 15.45 11.029999 C 14.77 11.68 14.41 12.470001 14.37 13.4 C 14.37 13.459999 14.34 13.51 14.29 13.57 C 14.24 13.630001 14.15 13.66 14.03 13.66 L 12.9 13.66 C 12.75 13.67 12.68 13.59 12.68 13.43 Z M 17.030001 23.309999 L 17.030001 21.32 C 17.030001 21.08 17.110001 20.879999 17.280001 20.719999 C 17.450001 20.559999 17.65 20.48 17.879999 20.48 C 18.129999 20.48 18.33 20.559999 18.49 20.719999 C 18.65 20.879999 18.73 21.08 18.73 21.32 L 18.73 23.309999 C 18.73 23.549999 18.65 23.76 18.48 23.93 C 18.309999 24.1 18.110001 24.18 17.879999 24.18 C 17.639999 24.18 17.440001 24.1 17.280001 23.93 C 17.120001 23.76 17.030001 23.549999 17.030001 23.309999 Z M 17.030001 5.83 L 17.030001 3.780001 C 17.030001 3.549999 17.110001 3.35 17.280001 3.18 C 17.450001 3.01 17.65 2.93 17.879999 2.93 C 18.120001 2.93 18.32 3.01 18.48 3.18 C 18.639999 3.35 18.73 3.549999 18.73 3.780001 L 18.73 5.82 C 18.73 6.049999 18.65 6.24 18.48 6.4 C 18.309999 6.549999 18.110001 6.630001 17.879999 6.630001 C 17.639999 6.630001 17.440001 6.549999 17.280001 6.4 C 17.120001 6.25 17.030001 6.059999 17.030001 5.83 Z M 22.559999 19.01 C 22.559999 18.780001 22.639999 18.59 22.790001 18.450001 C 22.940001 18.290001 23.129999 18.219999 23.360001 18.219999 C 23.6 18.219999 23.799999 18.299999 23.959999 18.450001 L 25.41 19.870001 C 25.57 20.040001 25.65 20.25 25.65 20.48 C 25.65 20.709999 25.57 20.91 25.41 21.07 C 25.01 21.379999 24.610001 21.379999 24.209999 21.07 L 22.790001 19.639999 C 22.629999 19.48 22.559999 19.26 22.559999 19.01 Z M 22.559999 8.08 C 22.559999 7.83 22.639999 7.630001 22.790001 7.49 L 24.209999 6.02 C 24.389999 5.860001 24.58 5.780001 24.799999 5.780001 C 25.030001 5.780001 25.23 5.860001 25.4 6.030001 C 25.57 6.200001 25.65 6.4 25.65 6.630001 C 25.65 6.880001 25.57 7.09 25.41 7.25 L 23.959999 8.68 C 23.780001 8.84 23.58 8.92 23.360001 8.92 C 23.129999 8.92 22.950001 8.84 22.790001 8.68 C 22.629999 8.52 22.559999 8.32 22.559999 8.08 Z M 24.82 13.549999 C 24.82 13.310001 24.9 13.110001 25.059999 12.93 C 25.219999 12.77 25.41 12.689999 25.629999 12.689999 L 27.65 12.689999 C 27.879999 12.689999 28.08 12.779999 28.26 12.950001 C 28.440001 13.119999 28.52 13.32 28.52 13.549999 C 28.52 13.779999 28.43 13.98 28.26 14.15 C 28.08 14.32 27.879999 14.4 27.65 14.4 L 25.629999 14.4 C 25.4 14.4 25.209999 14.32 25.049999 14.15 C 24.889999 13.99 24.82 13.790001 24.82 13.549999 Z"/>
</svg>
