<?xml version="1.0" encoding="UTF-8"?>
<!-- Generated by Pixelmator Pro 3.6.18 -->
<svg width="30" height="30" viewBox="0 0 30 30" xmlns="http://www.w3.org/2000/svg">
    <path id="Path" fill="#000000" stroke="none" d="M 0.45 22.969999 C 0.45 23.209999 0.53 23.42 0.69 23.58 C 1.13 23.76 1.42 23.85 1.57 23.85 L 9.45 23.85 C 9.69 23.85 9.89 23.76 10.05 23.59 C 10.22 23.42 10.3 23.209999 10.3 22.98 C 10.3 22.75 10.22 22.549999 10.05 22.389999 C 9.88 22.23 9.68 22.15 9.45 22.15 L 1.57 22.15 C 1.31 22.15 1.05 22.23 0.81 22.389999 C 0.57 22.549999 0.45 22.75 0.45 22.969999 Z M 1.84 19.969999 C 1.84 20.209999 1.92 20.4 2.09 20.559999 C 2.24 20.73 2.43 20.82 2.67 20.82 L 12.07 20.82 C 12.31 20.82 12.51 20.74 12.68 20.57 C 12.85 20.4 12.93 20.200001 12.93 19.969999 C 12.93 19.73 12.85 19.530001 12.68 19.360001 C 12.51 19.190001 12.31 19.110001 12.07 19.110001 L 2.67 19.110001 C 2.44 19.110001 2.24 19.190001 2.08 19.360001 C 1.92 19.530001 1.84 19.73 1.84 19.969999 Z M 2.89 17.6 C 2.89 17.689999 2.95 17.73 3.06 17.73 L 4.45 17.73 C 4.57 17.73 4.64 17.689999 4.67 17.6 C 4.93 17.07 5.29 16.630001 5.76 16.279999 C 6.23 15.93 6.76 15.73 7.34 15.66 L 7.88 15.66 C 7.99 15.66 8.04 15.6 8.04 15.470001 L 8.11 14.91 C 8.18 14.200001 8.41 13.549999 8.8 12.959999 C 9.19 12.380001 9.7 11.92 10.33 11.59 C 10.96 11.26 11.63 11.09 12.35 11.09 C 13.44 11.09 14.39 11.459999 15.2 12.189999 C 16.01 12.92 16.469999 13.83 16.59 14.91 L 16.66 15.470001 C 16.66 15.59 16.719999 15.66 16.84 15.66 L 18.440001 15.66 C 19.33 15.66 20.09 15.98 20.74 16.619999 C 21.389999 17.26 21.709999 18.01 21.709999 18.889999 C 21.709999 19.790001 21.389999 20.559999 20.74 21.200001 C 20.1 21.84 19.33 22.16 18.43 22.16 L 11.54 22.16 C 11.43 22.16 11.37 22.219999 11.37 22.35 L 11.37 23.68 C 11.37 23.799999 11.43 23.860001 11.54 23.860001 L 18.43 23.860001 C 19.33 23.860001 20.16 23.639999 20.92 23.190001 C 21.68 22.75 22.290001 22.139999 22.73 21.379999 C 23.17 20.620001 23.4 19.790001 23.4 18.889999 C 23.4 18.16 23.26 17.5 22.969999 16.880001 C 23.75 15.92 24.129999 14.82 24.129999 13.6 C 24.129999 12.66 23.889999 11.790001 23.42 10.98 C 22.950001 10.17 22.309999 9.530001 21.5 9.059999 C 20.690001 8.59 19.809999 8.35 18.870001 8.35 C 18.139999 8.35 17.440001 8.5 16.77 8.799999 C 16.1 9.1 15.52 9.51 15.03 10.049999 C 14.2 9.619999 13.3 9.4 12.33 9.4 C 10.92 9.4 9.66 9.84 8.57 10.709999 C 7.48 11.58 6.78 12.700001 6.48 14.07 C 5.63 14.279999 4.88 14.700001 4.23 15.32 C 3.58 15.939999 3.13 16.68 2.88 17.529999 C 2.9 17.549999 2.89 17.57 2.89 17.6 Z M 3.6 26.16 C 3.6 26.4 3.69 26.59 3.86 26.75 C 4.02 26.92 4.22 27 4.45 27 L 13.87 27 C 14.1 27 14.3 26.92 14.46 26.75 C 14.62 26.58 14.7 26.389999 14.7 26.15 C 14.7 25.9 14.62 25.690001 14.46 25.530001 C 14.3 25.370001 14.1 25.280001 13.86 25.280001 L 4.45 25.280001 C 4.21 25.280001 4.01 25.360001 3.85 25.530001 C 3.69 25.700001 3.6 25.91 3.6 26.16 Z M 11.09 6.65 C 11.09 6.9 11.17 7.1 11.33 7.25 L 11.97 7.91 C 12.13 8.07 12.33 8.15 12.57 8.15 C 12.83 8.15 13.03 8.07 13.19 7.91 C 13.35 7.75 13.43 7.549999 13.43 7.299999 C 13.43 7.07 13.35 6.869999 13.19 6.709999 L 12.54 6.059999 C 12.37 5.889999 12.18 5.809999 11.97 5.809999 C 11.72 5.809999 11.51 5.889999 11.34 6.059999 C 11.17 6.23 11.09 6.42 11.09 6.65 Z M 16.450001 11.029999 C 17.110001 10.4 17.93 10.08 18.9 10.08 C 19.870001 10.08 20.700001 10.42 21.389999 11.110001 C 22.07 11.790001 22.42 12.619999 22.42 13.6 C 22.42 14.27 22.27 14.869999 21.959999 15.41 C 21.02 14.459999 19.85 13.98 18.459999 13.98 L 18.16 13.98 C 17.870001 12.83 17.299999 11.85 16.450001 11.029999 Z M 18.049999 5.809999 C 18.049999 6.049999 18.129999 6.24 18.299999 6.4 C 18.469999 6.559999 18.66 6.630001 18.9 6.630001 C 19.15 6.630001 19.35 6.549999 19.5 6.4 C 19.65 6.25 19.73 6.049999 19.73 5.799999 L 19.73 3.76 C 19.73 3.52 19.65 3.309999 19.5 3.15 C 19.34 2.98 19.139999 2.9 18.9 2.9 C 18.67 2.9 18.469999 2.98 18.299999 3.15 C 18.129999 3.32 18.049999 3.52 18.049999 3.76 L 18.049999 5.809999 Z M 23.57 8.09 C 23.57 8.33 23.65 8.530001 23.82 8.690001 C 23.940001 8.85 24.15 8.93 24.42 8.93 C 24.690001 8.93 24.889999 8.85 25.01 8.690001 L 26.469999 7.25 C 26.629999 7.1 26.709999 6.889999 26.709999 6.630001 C 26.709999 6.4 26.629999 6.200001 26.459999 6.030001 C 26.290001 5.860001 26.09 5.780001 25.860001 5.780001 C 25.629999 5.780001 25.42 5.860001 25.25 6.01 L 23.83 7.5 C 23.66 7.67 23.57 7.860001 23.57 8.09 Z M 24.370001 19.950001 C 24.370001 20.190001 24.450001 20.389999 24.6 20.549999 L 25.26 21.18 C 25.5 21.360001 25.709999 21.450001 25.870001 21.450001 C 26.030001 21.450001 26.24 21.360001 26.48 21.18 C 26.639999 21.02 26.719999 20.82 26.719999 20.58 C 26.719999 20.35 26.639999 20.15 26.48 19.969999 L 25.84 19.360001 C 25.65 19.190001 25.440001 19.1 25.190001 19.1 C 24.950001 19.1 24.76 19.18 24.6 19.34 C 24.450001 19.51 24.370001 19.709999 24.370001 19.950001 Z M 25.809999 13.630001 C 25.809999 13.869999 25.9 14.08 26.08 14.24 C 26.26 14.41 26.459999 14.49 26.68 14.49 L 28.709999 14.49 C 28.940001 14.49 29.129999 14.41 29.299999 14.24 C 29.469999 14.07 29.549999 13.869999 29.549999 13.630001 C 29.549999 13.41 29.469999 13.220001 29.309999 13.060001 C 29.15 12.91 28.950001 12.83 28.719999 12.83 L 26.690001 12.83 C 26.450001 12.83 26.24 12.91 26.07 13.060001 C 25.9 13.220001 25.809999 13.41 25.809999 13.630001 Z"/>
</svg>
