<?xml version="1.0" encoding="UTF-8"?>
<!-- Generated by Pixelmator Pro 3.6.18 -->
<svg width="30" height="30" viewBox="0 0 30 30" xmlns="http://www.w3.org/2000/svg">
    <path id="Path" fill="#000000" stroke="none" d="M 2.32 18.85 C 2.32 19.09 2.41 19.290001 2.58 19.450001 C 2.74 19.619999 2.94 19.700001 3.18 19.700001 L 12.6 19.700001 C 12.83 19.700001 13.03 19.619999 13.19 19.450001 C 13.35 19.279999 13.43 19.08 13.43 18.85 C 13.43 18.619999 13.35 18.42 13.2 18.26 C 13.04 18.1 12.85 18.02 12.61 18.02 L 3.18 18.02 C 2.94 18.02 2.74 18.1 2.57 18.26 C 2.4 18.42 2.32 18.619999 2.32 18.85 Z M 2.65 25 C 2.65 25.24 2.73 25.440001 2.9 25.6 C 3.06 25.77 3.26 25.85 3.5 25.85 L 12.93 25.85 C 13.17 25.85 13.37 25.77 13.54 25.6 C 13.71 25.43 13.79 25.23 13.79 25 C 13.79 24.77 13.71 24.57 13.54 24.41 C 13.37 24.25 13.17 24.17 12.93 24.17 L 3.51 24.17 C 3.27 24.17 3.07 24.25 2.91 24.41 C 2.74 24.57 2.65 24.77 2.65 25 Z M 4.02 21.9 C 4.02 22.139999 4.1 22.33 4.27 22.49 C 4.44 22.65 4.65 22.719999 4.9 22.719999 L 14.3 22.719999 C 14.54 22.719999 14.73 22.639999 14.89 22.49 C 15.05 22.33 15.12 22.139999 15.12 21.9 C 15.12 21.65 15.04 21.450001 14.89 21.290001 C 14.73 21.129999 14.54 21.049999 14.3 21.049999 L 4.9 21.049999 C 4.65 21.049999 4.44 21.129999 4.27 21.290001 C 4.11 21.450001 4.02 21.65 4.02 21.9 Z M 6.45 15.549999 C 6.45 15.310001 6.54 15.110001 6.71 14.93 C 6.88 14.77 7.09 14.689999 7.31 14.689999 L 9.34 14.689999 C 9.57 14.689999 9.76 14.77 9.92 14.939999 C 10.08 15.110001 10.15 15.310001 10.15 15.549999 C 10.15 15.790001 10.07 15.99 9.92 16.15 C 9.76 16.32 9.57 16.4 9.34 16.4 L 7.31 16.4 C 7.07 16.4 6.87 16.32 6.7 16.15 C 6.53 15.98 6.45 15.779999 6.45 15.549999 Z M 9.31 8.630001 C 9.31 8.41 9.39 8.200001 9.55 8.02 C 9.74 7.860001 9.95 7.780001 10.18 7.780001 C 10.4 7.780001 10.6 7.860001 10.77 8.02 L 12.19 9.49 C 12.35 9.639999 12.43 9.84 12.43 10.08 C 12.43 10.32 12.35 10.52 12.19 10.68 C 12.03 10.84 11.83 10.92 11.59 10.92 C 11.35 10.92 11.15 10.84 11 10.68 L 9.55 9.25 C 9.39 9.07 9.31 8.869999 9.31 8.630001 Z M 11.86 15.43 L 11.86 15.360001 C 11.88 14.450001 12.13 13.610001 12.6 12.83 C 13.07 12.060001 13.71 11.450001 14.5 11 C 15.29 10.549999 16.15 10.33 17.07 10.33 C 17.77 10.33 18.440001 10.469999 19.09 10.75 C 19.73 11.030001 20.290001 11.4 20.75 11.869999 C 21.219999 12.34 21.59 12.889999 21.860001 13.529999 C 22.129999 14.17 22.27 14.85 22.27 15.549999 C 22.27 16.49 22.040001 17.35 21.58 18.15 C 21.120001 18.950001 20.49 19.58 19.700001 20.040001 C 18.91 20.51 18.040001 20.74 17.1 20.75 L 16.9 20.75 C 16.83 20.75 16.77 20.73 16.719999 20.68 C 16.67 20.629999 16.639999 20.57 16.639999 20.5 L 16.639999 19.279999 C 16.639999 19.15 16.709999 19.08 16.860001 19.08 L 17.1 19.08 C 18.059999 19.07 18.889999 18.73 19.57 18.029999 C 20.25 17.34 20.6 16.51 20.6 15.540001 C 20.6 14.58 20.25 13.76 19.559999 13.07 C 18.870001 12.389999 18.040001 12.049999 17.059999 12.049999 C 16.120001 12.049999 15.3 12.369999 14.62 13.029999 C 13.94 13.68 13.58 14.470001 13.54 15.4 C 13.54 15.459999 13.52 15.51 13.47 15.57 C 13.42 15.630001 13.34 15.66 13.22 15.66 L 12.08 15.66 C 11.93 15.67 11.86 15.59 11.86 15.43 Z M 16.23 25.309999 L 16.23 23.32 C 16.23 23.08 16.309999 22.879999 16.469999 22.719999 C 16.629999 22.559999 16.83 22.48 17.07 22.48 C 17.309999 22.48 17.52 22.559999 17.68 22.719999 C 17.84 22.879999 17.92 23.08 17.92 23.32 L 17.92 25.309999 C 17.92 25.549999 17.84 25.76 17.67 25.93 C 17.5 26.1 17.299999 26.18 17.07 26.18 C 16.83 26.18 16.629999 26.1 16.469999 25.93 C 16.309999 25.76 16.23 25.559999 16.23 25.309999 Z M 16.23 7.83 L 16.23 5.780001 C 16.23 5.540001 16.309999 5.34 16.48 5.18 C 16.65 5.02 16.84 4.93 17.08 4.93 C 17.309999 4.93 17.51 5.01 17.68 5.18 C 17.85 5.35 17.93 5.549999 17.93 5.780001 L 17.93 7.82 C 17.93 8.049999 17.85 8.24 17.68 8.4 C 17.51 8.549999 17.309999 8.630001 17.08 8.630001 C 16.84 8.630001 16.639999 8.549999 16.48 8.4 C 16.309999 8.25 16.23 8.059999 16.23 7.83 Z M 21.74 21.01 C 21.74 20.780001 21.809999 20.59 21.969999 20.450001 C 22.120001 20.290001 22.309999 20.219999 22.540001 20.219999 C 22.780001 20.219999 22.98 20.299999 23.139999 20.450001 L 24.59 21.870001 C 24.75 22.040001 24.83 22.25 24.83 22.48 C 24.83 22.709999 24.75 22.91 24.59 23.07 C 24.190001 23.379999 23.790001 23.379999 23.389999 23.07 L 21.969999 21.639999 C 21.82 21.48 21.74 21.26 21.74 21.01 Z M 21.74 10.08 C 21.74 9.83 21.809999 9.630001 21.969999 9.49 L 23.389999 8.02 C 23.57 7.860001 23.76 7.780001 23.98 7.780001 C 24.219999 7.780001 24.42 7.860001 24.58 8.030001 C 24.75 8.200001 24.83 8.4 24.83 8.630001 C 24.83 8.880001 24.75 9.09 24.59 9.25 L 23.139999 10.68 C 22.959999 10.84 22.76 10.92 22.540001 10.92 C 22.309999 10.92 22.129999 10.84 21.969999 10.68 C 21.809999 10.52 21.74 10.32 21.74 10.08 Z M 24 15.549999 C 24 15.32 24.08 15.110001 24.25 14.93 C 24.41 14.77 24.6 14.689999 24.809999 14.689999 L 26.84 14.689999 C 27.07 14.689999 27.27 14.779999 27.450001 14.950001 C 27.620001 15.119999 27.709999 15.32 27.709999 15.549999 C 27.709999 15.779999 27.620001 15.98 27.450001 16.15 C 27.27 16.32 27.07 16.4 26.84 16.4 L 24.809999 16.4 C 24.58 16.4 24.389999 16.32 24.23 16.15 C 24.08 15.99 24 15.790001 24 15.549999 Z"/>
</svg>
