<?xml version="1.0" encoding="UTF-8"?>
<!-- Generated by Pixelmator Pro 3.6.18 -->
<svg width="30" height="30" viewBox="0 0 30 30" xmlns="http://www.w3.org/2000/svg">
    <path id="Path" fill="#000000" stroke="none" d="M 1.58 17.93 C 1.58 18.790001 1.79 19.6 2.22 20.34 C 2.64 21.08 3.22 21.68 3.96 22.129999 C 4.69 22.58 5.5 22.82 6.36 22.84 C 6.47 22.84 6.53 22.780001 6.53 22.67 L 6.53 21.34 C 6.53 21.219999 6.47 21.15 6.36 21.15 C 5.51 21.110001 4.78 20.77 4.18 20.129999 C 3.58 19.49 3.28 18.76 3.28 17.92 C 3.28 17.1 3.56 16.380001 4.13 15.76 C 4.7 15.15 5.39 14.790001 6.23 14.689999 L 6.76 14.630001 C 6.88 14.630001 6.94 14.57 6.94 14.439999 L 7.02 13.93 C 7.13 12.84 7.58 11.93 8.38 11.200001 C 9.18 10.470001 10.13 10.110001 11.23 10.110001 C 12.32 10.110001 13.27 10.470001 14.08 11.200001 C 14.9 11.93 15.36 12.83 15.46 13.9 L 15.53 14.48 C 15.53 14.59 15.59 14.65 15.7 14.65 L 17.309999 14.65 C 18.209999 14.65 18.98 14.970001 19.620001 15.61 C 20.26 16.25 20.58 17.01 20.58 17.9 C 20.58 18.74 20.280001 19.469999 19.68 20.110001 C 19.08 20.74 18.35 21.08 17.51 21.129999 C 17.389999 21.129999 17.32 21.190001 17.32 21.32 L 17.32 22.65 C 17.32 22.76 17.379999 22.82 17.51 22.82 C 18.84 22.780001 19.959999 22.280001 20.889999 21.32 C 21.82 20.360001 22.280001 19.23 22.280001 17.91 C 22.280001 17.15 22.139999 16.48 21.85 15.88 C 22.6 14.950001 23 13.85 23 12.6 C 23 11.66 22.77 10.790001 22.299999 9.99 C 21.83 9.189999 21.190001 8.549999 20.389999 8.08 C 19.59 7.610001 18.709999 7.380001 17.77 7.380001 C 16.23 7.380001 14.94 7.959999 13.9 9.110001 C 13.09 8.67 12.19 8.450001 11.21 8.450001 C 9.8 8.450001 8.56 8.889999 7.47 9.76 C 6.38 10.630001 5.69 11.75 5.38 13.1 C 4.26 13.380001 3.35 13.959999 2.64 14.85 C 1.93 15.75 1.58 16.77 1.58 17.93 Z M 7.06 25.610001 C 7.06 25.82 7.14 26.01 7.3 26.18 C 7.48 26.34 7.67 26.42 7.88 26.42 C 8.12 26.42 8.31 26.34 8.47 26.190001 C 8.63 26.030001 8.7 25.84 8.7 25.610001 C 8.7 25.370001 8.62 25.18 8.46 25.02 C 8.3 24.860001 8.11 24.790001 7.87 24.790001 C 7.63 24.790001 7.44 24.870001 7.28 25.02 C 7.14 25.17 7.06 25.370001 7.06 25.610001 Z M 7.92 21.98 C 7.92 22.219999 8 22.42 8.16 22.59 C 8.32 22.76 8.51 22.84 8.75 22.84 C 8.98 22.84 9.18 22.76 9.34 22.59 C 9.5 22.42 9.58 22.219999 9.58 21.98 C 9.58 21.75 9.5 21.559999 9.34 21.4 C 9.18 21.24 8.99 21.16 8.75 21.16 C 8.52 21.16 8.32 21.24 8.16 21.4 C 8 21.559999 7.92 21.76 7.92 21.98 Z M 9.82 27.559999 C 9.82 27.780001 9.9 27.969999 10.06 28.129999 C 10.23 28.299999 10.42 28.379999 10.64 28.379999 C 10.88 28.379999 11.08 28.299999 11.24 28.15 C 11.41 27.99 11.49 27.799999 11.49 27.559999 C 11.49 27.32 11.41 27.120001 11.24 26.959999 C 11.07 26.790001 10.87 26.709999 10.64 26.709999 C 10.42 26.709999 10.23 26.790001 10.06 26.959999 C 9.9 27.129999 9.82 27.33 9.82 27.559999 Z M 9.97 5.68 C 9.97 5.92 10.05 6.119999 10.21 6.27 L 10.87 6.93 C 11.03 7.09 11.21 7.18 11.4 7.18 C 11.61 7.209999 11.81 7.139999 12.01 6.959999 C 12.21 6.780001 12.31 6.57 12.31 6.33 C 12.31 6.09 12.23 5.869999 12.07 5.690001 L 11.43 5.08 C 11.28 4.91 11.09 4.83 10.85 4.83 C 10.6 4.83 10.39 4.91 10.22 5.08 C 10.05 5.24 9.97 5.440001 9.97 5.68 Z M 10.67 23.9 C 10.67 24.120001 10.75 24.32 10.92 24.5 C 11.08 24.66 11.27 24.74 11.49 24.74 C 11.73 24.74 11.93 24.66 12.1 24.5 C 12.27 24.34 12.35 24.139999 12.35 23.9 C 12.35 23.67 12.27 23.469999 12.1 23.299999 C 11.93 23.129999 11.73 23.049999 11.49 23.049999 C 11.27 23.049999 11.07 23.129999 10.91 23.299999 C 10.75 23.469999 10.67 23.67 10.67 23.9 Z M 11.1 20.299999 C 11.1 20.530001 11.18 20.719999 11.34 20.879999 C 11.5 21.040001 11.7 21.120001 11.92 21.120001 C 12.16 21.120001 12.36 21.040001 12.52 20.879999 C 12.69 20.719999 12.77 20.530001 12.77 20.290001 C 12.77 20.059999 12.69 19.860001 12.52 19.700001 C 12.35 19.540001 12.15 19.459999 11.92 19.459999 C 11.69 19.459999 11.5 19.540001 11.34 19.700001 C 11.18 19.860001 11.1 20.07 11.1 20.299999 Z M 13.47 25.610001 C 13.47 25.82 13.55 26.01 13.7 26.18 C 13.87 26.34 14.08 26.42 14.3 26.42 C 14.54 26.42 14.73 26.34 14.89 26.190001 C 15.05 26.030001 15.12 25.84 15.12 25.610001 C 15.12 25.370001 15.04 25.18 14.89 25.02 C 14.73 24.860001 14.54 24.790001 14.3 24.790001 C 14.06 24.790001 13.86 24.870001 13.7 25.030001 C 13.54 25.190001 13.47 25.379999 13.47 25.610001 Z M 14.32 21.98 C 14.32 22.219999 14.4 22.42 14.56 22.59 C 14.72 22.76 14.92 22.84 15.15 22.84 C 15.38 22.84 15.58 22.76 15.74 22.59 C 15.9 22.42 15.98 22.219999 15.98 21.98 C 15.98 21.75 15.9 21.559999 15.74 21.4 C 15.58 21.24 15.39 21.16 15.15 21.16 C 14.91 21.16 14.72 21.24 14.56 21.4 C 14.4 21.559999 14.32 21.76 14.32 21.98 Z M 15.3 10.060001 C 15.99 9.4 16.809999 9.07 17.77 9.07 C 18.74 9.07 19.57 9.42 20.25 10.110001 C 20.940001 10.799999 21.280001 11.639999 21.280001 12.6 C 21.280001 13.220001 21.110001 13.84 20.77 14.439999 C 19.82 13.48 18.66 13 17.299999 13 L 16.98 13 C 16.68 11.83 16.120001 10.85 15.3 10.060001 Z M 16.9 4.84 C 16.9 5.07 16.98 5.27 17.15 5.42 C 17.32 5.57 17.52 5.65 17.76 5.65 C 18 5.65 18.190001 5.57 18.35 5.42 C 18.51 5.26 18.58 5.07 18.58 4.84 L 18.58 2.799999 C 18.58 2.559999 18.5 2.360001 18.34 2.190001 C 18.18 2.02 18 1.940001 17.77 1.940001 C 17.540001 1.940001 17.34 2.030001 17.17 2.200001 C 17 2.370001 16.91 2.57 16.91 2.799999 L 16.91 4.84 Z M 22.42 7.110001 C 22.42 7.34 22.5 7.540001 22.67 7.700001 C 22.82 7.860001 23.01 7.940001 23.23 7.959999 C 23.450001 7.98 23.66 7.889999 23.85 7.700001 L 25.280001 6.27 C 25.459999 6.09 25.540001 5.889999 25.540001 5.66 C 25.540001 5.42 25.450001 5.219999 25.280001 5.049999 C 25.110001 4.880001 24.91 4.799999 24.68 4.799999 C 24.459999 4.799999 24.27 4.880001 24.1 5.049999 L 22.67 6.51 C 22.5 6.67 22.42 6.869999 22.42 7.110001 Z M 23.219999 18.91 C 23.219999 19.16 23.299999 19.370001 23.459999 19.530001 L 24.1 20.16 C 24.34 20.32 24.559999 20.4 24.74 20.4 C 24.950001 20.4 25.129999 20.309999 25.299999 20.139999 C 25.469999 19.969999 25.549999 19.76 25.549999 19.530001 C 25.549999 19.299999 25.459999 19.110001 25.290001 18.950001 L 24.67 18.299999 C 24.49 18.139999 24.290001 18.059999 24.059999 18.059999 C 23.83 18.059999 23.629999 18.139999 23.469999 18.309999 C 23.299999 18.469999 23.219999 18.67 23.219999 18.91 Z M 24.67 12.6 C 24.67 12.84 24.76 13.029999 24.93 13.189999 C 25.1 13.369999 25.309999 13.459999 25.549999 13.459999 L 27.57 13.459999 C 27.799999 13.459999 28 13.380001 28.17 13.209999 C 28.34 13.040001 28.42 12.84 28.42 12.6 C 28.42 12.360001 28.34 12.16 28.17 12 C 28 11.84 27.799999 11.75 27.57 11.75 L 25.549999 11.75 C 25.309999 11.75 25.110001 11.83 24.93 12 C 24.75 12.17 24.67 12.369999 24.67 12.6 Z"/>
</svg>
