<?xml version="1.0" encoding="UTF-8"?>
<!-- Generated by Pixelmator Pro 3.6.18 -->
<svg width="30" height="30" viewBox="0 0 30 30" xmlns="http://www.w3.org/2000/svg">
    <path id="Path" fill="#000000" stroke="none" d="M 1.56 19.9 C 1.56 20.799999 1.78 21.629999 2.22 22.389999 C 2.66 23.15 3.26 23.75 4.02 24.190001 C 4.78 24.629999 5.6 24.85 6.49 24.85 L 17.32 24.85 C 18.209999 24.85 19.040001 24.629999 19.799999 24.190001 C 20.559999 23.75 21.17 23.15 21.610001 22.389999 C 22.049999 21.629999 22.280001 20.799999 22.280001 19.9 C 22.280001 19.24 22.139999 18.57 21.860001 17.9 C 22.620001 16.98 23 15.869999 23 14.6 C 23 13.889999 22.860001 13.209999 22.59 12.560001 C 22.32 11.91 21.940001 11.360001 21.469999 10.889999 C 21 10.42 20.450001 10.040001 19.799999 9.77 C 19.15 9.49 18.469999 9.360001 17.76 9.360001 C 16.280001 9.360001 14.99 9.940001 13.88 11.1 C 13.11 10.66 12.21 10.440001 11.18 10.440001 C 9.77 10.440001 8.53 10.880001 7.45 11.75 C 6.37 12.619999 5.67 13.74 5.37 15.1 C 4.25 15.360001 3.34 15.93 2.63 16.83 C 1.92 17.73 1.56 18.75 1.56 19.9 Z M 3.27 19.9 C 3.27 19.059999 3.55 18.34 4.11 17.73 C 4.67 17.119999 5.37 16.77 6.21 16.67 L 6.71 16.639999 C 6.83 16.639999 6.9 16.58 6.9 16.459999 L 6.97 15.92 C 7.11 14.84 7.58 13.93 8.38 13.209999 C 9.18 12.48 10.12 12.119999 11.19 12.119999 C 12.29 12.119999 13.25 12.49 14.06 13.220001 C 14.88 13.950001 15.33 14.85 15.43 15.93 L 15.5 16.51 C 15.52 16.619999 15.59 16.68 15.71 16.68 L 17.32 16.68 C 18.200001 16.68 18.959999 17 19.6 17.639999 C 20.24 18.279999 20.559999 19.030001 20.559999 19.91 C 20.559999 20.82 20.24 21.59 19.610001 22.23 C 18.98 22.870001 18.209999 23.190001 17.33 23.190001 L 6.49 23.190001 C 5.61 23.190001 4.86 22.870001 4.22 22.219999 C 3.59 21.57 3.27 20.799999 3.27 19.9 Z M 9.97 7.630001 C 9.97 7.869999 10.05 8.08 10.21 8.26 L 10.87 8.9 C 11.12 9.09 11.33 9.17 11.51 9.15 C 11.72 9.15 11.9 9.059999 12.06 8.889999 C 12.22 8.719999 12.3 8.51 12.3 8.27 C 12.3 8.030001 12.21 7.83 12.04 7.68 L 11.45 7.02 C 11.27 6.860001 11.07 6.780001 10.84 6.780001 C 10.6 6.780001 10.39 6.860001 10.22 7.030001 C 10.05 7.190001 9.97 7.389999 9.97 7.630001 Z M 15.31 12.060001 C 16 11.389999 16.82 11.060001 17.76 11.060001 C 18.75 11.060001 19.59 11.4 20.280001 12.09 C 20.969999 12.779999 21.32 13.610001 21.32 14.6 C 21.32 15.220001 21.15 15.84 20.809999 16.439999 C 19.84 15.48 18.68 15 17.32 15 L 17 15 C 16.75 13.91 16.190001 12.93 15.31 12.060001 Z M 16.940001 6.780001 C 16.940001 7.040001 17.02 7.24 17.17 7.4 C 17.32 7.559999 17.52 7.630001 17.76 7.630001 C 18.02 7.630001 18.219999 7.549999 18.379999 7.4 C 18.540001 7.24 18.610001 7.040001 18.610001 6.780001 L 18.610001 4.73 C 18.610001 4.49 18.530001 4.299999 18.370001 4.139999 C 18.209999 3.98 18.01 3.91 17.76 3.91 C 17.52 3.91 17.33 3.99 17.17 4.139999 C 17.01 4.290001 16.940001 4.49 16.940001 4.73 L 16.940001 6.780001 Z M 22.459999 9.07 C 22.459999 9.33 22.530001 9.530001 22.68 9.690001 C 22.889999 9.85 23.1 9.93 23.299999 9.93 C 23.48 9.93 23.68 9.85 23.889999 9.690001 L 25.32 8.26 C 25.48 8.08 25.559999 7.869999 25.559999 7.619999 C 25.559999 7.380001 25.48 7.18 25.32 7.02 C 25.16 6.860001 24.959999 6.780001 24.73 6.780001 C 24.49 6.780001 24.299999 6.860001 24.15 7.02 L 22.68 8.450001 C 22.530001 8.639999 22.459999 8.84 22.459999 9.07 Z M 23.25 20.91 C 23.25 21.15 23.33 21.360001 23.5 21.540001 L 24.15 22.17 C 24.299999 22.33 24.49 22.41 24.73 22.41 C 24.969999 22.41 25.17 22.33 25.33 22.16 C 25.49 21.99 25.57 21.790001 25.57 21.540001 C 25.57 21.32 25.49 21.120001 25.33 20.959999 L 24.68 20.309999 C 24.52 20.15 24.33 20.07 24.110001 20.07 C 23.870001 20.07 23.67 20.15 23.51 20.309999 C 23.34 20.469999 23.25 20.67 23.25 20.91 Z M 24.719999 14.6 C 24.719999 14.83 24.809999 15.02 24.98 15.18 C 25.139999 15.34 25.35 15.42 25.59 15.42 L 27.629999 15.42 C 27.860001 15.42 28.049999 15.34 28.209999 15.189999 C 28.370001 15.040001 28.440001 14.84 28.440001 14.6 C 28.440001 14.360001 28.360001 14.16 28.209999 14 C 28.059999 13.84 27.860001 13.75 27.629999 13.75 L 25.59 13.75 C 25.35 13.75 25.15 13.83 24.98 14 C 24.799999 14.17 24.719999 14.369999 24.719999 14.6 Z"/>
</svg>
