<?xml version="1.0" encoding="UTF-8"?>
<!-- Generated by Pixelmator Pro 3.6.18 -->
<svg width="30" height="30" viewBox="0 0 30 30" xmlns="http://www.w3.org/2000/svg">
    <path id="Path" fill="#000000" stroke="none" d="M 3.09 16.43 C 3.09 16.700001 3.18 16.92 3.37 17.1 C 3.56 17.279999 3.8 17.360001 4.09 17.360001 L 5.78 17.360001 C 6.05 17.360001 6.28 17.27 6.47 17.09 C 6.66 16.91 6.76 16.689999 6.76 16.43 C 6.76 16.139999 6.67 15.9 6.48 15.720001 C 6.29 15.540001 6.06 15.439999 5.79 15.439999 L 4.09 15.439999 C 3.8 15.439999 3.56 15.529999 3.37 15.720001 C 3.18 15.889999 3.09 16.130001 3.09 16.43 Z M 4.86 22.610001 C 4.86 23.58 5.21 24.42 5.92 25.129999 C 6.63 25.84 7.46 26.190001 8.43 26.190001 L 15.29 26.190001 C 16.26 26.190001 17.09 25.84 17.780001 25.139999 C 18.469999 24.440001 18.82 23.6 18.82 22.610001 C 18.82 22.129999 18.75 21.719999 18.610001 21.379999 C 19.440001 20.85 20.1 20.139999 20.58 19.26 C 21.059999 18.380001 21.309999 17.43 21.309999 16.42 C 21.309999 15.610001 21.15 14.83 20.83 14.09 C 20.51 13.35 20.08 12.709999 19.549999 12.18 C 19.02 11.65 18.379999 11.220001 17.639999 10.9 C 16.9 10.58 16.129999 10.42 15.32 10.42 C 14.23 10.42 13.22 10.690001 12.3 11.23 C 11.38 11.77 10.65 12.5 10.12 13.41 C 9.59 14.33 9.33 15.33 9.33 16.42 L 9.33 16.76 C 8.33 17.33 7.67 18.16 7.35 19.25 C 6.59 19.49 5.99 19.91 5.54 20.52 C 5.09 21.129999 4.86 21.83 4.86 22.610001 Z M 6.42 8.450001 C 6.42 8.73 6.51 8.959999 6.68 9.119999 L 8.29 10.809999 C 8.76 11.17 9.23 11.17 9.7 10.809999 C 9.89 10.619999 9.98 10.389999 9.98 10.110001 C 9.98 9.84 9.89 9.610001 9.7 9.41 L 8.05 7.76 C 7.84 7.57 7.6 7.469999 7.35 7.469999 C 7.07 7.469999 6.84 7.559999 6.67 7.75 C 6.5 7.940001 6.42 8.17 6.42 8.450001 Z M 6.84 22.610001 C 6.84 22.190001 6.97 21.83 7.24 21.530001 C 7.51 21.23 7.85 21.059999 8.26 21.02 L 8.88 20.940001 C 9.01 20.940001 9.08 20.860001 9.08 20.709999 L 9.17 20.15 C 9.24 19.57 9.48 19.09 9.9 18.709999 C 10.32 18.32 10.81 18.130001 11.38 18.130001 C 11.96 18.130001 12.47 18.32 12.89 18.709999 C 13.32 19.1 13.57 19.58 13.64 20.15 L 13.72 20.799999 C 13.78 20.950001 13.86 21.030001 13.96 21.030001 L 15.28 21.030001 C 15.71 21.030001 16.08 21.190001 16.4 21.5 C 16.719999 21.809999 16.870001 22.18 16.870001 22.620001 C 16.870001 23.07 16.709999 23.450001 16.4 23.77 C 16.09 24.09 15.71 24.25 15.28 24.25 L 8.43 24.25 C 7.98 24.25 7.6 24.09 7.3 23.77 C 6.99 23.450001 6.84 23.059999 6.84 22.610001 Z M 11.26 16.220001 C 11.33 15.130001 11.75 14.209999 12.53 13.459999 C 13.3 12.720001 14.24 12.34 15.32 12.34 C 16.43 12.34 17.379999 12.74 18.16 13.529999 C 18.940001 14.32 19.33 15.290001 19.33 16.42 C 19.33 17.119999 19.16 17.77 18.82 18.369999 C 18.48 18.970001 18.02 19.450001 17.440001 19.82 C 16.85 19.33 16.17 19.09 15.41 19.09 C 15.12 18.209999 14.6 17.52 13.87 17 C 13.14 16.48 12.31 16.220001 11.39 16.220001 L 11.26 16.220001 Z M 14.35 7.469999 C 14.35 7.74 14.45 7.98 14.64 8.17 C 14.83 8.360001 15.06 8.459999 15.33 8.459999 C 15.61 8.459999 15.84 8.360001 16.030001 8.17 C 16.219999 7.98 16.32 7.75 16.32 7.469999 L 16.32 5.130001 C 16.32 4.870001 16.219999 4.65 16.030001 4.469999 C 15.84 4.290001 15.61 4.200001 15.33 4.200001 C 15.06 4.200001 14.83 4.290001 14.64 4.469999 C 14.45 4.65 14.35 4.870001 14.35 5.130001 L 14.35 7.469999 Z M 20.67 22.700001 C 20.67 22.969999 20.76 23.200001 20.940001 23.4 L 22.58 25.02 C 23 25.440001 23.469999 25.440001 23.99 25.02 C 24.17 24.85 24.25 24.629999 24.25 24.34 C 24.25 24.07 24.16 23.85 23.99 23.67 L 22.299999 22 C 22.120001 21.83 21.889999 21.75 21.620001 21.75 C 21.34 21.75 21.120001 21.84 20.940001 22.02 C 20.76 22.200001 20.67 22.43 20.67 22.700001 Z M 20.67 10.09 C 20.67 10.369999 20.76 10.610001 20.940001 10.809999 C 21.120001 10.99 21.35 11.08 21.620001 11.08 C 21.889999 11.08 22.120001 10.99 22.299999 10.809999 L 23.99 9.119999 C 24.17 8.950001 24.25 8.73 24.25 8.450001 C 24.25 8.17 24.15 7.940001 23.959999 7.76 C 23.77 7.58 23.540001 7.48 23.26 7.48 C 23 7.48 22.77 7.58 22.58 7.77 L 20.940001 9.4 C 20.76 9.58 20.67 9.809999 20.67 10.09 Z M 23.25 16.43 C 23.25 16.700001 23.34 16.92 23.530001 17.1 C 23.719999 17.279999 23.959999 17.360001 24.25 17.360001 L 25.940001 17.360001 C 26.209999 17.360001 26.440001 17.27 26.629999 17.09 C 26.82 16.91 26.92 16.689999 26.92 16.43 C 26.92 16.139999 26.83 15.9 26.639999 15.720001 C 26.450001 15.540001 26.219999 15.439999 25.950001 15.439999 L 24.26 15.439999 C 23.969999 15.439999 23.73 15.529999 23.540001 15.720001 C 23.35 15.889999 23.25 16.130001 23.25 16.43 Z"/>
</svg>
