<?xml version="1.0" encoding="UTF-8"?>
<!-- Generated by Pixelmator Pro 3.6.18 -->
<svg width="30" height="30" viewBox="0 0 30 30" xmlns="http://www.w3.org/2000/svg">
    <path id="Path" fill="#000000" stroke="none" d="M 1.58 19.889999 C 1.58 20.76 1.79 21.57 2.22 22.309999 C 2.64 23.059999 3.22 23.66 3.95 24.110001 C 4.68 24.559999 5.48 24.799999 6.35 24.84 C 6.47 24.84 6.53 24.780001 6.53 24.67 L 6.53 23.34 C 6.53 23.219999 6.47 23.15 6.35 23.15 C 5.5 23.110001 4.77 22.77 4.17 22.129999 C 3.57 21.49 3.27 20.75 3.27 19.879999 C 3.27 19.059999 3.55 18.34 4.11 17.73 C 4.67 17.119999 5.37 16.77 6.2 16.67 L 6.72 16.639999 C 6.84 16.639999 6.91 16.58 6.91 16.459999 L 6.99 15.92 C 7.1 14.84 7.55 13.939999 8.35 13.209999 C 9.15 12.48 10.1 12.119999 11.2 12.119999 C 12.27 12.119999 13.22 12.48 14.04 13.209999 C 14.86 13.939999 15.32 14.84 15.44 15.91 L 15.51 16.49 C 15.51 16.6 15.57 16.66 15.68 16.66 L 17.299999 16.66 C 18.18 16.66 18.950001 16.98 19.59 17.619999 C 20.24 18.26 20.559999 19.01 20.559999 19.879999 C 20.559999 20.74 20.26 21.49 19.66 22.129999 C 19.059999 22.76 18.33 23.1 17.48 23.15 C 17.360001 23.15 17.299999 23.209999 17.299999 23.34 L 17.299999 24.67 C 17.299999 24.780001 17.360001 24.84 17.48 24.84 C 18.35 24.82 19.15 24.58 19.879999 24.120001 C 20.610001 23.66 21.190001 23.07 21.610001 22.32 C 22.030001 21.57 22.24 20.76 22.24 19.889999 C 22.24 19.15 22.1 18.49 21.83 17.889999 C 22.610001 16.939999 22.99 15.84 22.99 14.59 C 22.99 13.65 22.76 12.77 22.290001 11.970001 C 21.82 11.17 21.190001 10.530001 20.389999 10.07 C 19.59 9.6 18.719999 9.369999 17.780001 9.369999 C 16.23 9.369999 14.94 9.950001 13.91 11.1 C 13.09 10.66 12.19 10.440001 11.22 10.440001 C 9.81 10.440001 8.57 10.880001 7.48 11.75 C 6.39 12.619999 5.7 13.74 5.39 15.09 C 4.29 15.35 3.38 15.93 2.67 16.82 C 1.93 17.73 1.58 18.75 1.58 19.889999 Z M 7.48 20.77 C 7.48 21.15 7.62 21.48 7.9 21.75 C 8.18 22.02 8.52 22.15 8.91 22.15 C 9.31 22.15 9.64 22.02 9.91 21.75 C 10.18 21.48 10.31 21.16 10.31 20.77 C 10.31 20.530001 10.19 20.190001 9.96 19.77 C 9.73 19.34 9.51 19.01 9.31 18.779999 C 9.1 18.560001 8.96 18.41 8.91 18.360001 L 8.55 18.76 C 8.28 19.049999 8.03 19.389999 7.81 19.790001 C 7.59 20.190001 7.48 20.52 7.48 20.77 Z M 9.97 7.66 C 9.97 7.92 10.05 8.119999 10.21 8.27 L 10.86 8.93 C 11.28 9.24 11.68 9.24 12.07 8.93 C 12.23 8.74 12.31 8.52 12.31 8.290001 C 12.31 8.059999 12.23 7.860001 12.07 7.700001 L 11.43 7.049999 C 11.24 6.880001 11.04 6.799999 10.82 6.799999 C 10.58 6.799999 10.37 6.880001 10.21 7.049999 C 10.05 7.219999 9.97 7.42 9.97 7.66 Z M 10.45 24.73 C 10.45 25.389999 10.68 25.940001 11.13 26.379999 C 11.58 26.82 12.13 27.049999 12.78 27.049999 C 13.43 27.049999 13.98 26.82 14.44 26.370001 C 14.9 25.91 15.12 25.370001 15.12 24.73 C 15.12 24.190001 14.85 23.540001 14.31 22.76 C 13.85 22.15 13.42 21.66 13.03 21.27 C 12.95 21.209999 12.86 21.139999 12.77 21.040001 L 12.54 21.27 C 12.18 21.59 11.76 22.09 11.27 22.74 C 10.73 23.5 10.45 24.16 10.45 24.73 Z M 11.93 18.110001 C 11.93 18.360001 12.03 18.58 12.22 18.76 C 12.41 18.939999 12.64 19.030001 12.91 19.030001 C 13.17 19.030001 13.39 18.939999 13.57 18.76 C 13.75 18.58 13.84 18.360001 13.84 18.110001 C 13.84 17.700001 13.53 17.16 12.91 16.51 L 12.67 16.76 C 12.49 16.959999 12.32 17.189999 12.17 17.459999 C 12 17.73 11.93 17.939999 11.93 18.110001 Z M 15.3 12.060001 C 15.96 11.4 16.780001 11.07 17.77 11.07 C 18.75 11.07 19.57 11.41 20.26 12.1 C 20.940001 12.790001 21.290001 13.619999 21.290001 14.6 C 21.290001 15.189999 21.120001 15.799999 20.77 16.439999 C 19.799999 15.48 18.639999 15 17.299999 15 L 16.969999 15 C 16.68 13.84 16.120001 12.860001 15.3 12.060001 Z M 16.9 6.799999 C 16.9 7.040001 16.99 7.24 17.16 7.41 C 17.33 7.58 17.530001 7.66 17.76 7.66 C 17.99 7.66 18.190001 7.58 18.34 7.41 C 18.5 7.24 18.57 7.040001 18.57 6.799999 L 18.57 4.76 C 18.57 4.52 18.49 4.33 18.34 4.17 C 18.190001 4.01 18 3.940001 17.77 3.940001 C 17.540001 3.940001 17.33 4.02 17.16 4.17 C 16.99 4.32 16.9 4.52 16.9 4.76 L 16.9 6.799999 Z M 22.42 9.110001 C 22.42 9.35 22.5 9.549999 22.67 9.700001 C 22.84 9.860001 23.030001 9.940001 23.23 9.940001 C 23.4 9.940001 23.610001 9.860001 23.84 9.700001 L 25.27 8.27 C 25.450001 8.09 25.540001 7.880001 25.540001 7.65 C 25.540001 7.41 25.459999 7.200001 25.290001 7.040001 C 25.120001 6.880001 24.92 6.799999 24.68 6.799999 C 24.459999 6.799999 24.27 6.880001 24.1 7.049999 L 22.67 8.48 C 22.5 8.65 22.42 8.860001 22.42 9.110001 Z M 23.219999 20.889999 C 23.219999 21.139999 23.299999 21.35 23.450001 21.530001 L 24.1 22.110001 C 24.24 22.290001 24.440001 22.379999 24.690001 22.379999 C 24.93 22.379999 25.129999 22.290001 25.27 22.110001 C 25.450001 21.950001 25.540001 21.75 25.540001 21.530001 C 25.540001 21.309999 25.450001 21.120001 25.27 20.950001 L 24.66 20.299999 C 24.48 20.139999 24.280001 20.059999 24.049999 20.059999 C 23.809999 20.059999 23.610001 20.139999 23.450001 20.299999 C 23.290001 20.459999 23.219999 20.66 23.219999 20.889999 Z M 24.67 14.6 C 24.67 14.82 24.75 15.02 24.92 15.18 C 25.09 15.34 25.299999 15.42 25.549999 15.42 L 27.57 15.42 C 27.809999 15.42 28.01 15.34 28.17 15.18 C 28.34 15.02 28.42 14.83 28.42 14.59 C 28.42 14.35 28.34 14.15 28.17 13.99 C 28 13.83 27.799999 13.74 27.57 13.74 L 25.549999 13.74 C 25.309999 13.74 25.110001 13.82 24.93 13.99 C 24.75 14.16 24.67 14.369999 24.67 14.6 Z"/>
</svg>
