<?xml version="1.0" encoding="UTF-8"?>
<!-- Generated by Pixelmator Pro 3.6.18 -->
<svg width="30" height="30" viewBox="0 0 30 30" xmlns="http://www.w3.org/2000/svg">
    <path id="Path" fill="#000000" stroke="none" d="M 1.49 17.879999 C 1.49 19 1.82 20 2.49 20.879999 C 3.16 21.76 4.02 22.35 5.07 22.639999 L 4.41 24.34 C 4.36 24.48 4.41 24.559999 4.55 24.559999 L 6.68 24.559999 L 5.25 28.77 L 5.54 28.77 L 9.9 23.110001 C 9.94 23.07 9.94 23.02 9.92 22.969999 C 9.9 22.92 9.85 22.9 9.78 22.9 L 7.59 22.9 L 10.08 18.25 C 10.15 18.110001 10.11 18.030001 9.94 18.030001 L 6.98 18.030001 C 6.89 18.030001 6.81 18.08 6.75 18.18 L 5.68 21.059999 C 4.96 20.879999 4.36 20.5 3.9 19.9 C 3.43 19.309999 3.2 18.639999 3.2 17.879999 C 3.2 17.040001 3.48 16.310001 4.04 15.7 C 4.6 15.09 5.31 14.73 6.15 14.630001 L 6.66 14.6 C 6.78 14.6 6.85 14.549999 6.88 14.459999 L 6.95 13.869999 C 7.06 12.790001 7.51 11.880001 8.32 11.15 C 9.13 10.42 10.08 10.049999 11.18 10.049999 C 12.27 10.049999 13.22 10.42 14.04 11.15 C 14.86 11.880001 15.33 12.790001 15.44 13.869999 L 15.52 14.459999 C 15.52 14.57 15.58 14.630001 15.7 14.630001 L 17.309999 14.630001 C 18.200001 14.630001 18.969999 14.950001 19.620001 15.59 C 20.27 16.23 20.59 16.99 20.59 17.879999 C 20.59 18.75 20.290001 19.5 19.690001 20.139999 C 19.09 20.780001 18.370001 21.120001 17.51 21.17 C 17.379999 21.17 17.309999 21.23 17.309999 21.35 L 17.309999 22.690001 C 17.309999 22.799999 17.379999 22.860001 17.51 22.860001 C 18.389999 22.84 19.200001 22.6 19.93 22.139999 C 20.66 21.690001 21.24 21.08 21.67 20.33 C 22.1 19.58 22.309999 18.76 22.309999 17.879999 C 22.309999 17.15 22.17 16.48 21.879999 15.86 C 22.639999 14.9 23.02 13.799999 23.02 12.57 C 23.02 11.619999 22.780001 10.74 22.309999 9.93 C 21.84 9.119999 21.200001 8.48 20.389999 8.01 C 19.58 7.540001 18.700001 7.299999 17.75 7.299999 C 17.030001 7.299999 16.33 7.450001 15.65 7.75 C 14.97 8.049999 14.39 8.469999 13.89 9 C 13.08 8.57 12.18 8.35 11.17 8.35 C 9.75 8.35 8.49 8.790001 7.4 9.67 C 6.31 10.549999 5.6 11.67 5.3 13.040001 C 4.19 13.299999 3.28 13.880001 2.56 14.779999 C 1.85 15.7 1.49 16.73 1.49 17.879999 Z M 9.37 28.1 C 9.37 28.27 9.42 28.43 9.53 28.59 C 9.64 28.75 9.8 28.860001 10.02 28.92 C 10.11 28.940001 10.19 28.950001 10.26 28.950001 C 10.69 28.950001 10.96 28.75 11.06 28.34 L 11.19 27.75 C 11.25 27.49 11.22 27.27 11.11 27.07 C 10.99 26.870001 10.82 26.75 10.58 26.700001 C 10.37 26.629999 10.16 26.65 9.95 26.77 C 9.74 26.889999 9.61 27.059999 9.54 27.280001 L 9.41 27.870001 C 9.38 27.99 9.37 28.07 9.37 28.1 Z M 9.9 5.59 C 9.9 5.82 9.98 6.02 10.15 6.190001 L 10.8 6.85 C 10.96 7.01 11.14 7.09 11.35 7.110001 C 11.56 7.139999 11.76 7.07 11.96 6.880001 C 12.16 6.700001 12.26 6.49 12.26 6.24 C 12.26 6.01 12.18 5.809999 12.01 5.639999 L 11.38 4.98 C 11.22 4.82 11.02 4.74 10.78 4.74 C 10.53 4.74 10.32 4.82 10.15 4.98 C 9.99 5.16 9.9 5.360001 9.9 5.59 Z M 10.16 25.200001 C 10.16 25.43 10.24 25.620001 10.4 25.780001 C 10.56 25.940001 10.76 26.02 10.98 26.02 C 11.22 26.02 11.41 25.940001 11.57 25.790001 C 11.73 25.629999 11.8 25.440001 11.8 25.200001 C 11.8 24.969999 11.72 24.780001 11.57 24.620001 C 11.41 24.459999 11.22 24.389999 10.98 24.389999 C 10.74 24.389999 10.55 24.469999 10.39 24.620001 C 10.24 24.77 10.16 24.969999 10.16 25.200001 Z M 10.78 22.93 C 10.77 23.08 10.81 23.24 10.92 23.4 C 11.02 23.559999 11.17 23.66 11.37 23.700001 C 11.6 23.76 11.81 23.74 12.01 23.639999 C 12.21 23.540001 12.34 23.35 12.42 23.08 L 12.68 22.18 C 12.75 21.959999 12.73 21.75 12.61 21.549999 C 12.49 21.35 12.32 21.219999 12.08 21.15 C 11.86 21.08 11.65 21.110001 11.44 21.23 C 11.23 21.35 11.1 21.530001 11.03 21.76 L 10.8 22.66 C 10.79 22.74 10.78 22.83 10.78 22.93 Z M 13.54 25.08 C 13.54 25.25 13.59 25.41 13.69 25.559999 C 13.79 25.709999 13.94 25.82 14.15 25.879999 C 14.18 25.879999 14.23 25.889999 14.29 25.9 C 14.35 25.91 14.4 25.92 14.43 25.92 C 14.84 25.92 15.09 25.700001 15.19 25.26 L 15.33 24.66 C 15.4 24.450001 15.38 24.24 15.26 24.030001 C 15.14 23.82 14.97 23.690001 14.75 23.620001 C 14.5 23.559999 14.27 23.58 14.07 23.700001 C 13.87 23.82 13.73 23.99 13.66 24.23 L 13.57 24.82 C 13.57 24.83 13.57 24.870001 13.56 24.93 C 13.55 25 13.54 25.040001 13.54 25.08 Z M 14.28 22.120001 C 14.28 22.35 14.36 22.540001 14.52 22.690001 C 14.67 22.85 14.86 22.93 15.1 22.93 C 15.34 22.93 15.53 22.85 15.69 22.700001 C 15.85 22.540001 15.92 22.35 15.92 22.120001 C 15.92 21.879999 15.84 21.690001 15.69 21.530001 C 15.53 21.370001 15.34 21.299999 15.1 21.299999 C 14.86 21.299999 14.67 21.379999 14.51 21.530001 C 14.36 21.690001 14.28 21.879999 14.28 22.120001 Z M 15.31 10.02 C 15.98 9.380001 16.790001 9.049999 17.76 9.049999 C 18.74 9.049999 19.58 9.389999 20.27 10.08 C 20.959999 10.76 21.309999 11.6 21.309999 12.58 C 21.309999 13.24 21.15 13.84 20.84 14.389999 C 19.879999 13.43 18.709999 12.950001 17.32 12.950001 L 17.01 12.950001 C 16.719999 11.76 16.15 10.779999 15.31 10.02 Z M 16.91 4.75 C 16.91 4.99 16.99 5.190001 17.16 5.360001 C 17.33 5.530001 17.530001 5.610001 17.76 5.610001 C 18 5.610001 18.200001 5.530001 18.360001 5.360001 C 18.52 5.190001 18.6 4.99 18.6 4.75 L 18.6 2.690001 C 18.6 2.450001 18.52 2.24 18.360001 2.08 C 18.200001 1.91 18 1.82 17.76 1.82 C 17.52 1.82 17.32 1.9 17.16 2.07 C 17 2.24 16.91 2.440001 16.91 2.68 L 16.91 4.75 Z M 22.49 7.040001 C 22.49 7.280001 22.57 7.48 22.719999 7.639999 C 22.860001 7.799999 23.040001 7.880001 23.27 7.9 C 23.5 7.92 23.709999 7.83 23.9 7.639999 L 25.34 6.200001 C 25.52 6.040001 25.6 5.84 25.6 5.6 C 25.6 5.360001 25.51 5.16 25.34 5 C 25.18 4.82 24.98 4.74 24.74 4.74 C 24.51 4.74 24.32 4.83 24.16 5 L 22.719999 6.440001 C 22.559999 6.59 22.49 6.790001 22.49 7.040001 Z M 23.26 18.950001 C 23.26 19.18 23.34 19.379999 23.51 19.549999 L 24.16 20.18 C 24.34 20.35 24.549999 20.43 24.780001 20.43 L 24.799999 20.450001 C 25.02 20.450001 25.200001 20.360001 25.34 20.18 C 25.52 20.02 25.6 19.82 25.6 19.58 C 25.6 19.35 25.51 19.15 25.34 18.969999 L 24.719999 18.35 C 24.540001 18.17 24.34 18.08 24.110001 18.08 C 23.870001 18.08 23.67 18.17 23.51 18.34 C 23.35 18.51 23.26 18.719999 23.26 18.950001 Z M 24.73 12.58 C 24.73 12.82 24.82 13.02 24.99 13.17 C 25.15 13.35 25.35 13.43 25.59 13.43 L 27.65 13.43 C 27.889999 13.43 28.09 13.35 28.26 13.18 C 28.43 13.01 28.51 12.810001 28.51 12.58 C 28.51 12.35 28.43 12.139999 28.26 11.98 C 28.09 11.82 27.889999 11.74 27.65 11.74 L 25.59 11.74 C 25.35 11.74 25.139999 11.82 24.98 11.98 C 24.809999 12.139999 24.73 12.34 24.73 12.58 Z"/>
</svg>
