<?xml version="1.0" encoding="UTF-8"?>
<!-- Generated by Pixelmator Pro 3.6.18 -->
<svg width="30" height="30" viewBox="0 0 30 30" xmlns="http://www.w3.org/2000/svg">
    <path id="Path" fill="#000000" stroke="none" d="M 1.48 17.879999 C 1.48 19.219999 1.95 20.370001 2.88 21.33 C 3.81 22.290001 4.95 22.799999 6.28 22.860001 C 6.4 22.860001 6.46 22.799999 6.46 22.690001 L 6.46 21.35 C 6.46 21.23 6.4 21.17 6.28 21.17 C 5.42 21.129999 4.69 20.780001 4.09 20.139999 C 3.49 19.5 3.19 18.74 3.19 17.879999 C 3.19 17.049999 3.47 16.33 4.04 15.71 C 4.61 15.09 5.31 14.74 6.14 14.639999 L 6.67 14.6 C 6.8 14.6 6.87 14.540001 6.87 14.42 L 6.94 13.869999 C 7.05 12.790001 7.5 11.880001 8.31 11.16 C 9.12 10.43 10.07 10.07 11.17 10.07 C 12.26 10.07 13.21 10.43 14.03 11.16 C 14.85 11.889999 15.32 12.790001 15.43 13.869999 L 15.5 14.450001 C 15.5 14.57 15.56 14.639999 15.67 14.639999 L 17.290001 14.639999 C 18.18 14.639999 18.959999 14.959999 19.610001 15.6 C 20.26 16.24 20.59 17 20.59 17.870001 C 20.59 18.74 20.290001 19.49 19.68 20.129999 C 19.07 20.77 18.34 21.110001 17.49 21.16 C 17.360001 21.16 17.290001 21.219999 17.290001 21.34 L 17.290001 22.68 C 17.290001 22.790001 17.360001 22.85 17.49 22.85 C 18.83 22.809999 19.959999 22.299999 20.879999 21.34 C 21.809999 20.370001 22.27 19.219999 22.27 17.879999 C 22.27 17.139999 22.129999 16.470001 21.860001 15.87 C 22.65 14.91 23.040001 13.799999 23.040001 12.540001 C 23.040001 11.6 22.799999 10.720001 22.33 9.91 C 21.85 9.1 21.209999 8.459999 20.4 7.98 C 19.59 7.51 18.709999 7.27 17.77 7.27 C 16.209999 7.27 14.91 7.85 13.87 9.02 C 13.07 8.58 12.17 8.360001 11.16 8.360001 C 9.75 8.360001 8.49 8.799999 7.4 9.67 C 6.31 10.540001 5.6 11.67 5.29 13.040001 C 4.18 13.299999 3.27 13.880001 2.55 14.779999 C 1.84 15.7 1.48 16.73 1.48 17.879999 Z M 6.82 24.940001 C 6.92 25.16 7.07 25.309999 7.28 25.389999 C 7.48 25.49 7.69 25.5 7.91 25.41 C 8.13 25.33 8.28 25.18 8.36 24.959999 C 8.46 24.74 8.47 24.530001 8.38 24.309999 C 8.3 24.1 8.15 23.950001 7.93 23.870001 C 7.73 23.76 7.52 23.75 7.31 23.84 C 7.09 23.93 6.94 24.08 6.84 24.309999 C 6.74 24.49 6.73 24.700001 6.82 24.940001 Z M 7.46 22.1 C 7.46 22.24 7.49 22.370001 7.55 22.48 C 7.74 22.790001 8.04 22.940001 8.44 22.940001 C 8.76 22.940001 8.99 22.719999 9.13 22.290001 L 10.17 19.07 C 10.25 18.83 10.23 18.6 10.1 18.4 C 9.97 18.200001 9.79 18.07 9.55 18.030001 C 9.34 17.98 9.13 18 8.93 18.1 C 8.73 18.209999 8.59 18.379999 8.52 18.6 L 7.49 21.82 C 7.47 21.92 7.46 22.02 7.46 22.1 Z M 9.33 27.719999 C 9.33 27.85 9.35 27.950001 9.38 28.01 C 9.47 28.23 9.62 28.379999 9.83 28.459999 C 9.92 28.51 10.04 28.530001 10.18 28.530001 C 10.24 28.530001 10.34 28.51 10.48 28.469999 C 10.7 28.389999 10.86 28.24 10.95 28.02 C 11.04 27.799999 11.05 27.58 10.95 27.360001 C 10.85 27.139999 10.7 26.99 10.5 26.91 C 10.3 26.83 10.09 26.83 9.88 26.91 C 9.69 26.98 9.55 27.1 9.46 27.26 C 9.37 27.42 9.33 27.58 9.33 27.719999 Z M 9.94 5.57 C 9.94 5.82 10.02 6.02 10.18 6.17 L 10.83 6.82 C 10.99 6.98 11.17 7.07 11.37 7.09 C 11.58 7.119999 11.78 7.040001 11.98 6.860001 C 12.18 6.68 12.28 6.459999 12.28 6.219999 C 12.28 5.98 12.2 5.780001 12.04 5.619999 L 11.4 4.98 C 11.21 4.809999 11.01 4.73 10.78 4.73 C 10.54 4.73 10.33 4.809999 10.17 4.969999 C 10.02 5.139999 9.94 5.34 9.94 5.57 Z M 10.06 25.030001 C 10.06 25.190001 10.11 25.35 10.22 25.51 C 10.33 25.67 10.49 25.780001 10.7 25.84 C 10.81 25.860001 10.89 25.879999 10.94 25.879999 C 11.09 25.879999 11.22 25.85 11.32 25.799999 C 11.52 25.719999 11.66 25.530001 11.75 25.23 L 13.55 19.09 C 13.62 18.85 13.6 18.639999 13.49 18.440001 C 13.38 18.24 13.22 18.110001 12.99 18.049999 C 12.75 17.98 12.53 18 12.33 18.110001 C 12.13 18.219999 11.99 18.379999 11.92 18.620001 L 10.08 24.809999 C 10.07 24.92 10.06 25 10.06 25.030001 Z M 13.51 24.639999 C 13.51 24.77 13.53 24.870001 13.58 24.950001 C 13.67 25.16 13.82 25.299999 14.03 25.389999 C 14.14 25.440001 14.25 25.469999 14.38 25.469999 C 14.44 25.469999 14.54 25.450001 14.68 25.41 C 14.91 25.32 15.06 25.18 15.14 24.969999 C 15.22 24.75 15.22 24.540001 15.14 24.34 C 15.06 24.139999 14.92 23.99 14.72 23.889999 C 14.49 23.780001 14.28 23.77 14.06 23.860001 C 13.85 23.950001 13.69 24.1 13.58 24.33 C 13.53 24.41 13.51 24.51 13.51 24.639999 Z M 14.23 22.08 C 14.23 22.24 14.28 22.389999 14.38 22.530001 C 14.48 22.68 14.64 22.780001 14.84 22.84 C 14.93 22.860001 15.01 22.870001 15.09 22.870001 C 15.48 22.870001 15.74 22.67 15.88 22.26 L 16.91 19.08 C 16.99 18.85 16.959999 18.629999 16.84 18.43 C 16.719999 18.23 16.549999 18.1 16.32 18.040001 C 16.08 17.969999 15.87 17.99 15.68 18.1 C 15.49 18.209999 15.36 18.370001 15.28 18.610001 L 14.26 21.809999 C 14.25 21.940001 14.23 22.030001 14.23 22.08 Z M 15.3 10 C 15.97 9.360001 16.799999 9.029999 17.780001 9.029999 C 18.76 9.029999 19.59 9.369999 20.280001 10.060001 C 20.969999 10.74 21.32 11.57 21.32 12.549999 C 21.32 13.17 21.15 13.790001 20.799999 14.4 C 19.84 13.439999 18.68 12.959999 17.290001 12.959999 L 17 12.959999 C 16.700001 11.799999 16.139999 10.810001 15.3 10 Z M 16.92 4.73 C 16.92 4.969999 17 5.17 17.17 5.34 C 17.34 5.51 17.540001 5.59 17.780001 5.59 C 18.01 5.59 18.209999 5.51 18.370001 5.34 C 18.530001 5.17 18.610001 4.969999 18.610001 4.73 L 18.610001 2.67 C 18.610001 2.43 18.530001 2.23 18.370001 2.059999 C 18.209999 1.889999 18.02 1.809999 17.780001 1.809999 C 17.540001 1.809999 17.34 1.889999 17.17 2.059999 C 17 2.23 16.92 2.43 16.92 2.67 L 16.92 4.73 Z M 22.469999 7.02 C 22.469999 7.26 22.549999 7.459999 22.719999 7.619999 C 22.870001 7.790001 23.059999 7.880001 23.299999 7.880001 C 23.530001 7.880001 23.74 7.790001 23.9 7.619999 L 25.34 6.18 C 25.52 6.030001 25.610001 5.83 25.610001 5.58 C 25.610001 5.34 25.52 5.139999 25.35 4.969999 C 25.18 4.799999 24.969999 4.719999 24.74 4.719999 C 24.52 4.719999 24.33 4.809999 24.17 4.99 L 22.719999 6.42 C 22.559999 6.57 22.469999 6.780001 22.469999 7.02 Z M 23.280001 18.92 C 23.280001 19.15 23.360001 19.35 23.52 19.52 L 24.18 20.15 C 24.32 20.33 24.52 20.42 24.780001 20.42 C 25.02 20.42 25.209999 20.33 25.35 20.15 C 25.530001 19.99 25.620001 19.790001 25.620001 19.549999 C 25.620001 19.309999 25.530001 19.110001 25.35 18.940001 L 24.700001 18.32 C 24.540001 18.139999 24.35 18.059999 24.120001 18.059999 C 23.889999 18.059999 23.690001 18.139999 23.52 18.309999 C 23.360001 18.48 23.280001 18.690001 23.280001 18.92 Z M 24.74 12.549999 C 24.74 12.790001 24.83 12.99 25 13.15 C 25.18 13.33 25.379999 13.41 25.620001 13.41 L 27.65 13.41 C 27.889999 13.41 28.09 13.33 28.26 13.16 C 28.43 12.99 28.52 12.790001 28.52 12.549999 C 28.52 12.32 28.440001 12.119999 28.27 11.959999 C 28.1 11.799999 27.889999 11.720001 27.65 11.720001 L 25.620001 11.720001 C 25.370001 11.720001 25.16 11.799999 24.99 11.959999 C 24.83 12.119999 24.74 12.32 24.74 12.549999 Z"/>
</svg>
