<?xml version="1.0" encoding="UTF-8"?>
<!-- Generated by Pixelmator Pro 3.6.18 -->
<svg width="30" height="30" viewBox="0 0 30 30" xmlns="http://www.w3.org/2000/svg">
    <path id="Path" fill="#000000" stroke="none" d="M 1.56 18.9 C 1.56 19.799999 1.78 20.629999 2.22 21.389999 C 2.66 22.15 3.26 22.75 4.02 23.190001 C 4.78 23.629999 5.6 23.85 6.49 23.85 L 17.32 23.85 C 18.209999 23.85 19.040001 23.629999 19.799999 23.190001 C 20.559999 22.75 21.17 22.15 21.610001 21.389999 C 22.049999 20.629999 22.280001 19.799999 22.280001 18.9 C 22.280001 18.24 22.139999 17.57 21.860001 16.9 C 22.620001 15.98 23 14.869999 23 13.6 C 23 12.889999 22.860001 12.209999 22.59 11.560001 C 22.32 10.91 21.940001 10.360001 21.469999 9.889999 C 21 9.42 20.450001 9.040001 19.799999 8.77 C 19.15 8.49 18.469999 8.360001 17.76 8.360001 C 16.280001 8.360001 14.99 8.940001 13.88 10.1 C 13.11 9.66 12.21 9.440001 11.18 9.440001 C 9.77 9.440001 8.53 9.880001 7.45 10.75 C 6.37 11.619999 5.67 12.74 5.37 14.1 C 4.25 14.360001 3.34 14.93 2.63 15.83 C 1.92 16.73 1.56 17.75 1.56 18.9 Z M 3.27 18.9 C 3.27 18.059999 3.55 17.34 4.11 16.73 C 4.67 16.119999 5.37 15.77 6.21 15.67 L 6.71 15.639999 C 6.83 15.639999 6.9 15.58 6.9 15.459999 L 6.97 14.92 C 7.11 13.84 7.58 12.93 8.38 12.209999 C 9.18 11.48 10.12 11.119999 11.19 11.119999 C 12.29 11.119999 13.25 11.49 14.06 12.220001 C 14.88 12.950001 15.33 13.85 15.43 14.93 L 15.5 15.51 C 15.52 15.619999 15.59 15.68 15.71 15.68 L 17.32 15.68 C 18.200001 15.68 18.959999 16 19.6 16.639999 C 20.24 17.279999 20.559999 18.030001 20.559999 18.91 C 20.559999 19.82 20.24 20.59 19.610001 21.23 C 18.98 21.870001 18.209999 22.190001 17.33 22.190001 L 6.49 22.190001 C 5.61 22.190001 4.86 21.870001 4.22 21.219999 C 3.59 20.57 3.27 19.799999 3.27 18.9 Z M 9.97 6.630001 C 9.97 6.869999 10.05 7.08 10.21 7.26 L 10.87 7.9 C 11.12 8.09 11.33 8.17 11.51 8.15 C 11.72 8.15 11.9 8.059999 12.06 7.889999 C 12.22 7.719999 12.3 7.51 12.3 7.27 C 12.3 7.030001 12.21 6.83 12.04 6.68 L 11.45 6.02 C 11.27 5.860001 11.07 5.780001 10.84 5.780001 C 10.6 5.780001 10.39 5.860001 10.22 6.030001 C 10.05 6.190001 9.97 6.389999 9.97 6.630001 Z M 15.31 11.060001 C 16 10.389999 16.82 10.060001 17.76 10.060001 C 18.75 10.060001 19.59 10.4 20.280001 11.09 C 20.969999 11.779999 21.32 12.610001 21.32 13.6 C 21.32 14.220001 21.15 14.84 20.809999 15.439999 C 19.84 14.48 18.68 14 17.32 14 L 17 14 C 16.75 12.91 16.190001 11.93 15.31 11.060001 Z M 16.940001 5.780001 C 16.940001 6.040001 17.02 6.24 17.17 6.4 C 17.32 6.559999 17.52 6.630001 17.76 6.630001 C 18.02 6.630001 18.219999 6.549999 18.379999 6.4 C 18.540001 6.24 18.610001 6.040001 18.610001 5.780001 L 18.610001 3.73 C 18.610001 3.49 18.530001 3.299999 18.370001 3.139999 C 18.209999 2.98 18.01 2.91 17.76 2.91 C 17.52 2.91 17.33 2.99 17.17 3.139999 C 17.01 3.290001 16.940001 3.49 16.940001 3.73 L 16.940001 5.780001 Z M 22.459999 8.07 C 22.459999 8.33 22.530001 8.530001 22.68 8.690001 C 22.889999 8.85 23.1 8.93 23.299999 8.93 C 23.48 8.93 23.68 8.85 23.889999 8.690001 L 25.32 7.26 C 25.48 7.08 25.559999 6.869999 25.559999 6.619999 C 25.559999 6.380001 25.48 6.18 25.32 6.02 C 25.16 5.860001 24.959999 5.780001 24.73 5.780001 C 24.49 5.780001 24.299999 5.860001 24.15 6.02 L 22.68 7.450001 C 22.530001 7.639999 22.459999 7.84 22.459999 8.07 Z M 23.25 19.91 C 23.25 20.15 23.33 20.360001 23.5 20.540001 L 24.15 21.17 C 24.299999 21.33 24.49 21.41 24.73 21.41 C 24.969999 21.41 25.17 21.33 25.33 21.16 C 25.49 20.99 25.57 20.790001 25.57 20.540001 C 25.57 20.32 25.49 20.120001 25.33 19.959999 L 24.68 19.309999 C 24.52 19.15 24.33 19.07 24.110001 19.07 C 23.870001 19.07 23.67 19.15 23.51 19.309999 C 23.34 19.469999 23.25 19.67 23.25 19.91 Z M 24.719999 13.6 C 24.719999 13.83 24.809999 14.02 24.98 14.18 C 25.139999 14.34 25.35 14.42 25.59 14.42 L 27.629999 14.42 C 27.860001 14.42 28.049999 14.34 28.209999 14.189999 C 28.370001 14.040001 28.440001 13.84 28.440001 13.6 C 28.440001 13.360001 28.360001 13.16 28.209999 13 C 28.059999 12.84 27.860001 12.75 27.629999 12.75 L 25.59 12.75 C 25.35 12.75 25.15 12.83 24.98 13 C 24.799999 13.17 24.719999 13.369999 24.719999 13.6 Z"/>
</svg>
