<?xml version="1.0" encoding="UTF-8"?>
<!-- Generated by Pixelmator Pro 3.6.18 -->
<svg width="30" height="30" viewBox="0 0 30 30" xmlns="http://www.w3.org/2000/svg">
    <path id="Path" fill="#000000" stroke="none" d="M 1.48 17.91 C 1.48 19.030001 1.81 20.040001 2.48 20.92 C 3.15 21.799999 4.01 22.389999 5.06 22.690001 C 5.15 22.700001 5.23 22.68 5.3 22.610001 L 6.47 21.200001 C 5.58 21.200001 4.81 20.879999 4.17 20.23 C 3.53 19.58 3.21 18.809999 3.21 17.9 C 3.21 17.07 3.49 16.35 4.06 15.73 C 4.63 15.12 5.33 14.76 6.17 14.66 L 6.66 14.630001 C 6.79 14.630001 6.86 14.57 6.86 14.439999 L 6.93 13.9 C 7.04 12.82 7.5 11.91 8.31 11.18 C 9.12 10.450001 10.08 10.08 11.17 10.08 C 12.27 10.08 13.23 10.450001 14.05 11.18 C 14.87 11.91 15.33 12.82 15.44 13.9 L 15.51 14.49 C 15.55 14.6 15.63 14.66 15.73 14.66 L 17.370001 14.66 C 18.25 14.66 19.01 14.98 19.65 15.61 C 20.290001 16.24 20.610001 17.01 20.610001 17.889999 C 20.610001 18.73 20.33 19.469999 19.76 20.1 C 19.190001 20.73 18.51 21.08 17.690001 21.15 C 17.200001 21.209999 16.9 21.299999 16.790001 21.43 L 14.6 24.25 C 14.46 24.440001 14.41 24.65 14.44 24.879999 C 14.47 25.110001 14.57 25.299999 14.75 25.440001 C 14.9 25.610001 15.1 25.68 15.35 25.65 C 15.6 25.620001 15.8 25.5 15.95 25.290001 L 17.870001 22.83 C 18.690001 22.75 19.440001 22.48 20.120001 22.01 C 20.799999 21.549999 21.33 20.950001 21.73 20.219999 C 22.120001 19.49 22.32 18.709999 22.32 17.879999 C 22.32 17.16 22.18 16.49 21.9 15.87 C 22.690001 14.91 23.08 13.799999 23.08 12.540001 C 23.08 11.83 22.940001 11.16 22.66 10.51 C 22.379999 9.860001 22 9.299999 21.530001 8.83 C 21.059999 8.360001 20.5 7.99 19.85 7.709999 C 19.200001 7.43 18.52 7.290001 17.809999 7.290001 C 16.309999 7.290001 15.02 7.869999 13.93 9.029999 C 13.14 8.59 12.23 8.369999 11.21 8.369999 C 9.8 8.369999 8.55 8.809999 7.46 9.689999 C 6.37 10.57 5.68 11.689999 5.39 13.060001 C 4.26 13.32 3.33 13.889999 2.6 14.790001 C 1.87 15.69 1.48 16.76 1.48 17.91 Z M 5.38 26.15 C 5.45 26.370001 5.61 26.530001 5.84 26.629999 C 6.06 26.73 6.28 26.73 6.51 26.639999 C 6.74 26.549999 6.89 26.389999 6.97 26.17 C 7.06 25.959999 7.07 25.76 6.97 25.549999 C 6.88 25.34 6.73 25.190001 6.52 25.09 C 6.3 24.99 6.08 24.98 5.86 25.07 C 5.64 25.16 5.49 25.309999 5.41 25.530001 C 5.32 25.780001 5.31 25.99 5.38 26.15 Z M 7.19 23.41 L 7.19 23.52 C 7.21 23.74 7.31 23.92 7.49 24.07 C 7.67 24.219999 7.87 24.290001 8.12 24.27 C 8.36 24.25 8.55 24.15 8.69 23.98 L 10.87 21.16 C 11.01 20.98 11.08 20.77 11.06 20.530001 C 11.04 20.290001 10.94 20.1 10.77 19.959999 C 10.59 19.809999 10.38 19.75 10.14 19.77 C 9.9 19.790001 9.7 19.9 9.54 20.08 L 7.39 22.879999 C 7.25 23.040001 7.19 23.219999 7.19 23.41 Z M 7.7 28.27 C 7.7 28.33 7.72 28.43 7.76 28.57 C 7.85 28.790001 8 28.940001 8.22 29.030001 C 8.33 29.07 8.45 29.1 8.58 29.1 C 8.67 29.1 8.78 29.08 8.89 29.049999 C 9.1 28.969999 9.25 28.82 9.33 28.610001 C 9.43 28.389999 9.44 28.17 9.35 27.940001 C 9.27 27.709999 9.12 27.559999 8.9 27.48 C 8.68 27.379999 8.46 27.379999 8.23 27.469999 C 8 27.559999 7.85 27.709999 7.78 27.92 C 7.73 28.030001 7.7 28.15 7.7 28.27 Z M 9.37 25.9 L 9.37 26 C 9.39 26.23 9.5 26.42 9.7 26.58 C 9.85 26.74 10.05 26.809999 10.3 26.780001 C 10.55 26.75 10.75 26.639999 10.9 26.440001 L 15.04 21.209999 C 15.18 21.01 15.23 20.799999 15.21 20.57 C 15.19 20.34 15.08 20.15 14.9 19.98 C 14.72 19.84 14.51 19.780001 14.28 19.809999 C 14.05 19.84 13.86 19.940001 13.72 20.120001 L 9.56 25.379999 C 9.43 25.530001 9.37 25.709999 9.37 25.9 Z M 9.95 5.610001 C 9.95 5.85 10.04 6.049999 10.22 6.200001 L 10.83 6.860001 C 10.99 7.02 11.17 7.1 11.37 7.119999 C 11.58 7.15 11.78 7.08 11.98 6.9 C 12.18 6.719999 12.28 6.51 12.28 6.26 C 12.28 6.040001 12.2 5.83 12.04 5.66 L 11.4 5.01 C 11.25 4.85 11.06 4.77 10.82 4.77 C 10.58 4.77 10.37 4.85 10.2 5.01 C 10.04 5.18 9.95 5.380001 9.95 5.610001 Z M 12.9 27.040001 C 12.9 27.16 12.92 27.26 12.97 27.35 C 13.06 27.57 13.21 27.719999 13.42 27.809999 C 13.53 27.860001 13.64 27.889999 13.77 27.889999 C 13.83 27.889999 13.93 27.870001 14.07 27.83 C 14.29 27.74 14.45 27.59 14.53 27.370001 C 14.63 27.15 14.64 26.93 14.55 26.709999 C 14.47 26.49 14.32 26.34 14.1 26.26 C 13.88 26.16 13.66 26.15 13.43 26.24 C 13.2 26.33 13.05 26.48 12.97 26.690001 C 12.92 26.799999 12.9 26.92 12.9 27.040001 Z M 15.3 10.029999 C 16.01 9.389999 16.83 9.060001 17.780001 9.060001 C 18.77 9.060001 19.610001 9.4 20.309999 10.09 C 21.01 10.779999 21.360001 11.6 21.360001 12.58 C 21.360001 13.24 21.190001 13.860001 20.84 14.439999 C 19.870001 13.470001 18.709999 12.99 17.360001 12.99 L 17.02 12.99 C 16.75 11.83 16.18 10.85 15.3 10.029999 Z M 16.93 4.77 C 16.93 5 17.01 5.200001 17.18 5.360001 C 17.35 5.52 17.549999 5.6 17.780001 5.6 C 18.02 5.6 18.23 5.52 18.4 5.360001 C 18.57 5.200001 18.65 5 18.65 4.77 L 18.65 2.700001 C 18.65 2.469999 18.559999 2.27 18.389999 2.1 C 18.219999 1.93 18.01 1.85 17.780001 1.85 C 17.549999 1.85 17.35 1.93 17.18 2.1 C 17.01 2.27 16.93 2.469999 16.93 2.700001 L 16.93 4.77 Z M 22.5 7.049999 C 22.5 7.290001 22.57 7.49 22.719999 7.65 C 22.9 7.82 23.1 7.9 23.33 7.91 C 23.559999 7.91 23.75 7.83 23.9 7.65 L 25.4 6.200001 C 25.559999 6.040001 25.639999 5.83 25.639999 5.59 C 25.639999 5.35 25.549999 5.15 25.379999 4.98 C 25.209999 4.809999 25.01 4.719999 24.780001 4.719999 C 24.559999 4.719999 24.360001 4.799999 24.18 4.969999 L 22.73 6.440001 C 22.58 6.610001 22.5 6.809999 22.5 7.049999 Z M 23.280001 18.950001 C 23.280001 19.190001 23.360001 19.389999 23.52 19.549999 L 24.18 20.18 C 24.34 20.34 24.52 20.43 24.719999 20.450001 L 24.780001 20.450001 C 24.959999 20.450001 25.16 20.360001 25.4 20.18 C 25.559999 20.02 25.639999 19.82 25.639999 19.6 C 25.639999 19.360001 25.559999 19.15 25.4 18.969999 L 24.74 18.35 C 24.58 18.18 24.379999 18.1 24.15 18.1 C 23.91 18.1 23.700001 18.18 23.530001 18.35 C 23.370001 18.51 23.280001 18.719999 23.280001 18.950001 Z M 24.780001 12.58 C 24.780001 12.82 24.860001 13.02 25.02 13.18 C 25.18 13.360001 25.379999 13.450001 25.620001 13.450001 L 27.66 13.450001 C 27.9 13.450001 28.1 13.360001 28.27 13.189999 C 28.440001 13.02 28.52 12.810001 28.52 12.58 C 28.52 12.35 28.440001 12.15 28.27 11.99 C 28.1 11.83 27.9 11.75 27.66 11.75 L 25.620001 11.75 C 25.379999 11.75 25.18 11.83 25.02 11.99 C 24.860001 12.15 24.780001 12.35 24.780001 12.58 Z"/>
</svg>
