<?xml version="1.0" encoding="UTF-8"?>
<!-- Generated by Pixelmator Pro 3.6.18 -->
<svg width="30" height="30" viewBox="0 0 30 30" xmlns="http://www.w3.org/2000/svg">
    <path id="Path" fill="#000000" stroke="none" d="M 1.48 17.950001 C 1.48 19.27 1.94 20.41 2.85 21.35 C 3.76 22.290001 4.89 22.799999 6.23 22.860001 C 6.35 22.860001 6.41 22.799999 6.41 22.690001 L 6.41 21.360001 C 6.41 21.24 6.35 21.18 6.23 21.18 C 5.37 21.139999 4.65 20.799999 4.06 20.18 C 3.47 19.559999 3.18 18.809999 3.18 17.940001 C 3.18 17.1 3.46 16.360001 4.02 15.75 C 4.58 15.13 5.28 14.790001 6.12 14.720001 L 6.65 14.639999 C 6.76 14.639999 6.81 14.59 6.81 14.5 L 6.89 13.950001 C 7.01 12.860001 7.48 11.950001 8.27 11.23 C 9.06 10.51 10 10.16 11.1 10.16 C 12.2 10.16 13.15 10.52 13.96 11.24 C 14.78 11.959999 15.24 12.860001 15.34 13.93 L 15.41 14.51 C 15.43 14.619999 15.51 14.68 15.63 14.68 L 17.23 14.68 C 18.120001 14.68 18.879999 15 19.52 15.64 C 20.16 16.279999 20.48 17.049999 20.48 17.950001 C 20.48 18.82 20.190001 19.559999 19.6 20.190001 C 19.01 20.82 18.290001 21.139999 17.43 21.190001 C 17.299999 21.190001 17.23 21.25 17.23 21.370001 L 17.23 22.700001 C 17.23 22.809999 17.299999 22.870001 17.43 22.870001 C 18.76 22.83 19.879999 22.33 20.799999 21.379999 C 21.709999 20.43 22.17 19.290001 22.17 17.959999 C 22.17 17.280001 22.040001 16.619999 21.790001 15.95 C 22.57 14.99 22.950001 13.869999 22.950001 12.6 C 22.950001 11.889999 22.809999 11.220001 22.540001 10.57 C 22.27 9.92 21.889999 9.369999 21.42 8.9 C 20.950001 8.43 20.389999 8.059999 19.75 7.780001 C 19.110001 7.5 18.42 7.360001 17.709999 7.360001 C 16.17 7.360001 14.88 7.940001 13.85 9.1 C 12.96 8.66 12.04 8.440001 11.11 8.440001 C 9.7 8.440001 8.45 8.880001 7.37 9.75 C 6.29 10.619999 5.6 11.75 5.29 13.130001 C 4.17 13.389999 3.25 13.959999 2.54 14.860001 C 1.83 15.76 1.48 16.790001 1.48 17.950001 Z M 6.83 24.98 C 6.83 25.15 6.88 25.32 6.99 25.49 C 7.1 25.66 7.26 25.77 7.46 25.84 C 7.69 25.91 7.91 25.9 8.1 25.799999 C 8.3 25.709999 8.43 25.52 8.5 25.24 L 8.64 24.629999 C 8.69 24.4 8.66 24.190001 8.54 24 C 8.42 23.799999 8.25 23.67 8.02 23.6 C 7.79 23.530001 7.58 23.559999 7.38 23.68 C 7.18 23.799999 7.06 23.969999 7 24.200001 L 6.86 24.790001 C 6.84 24.85 6.83 24.91 6.83 24.98 Z M 7.6 22.08 C 7.6 22.299999 7.68 22.49 7.84 22.65 C 8 22.83 8.19 22.91 8.4 22.91 C 8.64 22.91 8.84 22.83 9 22.67 C 9.17 22.51 9.25 22.32 9.25 22.08 C 9.25 21.85 9.17 21.65 9 21.49 C 8.83 21.33 8.63 21.25 8.4 21.25 C 8.17 21.25 7.98 21.33 7.82 21.48 C 7.66 21.629999 7.6 21.85 7.6 22.08 Z M 8.21 19.809999 C 8.2 19.969999 8.24 20.120001 8.34 20.26 C 8.44 20.41 8.6 20.51 8.82 20.58 C 9.03 20.639999 9.23 20.620001 9.44 20.51 C 9.65 20.4 9.79 20.23 9.86 20 L 10.13 19.1 C 10.2 18.860001 10.18 18.639999 10.06 18.450001 C 9.94 18.26 9.76 18.129999 9.52 18.059999 C 9.3 17.99 9.09 18.01 8.89 18.129999 C 8.69 18.24 8.55 18.41 8.48 18.629999 L 8.24 19.549999 C 8.22 19.709999 8.21 19.799999 8.21 19.809999 Z M 9.36 28.1 C 9.36 28.27 9.41 28.43 9.52 28.59 C 9.63 28.75 9.79 28.860001 10.01 28.92 C 10.1 28.940001 10.18 28.950001 10.25 28.950001 C 10.68 28.950001 10.95 28.75 11.05 28.34 L 11.18 27.75 C 11.24 27.49 11.21 27.27 11.1 27.07 C 10.99 26.870001 10.81 26.75 10.58 26.700001 C 10.37 26.629999 10.16 26.65 9.95 26.77 C 9.74 26.889999 9.61 27.059999 9.54 27.280001 L 9.4 27.879999 C 9.37 27.99 9.36 28.07 9.36 28.1 Z M 9.92 5.66 C 9.92 5.9 10 6.1 10.16 6.26 L 10.82 6.9 C 10.96 7.059999 11.14 7.139999 11.36 7.16 C 11.58 7.18 11.79 7.09 11.98 6.9 C 12.14 6.74 12.22 6.540001 12.22 6.309999 C 12.22 6.07 12.14 5.869999 11.98 5.709999 L 11.35 5.059999 C 11.2 4.9 11 4.82 10.77 4.799999 C 10.54 4.799999 10.34 4.880001 10.17 5.049999 C 10.01 5.219999 9.92 5.42 9.92 5.66 Z M 10.15 25.200001 C 10.15 25.43 10.23 25.620001 10.39 25.780001 C 10.55 25.940001 10.75 26.02 10.97 26.02 C 11.21 26.02 11.4 25.940001 11.56 25.790001 C 11.72 25.629999 11.79 25.440001 11.79 25.200001 C 11.79 24.969999 11.71 24.780001 11.56 24.620001 C 11.4 24.459999 11.21 24.389999 10.97 24.389999 C 10.73 24.389999 10.54 24.469999 10.38 24.620001 C 10.22 24.77 10.15 24.969999 10.15 25.200001 Z M 10.77 22.93 C 10.76 23.08 10.8 23.24 10.91 23.4 C 11.01 23.559999 11.16 23.66 11.36 23.700001 C 11.59 23.76 11.8 23.74 12 23.639999 C 12.2 23.540001 12.33 23.35 12.41 23.08 L 12.67 22.18 C 12.74 21.959999 12.72 21.75 12.6 21.549999 C 12.48 21.35 12.31 21.219999 12.07 21.15 C 11.85 21.08 11.64 21.110001 11.43 21.23 C 11.22 21.35 11.09 21.530001 11.02 21.76 L 10.8 22.66 C 10.78 22.74 10.77 22.83 10.77 22.93 Z M 13.53 25.08 C 13.53 25.25 13.58 25.41 13.68 25.559999 C 13.78 25.709999 13.93 25.82 14.14 25.879999 C 14.17 25.879999 14.22 25.889999 14.28 25.9 C 14.34 25.91 14.39 25.92 14.42 25.92 C 14.83 25.92 15.08 25.700001 15.18 25.26 L 15.32 24.66 C 15.39 24.450001 15.37 24.24 15.25 24.030001 C 15.13 23.82 14.96 23.690001 14.74 23.620001 C 14.49 23.559999 14.26 23.58 14.06 23.700001 C 13.86 23.82 13.72 23.99 13.65 24.23 L 13.56 24.82 C 13.56 24.83 13.56 24.870001 13.55 24.93 C 13.54 25 13.53 25.040001 13.53 25.08 Z M 14.27 22.120001 C 14.27 22.35 14.35 22.540001 14.51 22.690001 C 14.66 22.85 14.85 22.93 15.09 22.93 C 15.33 22.93 15.52 22.85 15.68 22.700001 C 15.84 22.540001 15.91 22.35 15.91 22.120001 C 15.91 21.879999 15.83 21.690001 15.68 21.530001 C 15.52 21.370001 15.33 21.299999 15.09 21.299999 C 14.85 21.299999 14.66 21.379999 14.5 21.530001 C 14.34 21.68 14.27 21.879999 14.27 22.120001 Z M 14.88 19.809999 C 14.88 19.98 14.93 20.139999 15.04 20.290001 C 15.15 20.440001 15.31 20.549999 15.53 20.610001 C 15.55 20.610001 15.59 20.620001 15.65 20.629999 C 15.71 20.639999 15.76 20.65 15.79 20.65 C 15.9 20.65 16.02 20.620001 16.16 20.559999 C 16.370001 20.450001 16.5 20.280001 16.559999 20.040001 L 16.799999 19.139999 C 16.860001 18.91 16.84 18.700001 16.73 18.51 C 16.620001 18.32 16.450001 18.18 16.23 18.110001 C 16 18.040001 15.78 18.059999 15.59 18.17 C 15.39 18.280001 15.26 18.440001 15.19 18.68 L 14.91 19.59 C 14.91 19.610001 14.91 19.639999 14.9 19.700001 C 14.89 19.73 14.88 19.77 14.88 19.809999 Z M 15.23 10.09 C 15.89 9.43 16.709999 9.1 17.700001 9.1 C 18.690001 9.1 19.530001 9.439999 20.219999 10.119999 C 20.91 10.799999 21.26 11.619999 21.26 12.6 C 21.26 13.26 21.08 13.889999 20.73 14.48 C 19.75 13.5 18.58 13.01 17.23 13.01 L 16.92 13.01 C 16.639999 11.91 16.07 10.939999 15.23 10.09 Z M 16.879999 4.83 C 16.879999 5.059999 16.959999 5.25 17.110001 5.41 C 17.26 5.559999 17.459999 5.639999 17.700001 5.639999 C 17.940001 5.639999 18.15 5.559999 18.32 5.41 C 18.49 5.26 18.57 5.059999 18.57 4.83 L 18.57 2.76 C 18.57 2.530001 18.48 2.33 18.309999 2.16 C 18.139999 1.99 17.93 1.91 17.700001 1.91 C 17.469999 1.91 17.27 1.99 17.120001 2.16 C 16.959999 2.33 16.889999 2.530001 16.889999 2.76 L 16.889999 4.83 Z M 22.4 7.09 C 22.4 7.34 22.48 7.540001 22.629999 7.690001 C 22.99 8.049999 23.389999 8.049999 23.84 7.690001 L 25.27 6.26 C 25.440001 6.09 25.52 5.880001 25.52 5.630001 C 25.52 5.389999 25.440001 5.190001 25.27 5.030001 C 25.1 4.860001 24.9 4.780001 24.67 4.780001 C 24.440001 4.780001 24.24 4.860001 24.059999 5.02 L 22.629999 6.5 C 22.48 6.65 22.4 6.84 22.4 7.09 Z M 23.18 18.940001 C 23.18 19.17 23.27 19.370001 23.450001 19.530001 L 24.059999 20.16 C 24.26 20.32 24.459999 20.4 24.67 20.4 C 24.870001 20.4 25.07 20.32 25.27 20.16 C 25.440001 20 25.52 19.809999 25.52 19.57 C 25.52 19.34 25.440001 19.139999 25.27 18.950001 L 24.620001 18.34 C 24.469999 18.17 24.280001 18.09 24.049999 18.09 C 23.82 18.09 23.620001 18.17 23.450001 18.34 C 23.27 18.51 23.18 18.709999 23.18 18.940001 Z M 24.66 12.6 C 24.66 12.84 24.75 13.029999 24.92 13.189999 C 25.1 13.369999 25.309999 13.459999 25.540001 13.459999 L 27.57 13.459999 C 27.799999 13.459999 28 13.380001 28.16 13.209999 C 28.32 13.040001 28.4 12.84 28.4 12.6 C 28.4 12.360001 28.32 12.16 28.16 12 C 28 11.83 27.809999 11.75 27.57 11.75 L 25.540001 11.75 C 25.299999 11.75 25.1 11.83 24.92 12 C 24.74 12.17 24.66 12.369999 24.66 12.6 Z"/>
</svg>
