<?xml version="1.0" encoding="UTF-8"?>
<!-- Generated by Pixelmator Pro 3.6.18 -->
<svg width="30" height="30" viewBox="0 0 30 30" xmlns="http://www.w3.org/2000/svg">
    <path id="Path" fill="#000000" stroke="none" d="M 1.56 17.9 C 1.56 19.23 2.02 20.370001 2.95 21.33 C 3.88 22.290001 5.01 22.799999 6.35 22.860001 C 6.46 22.860001 6.52 22.799999 6.52 22.690001 L 6.52 21.32 C 6.52 21.200001 6.46 21.139999 6.35 21.139999 C 5.48 21.07 4.75 20.73 4.16 20.1 C 3.57 19.48 3.27 18.74 3.27 17.889999 C 3.27 17.049999 3.55 16.32 4.12 15.7 C 4.69 15.08 5.38 14.73 6.22 14.66 L 6.74 14.58 C 6.87 14.58 6.94 14.52 6.94 14.41 L 7 13.9 C 7.11 12.82 7.56 11.91 8.37 11.189999 C 9.18 10.459999 10.13 10.1 11.23 10.1 C 12.32 10.1 13.27 10.459999 14.08 11.189999 C 14.89 11.91 15.35 12.82 15.47 13.91 L 15.54 14.49 C 15.54 14.6 15.6 14.66 15.73 14.66 L 17.33 14.66 C 18.24 14.66 19.01 14.98 19.65 15.61 C 20.290001 16.24 20.610001 17 20.610001 17.889999 C 20.610001 18.74 20.309999 19.48 19.719999 20.1 C 19.129999 20.719999 18.4 21.07 17.530001 21.139999 C 17.4 21.139999 17.33 21.200001 17.33 21.32 L 17.33 22.690001 C 17.33 22.799999 17.4 22.860001 17.530001 22.860001 C 18.860001 22.82 19.99 22.309999 20.91 21.35 C 21.83 20.389999 22.290001 19.24 22.290001 17.9 C 22.290001 17.219999 22.129999 16.529999 21.82 15.83 C 22.6 14.889999 23 13.799999 23 12.560001 C 23 11.85 22.860001 11.17 22.58 10.52 C 22.299999 9.869999 21.93 9.32 21.459999 8.85 C 20.99 8.380001 20.43 8.01 19.790001 7.73 C 19.139999 7.459999 18.469999 7.32 17.76 7.32 C 16.219999 7.32 14.92 7.9 13.88 9.049999 C 13.02 8.639999 12.14 8.43 11.23 8.43 C 9.81 8.43 8.56 8.860001 7.47 9.73 C 6.38 10.6 5.68 11.720001 5.37 13.1 C 4.27 13.360001 3.36 13.93 2.64 14.83 C 1.92 15.73 1.56 16.75 1.56 17.9 Z M 9.06 29.17 L 9.36 29.17 L 14.68 21.32 C 14.72 21.280001 14.73 21.23 14.7 21.18 C 14.67 21.129999 14.63 21.110001 14.56 21.110001 L 12.38 21.110001 L 14.68 16.9 C 14.75 16.76 14.71 16.68 14.54 16.68 L 11.6 16.68 C 11.52 16.68 11.45 16.73 11.38 16.82 L 9.22 22.540001 C 9.2 22.68 9.24 22.75 9.36 22.75 L 11.53 22.75 L 9.06 29.17 Z M 9.94 5.59 C 9.94 5.84 10.02 6.049999 10.18 6.209999 L 10.84 6.860001 C 11.26 7.18 11.66 7.18 12.05 6.860001 C 12.21 6.68 12.29 6.469999 12.29 6.219999 C 12.29 5.99 12.21 5.790001 12.05 5.630001 L 11.41 4.98 C 11.22 4.809999 11.02 4.73 10.79 4.73 C 10.56 4.73 10.36 4.809999 10.19 4.98 C 10.02 5.15 9.94 5.360001 9.94 5.59 Z M 15.28 10.02 C 15.96 9.34 16.790001 9 17.76 9 C 18.74 9 19.57 9.35 20.25 10.040001 C 20.940001 10.73 21.280001 11.57 21.280001 12.560001 C 21.280001 13.17 21.110001 13.77 20.77 14.369999 C 19.790001 13.43 18.639999 12.959999 17.309999 12.959999 L 17 12.959999 C 16.74 11.82 16.16 10.84 15.28 10.02 Z M 16.9 4.73 C 16.9 4.98 16.98 5.190001 17.139999 5.35 C 17.299999 5.51 17.5 5.59 17.75 5.59 C 17.99 5.59 18.18 5.51 18.34 5.35 C 18.5 5.190001 18.57 4.98 18.57 4.73 L 18.57 2.690001 C 18.57 2.450001 18.49 2.26 18.34 2.1 C 18.18 1.940001 17.99 1.870001 17.75 1.870001 C 17.51 1.870001 17.309999 1.950001 17.15 2.1 C 16.99 2.25 16.9 2.450001 16.9 2.690001 L 16.9 4.73 Z M 22.42 7.049999 C 22.42 7.280001 22.51 7.48 22.690001 7.65 C 22.870001 7.82 23.059999 7.9 23.24 7.9 C 23.4 7.9 23.610001 7.82 23.860001 7.65 L 25.299999 6.219999 C 25.469999 6.040001 25.549999 5.83 25.549999 5.59 C 25.549999 5.35 25.469999 5.139999 25.299999 4.98 C 25.129999 4.82 24.93 4.74 24.700001 4.74 C 24.48 4.74 24.290001 4.82 24.120001 4.99 L 22.690001 6.42 C 22.51 6.610001 22.42 6.82 22.42 7.049999 Z M 23.23 18.870001 C 23.23 19.1 23.309999 19.299999 23.469999 19.48 L 24.120001 20.139999 C 24.280001 20.299999 24.48 20.379999 24.700001 20.379999 C 24.940001 20.379999 25.139999 20.299999 25.299999 20.129999 C 25.469999 19.959999 25.549999 19.75 25.549999 19.5 C 25.549999 19.27 25.469999 19.08 25.299999 18.93 L 24.68 18.27 C 24.49 18.110001 24.290001 18.040001 24.059999 18.040001 C 23.83 18.040001 23.629999 18.120001 23.469999 18.280001 C 23.309999 18.440001 23.23 18.639999 23.23 18.870001 Z M 24.68 12.560001 C 24.68 12.779999 24.77 12.970001 24.940001 13.130001 C 25.110001 13.299999 25.309999 13.380001 25.540001 13.380001 L 27.58 13.380001 C 27.82 13.380001 28.02 13.299999 28.190001 13.139999 C 28.360001 12.98 28.440001 12.790001 28.440001 12.549999 C 28.440001 12.310001 28.35 12.110001 28.18 11.939999 C 28.01 11.77 27.809999 11.689999 27.58 11.689999 L 25.540001 11.689999 C 25.309999 11.689999 25.110001 11.77 24.940001 11.939999 C 24.77 12.119999 24.68 12.32 24.68 12.560001 Z"/>
</svg>
