<?xml version="1.0" encoding="UTF-8"?>
<!-- Generated by Pixelmator Pro 3.6.18 -->
<svg width="30" height="30" viewBox="0 0 30 30" xmlns="http://www.w3.org/2000/svg">
    <path id="Path" fill="#000000" stroke="none" d="M 7.33 16.58 C 7.33 16.35 7.41 16.17 7.56 16.02 C 7.72 15.87 7.93 15.8 8.2 15.8 L 13.91 15.8 C 14.18 15.8 14.39 15.87 14.55 16.02 C 14.71 16.17 14.78 16.35 14.78 16.58 C 14.78 16.85 14.7 17.07 14.55 17.219999 C 14.4 17.370001 14.18 17.450001 13.91 17.450001 L 8.2 17.450001 C 7.93 17.450001 7.72 17.370001 7.56 17.219999 C 7.4 17.07 7.33 16.860001 7.33 16.58 Z M 7.33 10.67 C 7.33 10.450001 7.41 10.26 7.56 10.119999 C 7.72 9.970001 7.93 9.9 8.2 9.9 L 11.16 9.9 C 11.43 9.9 11.64 9.970001 11.8 10.119999 C 11.96 10.26 12.04 10.450001 12.04 10.67 C 12.04 10.939999 11.96 11.15 11.8 11.310001 C 11.64 11.470001 11.43 11.549999 11.16 11.549999 L 8.2 11.549999 C 7.93 11.549999 7.72 11.470001 7.56 11.32 C 7.4 11.17 7.33 10.939999 7.33 10.67 Z M 8.32 19.540001 C 8.32 19.32 8.41 19.120001 8.6 18.940001 C 8.78 18.76 8.99 18.66 9.2 18.66 C 9.46 18.66 9.66 18.75 9.82 18.93 C 9.98 19.110001 10.06 19.309999 10.06 19.540001 C 10.06 19.809999 9.98 20.030001 9.83 20.190001 C 9.68 20.35 9.47 20.42 9.2 20.42 C 8.97 20.42 8.76 20.34 8.59 20.18 C 8.4 20.01 8.32 19.799999 8.32 19.540001 Z M 9.74 13.610001 C 9.74 13.380001 9.81 13.17 9.96 13 C 10.11 12.82 10.29 12.73 10.5 12.73 C 10.76 12.73 10.98 12.82 11.14 13 C 11.3 13.18 11.38 13.380001 11.38 13.610001 C 11.38 13.880001 11.3 14.1 11.15 14.26 C 10.99 14.42 10.78 14.49 10.5 14.49 C 10.27 14.49 10.09 14.41 9.95 14.25 C 9.81 14.09 9.74 13.880001 9.74 13.610001 Z M 10.73 19.540001 C 10.73 19.309999 10.81 19.1 10.97 18.93 C 11.13 18.76 11.35 18.66 11.61 18.66 L 15.44 18.66 L 16.32 19.540001 C 16.32 19.799999 16.23 20.01 16.049999 20.18 C 15.87 20.35 15.67 20.42 15.44 20.42 L 11.61 20.42 C 11.34 20.42 11.12 20.34 10.96 20.18 C 10.8 20.02 10.73 19.809999 10.73 19.540001 Z M 12.05 13.610001 C 12.05 13.389999 12.14 13.189999 12.33 13.01 C 12.51 12.83 12.72 12.73 12.93 12.73 L 16.76 12.73 C 17.02 12.73 17.23 12.82 17.389999 13 C 17.549999 13.18 17.629999 13.380001 17.629999 13.610001 C 17.629999 13.880001 17.549999 14.1 17.4 14.26 C 17.24 14.42 17.030001 14.49 16.76 14.49 L 12.93 14.49 C 12.7 14.49 12.49 14.41 12.32 14.25 C 12.14 14.09 12.05 13.880001 12.05 13.610001 Z M 12.81 10.67 C 12.81 10.450001 12.89 10.26 13.05 10.119999 C 13.21 9.98 13.42 9.9 13.69 9.9 L 19.4 9.9 C 19.629999 9.9 19.83 9.98 20.01 10.130001 C 20.190001 10.279999 20.280001 10.459999 20.280001 10.67 C 20.280001 10.93 20.190001 11.15 20.01 11.310001 C 19.83 11.470001 19.629999 11.549999 19.4 11.549999 L 13.69 11.549999 C 13.42 11.549999 13.2 11.470001 13.04 11.310001 C 12.88 11.15 12.81 10.939999 12.81 10.67 Z M 15.44 16.58 C 15.44 16.370001 15.53 16.18 15.71 16.030001 C 15.89 15.88 16.09 15.8 16.32 15.8 C 16.549999 15.8 16.75 15.88 16.93 16.030001 C 17.110001 16.18 17.200001 16.370001 17.200001 16.58 C 17.200001 16.84 17.110001 17.049999 16.93 17.209999 C 16.75 17.370001 16.549999 17.450001 16.32 17.450001 C 16.09 17.450001 15.88 17.370001 15.71 17.209999 C 15.53 17.059999 15.44 16.85 15.44 16.58 Z M 16.98 19.540001 C 16.98 19.309999 17.059999 19.1 17.219999 18.93 C 17.379999 18.75 17.59 18.66 17.85 18.66 L 19.719999 18.66 C 19.98 18.66 20.190001 18.75 20.35 18.92 C 20.51 19.09 20.59 19.299999 20.59 19.540001 C 20.59 19.809999 20.51 20.030001 20.360001 20.190001 C 20.209999 20.35 19.99 20.42 19.719999 20.42 L 17.85 20.42 C 17.58 20.42 17.370001 20.34 17.209999 20.190001 C 17.059999 20.030001 16.98 19.809999 16.98 19.540001 Z M 17.85 16.58 C 17.85 16.370001 17.940001 16.18 18.120001 16.030001 C 18.299999 15.88 18.5 15.8 18.73 15.8 L 21.799999 15.8 C 22.02 15.8 22.200001 15.88 22.34 16.030001 C 22.48 16.18 22.559999 16.360001 22.559999 16.58 C 22.559999 16.85 22.49 17.059999 22.35 17.219999 C 22.209999 17.379999 22.030001 17.450001 21.799999 17.450001 L 18.73 17.450001 C 18.5 17.450001 18.290001 17.370001 18.120001 17.209999 C 17.940001 17.059999 17.85 16.85 17.85 16.58 Z M 18.290001 13.610001 C 18.290001 13.389999 18.379999 13.189999 18.57 13.01 C 18.75 12.83 18.959999 12.73 19.17 12.73 L 21.129999 12.73 C 21.34 12.73 21.52 12.82 21.67 13 C 21.82 13.18 21.9 13.380001 21.9 13.610001 C 21.9 13.880001 21.83 14.09 21.68 14.25 C 21.540001 14.41 21.35 14.49 21.129999 14.49 L 19.17 14.49 C 18.940001 14.49 18.73 14.41 18.559999 14.25 C 18.379999 14.09 18.290001 13.880001 18.290001 13.610001 Z M 21.030001 10.67 C 21.030001 10.450001 21.1 10.27 21.25 10.119999 C 21.4 9.970001 21.58 9.9 21.799999 9.9 C 22.07 9.9 22.280001 9.970001 22.440001 10.119999 C 22.6 10.26 22.68 10.450001 22.68 10.67 C 22.68 10.939999 22.6 11.15 22.440001 11.310001 C 22.280001 11.470001 22.07 11.549999 21.799999 11.549999 C 21.57 11.549999 21.389999 11.470001 21.25 11.310001 C 21.1 11.15 21.030001 10.939999 21.030001 10.67 Z"/>
</svg>
