<?xml version="1.0" encoding="UTF-8"?>
<!-- Generated by Pixelmator Pro 3.6.18 -->
<svg width="30" height="30" viewBox="0 0 30 30" xmlns="http://www.w3.org/2000/svg">
    <path id="Path" fill="#000000" stroke="none" d="M 1.56 20.9 C 1.56 21.799999 1.78 22.629999 2.22 23.389999 C 2.66 24.15 3.26 24.75 4.02 25.190001 C 4.78 25.629999 5.6 25.85 6.49 25.85 L 17.32 25.85 C 18.209999 25.85 19.040001 25.629999 19.799999 25.190001 C 20.559999 24.75 21.17 24.15 21.610001 23.389999 C 22.049999 22.629999 22.280001 21.799999 22.280001 20.9 C 22.280001 20.24 22.139999 19.57 21.860001 18.9 C 22.620001 17.98 23 16.869999 23 15.6 C 23 14.889999 22.860001 14.209999 22.59 13.560001 C 22.32 12.91 21.940001 12.360001 21.469999 11.889999 C 21 11.42 20.450001 11.040001 19.799999 10.77 C 19.15 10.49 18.469999 10.360001 17.76 10.360001 C 16.280001 10.360001 14.99 10.940001 13.88 12.1 C 13.11 11.66 12.21 11.440001 11.18 11.440001 C 9.77 11.440001 8.53 11.880001 7.45 12.75 C 6.37 13.619999 5.67 14.74 5.37 16.1 C 4.25 16.360001 3.34 16.93 2.63 17.83 C 1.92 18.73 1.56 19.75 1.56 20.9 Z M 3.27 20.9 C 3.27 20.059999 3.55 19.34 4.11 18.73 C 4.67 18.119999 5.37 17.77 6.21 17.67 L 6.71 17.639999 C 6.83 17.639999 6.9 17.58 6.9 17.459999 L 6.97 16.92 C 7.11 15.84 7.58 14.93 8.38 14.209999 C 9.18 13.48 10.12 13.119999 11.19 13.119999 C 12.29 13.119999 13.25 13.49 14.06 14.220001 C 14.88 14.950001 15.33 15.85 15.43 16.93 L 15.5 17.51 C 15.52 17.619999 15.59 17.68 15.71 17.68 L 17.32 17.68 C 18.200001 17.68 18.959999 18 19.6 18.639999 C 20.24 19.279999 20.559999 20.030001 20.559999 20.91 C 20.559999 21.82 20.24 22.59 19.610001 23.23 C 18.98 23.870001 18.209999 24.190001 17.33 24.190001 L 6.49 24.190001 C 5.61 24.190001 4.86 23.870001 4.22 23.219999 C 3.59 22.57 3.27 21.799999 3.27 20.9 Z M 9.97 8.630001 C 9.97 8.869999 10.05 9.08 10.21 9.26 L 10.87 9.9 C 11.12 10.09 11.33 10.17 11.51 10.15 C 11.72 10.15 11.9 10.059999 12.06 9.889999 C 12.22 9.719999 12.3 9.51 12.3 9.27 C 12.3 9.030001 12.21 8.83 12.04 8.68 L 11.45 8.02 C 11.27 7.860001 11.07 7.780001 10.84 7.780001 C 10.6 7.780001 10.39 7.860001 10.22 8.030001 C 10.05 8.190001 9.97 8.389999 9.97 8.630001 Z M 15.31 13.060001 C 16 12.389999 16.82 12.060001 17.76 12.060001 C 18.75 12.060001 19.59 12.4 20.280001 13.09 C 20.969999 13.779999 21.32 14.610001 21.32 15.6 C 21.32 16.220001 21.15 16.84 20.809999 17.439999 C 19.84 16.48 18.68 16 17.32 16 L 17 16 C 16.75 14.91 16.190001 13.93 15.31 13.060001 Z M 16.940001 7.780001 C 16.940001 8.040001 17.02 8.24 17.17 8.4 C 17.32 8.559999 17.52 8.630001 17.76 8.630001 C 18.02 8.630001 18.219999 8.549999 18.379999 8.4 C 18.540001 8.24 18.610001 8.040001 18.610001 7.780001 L 18.610001 5.73 C 18.610001 5.49 18.530001 5.299999 18.370001 5.139999 C 18.209999 4.98 18.01 4.91 17.76 4.91 C 17.52 4.91 17.33 4.99 17.17 5.139999 C 17.01 5.290001 16.940001 5.49 16.940001 5.73 L 16.940001 7.780001 Z M 22.459999 10.07 C 22.459999 10.33 22.530001 10.530001 22.68 10.690001 C 22.889999 10.85 23.1 10.93 23.299999 10.93 C 23.48 10.93 23.68 10.85 23.889999 10.690001 L 25.32 9.26 C 25.48 9.08 25.559999 8.869999 25.559999 8.619999 C 25.559999 8.380001 25.48 8.18 25.32 8.02 C 25.16 7.860001 24.959999 7.780001 24.73 7.780001 C 24.49 7.780001 24.299999 7.860001 24.15 8.02 L 22.68 9.450001 C 22.530001 9.639999 22.459999 9.84 22.459999 10.07 Z M 23.25 21.91 C 23.25 22.15 23.33 22.360001 23.5 22.540001 L 24.15 23.17 C 24.299999 23.33 24.49 23.41 24.73 23.41 C 24.969999 23.41 25.17 23.33 25.33 23.16 C 25.49 22.99 25.57 22.790001 25.57 22.540001 C 25.57 22.32 25.49 22.120001 25.33 21.959999 L 24.68 21.309999 C 24.52 21.15 24.33 21.07 24.110001 21.07 C 23.870001 21.07 23.67 21.15 23.51 21.309999 C 23.34 21.469999 23.25 21.67 23.25 21.91 Z M 24.719999 15.6 C 24.719999 15.83 24.809999 16.02 24.98 16.18 C 25.139999 16.34 25.35 16.42 25.59 16.42 L 27.629999 16.42 C 27.860001 16.42 28.049999 16.34 28.209999 16.189999 C 28.370001 16.040001 28.440001 15.84 28.440001 15.6 C 28.440001 15.360001 28.360001 15.16 28.209999 15 C 28.059999 14.84 27.860001 14.75 27.629999 14.75 L 25.59 14.75 C 25.35 14.75 25.15 14.83 24.98 15 C 24.799999 15.17 24.719999 15.369999 24.719999 15.6 Z"/>
</svg>
