<?xml version="1.0" encoding="UTF-8"?>
<!-- Generated by Pixelmator Pro 3.6.18 -->
<svg width="30" height="30" viewBox="0 0 30 30" xmlns="http://www.w3.org/2000/svg">
    <path id="Path" fill="#000000" stroke="none" d="M 1.49 17.92 L 1.49 17.92 C 1.49 16.75 1.85 15.73 2.57 14.83 C 3.29 13.93 4.21 13.35 5.31 13.09 C 5.62 11.720001 6.32 10.6 7.41 9.709999 C 8.51 8.83 9.76 8.389999 11.18 8.389999 C 12.17 8.389999 13.08 8.610001 13.9 9.049999 C 14.4 8.52 14.99 8.1 15.66 7.799999 C 16.33 7.5 17.030001 7.35 17.75 7.35 C 18.700001 7.35 19.58 7.59 20.389999 8.059999 C 21.200001 8.530001 21.84 9.17 22.309999 9.98 C 22.780001 10.790001 23.02 11.67 23.02 12.619999 C 23.02 13.85 22.639999 14.950001 21.879999 15.91 C 22.17 16.52 22.309999 17.190001 22.309999 17.93 C 22.309999 18.809999 22.1 19.629999 21.67 20.379999 C 21.25 21.129999 20.67 21.74 19.93 22.190001 C 19.200001 22.65 18.389999 22.889999 17.51 22.91 C 17.379999 22.91 17.309999 22.85 17.309999 22.73 L 17.309999 21.389999 C 17.309999 21.27 17.379999 21.209999 17.51 21.209999 C 18.370001 21.17 19.09 20.82 19.690001 20.18 C 20.290001 19.540001 20.59 18.780001 20.59 17.92 C 20.59 17.030001 20.27 16.27 19.620001 15.63 C 18.969999 14.99 18.209999 14.67 17.309999 14.67 L 15.7 14.67 C 15.58 14.67 15.52 14.610001 15.52 14.5 L 15.44 13.91 C 15.33 12.83 14.86 11.92 14.04 11.189999 C 13.22 10.459999 12.26 10.09 11.18 10.09 C 10.08 10.09 9.13 10.459999 8.32 11.189999 C 7.51 11.92 7.05 12.83 6.95 13.91 L 6.88 14.5 C 6.85 14.59 6.77 14.630001 6.66 14.630001 L 6.15 14.67 C 5.31 14.77 4.6 15.12 4.04 15.73 C 3.48 16.34 3.2 17.07 3.2 17.91 L 3.2 17.959999 L 3.23 17.959999 C 3.24 18.940001 3.61 19.74 4.34 20.389999 C 4.56 20.58 4.81 20.75 5.08 20.879999 L 5.08 20.9 C 5.49 21.09 5.9 21.190001 6.29 21.209999 C 6.4 21.209999 6.46 21.27 6.46 21.379999 L 6.46 22.719999 C 6.46 22.83 6.4 22.889999 6.29 22.889999 C 5.77 22.860001 5.28 22.76 4.81 22.59 L 4.81 22.610001 C 3.98 22.32 3.27 21.84 2.7 21.18 C 2.13 20.52 1.75 19.74 1.59 18.870001 L 1.59 18.83 C 1.58 18.82 1.58 18.809999 1.58 18.799999 C 1.51 18.540001 1.49 18.25 1.49 17.92 Z M 6.99 25.09 C 6.99 25.059999 7 25.02 7.01 24.959999 C 7.02 24.91 7.03 24.870001 7.03 24.84 L 7.12 24.25 C 7.19 24.01 7.32 23.84 7.53 23.719999 C 7.73 23.6 7.96 23.58 8.21 23.639999 C 8.44 23.709999 8.6 23.84 8.72 24.049999 C 8.83 24.25 8.85 24.459999 8.79 24.67 L 8.65 25.27 C 8.55 25.709999 8.3 25.93 7.89 25.93 C 7.86 25.93 7.81 25.93 7.74 25.92 C 7.67 25.91 7.63 25.91 7.61 25.91 C 7.4 25.85 7.25 25.74 7.15 25.58 C 7.04 25.43 6.99 25.26 6.99 25.09 Z M 7.73 22.15 C 7.73 21.91 7.81 21.719999 7.96 21.559999 C 8.12 21.4 8.31 21.33 8.55 21.33 C 8.79 21.33 8.98 21.41 9.14 21.559999 C 9.3 21.719999 9.37 21.91 9.37 22.15 C 9.37 22.379999 9.29 22.57 9.14 22.73 C 8.99 22.889999 8.79 22.959999 8.55 22.959999 C 8.32 22.959999 8.13 22.879999 7.98 22.719999 C 7.81 22.559999 7.73 22.370001 7.73 22.15 Z M 9.37 28.129999 C 9.37 28.09 9.38 28.02 9.41 27.9 L 9.54 27.32 C 9.61 27.09 9.75 26.92 9.95 26.809999 C 10.16 26.690001 10.37 26.67 10.58 26.74 C 10.81 26.780001 10.99 26.91 11.11 27.110001 C 11.23 27.309999 11.26 27.540001 11.19 27.790001 L 11.06 28.379999 C 10.96 28.790001 10.69 28.99 10.26 28.99 C 10.21 28.99 10.13 28.98 10.02 28.950001 C 9.8 28.889999 9.64 28.780001 9.53 28.620001 C 9.42 28.459999 9.37 28.299999 9.37 28.129999 Z M 9.9 5.619999 C 9.9 5.380001 9.98 5.18 10.15 5.02 C 10.32 4.860001 10.53 4.780001 10.78 4.780001 C 11.02 4.780001 11.22 4.860001 11.38 5.02 L 12.01 5.68 C 12.18 5.85 12.26 6.049999 12.26 6.280001 C 12.26 6.52 12.16 6.74 11.96 6.92 C 11.76 7.1 11.56 7.18 11.35 7.15 C 11.14 7.130001 10.96 7.040001 10.8 6.880001 L 10.15 6.219999 C 9.99 6.049999 9.9 5.85 9.9 5.619999 Z M 10.16 25.23 C 10.16 25 10.24 24.799999 10.39 24.65 C 10.55 24.49 10.74 24.42 10.98 24.42 C 11.22 24.42 11.41 24.5 11.57 24.65 C 11.73 24.809999 11.8 25 11.8 25.23 C 11.8 25.469999 11.72 25.66 11.57 25.82 C 11.41 25.98 11.22 26.049999 10.98 26.049999 C 10.76 26.049999 10.57 25.969999 10.4 25.799999 C 10.24 25.639999 10.16 25.450001 10.16 25.23 Z M 10.78 22.959999 C 10.78 22.870001 10.79 22.780001 10.81 22.700001 L 11.04 21.799999 C 11.11 21.57 11.25 21.389999 11.45 21.27 C 11.66 21.15 11.87 21.120001 12.09 21.190001 C 12.33 21.26 12.5 21.389999 12.62 21.59 C 12.74 21.790001 12.76 21.99 12.69 22.209999 L 12.43 23.110001 C 12.35 23.379999 12.21 23.57 12.02 23.68 C 11.83 23.790001 11.61 23.799999 11.38 23.74 C 11.18 23.700001 11.03 23.6 10.93 23.440001 C 10.81 23.26 10.76 23.110001 10.78 22.959999 Z M 13.54 25.1 C 13.54 25.07 13.54 25.030001 13.55 24.969999 C 13.56 24.91 13.56 24.879999 13.56 24.860001 L 13.65 24.27 C 13.72 24.030001 13.85 23.860001 14.06 23.74 C 14.26 23.620001 14.49 23.6 14.74 23.66 C 14.97 23.73 15.14 23.870001 15.25 24.07 C 15.37 24.280001 15.39 24.49 15.32 24.700001 L 15.18 25.299999 C 15.08 25.73 14.83 25.950001 14.42 25.950001 C 14.39 25.950001 14.34 25.950001 14.27 25.940001 C 14.2 25.93 14.16 25.93 14.14 25.93 C 13.94 25.870001 13.79 25.76 13.69 25.6 C 13.59 25.43 13.54 25.27 13.54 25.1 Z M 14.28 22.16 C 14.28 21.92 14.36 21.73 14.51 21.57 C 14.67 21.41 14.86 21.34 15.1 21.34 C 15.34 21.34 15.53 21.42 15.69 21.57 C 15.85 21.73 15.92 21.92 15.92 22.16 C 15.92 22.389999 15.84 22.59 15.69 22.74 C 15.53 22.9 15.34 22.969999 15.1 22.969999 C 14.87 22.969999 14.67 22.889999 14.52 22.719999 C 14.36 22.57 14.28 22.379999 14.28 22.16 Z M 15.31 10.049999 C 16.15 10.810001 16.709999 11.790001 17.01 12.98 L 17.32 12.98 C 18.700001 12.98 19.870001 13.459999 20.84 14.43 C 21.15 13.880001 21.309999 13.27 21.309999 12.610001 C 21.309999 11.630001 20.959999 10.799999 20.27 10.110001 C 19.58 9.43 18.74 9.08 17.76 9.08 C 16.799999 9.08 15.98 9.4 15.31 10.049999 Z M 16.91 4.780001 L 16.91 2.73 C 16.91 2.49 16.99 2.290001 17.16 2.120001 C 17.33 1.950001 17.530001 1.860001 17.76 1.860001 C 18 1.860001 18.200001 1.940001 18.360001 2.110001 C 18.52 2.280001 18.6 2.49 18.6 2.73 L 18.6 4.780001 C 18.6 5.02 18.52 5.23 18.360001 5.4 C 18.200001 5.57 18 5.65 17.76 5.65 C 17.530001 5.65 17.33 5.559999 17.16 5.389999 C 16.99 5.219999 16.91 5.02 16.91 4.780001 Z M 22.49 7.07 C 22.49 6.83 22.57 6.630001 22.719999 6.469999 L 24.16 5.02 C 24.309999 4.85 24.5 4.77 24.74 4.77 C 24.98 4.77 25.18 4.85 25.34 5.02 C 25.52 5.18 25.6 5.380001 25.6 5.619999 C 25.6 5.860001 25.51 6.059999 25.34 6.219999 L 23.9 7.68 C 23.709999 7.869999 23.5 7.950001 23.27 7.940001 C 23.040001 7.92 22.860001 7.84 22.719999 7.68 C 22.559999 7.52 22.49 7.32 22.49 7.07 Z M 23.26 18.98 C 23.26 18.74 23.34 18.540001 23.51 18.370001 C 23.68 18.200001 23.879999 18.120001 24.110001 18.120001 C 24.34 18.120001 24.540001 18.209999 24.719999 18.379999 L 25.34 19.01 C 25.52 19.18 25.6 19.389999 25.6 19.620001 C 25.6 19.860001 25.51 20.059999 25.34 20.219999 C 25.200001 20.389999 25.02 20.48 24.799999 20.48 L 24.780001 20.459999 C 24.540001 20.459999 24.34 20.379999 24.16 20.219999 L 23.51 19.58 C 23.35 19.41 23.26 19.209999 23.26 18.98 Z M 24.73 12.610001 C 24.73 12.369999 24.809999 12.17 24.98 12.01 C 25.15 11.85 25.35 11.77 25.59 11.77 L 27.65 11.77 C 27.889999 11.77 28.1 11.85 28.26 12.01 C 28.42 12.17 28.51 12.369999 28.51 12.610001 C 28.51 12.85 28.43 13.049999 28.26 13.220001 C 28.09 13.389999 27.889999 13.470001 27.65 13.470001 L 25.59 13.470001 C 25.35 13.470001 25.15 13.380001 24.99 13.200001 C 24.809999 13.049999 24.73 12.85 24.73 12.610001 Z"/>
</svg>
