<?xml version="1.0" encoding="UTF-8"?>
<!-- Generated by Pixelmator Pro 3.6.18 -->
<svg width="30" height="30" viewBox="0 0 30 30" xmlns="http://www.w3.org/2000/svg">
    <path id="Path" fill="#000000" stroke="none" d="M 2.62 20.049999 C 2.62 19.809999 2.7 19.6 2.87 19.440001 C 3.04 19.280001 3.25 19.200001 3.5 19.200001 L 22.17 19.200001 C 22.42 19.200001 22.620001 19.280001 22.780001 19.440001 C 22.940001 19.6 23.02 19.799999 23.02 20.049999 C 23.02 20.280001 22.940001 20.48 22.77 20.629999 C 22.6 20.790001 22.4 20.860001 22.17 20.860001 L 3.5 20.860001 C 3.25 20.860001 3.04 20.780001 2.87 20.629999 C 2.7 20.469999 2.62 20.280001 2.62 20.049999 Z M 5.24 16.91 C 5.24 16.67 5.33 16.469999 5.5 16.309999 C 5.65 16.16 5.85 16.08 6.09 16.08 L 24.76 16.08 C 24.99 16.08 25.18 16.16 25.34 16.32 C 25.5 16.48 25.57 16.67 25.57 16.91 C 25.57 17.15 25.49 17.35 25.34 17.51 C 25.18 17.68 24.99 17.76 24.76 17.76 L 6.09 17.76 C 5.85 17.76 5.65 17.68 5.49 17.51 C 5.32 17.34 5.24 17.139999 5.24 16.91 Z M 5.37 14.52 C 5.37 14.61 5.42 14.65 5.52 14.65 L 6.95 14.65 C 7.01 14.65 7.08 14.6 7.15 14.49 C 7.39 13.969999 7.74 13.549999 8.21 13.219999 C 8.68 12.889999 9.2 12.700001 9.76 12.66 L 10.31 12.59 C 10.42 12.59 10.48 12.529999 10.48 12.41 L 10.55 11.91 C 10.66 10.83 11.11 9.93 11.92 9.209999 C 12.73 8.49 13.68 8.130001 14.77 8.130001 C 15.85 8.130001 16.790001 8.49 17.6 9.200001 C 18.4 9.91 18.860001 10.810001 18.969999 11.880001 L 19.049999 12.450001 C 19.049999 12.560001 19.120001 12.619999 19.25 12.619999 L 20.84 12.619999 C 21.48 12.619999 22.07 12.790001 22.6 13.139999 C 23.129999 13.49 23.52 13.939999 23.780001 14.51 C 23.85 14.62 23.92 14.67 23.99 14.67 L 25.42 14.67 C 25.540001 14.67 25.59 14.6 25.559999 14.44 C 25.27 13.42 24.68 12.58 23.82 11.93 C 22.950001 11.279999 21.959999 10.959999 20.85 10.959999 L 20.530001 10.959999 C 20.200001 9.630001 19.5 8.540001 18.43 7.689999 C 17.360001 6.84 16.15 6.42 14.78 6.42 C 13.38 6.42 12.14 6.860001 11.05 7.74 C 9.96 8.619999 9.27 9.74 8.96 11.1 C 8.11 11.299999 7.36 11.700001 6.72 12.310001 C 6.08 12.92 5.63 13.639999 5.38 14.49 L 5.38 14.45 C 5.37 14.45 5.37 14.48 5.37 14.52 Z M 6.98 23.110001 C 6.98 22.870001 7.07 22.68 7.24 22.52 C 7.39 22.370001 7.59 22.290001 7.84 22.290001 L 26.52 22.290001 C 26.76 22.290001 26.959999 22.370001 27.120001 22.52 C 27.290001 22.68 27.370001 22.870001 27.370001 23.1 C 27.370001 23.34 27.290001 23.540001 27.120001 23.709999 C 26.950001 23.879999 26.75 23.959999 26.52 23.959999 L 7.84 23.959999 C 7.61 23.959999 7.41 23.870001 7.24 23.700001 C 7.07 23.549999 6.98 23.34 6.98 23.110001 Z"/>
</svg>
