<?xml version="1.0" encoding="UTF-8"?>
<!-- Generated by Pixelmator Pro 3.6.18 -->
<svg width="30" height="30" viewBox="0 0 30 30" xmlns="http://www.w3.org/2000/svg">
    <path id="Path" fill="#000000" stroke="none" d="M 4.64 14.9 C 4.64 16.23 5.1 17.370001 6.03 18.33 C 6.96 19.290001 8.09 19.799999 9.43 19.860001 C 9.54 19.860001 9.6 19.799999 9.6 19.690001 L 9.6 18.35 C 9.6 18.24 9.54 18.18 9.43 18.18 C 8.57 18.139999 7.85 17.799999 7.25 17.16 C 6.65 16.52 6.35 15.77 6.35 14.9 C 6.35 14.07 6.63 13.360001 7.19 12.74 C 7.75 12.130001 8.45 11.77 9.28 11.67 L 9.81 11.639999 C 9.94 11.639999 10.01 11.58 10.01 11.450001 L 10.07 10.92 C 10.18 9.84 10.63 8.93 11.44 8.209999 C 12.25 7.48 13.2 7.119999 14.29 7.119999 C 15.38 7.119999 16.33 7.48 17.139999 8.209999 C 17.950001 8.939999 18.41 9.84 18.530001 10.92 L 18.610001 11.5 C 18.610001 11.610001 18.67 11.67 18.790001 11.67 L 20.4 11.67 C 21.290001 11.67 22.059999 11.99 22.709999 12.630001 C 23.360001 13.27 23.690001 14.02 23.690001 14.9 C 23.690001 15.77 23.389999 16.52 22.790001 17.16 C 22.190001 17.799999 21.459999 18.139999 20.610001 18.18 C 20.48 18.18 20.41 18.24 20.41 18.35 L 20.41 19.690001 C 20.41 19.799999 20.48 19.860001 20.610001 19.860001 C 21.48 19.84 22.280001 19.6 23.01 19.15 C 23.74 18.700001 24.32 18.1 24.74 17.35 C 25.16 16.6 25.370001 15.780001 25.370001 14.91 C 25.370001 14.02 25.15 13.190001 24.700001 12.440001 C 24.26 11.689999 23.65 11.09 22.889999 10.66 C 22.129999 10.23 21.290001 10 20.4 10 L 20.08 10 C 19.76 8.66 19.049999 7.57 17.98 6.720001 C 16.91 5.869999 15.68 5.440001 14.3 5.440001 C 12.89 5.440001 11.64 5.880001 10.55 6.75 C 9.46 7.619999 8.76 8.74 8.45 10.1 C 7.34 10.360001 6.43 10.93 5.72 11.83 C 5.01 12.73 4.64 13.75 4.64 14.9 Z M 10.09 22.1 C 10.18 22.309999 10.34 22.469999 10.55 22.559999 C 10.75 22.66 10.96 22.67 11.17 22.58 C 11.39 22.49 11.53 22.34 11.62 22.129999 C 11.72 21.91 11.73 21.700001 11.64 21.49 C 11.56 21.280001 11.4 21.139999 11.19 21.049999 C 10.99 20.940001 10.79 20.93 10.58 21.02 C 10.37 21.110001 10.22 21.26 10.12 21.49 C 10.01 21.66 10.01 21.860001 10.09 22.1 Z M 10.72 19.280001 C 10.72 19.440001 10.77 19.59 10.87 19.73 C 10.97 19.879999 11.13 19.98 11.33 20.049999 C 11.52 20.16 11.73 20.17 11.95 20.059999 C 12.17 19.959999 12.32 19.76 12.39 19.459999 L 13.29 16.08 C 13.35 15.83 13.33 15.610001 13.21 15.41 C 13.09 15.209999 12.92 15.09 12.68 15.049999 C 12.6 15.030001 12.52 15.02 12.44 15.02 C 12.28 15.02 12.12 15.07 11.97 15.17 C 11.82 15.27 11.71 15.42 11.65 15.610001 L 10.77 19 C 10.73 19.16 10.72 19.25 10.72 19.280001 Z M 12.58 24.870001 C 12.58 24.99 12.6 25.09 12.64 25.16 C 12.73 25.379999 12.88 25.530001 13.09 25.610001 C 13.18 25.66 13.29 25.690001 13.42 25.690001 C 13.48 25.690001 13.58 25.67 13.72 25.629999 C 13.94 25.549999 14.1 25.4 14.19 25.18 C 14.29 24.959999 14.29 24.74 14.19 24.52 C 14.09 24.299999 13.94 24.15 13.74 24.059999 C 13.54 23.969999 13.34 23.969999 13.12 24.059999 C 12.93 24.139999 12.8 24.26 12.71 24.42 C 12.62 24.58 12.58 24.73 12.58 24.870001 Z M 13.31 22.26 C 13.31 22.629999 13.52 22.870001 13.94 22.99 C 14.05 23.02 14.13 23.030001 14.18 23.030001 C 14.33 23.030001 14.46 23 14.56 22.950001 C 14.77 22.870001 14.91 22.68 14.98 22.379999 L 16.65 16.09 C 16.709999 15.85 16.690001 15.639999 16.59 15.440001 C 16.49 15.25 16.32 15.120001 16.1 15.059999 C 16.02 15.040001 15.93 15.030001 15.83 15.030001 C 15.67 15.030001 15.51 15.08 15.35 15.18 C 15.19 15.280001 15.09 15.43 15.05 15.620001 L 13.34 21.959999 C 13.32 22.1 13.31 22.200001 13.31 22.26 Z M 16.74 21.799999 C 16.74 21.92 16.76 22.030001 16.82 22.120001 C 16.9 22.309999 17.049999 22.459999 17.26 22.559999 C 17.370001 22.6 17.49 22.629999 17.610001 22.629999 C 17.67 22.629999 17.77 22.610001 17.91 22.57 C 18.120001 22.49 18.280001 22.34 18.370001 22.129999 C 18.440001 21.91 18.440001 21.700001 18.360001 21.5 C 18.280001 21.299999 18.139999 21.15 17.940001 21.049999 C 17.709999 20.940001 17.5 20.93 17.290001 21.02 C 17.08 21.110001 16.93 21.26 16.83 21.49 C 16.77 21.59 16.74 21.690001 16.74 21.799999 Z M 17.469999 19.23 C 17.469999 19.370001 17.52 19.52 17.629999 19.68 C 17.74 19.84 17.889999 19.950001 18.08 20.01 C 18.24 20.040001 18.33 20.059999 18.35 20.059999 C 18.440001 20.059999 18.57 20.030001 18.719999 19.959999 C 18.92 19.870001 19.049999 19.690001 19.120001 19.440001 L 20.02 16.1 C 20.040001 15.93 20.049999 15.84 20.049999 15.84 C 20.049999 15.68 20 15.530001 19.9 15.379999 C 19.799999 15.23 19.65 15.129999 19.450001 15.07 C 19.360001 15.049999 19.27 15.040001 19.190001 15.040001 C 19.030001 15.040001 18.870001 15.09 18.719999 15.190001 C 18.57 15.290001 18.469999 15.440001 18.41 15.639999 L 17.51 19 L 17.469999 19.23 Z"/>
</svg>
