<?xml version="1.0" encoding="UTF-8"?>
<!-- Generated by Pixelmator Pro 3.6.18 -->
<svg width="30" height="30" viewBox="0 0 30 30" xmlns="http://www.w3.org/2000/svg">
    <path id="Path" fill="#000000" stroke="none" d="M 4.11 17.889999 C 4.11 19.219999 4.57 20.370001 5.5 21.32 C 6.43 22.280001 7.56 22.790001 8.9 22.860001 C 9.02 22.860001 9.08 22.799999 9.08 22.68 L 9.08 21.35 C 9.08 21.23 9.02 21.17 8.9 21.17 C 8.04 21.129999 7.32 20.790001 6.72 20.15 C 6.12 19.51 5.82 18.76 5.82 17.889999 C 5.82 17.059999 6.1 16.34 6.66 15.72 C 7.22 15.11 7.92 14.75 8.76 14.65 L 9.28 14.610001 C 9.41 14.610001 9.48 14.549999 9.48 14.43 L 9.55 13.889999 C 9.66 12.810001 10.11 11.9 10.92 11.18 C 11.73 10.450001 12.68 10.09 13.77 10.09 C 14.86 10.09 15.81 10.459999 16.629999 11.189999 C 17.450001 11.92 17.91 12.82 18.030001 13.9 L 18.1 14.470001 C 18.1 14.59 18.16 14.66 18.280001 14.66 L 19.9 14.66 C 20.790001 14.66 21.549999 14.98 22.200001 15.62 C 22.85 16.26 23.17 17.02 23.17 17.889999 C 23.17 18.76 22.870001 19.51 22.27 20.15 C 21.67 20.790001 20.940001 21.129999 20.09 21.17 C 19.969999 21.17 19.9 21.23 19.9 21.35 L 19.9 22.68 C 19.9 22.799999 19.959999 22.860001 20.09 22.860001 C 20.969999 22.83 21.77 22.59 22.5 22.139999 C 23.23 21.690001 23.809999 21.09 24.23 20.34 C 24.65 19.59 24.860001 18.77 24.860001 17.9 C 24.860001 17.030001 24.629999 16.220001 24.18 15.45 C 24.959999 14.709999 25.469999 13.85 25.719999 12.869999 L 25.860001 12.139999 C 25.870001 12.130001 25.879999 12.110001 25.879999 12.07 C 25.879999 12 25.83 11.939999 25.719999 11.91 L 25.15 11.74 C 24.58 11.58 24.09 11.299999 23.690001 10.92 C 23.280001 10.540001 22.99 10.130001 22.82 9.709999 C 22.65 9.279999 22.559999 8.860001 22.559999 8.43 C 22.559999 8.139999 22.6 7.860001 22.67 7.58 L 22.799999 6.969999 C 22.82 6.869999 22.780001 6.790001 22.67 6.74 L 21.870001 6.5 C 21.42 6.4 21 6.35 20.6 6.35 C 20.24 6.35 19.870001 6.389999 19.48 6.48 C 19.1 6.57 18.700001 6.700001 18.290001 6.880001 C 17.879999 7.059999 17.48 7.32 17.09 7.67 C 16.700001 8.02 16.370001 8.41 16.09 8.869999 C 15.28 8.559999 14.5 8.41 13.76 8.41 C 12.35 8.41 11.09 8.85 10 9.73 C 8.91 10.610001 8.2 11.73 7.89 13.09 C 6.78 13.35 5.87 13.93 5.16 14.83 C 4.47 15.71 4.11 16.74 4.11 17.889999 Z M 10.05 18.77 C 10.05 19.15 10.19 19.48 10.47 19.75 C 10.75 20.02 11.09 20.15 11.49 20.15 C 11.89 20.15 12.22 20.02 12.49 19.75 C 12.76 19.48 12.89 19.16 12.89 18.77 C 12.89 18.51 12.77 18.17 12.54 17.75 C 12.31 17.33 12.09 17 11.89 16.77 C 11.78 16.65 11.65 16.51 11.48 16.34 L 11.13 16.75 C 10.86 17.040001 10.61 17.389999 10.38 17.790001 C 10.15 18.190001 10.05 18.51 10.05 18.77 Z M 13.04 22.76 C 13.04 23.42 13.27 23.969999 13.72 24.42 C 14.18 24.870001 14.73 25.09 15.37 25.09 C 16.030001 25.09 16.58 24.860001 17.030001 24.41 C 17.48 23.950001 17.709999 23.4 17.709999 22.76 C 17.709999 22.209999 17.440001 21.540001 16.91 20.76 C 16.469999 20.18 16.040001 19.68 15.63 19.27 C 15.55 19.209999 15.46 19.139999 15.37 19.040001 L 15.14 19.27 C 14.75 19.629999 14.32 20.129999 13.86 20.75 C 13.62 21.08 13.43 21.43 13.27 21.790001 C 13.11 22.16 13.04 22.48 13.04 22.76 Z M 14.51 16.09 C 14.51 16.35 14.61 16.560001 14.8 16.75 C 14.99 16.939999 15.22 17.02 15.5 17.02 C 15.76 17.02 15.97 16.93 16.16 16.75 C 16.34 16.57 16.43 16.35 16.43 16.09 C 16.43 15.66 16.120001 15.12 15.5 14.470001 L 15.25 14.74 C 15.07 14.939999 14.9 15.17 14.75 15.44 C 14.58 15.71 14.51 15.93 14.51 16.09 Z M 17.559999 9.77 C 17.91 9.200001 18.360001 8.77 18.9 8.48 C 19.440001 8.190001 20.02 8.040001 20.620001 8.040001 C 20.74 8.040001 20.83 8.049999 20.889999 8.059999 L 20.889999 8.360001 C 20.889999 9.32 21.15 10.23 21.68 11.1 C 22.209999 11.970001 22.93 12.619999 23.860001 13.07 C 23.700001 13.450001 23.450001 13.790001 23.110001 14.1 C 22.18 13.34 21.120001 12.959999 19.9 12.959999 L 19.57 12.959999 C 19.27 11.65 18.6 10.59 17.559999 9.77 Z"/>
</svg>
