<?xml version="1.0" encoding="UTF-8"?>
<!-- Generated by Pixelmator Pro 3.6.18 -->
<svg width="30" height="30" viewBox="0 0 30 30" xmlns="http://www.w3.org/2000/svg">
    <path id="Path" fill="#000000" stroke="none" d="M 4.25 15.889999 C 4.25 17.219999 4.71 18.370001 5.64 19.32 C 6.57 20.280001 7.7 20.790001 9.04 20.860001 C 9.16 20.860001 9.22 20.799999 9.22 20.68 L 9.22 19.35 C 9.22 19.23 9.16 19.17 9.04 19.17 C 8.18 19.129999 7.46 18.790001 6.86 18.15 C 6.26 17.51 5.96 16.76 5.96 15.889999 C 5.96 15.059999 6.24 14.34 6.8 13.720001 C 7.36 13.110001 8.06 12.75 8.9 12.65 L 9.42 12.58 C 9.55 12.58 9.62 12.52 9.62 12.4 L 9.7 11.889999 C 9.81 10.810001 10.26 9.9 11.07 9.18 C 11.88 8.450001 12.83 8.09 13.92 8.09 C 15.01 8.09 15.96 8.459999 16.780001 9.189999 C 17.6 9.92 18.059999 10.82 18.18 11.9 L 18.25 12.48 C 18.25 12.6 18.309999 12.66 18.43 12.66 L 20.049999 12.66 C 20.959999 12.66 21.73 12.98 22.370001 13.610001 C 23.01 14.24 23.33 15 23.33 15.9 C 23.33 16.77 23.030001 17.52 22.43 18.16 C 21.83 18.799999 21.1 19.139999 20.25 19.18 C 20.120001 19.18 20.059999 19.24 20.059999 19.360001 L 20.059999 20.690001 C 20.059999 20.809999 20.120001 20.870001 20.25 20.870001 C 21.129999 20.84 21.93 20.6 22.66 20.15 C 23.389999 19.700001 23.969999 19.1 24.389999 18.35 C 24.809999 17.6 25.02 16.780001 25.02 15.91 C 25.02 15.17 24.879999 14.5 24.59 13.9 C 25.379999 12.939999 25.77 11.84 25.77 10.58 C 25.77 9.639999 25.530001 8.76 25.059999 7.959999 C 24.59 7.15 23.950001 6.51 23.139999 6.040001 C 22.33 5.57 21.459999 5.33 20.52 5.33 C 18.959999 5.33 17.67 5.91 16.639999 7.060001 C 15.82 6.619999 14.92 6.4 13.93 6.4 C 12.52 6.4 11.26 6.84 10.17 7.720001 C 9.08 8.6 8.37 9.720001 8.06 11.08 C 6.96 11.34 6.05 11.92 5.33 12.82 C 4.61 13.710001 4.25 14.74 4.25 15.889999 Z M 9.62 22.870001 C 9.71 23.09 9.86 23.24 10.08 23.33 C 10.28 23.43 10.49 23.440001 10.7 23.35 C 10.92 23.27 11.06 23.120001 11.15 22.9 C 11.24 22.68 11.24 22.459999 11.16 22.25 C 11.08 22.030001 10.93 21.879999 10.72 21.780001 C 10.52 21.700001 10.32 21.700001 10.11 21.790001 C 9.9 21.879999 9.75 22.02 9.65 22.219999 C 9.54 22.389999 9.53 22.610001 9.62 22.870001 Z M 10.25 20.040001 C 10.25 20.200001 10.3 20.35 10.4 20.5 C 10.5 20.65 10.66 20.75 10.86 20.809999 C 11.08 20.879999 11.3 20.860001 11.51 20.75 C 11.72 20.639999 11.86 20.459999 11.94 20.200001 L 12.92 17.09 C 12.99 16.85 12.97 16.620001 12.84 16.42 C 12.72 16.219999 12.53 16.09 12.29 16.040001 C 12.07 15.969999 11.86 15.99 11.67 16.1 C 11.47 16.209999 11.34 16.379999 11.27 16.6 L 10.27 19.780001 L 10.25 20.040001 Z M 12.11 25.639999 C 12.11 25.709999 12.13 25.809999 12.17 25.93 C 12.26 26.15 12.42 26.309999 12.63 26.379999 C 12.71 26.43 12.82 26.459999 12.96 26.459999 C 13.02 26.459999 13.12 26.440001 13.26 26.4 C 13.48 26.32 13.64 26.17 13.73 25.950001 C 13.83 25.73 13.83 25.51 13.73 25.290001 C 13.63 25.07 13.48 24.92 13.28 24.83 C 13.08 24.74 12.87 24.74 12.66 24.82 C 12.47 24.9 12.33 25.02 12.24 25.18 C 12.15 25.34 12.11 25.49 12.11 25.639999 Z M 12.85 22.969999 C 12.85 23.15 12.9 23.299999 13 23.450001 C 13.1 23.59 13.26 23.690001 13.48 23.73 C 13.5 23.73 13.54 23.74 13.59 23.75 C 13.64 23.76 13.69 23.77 13.72 23.77 C 14.15 23.74 14.42 23.530001 14.53 23.15 L 16.290001 17.08 C 16.360001 16.84 16.34 16.620001 16.23 16.43 C 16.120001 16.24 15.95 16.110001 15.73 16.040001 C 15.5 15.969999 15.28 15.99 15.08 16.1 C 14.88 16.209999 14.75 16.379999 14.68 16.6 L 12.88 22.67 C 12.88 22.690001 12.88 22.73 12.87 22.77 C 12.86 22.809999 12.86 22.85 12.86 22.879999 C 12.85 22.92 12.85 22.950001 12.85 22.969999 Z M 16.290001 22.57 C 16.290001 22.67 16.309999 22.780001 16.34 22.889999 C 16.42 23.1 16.57 23.25 16.799999 23.33 C 16.889999 23.370001 17.01 23.4 17.16 23.4 C 17.280001 23.4 17.379999 23.379999 17.450001 23.34 C 17.68 23.25 17.83 23.110001 17.91 22.91 C 17.99 22.690001 17.99 22.48 17.91 22.26 C 17.83 22.049999 17.690001 21.889999 17.49 21.780001 C 17.27 21.700001 17.049999 21.700001 16.84 21.790001 C 16.620001 21.879999 16.469999 22.02 16.370001 22.219999 C 16.32 22.33 16.290001 22.440001 16.290001 22.57 Z M 17.01 20.030001 C 17.01 20.389999 17.219999 20.639999 17.629999 20.780001 C 17.77 20.82 17.870001 20.84 17.93 20.84 C 18.049999 20.84 18.16 20.809999 18.27 20.76 C 18.440001 20.67 18.58 20.49 18.67 20.209999 L 19.65 17.1 C 19.73 16.870001 19.700001 16.65 19.59 16.459999 C 19.469999 16.26 19.299999 16.129999 19.08 16.059999 C 18.85 15.99 18.639999 16.01 18.440001 16.120001 C 18.25 16.23 18.110001 16.4 18.040001 16.620001 L 17.059999 19.75 C 17.02 19.91 17.01 20.01 17.01 20.030001 Z M 18.040001 8.02 C 18.73 7.360001 19.549999 7.029999 20.52 7.029999 C 21.49 7.029999 22.33 7.380001 23.02 8.07 C 23.709999 8.76 24.059999 9.6 24.059999 10.57 C 24.059999 11.189999 23.889999 11.799999 23.540001 12.41 C 22.559999 11.43 21.4 10.939999 20.049999 10.939999 L 19.719999 10.939999 C 19.41 9.779999 18.85 8.810001 18.040001 8.02 Z"/>
</svg>
