<?xml version="1.0" encoding="UTF-8"?>
<!-- Generated by Pixelmator Pro 3.6.18 -->
<svg width="30" height="30" viewBox="0 0 30 30" xmlns="http://www.w3.org/2000/svg">
    <path id="Path" fill="#000000" stroke="none" d="M 3.06 20.98 C 3.06 21.219999 3.15 21.42 3.33 21.58 C 3.51 21.76 3.71 21.85 3.94 21.85 L 9.82 21.85 C 10.08 21.85 10.31 21.940001 10.51 22.129999 C 10.71 22.32 10.81 22.549999 10.81 22.809999 C 10.81 23.07 10.71 23.290001 10.51 23.49 C 10.31 23.690001 10.08 23.790001 9.83 23.790001 C 9.58 23.790001 9.35 23.690001 9.15 23.49 C 8.96 23.32 8.76 23.23 8.53 23.23 C 8.3 23.23 8.1 23.309999 7.94 23.48 C 7.78 23.65 7.7 23.85 7.7 24.09 C 7.7 24.33 7.78 24.530001 7.94 24.690001 C 8.46 25.209999 9.09 25.469999 9.82 25.469999 C 10.56 25.469999 11.2 25.209999 11.71 24.700001 C 12.23 24.18 12.49 23.559999 12.49 22.82 C 12.49 22.08 12.23 21.440001 11.71 20.92 C 11.19 20.4 10.56 20.129999 9.82 20.129999 L 3.94 20.129999 C 3.7 20.129999 3.5 20.209999 3.32 20.379999 C 3.14 20.549999 3.06 20.75 3.06 20.98 Z M 3.06 17.969999 C 3.06 18.200001 3.15 18.389999 3.33 18.549999 C 3.48 18.709999 3.68 18.790001 3.94 18.790001 L 14.93 18.790001 C 15.67 18.790001 16.299999 18.530001 16.82 18.01 C 17.34 17.49 17.6 16.860001 17.6 16.129999 C 17.6 15.4 17.34 14.77 16.82 14.25 C 16.299999 13.73 15.67 13.48 14.93 13.48 C 14.17 13.48 13.54 13.73 13.04 14.23 C 12.89 14.4 12.81 14.61 12.81 14.86 C 12.81 15.1 12.89 15.29 13.04 15.45 C 13.19 15.61 13.39 15.68 13.64 15.68 C 13.89 15.68 14.09 15.61 14.25 15.45 C 14.44 15.26 14.67 15.17 14.93 15.17 C 15.19 15.17 15.41 15.26 15.61 15.45 C 15.8 15.64 15.9 15.87 15.9 16.129999 C 15.9 16.389999 15.8 16.629999 15.61 16.82 C 15.42 17.01 15.19 17.110001 14.93 17.110001 L 3.94 17.110001 C 3.7 17.110001 3.5 17.190001 3.32 17.360001 C 3.14 17.540001 3.06 17.74 3.06 17.969999 Z M 5.71 15.63 C 5.71 15.71 5.77 15.75 5.88 15.75 L 7.31 15.75 C 7.39 15.75 7.46 15.7 7.53 15.61 C 7.76 15.07 8.1 14.62 8.58 14.26 C 9.05 13.9 9.58 13.700001 10.17 13.66 L 10.69 13.59 C 10.81 13.59 10.88 13.529999 10.88 13.4 L 10.95 12.9 C 11.06 11.82 11.52 10.91 12.33 10.189999 C 13.14 9.459999 14.1 9.1 15.19 9.1 C 16.280001 9.1 17.23 9.459999 18.040001 10.18 C 18.85 10.9 19.309999 11.810001 19.43 12.9 L 19.5 13.470001 C 19.5 13.59 19.559999 13.65 19.68 13.65 L 21.309999 13.65 C 22.209999 13.65 22.98 13.970001 23.620001 14.6 C 24.26 15.23 24.58 15.99 24.58 16.879999 C 24.58 17.77 24.26 18.540001 23.620001 19.17 C 22.98 19.799999 22.209999 20.120001 21.309999 20.120001 L 14.4 20.120001 C 14.29 20.120001 14.23 20.18 14.23 20.299999 L 14.23 21.67 C 14.23 21.790001 14.29 21.85 14.4 21.85 L 21.309999 21.85 C 22.200001 21.85 23.030001 21.629999 23.790001 21.18 C 24.549999 20.74 25.15 20.129999 25.59 19.370001 C 26.030001 18.610001 26.25 17.780001 26.25 16.879999 C 26.25 16.139999 26.110001 15.46 25.83 14.86 C 26.59 13.860001 26.969999 12.75 26.969999 11.529999 C 26.969999 10.82 26.83 10.139999 26.549999 9.49 C 26.27 8.84 25.9 8.290001 25.43 7.82 C 24.959999 7.35 24.4 6.98 23.76 6.709999 C 23.120001 6.440001 22.42 6.299999 21.709999 6.299999 C 20.17 6.299999 18.870001 6.880001 17.83 8.029999 C 17.049999 7.619999 16.16 7.42 15.18 7.42 C 13.77 7.42 12.52 7.860001 11.43 8.73 C 10.34 9.6 9.66 10.720001 9.36 12.08 C 8.51 12.279999 7.76 12.689999 7.1 13.310001 C 6.44 13.93 5.99 14.66 5.73 15.49 L 5.73 15.53 C 5.72 15.58 5.71 15.62 5.71 15.63 Z M 19.24 9 C 19.959999 8.32 20.780001 7.98 21.719999 7.98 C 22.700001 7.98 23.530001 8.33 24.23 9.029999 C 24.93 9.73 25.280001 10.560001 25.280001 11.529999 C 25.280001 12.139999 25.110001 12.75 24.77 13.380001 C 23.809999 12.42 22.66 11.950001 21.299999 11.950001 L 20.969999 11.950001 C 20.73 10.880001 20.16 9.889999 19.24 9 Z"/>
</svg>
