<?xml version="1.0" encoding="UTF-8"?>
<!-- Generated by Pixelmator Pro 3.6.18 -->
<svg width="30" height="30" viewBox="0 0 30 30" xmlns="http://www.w3.org/2000/svg">
    <path id="Path" fill="#000000" stroke="none" d="M 2.98 21.02 C 2.98 21.25 3.07 21.450001 3.25 21.620001 C 3.42 21.790001 3.62 21.870001 3.86 21.870001 L 9.6 21.870001 C 9.86 21.870001 10.09 21.969999 10.29 22.16 C 10.49 22.35 10.59 22.58 10.59 22.84 C 10.59 23.110001 10.49 23.34 10.29 23.530001 C 10.09 23.719999 9.86 23.82 9.6 23.82 C 9.34 23.82 9.12 23.719999 8.92 23.52 C 8.74 23.360001 8.54 23.280001 8.31 23.280001 C 8.07 23.280001 7.87 23.360001 7.71 23.52 C 7.55 23.68 7.47 23.879999 7.47 24.120001 C 7.47 24.34 7.55 24.540001 7.71 24.719999 C 8.23 25.25 8.87 25.51 9.6 25.51 C 10.33 25.51 10.97 25.25 11.49 24.73 C 12.01 24.209999 12.27 23.58 12.27 22.84 C 12.27 22.1 12.01 21.469999 11.49 20.950001 C 10.97 20.43 10.34 20.16 9.6 20.16 L 3.86 20.16 C 3.62 20.16 3.42 20.25 3.24 20.42 C 3.07 20.59 2.98 20.790001 2.98 21.02 Z M 2.98 18 C 2.98 18.219999 3.07 18.41 3.25 18.58 C 3.42 18.74 3.63 18.82 3.86 18.82 L 14.71 18.82 C 15.45 18.82 16.08 18.559999 16.6 18.040001 C 17.120001 17.52 17.379999 16.889999 17.379999 16.16 C 17.379999 15.42 17.120001 14.8 16.6 14.28 C 16.08 13.76 15.45 13.51 14.71 13.51 C 13.95 13.51 13.32 13.76 12.82 14.27 C 12.67 14.43 12.59 14.63 12.59 14.88 C 12.59 15.13 12.67 15.33 12.82 15.48 C 12.97 15.63 13.17 15.71 13.41 15.71 C 13.65 15.71 13.85 15.64 14.03 15.48 C 14.22 15.29 14.45 15.2 14.71 15.2 C 14.97 15.2 15.19 15.29 15.38 15.48 C 15.57 15.67 15.67 15.9 15.67 16.16 C 15.67 16.42 15.57 16.65 15.38 16.84 C 15.19 17.030001 14.96 17.129999 14.71 17.129999 L 3.86 17.129999 C 3.62 17.129999 3.42 17.219999 3.24 17.389999 C 3.07 17.57 2.98 17.77 2.98 18 Z M 5.5 15.65 C 5.5 15.74 5.55 15.78 5.66 15.78 L 7.1 15.78 C 7.18 15.78 7.25 15.73 7.32 15.63 C 7.54 15.09 7.89 14.64 8.37 14.28 C 8.84 13.93 9.37 13.73 9.95 13.68 L 10.47 13.610001 C 10.59 13.610001 10.66 13.549999 10.66 13.439999 L 10.74 12.92 C 10.85 11.84 11.31 10.93 12.12 10.209999 C 12.93 9.48 13.89 9.119999 14.98 9.119999 C 16.07 9.119999 17.030001 9.48 17.83 10.209999 C 18.639999 10.93 19.1 11.84 19.209999 12.93 L 19.280001 13.51 C 19.280001 13.630001 19.34 13.689999 19.469999 13.689999 L 21.09 13.689999 C 22 13.689999 22.77 14.01 23.41 14.64 C 24.049999 15.27 24.370001 16.030001 24.370001 16.92 C 24.370001 17.809999 24.049999 18.57 23.41 19.209999 C 22.77 19.85 22 20.17 21.1 20.17 L 14.19 20.17 C 14.08 20.17 14.02 20.23 14.02 20.35 L 14.02 21.719999 C 14.02 21.83 14.08 21.889999 14.19 21.889999 L 21.1 21.889999 C 21.99 21.889999 22.82 21.67 23.58 21.219999 C 24.34 20.77 24.940001 20.17 25.379999 19.41 C 25.82 18.65 26.049999 17.82 26.049999 16.93 C 26.049999 16.049999 25.82 15.22 25.370001 14.45 C 26.1 13.74 26.6 12.880001 26.879999 11.869999 L 27 11.18 C 27.02 11.16 27.030001 11.139999 27.030001 11.110001 C 27.030001 11.07 26.98 11.01 26.889999 10.950001 L 26.290001 10.74 C 25.450001 10.48 24.809999 10.029999 24.370001 9.380001 C 23.93 8.73 23.709999 8.060001 23.709999 7.360001 C 23.709999 7.119999 23.74 6.85 23.799999 6.57 L 23.93 5.950001 C 23.950001 5.85 23.91 5.77 23.799999 5.73 L 23 5.49 C 22.559999 5.380001 22.15 5.33 21.75 5.33 C 21.379999 5.33 21.01 5.369999 20.629999 5.459999 C 20.25 5.549999 19.860001 5.68 19.450001 5.869999 C 19.049999 6.049999 18.65 6.32 18.27 6.67 C 17.889999 7.02 17.549999 7.42 17.27 7.889999 C 16.559999 7.59 15.79 7.440001 14.95 7.440001 C 13.54 7.440001 12.29 7.880001 11.2 8.75 C 10.11 9.619999 9.43 10.74 9.13 12.1 C 8.27 12.299999 7.52 12.709999 6.86 13.33 C 6.2 13.950001 5.75 14.68 5.5 15.53 L 5.5 15.56 C 5.51 15.58 5.5 15.61 5.5 15.65 Z M 18.73 8.76 C 19.040001 8.209999 19.469999 7.790001 20.02 7.5 C 20.57 7.209999 21.139999 7.059999 21.73 7.059999 C 21.870001 7.059999 21.969999 7.059999 22.040001 7.07 C 22.030001 7.16 22.02 7.280001 22.02 7.43 C 22.02 8.369999 22.280001 9.279999 22.809999 10.139999 C 23.33 11 24.059999 11.65 24.98 12.08 C 24.82 12.459999 24.57 12.799999 24.23 13.110001 C 23.34 12.35 22.290001 11.970001 21.07 11.970001 L 20.74 11.970001 C 20.48 10.709999 19.809999 9.639999 18.73 8.76 Z"/>
</svg>
