<?xml version="1.0" encoding="UTF-8"?>
<!-- Generated by Pixelmator Pro 3.6.18 -->
<svg width="30" height="30" viewBox="0 0 30 30" xmlns="http://www.w3.org/2000/svg">
    <path id="Path" fill="#000000" stroke="none" d="M 3.58 14.450001 C 3.58 13.299999 3.94 12.27 4.66 11.380001 C 5.38 10.48 6.29 9.9 7.4 9.639999 C 7.71 8.27 8.42 7.15 9.51 6.27 C 10.6 5.389999 11.86 4.950001 13.27 4.950001 C 14.65 4.950001 15.88 5.380001 16.959999 6.23 C 18.040001 7.08 18.74 8.18 19.059999 9.52 L 19.389999 9.52 C 20.290001 9.52 21.120001 9.74 21.879999 10.17 C 22.639999 10.6 23.25 11.200001 23.690001 11.959999 C 24.129999 12.720001 24.360001 13.540001 24.360001 14.439999 C 24.360001 14.639999 24.35 14.84 24.33 15.05 C 24.98 15.56 25.49 16.200001 25.870001 16.959999 C 26.25 17.719999 26.43 18.530001 26.43 19.389999 C 26.43 20.16 26.280001 20.889999 25.98 21.58 C 25.68 22.27 25.280001 22.860001 24.780001 23.360001 C 24.280001 23.85 23.68 24.25 22.99 24.540001 C 22.299999 24.83 21.58 24.98 20.82 24.98 C 20.07 24.98 19.35 24.83 18.66 24.540001 C 17.969999 24.25 17.379999 23.85 16.879999 23.35 C 16.379999 22.85 15.99 22.26 15.69 21.57 C 15.39 20.879999 15.24 20.16 15.24 19.41 L 8.38 19.41 C 7.04 19.35 5.91 18.84 4.98 17.879999 C 4.05 16.939999 3.58 15.79 3.58 14.450001 Z M 5.29 14.450001 C 5.29 15.32 5.59 16.07 6.19 16.709999 C 6.79 17.35 7.52 17.690001 8.38 17.74 L 19.57 17.74 C 20.43 17.700001 21.16 17.35 21.76 16.709999 C 22.370001 16.07 22.67 15.31 22.67 14.450001 C 22.67 13.57 22.34 12.82 21.690001 12.18 C 21.040001 11.540001 20.27 11.220001 19.370001 11.220001 L 17.75 11.220001 C 17.639999 11.220001 17.58 11.16 17.58 11.049999 L 17.51 10.470001 C 17.4 9.389999 16.93 8.48 16.110001 7.75 C 15.29 7.02 14.34 6.65 13.25 6.65 C 12.16 6.65 11.2 7.02 10.4 7.75 C 9.6 8.48 9.14 9.389999 9.04 10.470001 L 8.96 11.049999 C 8.96 11.16 8.89 11.220001 8.76 11.220001 L 8.24 11.220001 C 7.4 11.32 6.7 11.68 6.14 12.290001 C 5.57 12.9 5.29 13.619999 5.29 14.450001 Z M 16.549999 19.559999 C 16.610001 20.68 17.07 21.629999 17.92 22.389999 C 18.77 23.15 19.74 23.530001 20.83 23.530001 C 21.43 23.530001 22 23.41 22.530001 23.18 C 23.059999 22.950001 23.51 22.629999 23.870001 22.25 C 24.23 21.860001 24.52 21.42 24.719999 20.92 C 24.93 20.42 25.030001 19.92 25.030001 19.4 C 25.030001 18.91 24.93 18.42 24.73 17.93 C 24.530001 17.440001 24.25 16.99 23.879999 16.58 C 23.49 17.4 22.91 18.08 22.139999 18.6 C 21.370001 19.120001 20.51 19.389999 19.57 19.43 L 16.540001 19.43 C 16.540001 19.440001 16.540001 19.469999 16.549999 19.559999 Z"/>
</svg>
