<?xml version="1.0" encoding="UTF-8"?>
<!-- Generated by Pixelmator Pro 3.6.18 -->
<svg width="30" height="30" viewBox="0 0 30 30" xmlns="http://www.w3.org/2000/svg">
    <path id="Path" fill="#000000" stroke="none" d="M 4.25 14.92 C 4.25 15.58 4.37 16.200001 4.63 16.799999 C 4.88 17.4 5.22 17.91 5.65 18.35 C 6.08 18.790001 6.59 19.139999 7.18 19.41 C 7.77 19.68 8.4 19.83 9.06 19.860001 C 9.18 19.860001 9.24 19.799999 9.24 19.690001 L 9.24 18.35 C 9.24 18.24 9.18 18.18 9.06 18.18 C 8.21 18.139999 7.48 17.790001 6.88 17.15 C 6.28 16.51 5.98 15.76 5.98 14.91 C 5.98 14.059999 6.26 13.33 6.82 12.710001 C 7.38 12.09 8.08 11.75 8.92 11.68 L 9.45 11.610001 C 9.55 11.610001 9.6 11.560001 9.6 11.459999 L 9.68 10.93 C 9.79 9.84 10.26 8.93 11.08 8.200001 C 11.9 7.470001 12.86 7.110001 13.96 7.110001 C 15.05 7.110001 16 7.470001 16.809999 8.189999 C 17.629999 8.91 18.09 9.810001 18.209999 10.889999 L 18.280001 11.459999 C 18.280001 11.58 18.34 11.65 18.459999 11.65 L 20.08 11.65 C 20.969999 11.65 21.73 11.970001 22.370001 12.610001 C 23.01 13.25 23.33 14.02 23.33 14.92 C 23.33 15.77 23.030001 16.52 22.440001 17.16 C 21.85 17.799999 21.120001 18.139999 20.27 18.190001 C 20.139999 18.190001 20.08 18.25 20.08 18.360001 L 20.08 19.700001 C 20.08 19.809999 20.139999 19.870001 20.27 19.870001 C 21.610001 19.809999 22.74 19.299999 23.66 18.35 C 24.59 17.4 25.049999 16.26 25.049999 14.93 C 25.049999 14.290001 24.91 13.620001 24.639999 12.93 C 25.4 11.939999 25.77 10.84 25.77 9.639999 C 25.77 8.700001 25.530001 7.82 25.059999 7.01 C 24.59 6.200001 23.950001 5.559999 23.139999 5.09 C 22.33 4.619999 21.459999 4.380001 20.52 4.380001 C 18.99 4.380001 17.700001 4.940001 16.66 6.049999 C 15.79 5.619999 14.89 5.4 13.96 5.4 C 12.54 5.4 11.28 5.84 10.19 6.720001 C 9.1 7.6 8.4 8.73 8.09 10.1 C 6.96 10.360001 6.04 10.939999 5.33 11.82 C 4.62 12.700001 4.25 13.74 4.25 14.92 Z M 9.64 21.67 C 9.64 21.84 9.69 22 9.79 22.15 C 9.89 22.299999 10.05 22.42 10.27 22.49 C 10.38 22.549999 10.51 22.57 10.64 22.559999 C 10.77 22.549999 10.91 22.48 11.04 22.360001 C 11.17 22.24 11.27 22.08 11.32 21.879999 L 11.6 20.870001 C 11.66 20.620001 11.64 20.389999 11.52 20.200001 C 11.4 20 11.23 19.879999 10.99 19.83 C 10.78 19.76 10.57 19.780001 10.36 19.9 C 10.15 20.02 10.02 20.18 9.95 20.4 L 9.67 21.440001 C 9.65 21.530001 9.64 21.610001 9.64 21.67 Z M 10.95 16.9 C 10.96 17.09 11.01 17.27 11.12 17.42 C 11.23 17.57 11.39 17.67 11.6 17.700001 C 11.78 17.73 11.87 17.75 11.9 17.75 C 12.28 17.75 12.53 17.530001 12.66 17.09 L 12.94 16.09 C 13 15.860001 12.98 15.639999 12.86 15.43 C 12.74 15.219999 12.57 15.08 12.33 15.01 C 12.11 14.950001 11.89 14.969999 11.69 15.09 C 11.49 15.209999 11.36 15.379999 11.29 15.610001 L 10.99 16.66 C 10.97 16.780001 10.95 16.860001 10.95 16.9 Z M 12.19 24.799999 C 12.19 24.98 12.24 25.139999 12.34 25.299999 C 12.44 25.459999 12.6 25.57 12.82 25.629999 C 12.96 25.66 13.05 25.68 13.1 25.68 C 13.19 25.68 13.31 25.65 13.48 25.58 C 13.65 25.5 13.78 25.309999 13.86 25.030001 L 14.16 24.02 C 14.22 23.77 14.19 23.540001 14.08 23.34 C 13.96 23.139999 13.79 23.01 13.56 22.969999 C 13.34 22.9 13.13 22.92 12.92 23.040001 C 12.71 23.16 12.57 23.33 12.5 23.549999 L 12.22 24.59 C 12.2 24.67 12.19 24.74 12.19 24.799999 Z M 13.52 20 C 13.52 20.17 13.57 20.33 13.68 20.49 C 13.79 20.65 13.95 20.76 14.17 20.82 C 14.39 20.889999 14.61 20.870001 14.8 20.77 C 15 20.67 15.13 20.48 15.21 20.209999 L 15.49 19.200001 C 15.56 18.950001 15.54 18.73 15.42 18.530001 C 15.3 18.34 15.13 18.219999 14.89 18.17 C 14.67 18.09 14.46 18.120001 14.25 18.23 C 14.04 18.34 13.91 18.52 13.84 18.74 L 13.56 19.780001 C 13.54 19.879999 13.52 19.950001 13.52 20 Z M 16.370001 21.75 C 16.360001 21.91 16.4 22.059999 16.51 22.209999 C 16.620001 22.360001 16.77 22.469999 16.969999 22.540001 L 17.219999 22.57 C 17.33 22.58 17.459999 22.549999 17.6 22.5 C 17.809999 22.42 17.950001 22.24 18.02 21.959999 L 18.299999 20.91 C 18.370001 20.68 18.35 20.459999 18.23 20.27 C 18.110001 20.07 17.940001 19.940001 17.719999 19.870001 C 17.469999 19.809999 17.25 19.84 17.049999 19.950001 C 16.85 20.059999 16.73 20.25 16.690001 20.48 L 16.4 21.48 C 16.379999 21.65 16.370001 21.74 16.370001 21.75 Z M 17.719999 16.950001 C 17.719999 17.120001 17.77 17.290001 17.879999 17.450001 C 17.99 17.610001 18.15 17.709999 18.360001 17.75 L 18.610001 17.780001 C 19.040001 17.780001 19.309999 17.57 19.42 17.16 L 19.700001 16.129999 C 19.76 15.879999 19.73 15.65 19.620001 15.450001 C 19.51 15.25 19.32 15.129999 19.09 15.08 C 18.860001 15.01 18.639999 15.030001 18.450001 15.15 C 18.25 15.27 18.120001 15.440001 18.059999 15.68 L 17.76 16.700001 C 17.74 16.82 17.719999 16.9 17.719999 16.950001 Z M 18.059999 7.049999 C 18.73 6.41 19.540001 6.08 20.51 6.08 C 21.49 6.08 22.32 6.43 23 7.130001 C 23.690001 7.83 24.030001 8.66 24.030001 9.639999 C 24.030001 10.279999 23.870001 10.869999 23.549999 11.41 C 22.59 10.450001 21.43 9.970001 20.059999 9.970001 L 19.74 9.970001 C 19.5 8.869999 18.940001 7.9 18.059999 7.049999 Z"/>
</svg>
