<?xml version="1.0" encoding="UTF-8"?>
<!-- Generated by Pixelmator Pro 3.6.18 -->
<svg width="30" height="30" viewBox="0 0 30 30" xmlns="http://www.w3.org/2000/svg">
    <path id="Path" fill="#000000" stroke="none" d="M 4.11 15.02 C 4.11 16.15 4.44 17.15 5.11 18.030001 C 5.78 18.91 6.65 19.51 7.73 19.83 C 7.83 19.84 7.91 19.82 7.98 19.75 L 9.11 18.290001 C 8.22 18.290001 7.45 17.969999 6.8 17.33 C 6.15 16.690001 5.83 15.92 5.83 15.02 C 5.83 14.16 6.12 13.41 6.69 12.780001 C 7.26 12.15 7.98 11.799999 8.83 11.73 L 9.35 11.66 C 9.46 11.66 9.51 11.610001 9.51 11.52 L 9.58 10.959999 C 9.7 9.860001 10.17 8.939999 10.99 8.200001 C 11.81 7.459999 12.77 7.09 13.87 7.09 C 14.98 7.09 15.95 7.459999 16.780001 8.189999 C 17.610001 8.92 18.08 9.83 18.18 10.93 L 18.25 11.52 C 18.27 11.630001 18.34 11.689999 18.459999 11.689999 L 20.09 11.689999 C 20.99 11.689999 21.76 12.02 22.41 12.67 C 23.059999 13.33 23.389999 14.110001 23.389999 15.02 C 23.389999 15.860001 23.110001 16.6 22.540001 17.23 C 21.969999 17.860001 21.27 18.209999 20.440001 18.290001 C 19.959999 18.290001 19.66 18.379999 19.530001 18.57 L 17.35 20.969999 C 17.190001 21.15 17.129999 21.360001 17.16 21.59 C 17.190001 21.82 17.290001 22.040001 17.469999 22.219999 C 17.6 22.389999 17.799999 22.469999 18.059999 22.450001 C 18.32 22.43 18.52 22.299999 18.66 22.07 L 20.639999 20 C 21.459999 19.92 22.219999 19.65 22.92 19.18 C 23.610001 18.709999 24.16 18.110001 24.57 17.379999 C 24.98 16.65 25.17 15.860001 25.17 15.02 C 25.17 14.389999 25.030001 13.700001 24.74 12.940001 C 25.51 11.959999 25.889999 10.860001 25.889999 9.619999 C 25.889999 8.639999 25.65 7.75 25.18 6.93 C 24.700001 6.110001 24.059999 5.469999 23.24 5 C 22.42 4.530001 21.530001 4.299999 20.559999 4.299999 C 18.99 4.299999 17.690001 4.869999 16.66 6.01 C 15.79 5.58 14.87 5.360001 13.89 5.360001 C 12.46 5.360001 11.19 5.799999 10.1 6.689999 C 9.01 7.58 8.3 8.720001 7.99 10.119999 C 6.85 10.380001 5.92 10.959999 5.2 11.869999 C 4.48 12.780001 4.11 13.83 4.11 15.02 Z M 7.91 22.52 C 7.91 22.66 7.93 22.77 7.96 22.84 C 8.04 23.049999 8.19 23.200001 8.4 23.280001 C 8.63 23.379999 8.85 23.389999 9.08 23.299999 C 9.31 23.219999 9.46 23.059999 9.53 22.85 C 9.63 22.629999 9.64 22.41 9.55 22.18 C 9.46 21.950001 9.31 21.799999 9.09 21.719999 C 8.86 21.639999 8.65 21.639999 8.43 21.719999 C 8.22 21.799999 8.06 21.950001 7.96 22.17 C 7.93 22.25 7.91 22.370001 7.91 22.52 Z M 9.75 20.08 C 9.75 20.309999 9.86 20.530001 10.07 20.75 C 10.5 21.110001 10.91 21.059999 11.33 20.6 L 13.52 18.16 C 13.67 17.99 13.73 17.780001 13.7 17.549999 C 13.67 17.32 13.57 17.129999 13.39 16.98 C 13.21 16.84 13 16.790001 12.76 16.82 C 12.52 16.85 12.33 16.950001 12.17 17.110001 L 9.97 19.49 C 9.82 19.700001 9.75 19.9 9.75 20.08 Z M 10.39 25.01 C 10.39 25.129999 10.42 25.24 10.47 25.33 C 10.56 25.559999 10.69 25.709999 10.88 25.790001 C 11 25.84 11.12 25.860001 11.25 25.860001 C 11.32 25.860001 11.43 25.84 11.57 25.799999 C 11.78 25.709999 11.93 25.559999 12.01 25.35 C 12.11 25.15 12.12 24.940001 12.03 24.709999 C 11.95 24.48 11.8 24.33 11.58 24.25 C 11.36 24.139999 11.14 24.129999 10.92 24.219999 C 10.71 24.309999 10.54 24.469999 10.43 24.700001 C 10.41 24.799999 10.39 24.9 10.39 25.01 Z M 12.06 22.620001 L 12.06 22.75 C 12.08 22.99 12.18 23.190001 12.38 23.35 C 12.52 23.530001 12.72 23.610001 12.98 23.59 C 13.23 23.57 13.43 23.440001 13.58 23.209999 L 17.799999 18.299999 C 17.959999 18.120001 18.02 17.91 18 17.66 C 17.98 17.42 17.860001 17.23 17.65 17.09 C 17.48 16.950001 17.27 16.879999 17.049999 16.9 C 16.82 16.92 16.629999 17.02 16.469999 17.200001 L 12.25 22.120001 C 12.12 22.25 12.06 22.41 12.06 22.620001 Z M 15.69 23.450001 C 15.62 23.68 15.62 23.879999 15.69 24.07 C 15.78 24.290001 15.93 24.450001 16.139999 24.559999 C 16.25 24.610001 16.370001 24.629999 16.5 24.629999 C 16.559999 24.629999 16.66 24.610001 16.799999 24.57 C 17.030001 24.48 17.18 24.33 17.26 24.110001 C 17.360001 23.879999 17.370001 23.67 17.290001 23.450001 C 17.209999 23.24 17.059999 23.09 16.85 23.01 C 16.620001 22.9 16.4 22.889999 16.190001 22.98 C 15.97 23.07 15.8 23.23 15.69 23.450001 Z M 18.09 7.029999 C 18.77 6.35 19.6 6.01 20.57 6.01 C 21.58 6.01 22.43 6.360001 23.129999 7.060001 C 23.83 7.76 24.18 8.619999 24.18 9.619999 C 24.18 10.24 24.01 10.85 23.66 11.439999 C 22.690001 10.459999 21.5 9.98 20.110001 9.98 L 19.799999 9.98 C 19.549999 8.84 18.98 7.860001 18.09 7.029999 Z"/>
</svg>
