<?xml version="1.0" encoding="UTF-8"?>
<!-- Generated by Pixelmator Pro 3.6.18 -->
<svg width="30" height="30" viewBox="0 0 30 30" xmlns="http://www.w3.org/2000/svg">
    <path id="Path" fill="#000000" stroke="none" d="M 4.19 14.879999 C 4.19 16 4.52 17 5.19 17.879999 C 5.86 18.76 6.72 19.35 7.77 19.639999 L 7.11 21.34 C 7.06 21.48 7.11 21.559999 7.25 21.559999 L 9.38 21.559999 L 7.95 25.77 L 8.24 25.77 L 12.6 20.110001 C 12.64 20.07 12.64 20.02 12.62 19.969999 C 12.6 19.92 12.55 19.9 12.48 19.9 L 10.29 19.9 L 12.78 15.25 C 12.85 15.110001 12.81 15.030001 12.64 15.030001 L 9.68 15.030001 C 9.59 15.030001 9.51 15.08 9.45 15.18 L 8.38 18.059999 C 7.66 17.879999 7.07 17.5 6.6 16.9 C 6.13 16.309999 5.9 15.639999 5.9 14.879999 C 5.9 14.040001 6.18 13.310001 6.74 12.700001 C 7.3 12.09 8 11.73 8.85 11.630001 L 9.36 11.6 C 9.48 11.6 9.55 11.549999 9.58 11.459999 L 9.65 10.869999 C 9.76 9.790001 10.21 8.880001 11.02 8.15 C 11.83 7.42 12.78 7.049999 13.88 7.049999 C 14.97 7.049999 15.92 7.42 16.74 8.15 C 17.559999 8.880001 18.030001 9.790001 18.139999 10.869999 L 18.219999 11.459999 C 18.219999 11.57 18.280001 11.630001 18.4 11.630001 L 20.01 11.630001 C 20.9 11.630001 21.67 11.950001 22.32 12.59 C 22.969999 13.23 23.290001 13.99 23.290001 14.879999 C 23.290001 15.75 22.99 16.5 22.389999 17.139999 C 21.790001 17.780001 21.07 18.120001 20.209999 18.17 C 20.08 18.17 20.01 18.23 20.01 18.35 L 20.01 19.690001 C 20.01 19.799999 20.08 19.860001 20.209999 19.860001 C 21.09 19.84 21.9 19.6 22.629999 19.139999 C 23.360001 18.690001 23.940001 18.08 24.370001 17.33 C 24.799999 16.58 25.01 15.76 25.01 14.879999 C 25.01 14.15 24.870001 13.48 24.58 12.860001 C 25.34 11.9 25.719999 10.799999 25.719999 9.57 C 25.719999 8.619999 25.48 7.74 25.01 6.93 C 24.540001 6.119999 23.9 5.48 23.09 5.01 C 22.280001 4.540001 21.4 4.299999 20.450001 4.299999 C 19.73 4.299999 19.030001 4.450001 18.35 4.75 C 17.67 5.049999 17.09 5.469999 16.59 6 C 15.78 5.57 14.88 5.35 13.87 5.35 C 12.45 5.35 11.19 5.790001 10.1 6.67 C 9.01 7.549999 8.3 8.67 8 10.040001 C 6.89 10.299999 5.98 10.880001 5.26 11.779999 C 4.55 12.700001 4.19 13.73 4.19 14.879999 Z M 12.07 25.1 C 12.07 25.27 12.12 25.43 12.23 25.59 C 12.34 25.75 12.5 25.860001 12.72 25.92 C 12.81 25.940001 12.89 25.950001 12.96 25.950001 C 13.39 25.950001 13.66 25.75 13.76 25.34 L 13.89 24.75 C 13.95 24.49 13.92 24.27 13.81 24.07 C 13.69 23.870001 13.52 23.75 13.28 23.700001 C 13.07 23.629999 12.86 23.65 12.65 23.77 C 12.44 23.889999 12.31 24.059999 12.24 24.280001 L 12.11 24.870001 C 12.08 24.99 12.07 25.07 12.07 25.1 Z M 12.86 22.200001 C 12.86 22.43 12.94 22.620001 13.1 22.780001 C 13.26 22.940001 13.46 23.02 13.68 23.02 C 13.92 23.02 14.11 22.940001 14.27 22.790001 C 14.43 22.629999 14.5 22.440001 14.5 22.200001 C 14.5 21.969999 14.42 21.780001 14.27 21.620001 C 14.11 21.459999 13.92 21.389999 13.68 21.389999 C 13.44 21.389999 13.25 21.469999 13.09 21.620001 C 12.93 21.77 12.86 21.969999 12.86 22.200001 Z M 13.48 19.93 C 13.47 20.08 13.51 20.24 13.62 20.4 C 13.72 20.559999 13.87 20.66 14.07 20.700001 C 14.3 20.76 14.51 20.74 14.71 20.639999 C 14.91 20.540001 15.04 20.35 15.12 20.08 L 15.38 19.18 C 15.45 18.959999 15.43 18.75 15.31 18.549999 C 15.19 18.35 15.02 18.219999 14.78 18.15 C 14.56 18.08 14.35 18.110001 14.14 18.23 C 13.93 18.35 13.8 18.530001 13.73 18.76 L 13.51 19.66 C 13.49 19.74 13.48 19.83 13.48 19.93 Z M 16.24 22.08 C 16.24 22.25 16.290001 22.41 16.389999 22.559999 C 16.49 22.709999 16.639999 22.82 16.85 22.879999 C 16.879999 22.879999 16.93 22.889999 16.99 22.9 C 17.049999 22.91 17.1 22.92 17.129999 22.92 C 17.540001 22.92 17.790001 22.700001 17.889999 22.26 L 18.030001 21.66 C 18.1 21.450001 18.08 21.24 17.959999 21.030001 C 17.84 20.82 17.67 20.690001 17.450001 20.620001 C 17.200001 20.559999 16.969999 20.58 16.77 20.700001 C 16.57 20.82 16.43 20.99 16.360001 21.23 L 16.27 21.82 C 16.27 21.83 16.27 21.870001 16.26 21.93 C 16.25 22 16.24 22.040001 16.24 22.08 Z M 16.98 19.120001 C 16.98 19.35 17.059999 19.540001 17.219999 19.690001 C 17.370001 19.85 17.559999 19.93 17.799999 19.93 C 18.040001 19.93 18.23 19.85 18.389999 19.700001 C 18.549999 19.540001 18.620001 19.35 18.620001 19.120001 C 18.620001 18.879999 18.540001 18.690001 18.389999 18.530001 C 18.23 18.370001 18.040001 18.299999 17.799999 18.299999 C 17.559999 18.299999 17.370001 18.379999 17.209999 18.530001 C 17.049999 18.68 16.98 18.879999 16.98 19.120001 Z M 18.02 7.02 C 18.690001 6.380001 19.5 6.049999 20.469999 6.049999 C 21.450001 6.049999 22.290001 6.389999 22.98 7.08 C 23.67 7.76 24.02 8.6 24.02 9.58 C 24.02 10.24 23.860001 10.84 23.549999 11.389999 C 22.59 10.43 21.42 9.950001 20.030001 9.950001 L 19.719999 9.950001 C 19.42 8.76 18.85 7.779999 18.02 7.02 Z"/>
</svg>
