<?xml version="1.0" encoding="UTF-8"?>
<!-- Generated by Pixelmator Pro 3.6.18 -->
<svg width="30" height="30" viewBox="0 0 30 30" xmlns="http://www.w3.org/2000/svg">
    <path id="Path" fill="#000000" stroke="none" d="M 6.77 19.610001 C 6.77 20.58 7.12 21.42 7.83 22.129999 C 8.54 22.84 9.38 23.190001 10.35 23.190001 L 17.200001 23.190001 C 18.17 23.190001 19 22.84 19.690001 22.139999 C 20.379999 21.440001 20.73 20.6 20.73 19.610001 C 20.73 19.129999 20.66 18.719999 20.52 18.379999 C 21.35 17.85 22.01 17.139999 22.49 16.26 C 22.969999 15.38 23.219999 14.43 23.219999 13.42 C 23.219999 12.610001 23.059999 11.83 22.75 11.09 C 22.43 10.35 22.01 9.709999 21.469999 9.18 C 20.93 8.65 20.299999 8.220001 19.559999 7.9 C 18.82 7.58 18.049999 7.42 17.24 7.42 C 16.15 7.42 15.14 7.690001 14.22 8.23 C 13.3 8.77 12.57 9.5 12.04 10.41 C 11.51 11.33 11.25 12.33 11.25 13.42 L 11.25 13.76 C 10.24 14.33 9.58 15.17 9.26 16.25 C 8.5 16.49 7.9 16.91 7.45 17.52 C 7 18.129999 6.77 18.83 6.77 19.610001 Z M 8.75 19.610001 C 8.75 19.190001 8.88 18.83 9.15 18.530001 C 9.42 18.23 9.76 18.059999 10.17 18.02 L 10.8 17.940001 C 10.92 17.940001 10.99 17.860001 10.99 17.709999 L 11.09 17.15 C 11.16 16.57 11.4 16.09 11.82 15.71 C 12.24 15.32 12.73 15.13 13.3 15.13 C 13.88 15.13 14.39 15.32 14.81 15.71 C 15.24 16.1 15.49 16.58 15.56 17.15 L 15.64 17.799999 C 15.7 17.950001 15.79 18.030001 15.89 18.030001 L 17.200001 18.030001 C 17.629999 18.030001 18 18.190001 18.32 18.5 C 18.639999 18.809999 18.790001 19.18 18.790001 19.620001 C 18.790001 20.07 18.629999 20.450001 18.32 20.77 C 18.01 21.09 17.629999 21.25 17.200001 21.25 L 10.35 21.25 C 9.9 21.25 9.52 21.09 9.21 20.77 C 8.9 20.450001 8.75 20.059999 8.75 19.610001 Z M 13.18 13.220001 C 13.25 12.130001 13.67 11.209999 14.45 10.459999 C 15.23 9.720001 16.16 9.34 17.25 9.34 C 18.360001 9.34 19.309999 9.74 20.09 10.529999 C 20.870001 11.32 21.26 12.290001 21.26 13.42 C 21.26 14.12 21.09 14.77 20.75 15.37 C 20.41 15.97 19.950001 16.450001 19.370001 16.82 C 18.780001 16.33 18.1 16.09 17.34 16.09 C 17.049999 15.21 16.530001 14.52 15.8 14 C 15.07 13.48 14.24 13.220001 13.31 13.220001 L 13.18 13.220001 Z"/>
</svg>
