<?xml version="1.0" encoding="UTF-8"?>
<!-- Generated by Pixelmator Pro 3.6.18 -->
<svg width="30" height="30" viewBox="0 0 30 30" xmlns="http://www.w3.org/2000/svg">
    <path id="Path" fill="#000000" stroke="none" d="M 4.06 15.93 C 4.06 17.049999 4.39 18.049999 5.06 18.93 C 5.73 19.809999 6.58 20.4 7.63 20.700001 C 7.72 20.719999 7.8 20.690001 7.87 20.620001 L 9 19.219999 C 8.12 19.219999 7.37 18.9 6.73 18.25 C 6.09 17.6 5.77 16.83 5.77 15.93 C 5.77 15.09 6.05 14.37 6.61 13.76 C 7.17 13.15 7.88 12.810001 8.72 12.73 L 9.22 12.66 C 9.34 12.66 9.41 12.6 9.41 12.470001 L 9.49 11.939999 C 9.61 10.85 10.08 9.939999 10.9 9.209999 C 11.71 8.48 12.67 8.110001 13.76 8.110001 C 14.85 8.110001 15.8 8.48 16.620001 9.209999 C 17.440001 9.939999 17.91 10.85 18.030001 11.93 L 18.1 12.51 C 18.1 12.619999 18.16 12.68 18.280001 12.68 L 19.9 12.68 C 20.780001 12.68 21.540001 13 22.18 13.640001 C 22.82 14.28 23.139999 15.040001 23.139999 15.92 C 23.139999 16.77 22.860001 17.51 22.299999 18.139999 C 21.74 18.77 21.049999 19.120001 20.23 19.190001 C 19.780001 19.25 19.49 19.34 19.370001 19.469999 L 17.040001 22.379999 C 16.879999 22.549999 16.82 22.76 16.85 23.01 C 16.870001 23.25 16.98 23.440001 17.16 23.6 C 17.34 23.76 17.530001 23.83 17.73 23.83 C 17.959999 23.83 18.17 23.709999 18.370001 23.450001 L 20.41 20.860001 C 21.030001 20.799999 21.610001 20.620001 22.17 20.34 C 22.719999 20.059999 23.200001 19.690001 23.59 19.26 C 23.98 18.82 24.299999 18.309999 24.530001 17.73 C 24.76 17.15 24.879999 16.549999 24.879999 15.92 C 24.879999 15.049999 24.65 14.24 24.200001 13.48 C 25.01 12.74 25.540001 11.869999 25.780001 10.860001 L 25.780001 10.77 L 25.98 10 L 25.219999 9.74 C 24.65 9.57 24.16 9.290001 23.75 8.91 C 23.34 8.529999 23.059999 8.110001 22.889999 7.68 C 22.719999 7.25 22.629999 6.809999 22.629999 6.369999 C 22.629999 6.110001 22.66 5.85 22.709999 5.57 L 22.9 4.790001 L 22.07 4.559999 C 22.059999 4.559999 22.049999 4.559999 22.040001 4.549999 C 22.030001 4.540001 22.02 4.530001 22 4.530001 C 21.98 4.530001 21.969999 4.52 21.959999 4.51 C 21.91 4.5 21.9 4.49 21.9 4.49 C 21.459999 4.380001 21.049999 4.33 20.65 4.33 C 20.27 4.34 19.889999 4.380001 19.5 4.469999 C 19.110001 4.559999 18.719999 4.690001 18.299999 4.880001 C 17.879999 5.07 17.48 5.34 17.1 5.690001 C 16.719999 6.040001 16.379999 6.450001 16.1 6.93 C 15.35 6.6 14.57 6.440001 13.76 6.440001 C 12.35 6.440001 11.09 6.880001 10 7.75 C 8.91 8.619999 8.2 9.74 7.89 11.110001 C 6.76 11.380001 5.84 11.970001 5.13 12.860001 C 4.42 13.75 4.06 14.77 4.06 15.93 Z M 7.77 23.92 C 7.77 24.049999 7.79 24.15 7.84 24.23 C 7.93 24.450001 8.07 24.6 8.27 24.690001 C 8.49 24.790001 8.71 24.799999 8.94 24.719999 C 9.17 24.639999 9.32 24.49 9.4 24.280001 C 9.5 24.059999 9.5 23.84 9.41 23.610001 C 9.32 23.379999 9.17 23.23 8.96 23.16 C 8.74 23.059999 8.52 23.049999 8.3 23.139999 C 8.08 23.219999 7.93 23.379999 7.85 23.59 C 7.79 23.67 7.77 23.790001 7.77 23.92 Z M 9.61 21.469999 L 9.61 21.58 C 9.63 21.809999 9.74 21.99 9.94 22.129999 C 10.07 22.280001 10.25 22.35 10.48 22.35 C 10.71 22.34 10.93 22.24 11.14 22.030001 L 13.47 19.110001 C 13.61 18.940001 13.66 18.73 13.64 18.49 C 13.61 18.25 13.52 18.059999 13.34 17.91 C 13.16 17.77 12.96 17.709999 12.71 17.73 C 12.47 17.75 12.28 17.870001 12.14 18.07 L 9.82 20.93 C 9.68 21.09 9.61 21.27 9.61 21.469999 Z M 10.19 26.68 C 10.28 26.889999 10.43 27.040001 10.65 27.129999 C 10.76 27.18 10.87 27.209999 10.98 27.209999 C 11.04 27.209999 11.14 27.190001 11.28 27.15 C 11.49 27.059999 11.64 26.92 11.72 26.709999 C 11.8 26.49 11.8 26.280001 11.73 26.059999 C 11.66 25.85 11.51 25.690001 11.29 25.58 C 11.07 25.5 10.86 25.5 10.66 25.58 C 10.46 25.66 10.31 25.809999 10.21 26.02 C 10.1 26.219999 10.09 26.43 10.19 26.68 Z M 11.78 24.02 L 11.78 24.1 C 11.8 24.32 11.91 24.52 12.1 24.68 C 12.29 24.84 12.48 24.92 12.66 24.92 C 12.88 24.92 13.08 24.809999 13.26 24.58 L 17.57 19.219999 C 17.709999 19.049999 17.780001 18.84 17.76 18.6 C 17.74 18.360001 17.639999 18.16 17.469999 18.02 C 17.27 17.879999 17.049999 17.82 16.809999 17.84 C 16.57 17.860001 16.379999 17.959999 16.24 18.139999 L 11.97 23.5 C 11.84 23.65 11.78 23.83 11.78 24.02 Z M 15.29 25.129999 C 15.29 25.24 15.31 25.35 15.36 25.459999 C 15.44 25.690001 15.6 25.84 15.83 25.93 C 16.059999 26.02 16.26 26.02 16.440001 25.950001 C 16.66 25.860001 16.809999 25.709999 16.9 25.49 C 17 25.27 17.01 25.059999 16.93 24.85 C 16.85 24.639999 16.700001 24.49 16.48 24.389999 C 16.26 24.309999 16.040001 24.309999 15.83 24.389999 C 15.61 24.469999 15.46 24.610001 15.36 24.809999 C 15.31 24.92 15.29 25.030001 15.29 25.129999 Z M 17.57 7.810001 C 17.879999 7.24 18.32 6.799999 18.870001 6.49 C 19.42 6.190001 20.01 6.040001 20.629999 6.049999 C 20.75 6.049999 20.84 6.049999 20.889999 6.059999 L 20.889999 6.360001 C 20.889999 7.33 21.16 8.25 21.690001 9.110001 C 22.219999 9.98 22.950001 10.630001 23.879999 11.07 C 23.629999 11.540001 23.370001 11.91 23.09 12.189999 C 22.200001 11.4 21.129999 11.01 19.870001 11.01 L 19.549999 11.01 C 19.26 9.74 18.6 8.67 17.57 7.810001 Z"/>
</svg>
