<?xml version="1.0" encoding="UTF-8"?>
<!-- Generated by Pixelmator Pro 3.6.18 -->
<svg width="30" height="30" viewBox="0 0 30 30" xmlns="http://www.w3.org/2000/svg">
    <path id="Path" fill="#000000" stroke="none" d="M 2.66 20.92 C 2.66 21.15 2.74 21.34 2.91 21.49 C 3.08 21.65 3.29 21.719999 3.53 21.719999 L 22.139999 21.719999 C 22.379999 21.719999 22.58 21.639999 22.74 21.49 C 22.91 21.33 22.99 21.139999 22.99 20.92 C 22.99 20.68 22.91 20.469999 22.75 20.309999 C 22.59 20.139999 22.379999 20.059999 22.139999 20.059999 L 3.53 20.059999 C 3.29 20.059999 3.09 20.139999 2.92 20.309999 C 2.75 20.48 2.66 20.690001 2.66 20.92 Z M 5.27 17.809999 C 5.27 18.049999 5.36 18.24 5.53 18.4 C 5.67 18.58 5.86 18.67 6.12 18.67 L 24.73 18.67 C 24.959999 18.67 25.15 18.59 25.309999 18.42 C 25.469999 18.25 25.540001 18.049999 25.540001 17.809999 C 25.540001 17.58 25.459999 17.379999 25.309999 17.23 C 25.16 17.08 24.959999 17 24.73 17 L 6.12 17 C 5.88 17 5.68 17.08 5.52 17.23 C 5.35 17.389999 5.27 17.58 5.27 17.809999 Z M 5.42 15.39 L 5.42 15.34 C 5.38 15.49 5.42 15.56 5.54 15.56 L 6.98 15.56 C 7.04 15.56 7.1 15.51 7.17 15.41 C 7.41 14.89 7.76 14.47 8.23 14.14 C 8.7 13.810001 9.22 13.619999 9.78 13.58 L 10.31 13.5 C 10.43 13.5 10.5 13.439999 10.5 13.32 L 10.56 12.82 C 10.67 11.74 11.12 10.85 11.92 10.119999 C 12.72 9.4 13.67 9.040001 14.76 9.040001 C 15.83 9.040001 16.780001 9.4 17.58 10.110001 C 18.379999 10.82 18.85 11.709999 18.959999 12.779999 L 19.030001 13.35 C 19.030001 13.470001 19.1 13.529999 19.24 13.529999 L 20.82 13.529999 C 21.459999 13.529999 22.049999 13.700001 22.57 14.05 C 23.09 14.39 23.49 14.85 23.74 15.41 C 23.809999 15.51 23.879999 15.56 23.959999 15.56 L 25.379999 15.56 C 25.5 15.56 25.549999 15.49 25.530001 15.34 C 25.309999 14.78 25.16 14.43 25.07 14.28 C 25.790001 13.630001 26.299999 12.77 26.57 11.709999 L 26.74 11.049999 C 26.77 10.99 26.76 10.93 26.73 10.889999 C 26.700001 10.85 26.66 10.82 26.610001 10.82 L 25.99 10.6 C 25.1 10.34 24.42 9.82 23.950001 9.02 C 23.48 8.220001 23.360001 7.369999 23.58 6.459999 L 23.709999 5.880001 C 23.76 5.790001 23.719999 5.709999 23.58 5.65 L 22.74 5.42 C 21.65 5.15 20.57 5.24 19.52 5.68 C 18.469999 6.119999 17.65 6.83 17.049999 7.799999 C 16.26 7.49 15.49 7.34 14.76 7.34 C 13.37 7.34 12.14 7.780001 11.05 8.65 C 9.96 9.52 9.27 10.639999 8.95 12 C 8.11 12.200001 7.37 12.6 6.73 13.209999 C 6.09 13.82 5.67 14.55 5.42 15.39 Z M 7 23.969999 C 7 24.209999 7.09 24.4 7.26 24.559999 C 7.43 24.74 7.63 24.83 7.85 24.83 L 26.5 24.83 C 26.73 24.83 26.93 24.75 27.09 24.58 C 27.25 24.41 27.33 24.209999 27.33 23.969999 C 27.33 23.74 27.25 23.549999 27.09 23.389999 C 26.93 23.23 26.73 23.16 26.5 23.16 L 7.86 23.16 C 7.62 23.16 7.42 23.24 7.26 23.389999 C 7.09 23.549999 7 23.74 7 23.969999 Z M 18.51 8.700001 C 18.860001 8.130001 19.33 7.68 19.92 7.369999 C 20.51 7.059999 21.129999 6.93 21.790001 6.99 C 21.719999 8.029999 21.959999 9.01 22.49 9.92 C 23.030001 10.83 23.77 11.5 24.709999 11.939999 C 24.559999 12.290001 24.309999 12.65 23.959999 13.01 C 23.040001 12.25 21.99 11.880001 20.82 11.880001 L 20.5 11.880001 C 20.18 10.57 19.52 9.51 18.51 8.700001 Z"/>
</svg>
