<?xml version="1.0" encoding="UTF-8"?>
<!-- Generated by Pixelmator Pro 3.6.18 -->
<svg width="30" height="30" viewBox="0 0 30 30" xmlns="http://www.w3.org/2000/svg">
    <path id="Path" fill="#000000" stroke="none" d="M 4.09 15.889999 C 4.09 17 4.42 17.99 5.08 18.860001 C 5.74 19.73 6.6 20.33 7.66 20.65 L 7.01 22.35 C 6.97 22.49 7.01 22.559999 7.15 22.559999 L 9.27 22.559999 L 7.98 26.74 L 8.26 26.74 L 12.49 21.120001 C 12.53 21.08 12.53 21.030001 12.51 20.98 C 12.48 20.93 12.44 20.91 12.37 20.91 L 10.19 20.91 L 12.66 16.27 C 12.73 16.129999 12.69 16.049999 12.53 16.049999 L 9.57 16.049999 C 9.48 16.049999 9.41 16.1 9.35 16.200001 L 8.28 19.08 C 7.57 18.9 6.98 18.51 6.5 17.91 C 6.02 17.309999 5.79 16.639999 5.79 15.9 C 5.79 15.07 6.07 14.35 6.64 13.73 C 7.21 13.119999 7.91 12.76 8.74 12.66 L 9.27 12.59 C 9.4 12.59 9.47 12.529999 9.47 12.41 L 9.54 11.9 C 9.65 10.82 10.1 9.91 10.91 9.18 C 11.72 8.450001 12.67 8.08 13.76 8.08 C 14.85 8.08 15.8 8.450001 16.620001 9.18 C 17.440001 9.91 17.9 10.82 18.02 11.889999 L 18.09 12.459999 C 18.09 12.58 18.15 12.65 18.26 12.65 L 19.879999 12.65 C 20.790001 12.65 21.559999 12.970001 22.209999 13.6 C 22.860001 14.23 23.18 15 23.18 15.879999 C 23.18 16.73 22.879999 17.469999 22.280001 18.09 C 21.68 18.709999 20.950001 19.059999 20.08 19.120001 C 19.959999 19.120001 19.889999 19.18 19.889999 19.309999 L 19.889999 20.67 C 19.889999 20.790001 19.950001 20.85 20.08 20.85 C 21.41 20.809999 22.540001 20.299999 23.469999 19.34 C 24.4 18.370001 24.860001 17.219999 24.860001 15.889999 C 24.860001 15.02 24.639999 14.21 24.200001 13.439999 C 24.959999 12.700001 25.469999 11.83 25.709999 10.82 L 25.9 10.139999 C 25.91 10.130001 25.91 10.110001 25.91 10.07 C 25.91 9.99 25.860001 9.939999 25.76 9.91 L 25.139999 9.74 C 24.57 9.57 24.08 9.290001 23.68 8.9 C 23.280001 8.51 23 8.1 22.83 7.68 C 22.66 7.26 22.58 6.84 22.59 6.42 C 22.59 6.139999 22.620001 5.860001 22.690001 5.57 L 22.799999 4.959999 C 22.82 4.860001 22.780001 4.780001 22.66 4.73 L 21.860001 4.49 C 21.389999 4.4 20.98 4.35 20.620001 4.35 C 20.25 4.34 19.870001 4.380001 19.49 4.469999 C 19.110001 4.549999 18.709999 4.690001 18.299999 4.869999 C 17.889999 5.049999 17.5 5.32 17.120001 5.66 C 16.74 6 16.41 6.4 16.129999 6.860001 C 15.3 6.549999 14.51 6.4 13.77 6.4 C 12.36 6.4 11.1 6.84 10.01 7.720001 C 8.92 8.6 8.21 9.720001 7.9 11.08 C 6.79 11.34 5.88 11.92 5.16 12.82 C 4.45 13.709999 4.09 14.74 4.09 15.889999 Z M 12.26 25.76 C 12.26 25.92 12.31 26.07 12.41 26.23 C 12.51 26.389999 12.66 26.5 12.86 26.559999 C 13.02 26.59 13.11 26.610001 13.13 26.610001 C 13.22 26.610001 13.35 26.58 13.5 26.51 C 13.71 26.41 13.85 26.24 13.92 25.98 L 14.2 24.93 C 14.26 24.709999 14.24 24.5 14.12 24.299999 C 14 24.1 13.83 23.959999 13.59 23.889999 C 13.37 23.83 13.16 23.860001 12.96 23.969999 C 12.76 24.09 12.62 24.27 12.55 24.5 L 12.28 25.5 L 12.26 25.76 Z M 13.6 21 C 13.6 21.43 13.8 21.68 14.21 21.75 C 14.35 21.780001 14.44 21.799999 14.48 21.799999 C 14.86 21.799999 15.11 21.59 15.25 21.17 L 15.55 20.15 C 15.61 19.93 15.58 19.719999 15.47 19.52 C 15.36 19.32 15.17 19.18 14.94 19.110001 C 14.72 19.040001 14.5 19.059999 14.3 19.18 C 14.1 19.299999 13.96 19.469999 13.89 19.709999 L 13.64 20.719999 C 13.61 20.809999 13.6 20.9 13.6 21 Z M 16.41 22.67 C 16.42 22.84 16.48 23 16.59 23.15 C 16.700001 23.299999 16.860001 23.42 17.07 23.49 C 17.23 23.530001 17.34 23.549999 17.4 23.549999 C 17.74 23.549999 17.98 23.32 18.110001 22.870001 L 18.35 21.85 C 18.42 21.620001 18.4 21.4 18.290001 21.190001 C 18.18 20.98 18.01 20.85 17.790001 20.780001 C 17.540001 20.719999 17.309999 20.75 17.110001 20.860001 C 16.91 20.98 16.780001 21.16 16.74 21.389999 L 16.450001 22.42 C 16.450001 22.440001 16.440001 22.48 16.43 22.540001 C 16.41 22.610001 16.41 22.65 16.41 22.67 Z M 17.59 7.77 C 17.92 7.209999 18.370001 6.780001 18.93 6.48 C 19.49 6.18 20.08 6.030001 20.690001 6.030001 L 20.91 6.030001 L 20.91 6.35 C 20.91 6.99 21.02 7.610001 21.25 8.209999 C 21.48 8.810001 21.809999 9.360001 22.27 9.869999 C 22.719999 10.380001 23.26 10.779999 23.879999 11.08 C 23.709999 11.459999 23.459999 11.799999 23.120001 12.110001 C 22.209999 11.33 21.139999 10.939999 19.9 10.939999 L 19.57 10.939999 C 19.280001 9.68 18.620001 8.619999 17.59 7.77 Z M 17.780001 17.870001 C 17.780001 18.299999 18 18.58 18.43 18.690001 C 18.57 18.709999 18.67 18.73 18.73 18.73 C 19.09 18.73 19.34 18.51 19.469999 18.08 L 19.75 17.040001 C 19.76 16.99 19.76 16.92 19.76 16.82 C 19.77 16.65 19.73 16.49 19.620001 16.33 C 19.51 16.17 19.35 16.059999 19.129999 16 C 19.120001 16 19.08 16 19.030001 15.99 C 18.98 15.98 18.93 15.98 18.9 15.98 C 18.74 15.98 18.58 16.030001 18.42 16.129999 C 18.26 16.23 18.15 16.389999 18.09 16.6 L 17.799999 17.620001 C 17.799999 17.629999 17.799999 17.66 17.790001 17.719999 C 17.790001 17.790001 17.780001 17.84 17.780001 17.870001 Z"/>
</svg>
