<?xml version="1.0" encoding="UTF-8"?>
<!-- Generated by Pixelmator Pro 3.6.18 -->
<svg width="30" height="30" viewBox="0 0 30 30" xmlns="http://www.w3.org/2000/svg">
    <path id="Path" fill="#000000" stroke="none" d="M 4.1 15.91 C 4.1 17.24 4.56 18.389999 5.49 19.34 C 6.42 20.290001 7.55 20.809999 8.89 20.870001 C 9.01 20.870001 9.07 20.809999 9.07 20.700001 L 9.07 19.360001 C 9.07 19.25 9.01 19.190001 8.89 19.190001 C 8.03 19.15 7.31 18.809999 6.71 18.17 C 6.11 17.530001 5.81 16.780001 5.81 15.91 C 5.81 15.08 6.09 14.36 6.65 13.74 C 7.21 13.130001 7.91 12.77 8.75 12.67 L 9.28 12.639999 C 9.41 12.639999 9.48 12.58 9.48 12.459999 L 9.55 11.92 C 9.66 10.84 10.11 9.93 10.92 9.200001 C 11.73 8.470001 12.68 8.1 13.77 8.1 C 14.85 8.1 15.8 8.470001 16.620001 9.200001 C 17.440001 9.93 17.9 10.84 18.02 11.92 L 18.1 12.5 C 18.1 12.610001 18.16 12.67 18.27 12.67 L 19.879999 12.67 C 20.77 12.67 21.540001 12.99 22.190001 13.630001 C 22.84 14.27 23.17 15.030001 23.17 15.9 C 23.17 16.77 22.870001 17.52 22.27 18.16 C 21.67 18.799999 20.940001 19.139999 20.09 19.18 C 19.959999 19.18 19.889999 19.24 19.889999 19.35 L 19.889999 20.690001 C 19.889999 20.799999 19.959999 20.860001 20.09 20.860001 C 21.42 20.82 22.549999 20.309999 23.469999 19.35 C 24.4 18.389999 24.860001 17.24 24.860001 15.9 C 24.860001 15.040001 24.639999 14.24 24.209999 13.49 C 25 12.75 25.51 11.869999 25.76 10.869999 L 25.889999 10.189999 C 25.91 10.18 25.92 10.16 25.92 10.119999 C 25.92 10.049999 25.870001 9.99 25.76 9.959999 L 25.200001 9.790001 C 24.629999 9.619999 24.15 9.34 23.74 8.939999 C 23.34 8.540001 23.049999 8.130001 22.879999 7.689999 C 22.709999 7.26 22.629999 6.82 22.629999 6.369999 C 22.620001 6.130001 22.65 5.860001 22.709999 5.58 L 22.85 5 C 22.879999 4.91 22.83 4.84 22.709999 4.780001 L 21.91 4.530001 C 21.49 4.41 21.049999 4.34 20.6 4.34 C 20.25 4.34 19.889999 4.380001 19.52 4.469999 C 19.15 4.559999 18.76 4.690001 18.35 4.869999 C 17.940001 5.049999 17.549999 5.32 17.16 5.67 C 16.780001 6.02 16.440001 6.42 16.16 6.889999 C 15.41 6.57 14.62 6.4 13.79 6.4 C 12.38 6.4 11.12 6.84 10.03 7.709999 C 8.94 8.58 8.24 9.700001 7.93 11.07 C 6.82 11.33 5.91 11.9 5.19 12.799999 C 4.47 13.700001 4.1 14.76 4.1 15.91 Z M 9.58 22.940001 C 9.67 23.15 9.82 23.299999 10.04 23.389999 C 10.23 23.49 10.44 23.5 10.66 23.41 C 10.88 23.33 11.03 23.18 11.11 22.959999 C 11.21 22.74 11.22 22.530001 11.13 22.309999 C 11.05 22.1 10.9 21.950001 10.68 21.870001 C 10.48 21.77 10.27 21.76 10.06 21.85 C 9.85 21.940001 9.69 22.09 9.59 22.309999 C 9.5 22.48 9.49 22.690001 9.58 22.940001 Z M 10.2 20.110001 C 10.2 20.26 10.25 20.41 10.36 20.559999 C 10.47 20.709999 10.62 20.82 10.82 20.879999 C 11.08 20.98 11.3 20.98 11.49 20.879999 C 11.68 20.780001 11.81 20.59 11.89 20.309999 L 12.77 17.1 C 12.84 16.85 12.81 16.629999 12.69 16.43 C 12.57 16.23 12.39 16.110001 12.15 16.059999 C 11.93 15.99 11.72 16.01 11.52 16.129999 C 11.32 16.24 11.19 16.41 11.12 16.639999 L 10.24 19.860001 C 10.24 19.879999 10.23 19.92 10.22 19.98 C 10.21 20.030001 10.2 20.08 10.2 20.110001 Z M 12.07 25.709999 C 12.07 25.83 12.09 25.93 12.13 26 C 12.22 26.219999 12.37 26.370001 12.58 26.450001 C 12.67 26.5 12.78 26.52 12.91 26.52 C 12.97 26.52 13.07 26.5 13.21 26.459999 C 13.44 26.379999 13.6 26.23 13.69 26.01 C 13.79 25.790001 13.79 25.57 13.69 25.35 C 13.59 25.129999 13.44 24.98 13.24 24.889999 C 13.04 24.799999 12.84 24.799999 12.63 24.889999 C 12.44 24.969999 12.3 25.09 12.21 25.25 C 12.11 25.42 12.07 25.57 12.07 25.709999 Z M 12.81 23.059999 C 12.81 23.440001 13.02 23.700001 13.45 23.84 C 13.54 23.870001 13.62 23.889999 13.68 23.889999 C 13.79 23.889999 13.91 23.860001 14.03 23.809999 C 14.26 23.73 14.42 23.540001 14.5 23.24 L 16.15 17.120001 C 16.209999 16.879999 16.190001 16.67 16.08 16.469999 C 15.97 16.280001 15.8 16.15 15.58 16.08 C 15.35 16.01 15.13 16.030001 14.93 16.15 C 14.73 16.26 14.59 16.43 14.53 16.66 L 12.85 22.83 C 12.82 22.92 12.81 23 12.81 23.059999 Z M 16.25 22.639999 C 16.25 22.77 16.27 22.870001 16.32 22.950001 C 16.4 23.15 16.549999 23.299999 16.76 23.389999 C 16.879999 23.440001 16.99 23.469999 17.110001 23.469999 C 17.17 23.469999 17.27 23.450001 17.41 23.41 C 17.629999 23.32 17.780001 23.18 17.860001 22.969999 C 17.940001 22.75 17.940001 22.540001 17.860001 22.34 C 17.780001 22.139999 17.639999 21.99 17.440001 21.889999 C 17.219999 21.790001 17 21.780001 16.790001 21.870001 C 16.57 21.950001 16.42 22.110001 16.32 22.33 C 16.27 22.41 16.25 22.51 16.25 22.639999 Z M 16.969999 20.08 C 16.969999 20.24 17.02 20.4 17.120001 20.540001 C 17.219999 20.68 17.370001 20.790001 17.57 20.85 C 17.74 20.870001 17.83 20.879999 17.84 20.879999 C 18.25 20.879999 18.5 20.68 18.610001 20.27 L 19.48 17.1 C 19.540001 16.860001 19.52 16.65 19.41 16.450001 C 19.299999 16.26 19.129999 16.129999 18.91 16.059999 C 18.68 15.99 18.459999 16.01 18.27 16.129999 C 18.07 16.24 17.940001 16.41 17.870001 16.639999 L 17 19.809999 C 16.98 19.9 16.969999 19.99 16.969999 20.08 Z M 17.620001 7.83 C 17.93 7.26 18.370001 6.82 18.92 6.52 C 19.469999 6.219999 20.059999 6.07 20.68 6.08 C 20.790001 6.08 20.879999 6.09 20.93 6.1 L 20.93 6.41 C 20.93 7.389999 21.190001 8.299999 21.709999 9.16 C 22.23 10.02 22.959999 10.67 23.879999 11.110001 C 23.690001 11.549999 23.440001 11.9 23.129999 12.18 C 22.25 11.389999 21.17 11 19.879999 11 L 19.559999 11 C 19.299999 9.75 18.66 8.689999 17.620001 7.83 Z"/>
</svg>
