<?xml version="1.0" encoding="UTF-8"?>
<!-- Generated by Pixelmator Pro 3.6.18 -->
<svg width="30" height="30" viewBox="0 0 30 30" xmlns="http://www.w3.org/2000/svg">
    <path id="Path" fill="#000000" stroke="none" d="M 4.14 18.9 C 4.14 17.74 4.49 16.720001 5.2 15.82 C 5.91 14.92 6.82 14.35 7.94 14.1 C 8.17 13.07 8.64 12.17 9.34 11.4 C 10.04 10.630001 10.89 10.08 11.87 9.75 C 12.49 9.540001 13.13 9.43 13.8 9.43 C 14.61 9.43 15.4 9.59 16.15 9.91 C 16.43 9.440001 16.76 9.030001 17.139999 8.690001 C 17.52 8.35 17.91 8.08 18.309999 7.9 C 18.709999 7.719999 19.110001 7.58 19.49 7.49 C 19.870001 7.4 20.25 7.360001 20.610001 7.360001 C 20.99 7.360001 21.4 7.41 21.84 7.52 L 22.66 7.77 C 22.799999 7.83 22.84 7.9 22.799999 7.99 L 22.66 8.59 C 22.59 8.9 22.559999 9.190001 22.559999 9.450001 C 22.559999 9.76 22.610001 10.08 22.709999 10.4 C 22.809999 10.720001 22.950001 11.029999 23.15 11.34 C 23.34 11.65 23.610001 11.92 23.950001 12.17 C 24.290001 12.42 24.67 12.610001 25.1 12.74 L 25.719999 12.959999 C 25.82 12.99 25.870001 13.040001 25.870001 13.119999 C 25.870001 13.139999 25.860001 13.16 25.85 13.189999 L 25.67 13.860001 C 25.4 14.939999 24.889999 15.790001 24.17 16.43 C 24.57 17.130001 24.790001 17.880001 24.82 18.67 C 24.83 18.719999 24.83 18.790001 24.83 18.9 C 24.83 19.790001 24.610001 20.620001 24.16 21.379999 C 23.719999 22.139999 23.110001 22.74 22.360001 23.18 C 21.6 23.620001 20.77 23.85 19.879999 23.85 L 9.07 23.85 C 8.18 23.85 7.35 23.629999 6.59 23.18 C 5.83 22.73 5.24 22.129999 4.8 21.379999 C 4.36 20.629999 4.14 19.799999 4.14 18.9 Z M 5.85 18.9 C 5.85 19.790001 6.17 20.559999 6.81 21.209999 C 7.45 21.860001 8.2 22.190001 9.07 22.190001 L 19.879999 22.190001 C 20.77 22.190001 21.530001 21.870001 22.16 21.219999 C 22.790001 20.57 23.110001 19.799999 23.110001 18.9 C 23.110001 18.02 22.790001 17.27 22.15 16.639999 C 21.51 16.01 20.75 15.689999 19.870001 15.689999 L 18.09 15.689999 L 17.99 14.939999 C 17.889999 13.93 17.469999 13.060001 16.73 12.35 C 15.99 11.639999 15.11 11.24 14.1 11.15 C 14.07 11.15 14.02 11.15 13.95 11.139999 C 13.88 11.130001 13.84 11.130001 13.8 11.130001 C 13.29 11.130001 12.78 11.23 12.26 11.42 L 12.26 11.4 C 11.53 11.68 10.91 12.139999 10.42 12.77 C 9.92 13.4 9.62 14.119999 9.52 14.939999 L 9.45 15.66 L 8.77 15.689999 C 7.93 15.790001 7.23 16.139999 6.67 16.75 C 6.11 17.360001 5.85 18.07 5.85 18.9 Z M 17.6 10.790001 C 18.66 11.700001 19.32 12.76 19.57 13.970001 L 19.889999 13.970001 C 21.129999 13.970001 22.190001 14.360001 23.059999 15.15 C 23.389999 14.84 23.639999 14.48 23.82 14.08 C 22.91 13.65 22.190001 12.99 21.66 12.110001 C 21.139999 11.23 20.870001 10.299999 20.870001 9.33 L 20.870001 9.09 C 20.82 9.08 20.74 9.08 20.629999 9.08 C 20.049999 9.07 19.48 9.209999 18.93 9.52 C 18.379999 9.82 17.93 10.24 17.6 10.790001 Z"/>
</svg>
