<?xml version="1.0" encoding="UTF-8"?>
<!-- Generated by Pixelmator Pro 3.6.18 -->
<svg width="30" height="30" viewBox="0 0 30 30" xmlns="http://www.w3.org/2000/svg">
    <path id="Path" fill="#000000" stroke="none" d="M 4.22 16.889999 C 4.22 18.219999 4.68 19.370001 5.61 20.33 C 6.54 21.290001 7.67 21.799999 9.02 21.860001 C 9.13 21.860001 9.19 21.799999 9.19 21.690001 L 9.19 20.32 C 9.19 20.190001 9.13 20.129999 9.02 20.129999 C 8.14 20.07 7.41 19.719999 6.81 19.1 C 6.21 18.48 5.91 17.74 5.91 16.889999 C 5.91 16.049999 6.19 15.31 6.76 14.69 C 7.33 14.07 8.03 13.720001 8.87 13.65 L 9.39 13.58 C 9.51 13.58 9.58 13.52 9.58 13.389999 L 9.65 12.889999 C 9.76 11.810001 10.22 10.9 11.03 10.17 C 11.84 9.439999 12.8 9.07 13.9 9.07 C 14.99 9.07 15.95 9.43 16.76 10.16 C 17.57 10.889999 18.040001 11.799999 18.16 12.880001 L 18.219999 13.450001 C 18.219999 13.57 18.280001 13.630001 18.41 13.630001 L 20.01 13.630001 C 20.92 13.630001 21.690001 13.950001 22.33 14.58 C 22.969999 15.21 23.299999 15.98 23.299999 16.860001 C 23.299999 17.709999 23 18.450001 22.41 19.07 C 21.82 19.690001 21.08 20.040001 20.219999 20.1 C 20.08 20.1 20.01 20.16 20.01 20.290001 L 20.01 21.66 C 20.01 21.77 20.08 21.83 20.219999 21.83 C 21.549999 21.790001 22.68 21.280001 23.610001 20.32 C 24.540001 19.35 25 18.200001 25 16.870001 C 25 16.129999 24.860001 15.46 24.57 14.86 C 25.360001 13.9 25.75 12.790001 25.75 11.5 C 25.75 10.560001 25.51 9.68 25.040001 8.869999 C 24.57 8.060001 23.93 7.42 23.120001 6.950001 C 22.309999 6.48 21.440001 6.24 20.5 6.24 C 18.98 6.24 17.67 6.82 16.57 7.99 C 15.74 7.610001 14.85 7.4 13.9 7.4 C 12.49 7.4 11.23 7.84 10.14 8.709999 C 9.05 9.58 8.34 10.709999 8.04 12.08 C 6.93 12.34 6.02 12.92 5.3 13.82 C 4.58 14.71 4.22 15.74 4.22 16.889999 Z M 10.15 17.77 C 10.15 18.15 10.29 18.469999 10.58 18.75 C 10.86 19.02 11.2 19.16 11.6 19.16 C 12 19.16 12.33 19.030001 12.6 18.76 C 12.87 18.49 13.01 18.16 13.01 17.780001 C 13.01 17.52 12.89 17.18 12.66 16.76 C 12.43 16.34 12.21 16 12 15.76 C 11.98 15.74 11.92 15.67 11.82 15.56 C 11.72 15.45 11.65 15.37 11.61 15.32 L 11.25 15.72 C 10.97 16.02 10.72 16.370001 10.5 16.77 C 10.27 17.17 10.15 17.51 10.15 17.77 Z M 13.14 21.76 C 13.14 22.389999 13.37 22.940001 13.83 23.4 C 14.29 23.860001 14.84 24.09 15.48 24.09 C 16.120001 24.09 16.68 23.860001 17.139999 23.4 C 17.6 22.940001 17.83 22.389999 17.83 21.76 C 17.83 21.49 17.75 21.17 17.6 20.790001 C 17.440001 20.41 17.26 20.07 17.040001 19.75 C 16.58 19.16 16.15 18.66 15.75 18.26 C 15.69 18.219999 15.61 18.129999 15.49 18.02 L 14.9 18.6 C 14.46 19.02 14.05 19.549999 13.69 20.16 C 13.32 20.780001 13.14 21.309999 13.14 21.76 Z M 14.62 15.06 C 14.62 15.33 14.71 15.55 14.9 15.73 C 15.09 15.91 15.33 16 15.61 16 C 15.87 16 16.09 15.91 16.27 15.73 C 16.450001 15.55 16.540001 15.33 16.540001 15.06 C 16.540001 14.65 16.23 14.12 15.61 13.450001 L 15.36 13.709999 C 15.17 13.91 15 14.14 14.85 14.41 C 14.69 14.67 14.62 14.89 14.62 15.06 Z M 18.01 9.02 C 18.68 8.360001 19.51 8.029999 20.49 8.029999 C 21.469999 8.029999 22.299999 8.369999 22.98 9.049999 C 23.66 9.73 24.01 10.560001 24.01 11.529999 C 24.01 12.16 23.84 12.779999 23.5 13.380001 C 22.5 12.42 21.33 11.939999 19.99 11.939999 L 19.700001 11.939999 C 19.42 10.76 18.85 9.790001 18.01 9.02 Z"/>
</svg>
