<?xml version="1.0" encoding="UTF-8"?>
<!-- Generated by Pixelmator Pro 3.6.18 -->
<svg width="30" height="30" viewBox="0 0 30 30" xmlns="http://www.w3.org/2000/svg">
    <path id="Path" fill="#000000" stroke="none" d="M 4.19 14.91 C 4.19 15.780001 4.4 16.59 4.83 17.34 C 5.25 18.09 5.84 18.690001 6.57 19.139999 C 7.3 19.6 8.11 19.84 9 19.860001 C 9.12 19.860001 9.19 19.799999 9.19 19.690001 L 9.19 18.35 C 9.19 18.23 9.13 18.17 9 18.17 C 8.14 18.129999 7.41 17.780001 6.81 17.139999 C 6.21 16.5 5.9 15.75 5.9 14.9 C 5.9 14.049999 6.18 13.309999 6.75 12.689999 C 7.32 12.07 8.02 11.720001 8.86 11.65 L 9.38 11.58 C 9.51 11.58 9.58 11.52 9.58 11.41 L 9.65 10.889999 C 9.76 9.790001 10.22 8.869999 11.03 8.130001 C 11.84 7.389999 12.8 7.02 13.9 7.02 C 14.99 7.02 15.94 7.389999 16.76 8.119999 C 17.58 8.85 18.040001 9.77 18.16 10.85 L 18.24 11.43 C 18.24 11.540001 18.299999 11.6 18.42 11.6 L 20.040001 11.6 C 20.940001 11.6 21.709999 11.92 22.360001 12.57 C 23.01 13.219999 23.33 13.99 23.33 14.889999 C 23.33 15.74 23.030001 16.49 22.42 17.129999 C 21.809999 17.77 21.09 18.110001 20.24 18.16 C 20.110001 18.16 20.040001 18.219999 20.040001 18.34 L 20.040001 19.68 C 20.040001 19.790001 20.110001 19.85 20.24 19.85 C 21.120001 19.83 21.93 19.59 22.66 19.129999 C 23.389999 18.68 23.969999 18.08 24.389999 17.33 C 24.809999 16.58 25.02 15.77 25.02 14.9 C 25.02 14.17 24.879999 13.5 24.6 12.879999 C 25.41 11.889999 25.809999 10.76 25.809999 9.51 C 25.809999 8.549999 25.57 7.67 25.1 6.860001 C 24.629999 6.049999 23.99 5.41 23.18 4.940001 C 22.370001 4.469999 21.49 4.23 20.540001 4.23 C 19.799999 4.23 19.08 4.380001 18.389999 4.690001 C 17.709999 5.030001 17.120001 5.450001 16.620001 6 C 15.74 5.57 14.84 5.35 13.91 5.35 C 12.49 5.35 11.23 5.790001 10.13 6.67 C 9.03 7.549999 8.32 8.67 8.01 10.040001 C 6.89 10.33 5.97 10.92 5.25 11.82 C 4.54 12.719999 4.19 13.75 4.19 14.91 Z M 9.52 21.98 C 9.52 22.15 9.57 22.32 9.68 22.49 C 9.79 22.66 9.95 22.77 10.15 22.84 C 10.38 22.91 10.59 22.9 10.79 22.799999 C 10.98 22.709999 11.11 22.52 11.18 22.24 L 11.32 21.629999 C 11.37 21.4 11.34 21.190001 11.23 21 C 11.12 20.799999 10.95 20.67 10.71 20.6 C 10.49 20.530001 10.27 20.559999 10.07 20.68 C 9.87 20.799999 9.73 20.98 9.67 21.209999 L 9.53 21.799999 C 9.53 21.83 9.52 21.889999 9.52 21.98 Z M 10.28 19.08 C 10.28 19.290001 10.36 19.48 10.53 19.65 C 10.69 19.82 10.87 19.9 11.09 19.9 C 11.33 19.9 11.53 19.82 11.69 19.66 C 11.85 19.5 11.93 19.309999 11.93 19.07 C 11.93 18.84 11.85 18.639999 11.69 18.48 C 11.53 18.32 11.33 18.24 11.09 18.24 C 10.86 18.24 10.67 18.32 10.51 18.469999 C 10.36 18.65 10.28 18.85 10.28 19.08 Z M 10.89 16.809999 C 10.88 16.969999 10.92 17.120001 11.03 17.26 C 11.13 17.41 11.29 17.51 11.51 17.58 C 11.72 17.639999 11.92 17.620001 12.13 17.51 C 12.34 17.4 12.47 17.23 12.54 17 L 12.82 16.1 C 12.89 15.860001 12.87 15.639999 12.75 15.450001 C 12.63 15.26 12.45 15.129999 12.21 15.059999 C 11.99 14.99 11.78 15.01 11.58 15.129999 C 11.38 15.24 11.24 15.41 11.17 15.629999 L 10.93 16.549999 C 10.93 16.57 10.92 16.610001 10.91 16.67 C 10.9 16.719999 10.89 16.77 10.89 16.809999 Z M 12.05 25.1 C 12.05 25.280001 12.1 25.440001 12.2 25.6 C 12.3 25.76 12.46 25.870001 12.68 25.93 C 12.76 25.950001 12.85 25.959999 12.93 25.959999 C 13.36 25.959999 13.62 25.76 13.72 25.35 L 13.86 24.76 C 13.92 24.5 13.89 24.280001 13.78 24.08 C 13.67 23.879999 13.49 23.76 13.26 23.709999 C 13.05 23.639999 12.84 23.66 12.63 23.780001 C 12.42 23.9 12.29 24.07 12.22 24.290001 L 12.08 24.879999 C 12.06 24.969999 12.05 25.040001 12.05 25.1 Z M 12.83 22.200001 C 12.83 22.42 12.91 22.610001 13.08 22.780001 C 13.24 22.940001 13.43 23.02 13.65 23.02 C 13.89 23.02 14.08 22.940001 14.24 22.790001 C 14.4 22.629999 14.47 22.440001 14.47 22.200001 C 14.47 21.969999 14.39 21.780001 14.24 21.620001 C 14.08 21.459999 13.89 21.389999 13.65 21.389999 C 13.41 21.389999 13.22 21.469999 13.06 21.620001 C 12.91 21.77 12.83 21.969999 12.83 22.200001 Z M 13.46 19.93 C 13.45 20.08 13.49 20.24 13.59 20.4 C 13.69 20.559999 13.84 20.66 14.04 20.700001 C 14.27 20.76 14.48 20.74 14.68 20.639999 C 14.88 20.540001 15.01 20.35 15.09 20.08 L 15.36 19.18 C 15.43 18.959999 15.41 18.75 15.29 18.549999 C 15.17 18.35 15 18.219999 14.76 18.15 C 14.54 18.08 14.33 18.110001 14.12 18.23 C 13.91 18.35 13.78 18.530001 13.71 18.76 L 13.48 19.66 C 13.47 19.74 13.46 19.83 13.46 19.93 Z M 16.209999 22.08 C 16.209999 22.24 16.26 22.4 16.360001 22.559999 C 16.459999 22.719999 16.620001 22.83 16.82 22.889999 C 16.85 22.889999 16.9 22.9 16.959999 22.91 C 17.02 22.92 17.059999 22.93 17.1 22.93 C 17.51 22.93 17.76 22.709999 17.860001 22.27 L 18 21.67 C 18.07 21.459999 18.049999 21.25 17.93 21.040001 C 17.82 20.83 17.65 20.700001 17.42 20.629999 C 17.17 20.57 16.940001 20.59 16.74 20.709999 C 16.540001 20.83 16.4 21 16.33 21.24 L 16.24 21.83 C 16.24 21.85 16.23 21.9 16.219999 21.950001 C 16.209999 22 16.209999 22.040001 16.209999 22.08 Z M 16.950001 19.120001 C 16.950001 19.34 17.030001 19.540001 17.200001 19.690001 C 17.35 19.85 17.540001 19.93 17.77 19.93 C 18.01 19.93 18.200001 19.85 18.360001 19.700001 C 18.52 19.540001 18.59 19.35 18.59 19.120001 C 18.59 18.879999 18.51 18.690001 18.360001 18.530001 C 18.200001 18.370001 18.01 18.299999 17.77 18.299999 C 17.530001 18.299999 17.34 18.379999 17.18 18.530001 C 17.02 18.68 16.950001 18.879999 16.950001 19.120001 Z M 17.559999 16.809999 C 17.559999 16.98 17.610001 17.139999 17.719999 17.290001 C 17.83 17.440001 17.99 17.549999 18.209999 17.610001 C 18.23 17.610001 18.27 17.620001 18.33 17.629999 C 18.389999 17.639999 18.440001 17.65 18.469999 17.65 C 18.57 17.65 18.690001 17.620001 18.83 17.559999 C 19.040001 17.450001 19.18 17.27 19.24 17.040001 L 19.48 16.139999 C 19.540001 15.91 19.52 15.700001 19.41 15.51 C 19.299999 15.309999 19.129999 15.18 18.9 15.110001 C 18.67 15.040001 18.459999 15.059999 18.26 15.17 C 18.07 15.280001 17.940001 15.440001 17.870001 15.68 L 17.59 16.59 C 17.59 16.610001 17.58 16.65 17.57 16.709999 C 17.57 16.74 17.559999 16.780001 17.559999 16.809999 Z M 18.030001 7.01 C 18.719999 6.32 19.559999 5.969999 20.540001 5.969999 C 21.52 5.969999 22.360001 6.32 23.049999 7.02 C 23.74 7.720001 24.09 8.560001 24.09 9.540001 C 24.09 10.209999 23.92 10.82 23.58 11.389999 C 22.620001 10.43 21.440001 9.950001 20.040001 9.950001 L 19.719999 9.950001 C 19.440001 8.77 18.879999 7.790001 18.030001 7.01 Z"/>
</svg>
