<?xml version="1.0" encoding="UTF-8"?>
<!-- Generated by Pixelmator Pro 3.6.18 -->
<svg width="30" height="30" viewBox="0 0 30 30" xmlns="http://www.w3.org/2000/svg">
    <path id="Path" fill="#000000" stroke="none" d="M 4.29 15.93 C 4.29 16.59 4.41 17.209999 4.67 17.809999 C 4.93 18.41 5.26 18.92 5.69 19.360001 C 6.12 19.799999 6.63 20.15 7.21 20.41 C 7.79 20.67 8.42 20.83 9.08 20.860001 C 9.2 20.860001 9.26 20.799999 9.26 20.690001 L 9.26 19.35 C 9.26 19.24 9.2 19.18 9.08 19.18 C 8.21 19.120001 7.48 18.77 6.89 18.15 C 6.3 17.530001 6 16.780001 6 15.93 C 6 15.09 6.28 14.36 6.85 13.75 C 7.42 13.129999 8.11 12.779999 8.95 12.709999 L 9.47 12.65 C 9.59 12.65 9.66 12.59 9.66 12.470001 L 9.74 11.950001 C 9.81 11.24 10.04 10.59 10.43 10.01 C 10.82 9.43 11.33 8.970001 11.95 8.65 C 12.57 8.33 13.24 8.16 13.97 8.16 C 15.06 8.16 16.01 8.52 16.82 9.24 C 17.629999 9.959999 18.09 10.860001 18.209999 11.93 L 18.280001 12.51 C 18.280001 12.619999 18.34 12.68 18.469999 12.68 L 20.07 12.68 C 20.969999 12.68 21.74 13 22.389999 13.639999 C 23.030001 14.28 23.360001 15.040001 23.360001 15.93 C 23.360001 16.790001 23.059999 17.530001 22.469999 18.15 C 21.879999 18.77 21.139999 19.120001 20.280001 19.18 C 20.15 19.18 20.08 19.24 20.08 19.35 L 20.08 20.690001 C 20.08 20.799999 20.15 20.860001 20.280001 20.860001 C 21.620001 20.799999 22.75 20.290001 23.66 19.35 C 24.540001 18.4 25 17.26 25 15.93 C 25 15.290001 24.84 14.61 24.530001 13.869999 C 25.32 12.880001 25.719999 11.790001 25.719999 10.6 C 25.719999 9.65 25.48 8.77 25.01 7.970001 C 24.540001 7.16 23.9 6.530001 23.1 6.059999 C 22.299999 5.59 21.42 5.360001 20.48 5.360001 C 18.889999 5.360001 17.6 5.940001 16.610001 7.09 C 15.8 6.66 14.91 6.450001 13.95 6.450001 C 12.54 6.450001 11.29 6.889999 10.2 7.77 C 9.11 8.65 8.41 9.77 8.1 11.139999 C 6.98 11.4 6.07 11.970001 5.36 12.860001 C 4.64 13.75 4.29 14.77 4.29 15.93 Z M 11.94 20.549999 C 11.92 20.690001 11.96 20.76 12.08 20.76 L 14.25 20.76 L 12.93 24.93 L 13.22 24.93 L 17.4 19.35 C 17.440001 19.309999 17.450001 19.26 17.42 19.209999 C 17.389999 19.16 17.35 19.139999 17.280001 19.139999 L 15.1 19.139999 L 17.4 14.9 C 17.469999 14.76 17.43 14.68 17.26 14.68 L 14.32 14.68 C 14.24 14.68 14.18 14.73 14.11 14.82 L 11.94 20.549999 Z M 18 8.049999 C 18.67 7.389999 19.49 7.060001 20.469999 7.060001 C 21.450001 7.060001 22.280001 7.4 22.969999 8.09 C 23.66 8.77 24 9.610001 24 10.6 C 24 11.189999 23.83 11.790001 23.48 12.4 C 22.51 11.470001 21.360001 11 20.030001 11 L 19.719999 11 C 19.440001 9.810001 18.860001 8.83 18 8.049999 Z"/>
</svg>
