<?xml version="1.0" encoding="UTF-8"?>
<!-- Generated by Pixelmator Pro 3.6.18 -->
<svg width="30" height="30" viewBox="0 0 30 30" xmlns="http://www.w3.org/2000/svg">
    <path id="Path" fill="#000000" stroke="none" d="M 7.91 15.48 C 7.91 14.52 8.1 13.610001 8.47 12.73 C 8.84 11.85 9.35 11.1 9.98 10.470001 C 10.61 9.84 11.37 9.33 12.25 8.950001 C 13.13 8.57 14.05 8.380001 15 8.380001 L 16.139999 8.380001 C 16.299999 8.42 16.370001 8.52 16.370001 8.66 L 16.42 9.540001 C 16.459999 10.810001 16.91 11.889999 17.790001 12.779999 C 18.67 13.67 19.73 14.15 20.98 14.200001 L 21.799999 14.27 C 21.959999 14.27 22.040001 14.35 22.040001 14.5 L 22.040001 15.48 C 22.049999 16.76 21.74 17.950001 21.110001 19.040001 C 20.48 20.129999 19.629999 20.99 18.540001 21.629999 C 17.459999 22.26 16.27 22.58 14.99 22.58 C 14.02 22.58 13.09 22.389999 12.21 22.02 C 11.33 21.65 10.58 21.139999 9.95 20.51 C 9.32 19.879999 8.82 19.120001 8.45 18.25 C 8.1 17.370001 7.91 16.450001 7.91 15.48 Z M 9.74 15.48 C 9.74 16.24 9.89 16.959999 10.19 17.639999 C 10.49 18.309999 10.89 18.879999 11.38 19.34 C 11.87 19.799999 12.43 20.16 13.07 20.42 C 13.7 20.690001 14.35 20.82 15.01 20.82 C 15.59 20.82 16.18 20.709999 16.77 20.48 C 17.360001 20.25 17.91 19.93 18.42 19.52 C 18.93 19.110001 19.360001 18.59 19.73 17.950001 C 20.1 17.309999 20.33 16.619999 20.440001 15.86 C 18.809999 15.52 17.5 14.82 16.52 13.76 C 15.54 12.700001 14.97 11.459999 14.82 10.02 C 13.86 10.08 13 10.369999 12.21 10.9 C 11.43 11.43 10.82 12.1 10.39 12.92 C 9.96 13.74 9.74 14.59 9.74 15.48 Z"/>
</svg>
