<?xml version="1.0" encoding="UTF-8"?>
<!-- Generated by Pixelmator Pro 3.6.18 -->
<svg width="30" height="30" viewBox="0 0 30 30" xmlns="http://www.w3.org/2000/svg">
    <path id="Path" fill="#000000" stroke="none" d="M 4.07 15.91 C 4.07 17.24 4.53 18.389999 5.46 19.34 C 6.39 20.290001 7.52 20.809999 8.86 20.870001 C 8.97 20.870001 9.03 20.809999 9.03 20.700001 L 9.03 19.33 C 9.03 19.209999 8.97 19.15 8.86 19.15 C 7.99 19.08 7.26 18.74 6.67 18.110001 C 6.08 17.49 5.78 16.75 5.78 15.9 C 5.78 15.07 6.06 14.36 6.62 13.74 C 7.18 13.119999 7.88 12.77 8.72 12.67 L 9.25 12.6 C 9.38 12.6 9.45 12.540001 9.45 12.43 L 9.52 11.91 C 9.63 10.83 10.08 9.92 10.89 9.200001 C 11.7 8.470001 12.65 8.110001 13.74 8.110001 C 14.83 8.110001 15.78 8.470001 16.59 9.200001 C 17.4 9.92 17.870001 10.83 17.98 11.92 L 18.059999 12.5 C 18.059999 12.619999 18.120001 12.68 18.24 12.68 L 19.85 12.68 C 20.75 12.68 21.52 13 22.17 13.629999 C 22.809999 14.26 23.139999 15.02 23.139999 15.91 C 23.139999 16.76 22.84 17.5 22.25 18.120001 C 21.66 18.74 20.92 19.09 20.059999 19.16 C 19.93 19.16 19.860001 19.219999 19.860001 19.34 L 19.860001 20.709999 C 19.860001 20.82 19.93 20.879999 20.059999 20.879999 C 21.389999 20.84 22.52 20.33 23.440001 19.370001 C 24.360001 18.41 24.82 17.26 24.82 15.92 C 24.82 15.049999 24.6 14.24 24.17 13.49 C 24.98 12.76 25.51 11.889999 25.75 10.869999 L 25.75 10.74 L 25.940001 9.950001 L 25.18 9.74 C 24.370001 9.5 23.74 9.040001 23.290001 8.389999 C 22.84 7.73 22.620001 7.049999 22.620001 6.360001 C 22.620001 6.1 22.65 5.84 22.700001 5.58 L 22.9 4.780001 L 22.049999 4.530001 L 21.9 4.49 C 21.43 4.4 21.02 4.35 20.65 4.35 C 20.27 4.35 19.889999 4.389999 19.51 4.48 C 19.120001 4.57 18.719999 4.700001 18.309999 4.889999 C 17.889999 5.08 17.49 5.34 17.110001 5.690001 C 16.73 6.040001 16.389999 6.450001 16.110001 6.92 C 15.37 6.59 14.58 6.43 13.75 6.43 C 12.34 6.43 11.09 6.869999 10 7.74 C 8.91 8.610001 8.23 9.73 7.93 11.1 C 6.81 11.360001 5.88 11.93 5.16 12.82 C 4.43 13.73 4.07 14.76 4.07 15.91 Z M 9.47 22.68 C 9.47 22.83 9.52 22.98 9.62 23.129999 C 9.72 23.280001 9.87 23.389999 10.07 23.459999 C 10.29 23.530001 10.5 23.52 10.71 23.41 C 10.92 23.299999 11.05 23.129999 11.12 22.9 L 11.4 21.84 C 11.47 21.629999 11.45 21.43 11.33 21.219999 C 11.21 21.01 11.04 20.879999 10.82 20.809999 C 10.59 20.75 10.37 20.780001 10.17 20.889999 C 9.97 21 9.83 21.190001 9.75 21.42 L 9.52 22.41 C 9.49 22.57 9.47 22.66 9.47 22.68 Z M 10.77 17.950001 C 10.77 18.059999 10.8 18.18 10.87 18.309999 C 10.94 18.48 11.12 18.610001 11.4 18.690001 C 11.64 18.75 11.86 18.73 12.06 18.629999 C 12.25 18.530001 12.39 18.35 12.46 18.110001 L 12.74 17.08 C 12.81 16.85 12.79 16.629999 12.67 16.440001 C 12.55 16.24 12.38 16.110001 12.16 16.049999 C 11.92 15.99 11.69 16.01 11.49 16.120001 C 11.29 16.23 11.16 16.4 11.09 16.639999 L 10.82 17.65 C 10.79 17.780001 10.77 17.879999 10.77 17.950001 Z M 12.02 25.799999 C 12.02 25.969999 12.07 26.129999 12.17 26.290001 C 12.27 26.450001 12.42 26.559999 12.62 26.620001 C 12.73 26.65 12.8 26.67 12.85 26.67 C 12.94 26.67 13.06 26.639999 13.23 26.57 C 13.43 26.49 13.57 26.299999 13.66 26.02 L 13.96 24.969999 C 14.03 24.76 14.01 24.549999 13.89 24.34 C 13.77 24.129999 13.6 24 13.38 23.93 C 13.14 23.870001 12.91 23.889999 12.71 24.01 C 12.51 24.129999 12.37 24.299999 12.3 24.540001 L 12.05 25.549999 C 12.03 25.629999 12.02 25.719999 12.02 25.799999 Z M 13.35 21.030001 C 13.35 21.18 13.4 21.33 13.5 21.48 C 13.6 21.629999 13.75 21.74 13.96 21.809999 C 14.18 21.879999 14.4 21.860001 14.6 21.75 C 14.8 21.639999 14.93 21.469999 15 21.23 L 15.27 20.190001 C 15.34 19.98 15.32 19.77 15.21 19.57 C 15.1 19.370001 14.94 19.23 14.72 19.16 C 14.48 19.1 14.25 19.129999 14.04 19.24 C 13.83 19.35 13.69 19.540001 13.62 19.77 L 13.38 20.77 L 13.35 21.030001 Z M 16.16 22.790001 C 16.16 23.17 16.370001 23.41 16.799999 23.540001 C 16.889999 23.559999 16.969999 23.57 17.040001 23.57 C 17.190001 23.57 17.309999 23.549999 17.41 23.5 C 17.620001 23.42 17.77 23.23 17.85 22.93 L 18.120001 21.91 C 18.18 21.66 18.16 21.440001 18.040001 21.24 C 17.92 21.040001 17.75 20.92 17.51 20.870001 C 17.280001 20.799999 17.059999 20.82 16.870001 20.940001 C 16.68 21.059999 16.540001 21.23 16.469999 21.450001 L 16.200001 22.49 C 16.200001 22.51 16.190001 22.559999 16.18 22.639999 C 16.16 22.709999 16.16 22.76 16.16 22.790001 Z M 17.549999 17.98 C 17.549999 18.139999 17.6 18.290001 17.700001 18.440001 C 17.799999 18.59 17.959999 18.700001 18.16 18.76 C 18.299999 18.790001 18.379999 18.809999 18.389999 18.809999 C 18.48 18.809999 18.6 18.780001 18.77 18.709999 C 18.98 18.629999 19.120001 18.440001 19.209999 18.16 L 19.49 17.120001 C 19.549999 16.9 19.52 16.690001 19.41 16.49 C 19.299999 16.290001 19.110001 16.16 18.879999 16.09 C 18.66 16.02 18.450001 16.040001 18.25 16.16 C 18.049999 16.280001 17.92 16.450001 17.85 16.68 L 17.59 17.74 C 17.559999 17.83 17.549999 17.92 17.549999 17.98 Z M 17.58 7.810001 C 17.9 7.25 18.34 6.809999 18.91 6.5 C 19.48 6.190001 20.08 6.030001 20.719999 6.030001 L 20.93 6.030001 C 20.92 6.119999 20.92 6.24 20.92 6.41 C 20.92 7.360001 21.18 8.26 21.700001 9.119999 C 22.219999 9.98 22.950001 10.630001 23.870001 11.08 C 23.65 11.51 23.389999 11.880001 23.09 12.18 C 22.16 11.369999 21.07 10.970001 19.84 10.970001 L 19.52 10.970001 C 19.27 9.779999 18.629999 8.73 17.58 7.810001 Z"/>
</svg>
