<?xml version="1.0" encoding="UTF-8"?>
<!-- Generated by Pixelmator Pro 3.6.18 -->
<svg width="30" height="30" viewBox="0 0 30 30" xmlns="http://www.w3.org/2000/svg">
    <path id="Path" fill="#000000" stroke="none" d="M 4.09 15.889999 C 4.09 17 4.42 17.99 5.08 18.860001 C 5.74 19.73 6.6 20.33 7.66 20.65 L 7.01 22.35 C 6.97 22.49 7.01 22.559999 7.15 22.559999 L 9.27 22.559999 L 7.98 26.74 L 8.26 26.74 L 12.49 21.120001 C 12.53 21.08 12.53 21.030001 12.51 20.98 C 12.48 20.93 12.44 20.91 12.37 20.91 L 10.19 20.91 L 12.66 16.27 C 12.73 16.129999 12.69 16.049999 12.53 16.049999 L 9.57 16.049999 C 9.48 16.049999 9.41 16.1 9.35 16.200001 L 8.28 19.08 C 7.57 18.9 6.98 18.51 6.5 17.91 C 6.02 17.309999 5.79 16.639999 5.79 15.9 C 5.79 15.07 6.07 14.35 6.64 13.73 C 7.21 13.120001 7.91 12.76 8.74 12.66 L 9.27 12.59 C 9.4 12.59 9.47 12.529999 9.47 12.41 L 9.54 11.9 C 9.65 10.82 10.1 9.91 10.91 9.18 C 11.72 8.450001 12.67 8.08 13.76 8.08 C 14.85 8.08 15.8 8.450001 16.620001 9.18 C 17.440001 9.91 17.9 10.82 18.02 11.889999 L 18.09 12.459999 C 18.09 12.58 18.15 12.65 18.26 12.65 L 19.879999 12.65 C 20.790001 12.65 21.559999 12.970001 22.209999 13.6 C 22.860001 14.23 23.18 15 23.18 15.879999 C 23.18 16.73 22.879999 17.469999 22.280001 18.09 C 21.68 18.709999 20.950001 19.059999 20.08 19.120001 C 19.959999 19.120001 19.889999 19.18 19.889999 19.309999 L 19.889999 20.67 C 19.889999 20.790001 19.950001 20.85 20.08 20.85 C 21.41 20.809999 22.540001 20.299999 23.469999 19.34 C 24.4 18.370001 24.860001 17.219999 24.860001 15.889999 C 24.860001 15.02 24.639999 14.21 24.200001 13.440001 C 24.959999 12.700001 25.469999 11.83 25.709999 10.82 L 25.9 10.139999 C 25.91 10.130001 25.91 10.110001 25.91 10.07 C 25.91 9.99 25.860001 9.939999 25.76 9.91 L 25.139999 9.74 C 24.57 9.57 24.08 9.290001 23.68 8.9 C 23.280001 8.51 23 8.1 22.83 7.68 C 22.66 7.26 22.58 6.84 22.59 6.42 C 22.59 6.139999 22.620001 5.860001 22.690001 5.57 L 22.799999 4.959999 C 22.82 4.860001 22.780001 4.780001 22.66 4.73 L 21.860001 4.49 C 21.389999 4.4 20.98 4.35 20.620001 4.35 C 20.25 4.34 19.870001 4.380001 19.49 4.469999 C 19.110001 4.549999 18.709999 4.690001 18.299999 4.869999 C 17.889999 5.049999 17.5 5.32 17.120001 5.66 C 16.74 6 16.41 6.4 16.129999 6.860001 C 15.3 6.549999 14.51 6.4 13.77 6.4 C 12.36 6.4 11.1 6.84 10.01 7.720001 C 8.92 8.6 8.21 9.720001 7.9 11.08 C 6.79 11.34 5.88 11.92 5.16 12.82 C 4.45 13.710001 4.09 14.74 4.09 15.889999 Z M 11.97 26.1 C 11.97 26.27 12.02 26.43 12.13 26.59 C 12.24 26.75 12.4 26.860001 12.62 26.92 C 12.71 26.940001 12.79 26.950001 12.86 26.950001 C 13.29 26.950001 13.56 26.75 13.66 26.34 L 13.79 25.75 C 13.85 25.49 13.82 25.27 13.71 25.07 C 13.59 24.870001 13.42 24.75 13.18 24.700001 C 12.97 24.629999 12.76 24.65 12.55 24.77 C 12.34 24.889999 12.21 25.059999 12.14 25.280001 L 12.01 25.870001 C 11.98 25.99 11.97 26.07 11.97 26.1 Z M 12.76 23.200001 C 12.76 23.43 12.84 23.620001 13 23.780001 C 13.16 23.940001 13.36 24.02 13.58 24.02 C 13.82 24.02 14.01 23.940001 14.17 23.790001 C 14.33 23.629999 14.4 23.440001 14.4 23.200001 C 14.4 22.969999 14.32 22.780001 14.17 22.620001 C 14.01 22.459999 13.82 22.389999 13.58 22.389999 C 13.34 22.389999 13.15 22.469999 12.99 22.620001 C 12.84 22.77 12.76 22.969999 12.76 23.200001 Z M 13.38 20.93 C 13.37 21.08 13.41 21.24 13.52 21.4 C 13.62 21.559999 13.77 21.66 13.97 21.700001 C 14.2 21.76 14.41 21.74 14.61 21.639999 C 14.81 21.540001 14.94 21.35 15.02 21.08 L 15.28 20.18 C 15.35 19.959999 15.33 19.75 15.21 19.549999 C 15.09 19.35 14.92 19.219999 14.68 19.15 C 14.46 19.08 14.25 19.110001 14.04 19.23 C 13.83 19.35 13.7 19.530001 13.63 19.76 L 13.4 20.66 C 13.39 20.74 13.38 20.83 13.38 20.93 Z M 16.139999 23.08 C 16.139999 23.25 16.190001 23.41 16.290001 23.559999 C 16.389999 23.709999 16.540001 23.82 16.75 23.879999 C 16.780001 23.879999 16.83 23.889999 16.889999 23.9 C 16.950001 23.91 17 23.92 17.030001 23.92 C 17.440001 23.92 17.690001 23.700001 17.790001 23.26 L 17.93 22.66 C 18 22.450001 17.98 22.24 17.860001 22.030001 C 17.74 21.82 17.57 21.690001 17.35 21.620001 C 17.1 21.559999 16.870001 21.58 16.67 21.700001 C 16.469999 21.82 16.33 21.99 16.26 22.23 L 16.17 22.82 C 16.17 22.83 16.17 22.870001 16.16 22.93 C 16.15 23 16.139999 23.040001 16.139999 23.08 Z M 16.879999 20.120001 C 16.879999 20.35 16.959999 20.540001 17.120001 20.690001 C 17.27 20.85 17.459999 20.93 17.700001 20.93 C 17.940001 20.93 18.129999 20.85 18.290001 20.700001 C 18.450001 20.540001 18.52 20.35 18.52 20.120001 C 18.52 19.879999 18.440001 19.690001 18.290001 19.530001 C 18.129999 19.370001 17.940001 19.299999 17.700001 19.299999 C 17.459999 19.299999 17.27 19.379999 17.110001 19.530001 C 16.950001 19.68 16.879999 19.879999 16.879999 20.120001 Z M 17.59 7.77 C 17.92 7.209999 18.370001 6.780001 18.93 6.48 C 19.49 6.18 20.08 6.030001 20.690001 6.030001 L 20.91 6.030001 L 20.91 6.35 C 20.91 6.99 21.02 7.610001 21.25 8.209999 C 21.48 8.810001 21.809999 9.360001 22.27 9.869999 C 22.719999 10.380001 23.26 10.779999 23.879999 11.08 C 23.709999 11.459999 23.459999 11.799999 23.120001 12.110001 C 22.209999 11.33 21.139999 10.939999 19.9 10.939999 L 19.57 10.939999 C 19.280001 9.68 18.620001 8.619999 17.59 7.77 Z"/>
</svg>
