<?xml version="1.0" encoding="UTF-8"?>
<!-- Generated by Pixelmator Pro 3.6.18 -->
<svg width="30" height="30" viewBox="0 0 30 30" xmlns="http://www.w3.org/2000/svg">
    <path id="Path" fill="#000000" stroke="none" d="M 3.57 14.43 C 3.57 13.279999 3.93 12.25 4.65 11.35 C 5.37 10.450001 6.28 9.869999 7.38 9.610001 C 7.7 8.24 8.4 7.119999 9.5 6.24 C 10.6 5.360001 11.85 4.93 13.26 4.93 C 14.64 4.93 15.87 5.360001 16.950001 6.209999 C 18.030001 7.059999 18.73 8.16 19.049999 9.5 L 19.379999 9.5 C 20.280001 9.5 21.110001 9.720001 21.870001 10.15 C 22.629999 10.58 23.24 11.18 23.68 11.939999 C 24.120001 12.700001 24.35 13.52 24.35 14.42 C 24.35 15.57 24 16.6 23.290001 17.5 C 23.93 18.049999 24.690001 18.34 25.549999 18.370001 L 26.209999 18.43 C 26.33 18.43 26.389999 18.49 26.389999 18.620001 L 26.389999 19.389999 C 26.4 20.4 26.15 21.34 25.66 22.190001 C 25.17 23.049999 24.49 23.719999 23.639999 24.219999 C 22.790001 24.719999 21.860001 24.969999 20.85 24.969999 C 20.08 24.969999 19.35 24.82 18.66 24.530001 C 17.969999 24.24 17.379999 23.84 16.879999 23.34 C 16.389999 22.84 15.99 22.25 15.7 21.559999 C 15.41 20.870001 15.26 20.15 15.26 19.389999 L 8.37 19.389999 C 7.03 19.33 5.9 18.82 4.97 17.860001 C 4.04 16.9 3.57 15.76 3.57 14.43 Z M 5.28 14.43 C 5.28 15.3 5.58 16.049999 6.18 16.689999 C 6.78 17.33 7.51 17.67 8.37 17.709999 L 19.559999 17.709999 C 20.42 17.67 21.15 17.33 21.75 16.689999 C 22.35 16.049999 22.65 15.3 22.65 14.43 C 22.65 13.549999 22.33 12.799999 21.68 12.15 C 21.030001 11.51 20.26 11.18 19.370001 11.18 L 17.75 11.18 C 17.639999 11.18 17.58 11.119999 17.58 11.01 L 17.51 10.43 C 17.4 9.35 16.93 8.440001 16.110001 7.719999 C 15.29 7 14.34 6.630001 13.25 6.630001 C 12.15 6.630001 11.2 6.99 10.39 7.719999 C 9.58 8.450001 9.13 9.35 9.03 10.43 L 8.96 11.01 C 8.96 11.119999 8.89 11.18 8.76 11.18 L 8.23 11.18 C 7.39 11.279999 6.69 11.639999 6.13 12.25 C 5.57 12.860001 5.28 13.59 5.28 14.43 Z M 16.709999 19.389999 C 16.709999 20.18 16.91 20.91 17.309999 21.559999 C 17.709999 22.209999 18.219999 22.709999 18.85 23.059999 C 19.48 23.41 20.139999 23.58 20.84 23.58 C 21.459999 23.58 22.07 23.43 22.66 23.129999 C 23.26 22.83 23.780001 22.379999 24.24 21.77 C 24.700001 21.16 24.99 20.459999 25.1 19.67 C 24.02 19.450001 23.120001 19.02 22.379999 18.370001 C 21.540001 19.02 20.6 19.360001 19.559999 19.379999 L 16.709999 19.379999 Z"/>
</svg>
