<?xml version="1.0" encoding="UTF-8"?>
<!-- Generated by Pixelmator Pro 3.6.18 -->
<svg width="30" height="30" viewBox="0 0 30 30" xmlns="http://www.w3.org/2000/svg">
    <path id="Path" fill="#000000" stroke="none" d="M 4.07 15.9 C 4.07 17.23 4.54 18.379999 5.47 19.34 C 6.4 20.299999 7.54 20.809999 8.87 20.870001 C 8.99 20.870001 9.05 20.809999 9.05 20.700001 L 9.05 19.360001 C 9.05 19.25 8.99 19.190001 8.87 19.190001 C 8.01 19.139999 7.28 18.799999 6.68 18.16 C 6.08 17.52 5.78 16.77 5.78 15.9 C 5.78 15.07 6.06 14.35 6.63 13.73 C 7.2 13.110001 7.9 12.76 8.73 12.66 L 9.26 12.619999 C 9.39 12.619999 9.46 12.560001 9.46 12.450001 L 9.53 11.91 C 9.64 10.83 10.1 9.92 10.91 9.189999 C 11.72 8.459999 12.68 8.09 13.77 8.09 C 14.86 8.09 15.81 8.459999 16.629999 9.189999 C 17.450001 9.92 17.91 10.83 18.030001 11.91 L 18.110001 12.48 C 18.110001 12.6 18.17 12.66 18.280001 12.66 L 19.9 12.66 C 20.790001 12.66 21.57 12.98 22.219999 13.620001 C 22.870001 14.26 23.200001 15.02 23.200001 15.9 C 23.200001 16.77 22.9 17.52 22.299999 18.16 C 21.700001 18.799999 20.969999 19.139999 20.110001 19.190001 C 19.969999 19.190001 19.9 19.25 19.9 19.360001 L 19.9 20.700001 C 19.9 20.809999 19.969999 20.870001 20.110001 20.870001 C 21.440001 20.83 22.57 20.32 23.49 19.360001 C 24.42 18.389999 24.879999 17.24 24.879999 15.91 C 24.879999 15.030001 24.65 14.21 24.200001 13.450001 C 25.01 12.720001 25.530001 11.85 25.780001 10.83 L 25.92 10.110001 C 25.93 10.1 25.940001 10.08 25.940001 10.040001 C 25.940001 9.970001 25.889999 9.91 25.780001 9.880001 L 25.219999 9.700001 C 24.65 9.540001 24.16 9.26 23.76 8.869999 C 23.35 8.48 23.059999 8.07 22.889999 7.639999 C 22.719999 7.209999 22.629999 6.780001 22.629999 6.360001 C 22.610001 6.139999 22.639999 5.860001 22.709999 5.540001 L 22.85 4.93 C 22.889999 4.83 22.85 4.75 22.709999 4.690001 L 21.92 4.450001 C 21.469999 4.35 21.049999 4.299999 20.65 4.299999 C 20.27 4.299999 19.889999 4.34 19.51 4.43 C 19.120001 4.52 18.719999 4.65 18.309999 4.84 C 17.9 5.02 17.5 5.290001 17.110001 5.639999 C 16.719999 5.99 16.389999 6.389999 16.110001 6.860001 C 15.29 6.559999 14.51 6.41 13.78 6.41 C 12.37 6.41 11.11 6.85 10.02 7.73 C 8.93 8.610001 8.22 9.73 7.91 11.1 C 6.8 11.360001 5.89 11.93 5.17 12.83 C 4.43 13.720001 4.07 14.75 4.07 15.9 Z M 9.63 22.74 C 9.63 22.91 9.68 23.07 9.79 23.23 C 9.9 23.389999 10.06 23.5 10.28 23.559999 C 10.51 23.629999 10.73 23.610001 10.92 23.52 C 11.12 23.42 11.25 23.24 11.32 22.959999 L 12.75 17.09 C 12.81 16.84 12.78 16.610001 12.67 16.42 C 12.55 16.219999 12.38 16.1 12.15 16.049999 C 11.93 15.98 11.72 16 11.52 16.120001 C 11.32 16.23 11.18 16.4 11.11 16.629999 L 9.67 22.530001 C 9.67 22.540001 9.66 22.57 9.65 22.620001 C 9.64 22.67 9.63 22.709999 9.63 22.74 Z M 12.24 25.809999 C 12.24 25.969999 12.29 26.120001 12.39 26.27 C 12.49 26.42 12.64 26.52 12.84 26.58 C 12.95 26.610001 13.03 26.620001 13.08 26.620001 C 13.52 26.620001 13.79 26.42 13.9 26.030001 L 16.15 17.1 C 16.209999 16.860001 16.190001 16.639999 16.08 16.450001 C 15.97 16.26 15.8 16.129999 15.58 16.059999 C 15.35 15.99 15.13 16.01 14.92 16.129999 C 14.71 16.25 14.58 16.41 14.53 16.629999 L 12.27 25.549999 C 12.27 25.559999 12.27 25.6 12.26 25.67 C 12.24 25.73 12.24 25.780001 12.24 25.809999 Z M 16.4 22.82 C 16.4 23.18 16.610001 23.42 17.030001 23.559999 C 17.17 23.6 17.27 23.620001 17.33 23.620001 C 17.440001 23.620001 17.559999 23.6 17.68 23.549999 C 17.889999 23.469999 18.02 23.27 18.07 22.969999 L 19.5 17.1 C 19.559999 16.860001 19.540001 16.65 19.42 16.450001 C 19.309999 16.26 19.139999 16.129999 18.91 16.059999 C 18.68 15.99 18.459999 16.01 18.25 16.129999 C 18.040001 16.24 17.92 16.41 17.870001 16.639999 L 16.440001 22.540001 C 16.42 22.700001 16.4 22.799999 16.4 22.82 Z M 17.58 7.77 C 17.9 7.189999 18.33 6.75 18.889999 6.440001 C 19.440001 6.139999 20.030001 5.99 20.65 6 C 20.77 6 20.860001 6 20.92 6.01 L 20.92 6.309999 C 20.91 7.279999 21.16 8.189999 21.690001 9.060001 C 22.209999 9.92 22.950001 10.58 23.9 11.029999 C 23.68 11.49 23.41 11.84 23.110001 12.1 C 22.190001 11.34 21.120001 10.970001 19.879999 10.970001 L 19.57 10.970001 C 19.299999 9.700001 18.639999 8.639999 17.58 7.77 Z"/>
</svg>
