<?xml version="1.0" encoding="UTF-8"?>
<!-- Generated by Pixelmator Pro 3.6.18 -->
<svg width="30" height="30" viewBox="0 0 30 30" xmlns="http://www.w3.org/2000/svg">
    <path id="Path" fill="#000000" stroke="none" d="M 4.23 15.889999 C 4.23 17.219999 4.7 18.370001 5.63 19.33 C 6.56 20.290001 7.7 20.799999 9.03 20.860001 C 9.15 20.860001 9.21 20.799999 9.21 20.690001 L 9.21 19.35 C 9.21 19.24 9.15 19.18 9.03 19.18 C 8.17 19.129999 7.44 18.790001 6.84 18.15 C 6.24 17.51 5.94 16.76 5.94 15.889999 C 5.94 15.059999 6.22 14.34 6.79 13.720001 C 7.36 13.110001 8.06 12.75 8.89 12.65 L 9.42 12.610001 C 9.55 12.610001 9.62 12.549999 9.62 12.43 L 9.69 11.889999 C 9.8 10.810001 10.25 9.9 11.06 9.17 C 11.87 8.439999 12.82 8.07 13.91 8.07 C 15 8.07 15.95 8.439999 16.77 9.17 C 17.59 9.9 18.049999 10.810001 18.17 11.889999 L 18.25 12.459999 C 18.25 12.58 18.309999 12.65 18.42 12.65 L 20.040001 12.65 C 20.950001 12.65 21.719999 12.970001 22.370001 13.6 C 23.01 14.23 23.34 15 23.34 15.879999 C 23.34 16.74 23.040001 17.49 22.43 18.129999 C 21.82 18.77 21.09 19.120001 20.24 19.17 C 20.120001 19.17 20.049999 19.23 20.049999 19.34 L 20.049999 20.68 C 20.049999 20.790001 20.110001 20.85 20.24 20.85 C 21.58 20.809999 22.709999 20.299999 23.639999 19.34 C 24.57 18.370001 25.030001 17.219999 25.030001 15.889999 C 25.030001 15.18 24.889999 14.51 24.6 13.880001 C 25.389999 12.92 25.780001 11.810001 25.780001 10.560001 C 25.780001 9.610001 25.540001 8.73 25.07 7.92 C 24.6 7.110001 23.959999 6.469999 23.15 6 C 22.34 5.530001 21.469999 5.299999 20.530001 5.299999 C 18.98 5.299999 17.68 5.880001 16.639999 7.029999 C 15.83 6.6 14.93 6.380001 13.93 6.380001 C 12.52 6.380001 11.26 6.82 10.17 7.700001 C 9.08 8.58 8.37 9.700001 8.06 11.060001 C 6.95 11.32 6.04 11.9 5.32 12.799999 C 4.59 13.710001 4.23 14.74 4.23 15.889999 Z M 10.62 20.01 C 10.62 20.23 10.7 20.42 10.86 20.58 C 11.03 20.75 11.22 20.83 11.44 20.83 C 11.67 20.83 11.87 20.75 12.03 20.6 C 12.19 20.450001 12.27 20.25 12.27 20.01 C 12.27 19.77 12.19 19.58 12.04 19.42 C 11.88 19.26 11.69 19.190001 11.45 19.190001 C 11.21 19.190001 11.02 19.27 10.86 19.42 C 10.7 19.57 10.62 19.77 10.62 20.01 Z M 10.62 23.639999 C 10.62 23.879999 10.7 24.07 10.86 24.219999 C 11.02 24.379999 11.22 24.459999 11.44 24.459999 C 11.68 24.459999 11.87 24.379999 12.03 24.23 C 12.19 24.07 12.26 23.879999 12.26 23.639999 C 12.26 23.4 12.18 23.200001 12.02 23.040001 C 11.86 22.879999 11.67 22.790001 11.43 22.790001 C 11.2 22.790001 11 22.870001 10.84 23.040001 C 10.68 23.209999 10.62 23.4 10.62 23.639999 Z M 13.81 21.9 C 13.81 22.129999 13.89 22.34 14.06 22.51 C 14.23 22.68 14.42 22.780001 14.64 22.780001 C 14.87 22.780001 15.07 22.690001 15.24 22.52 C 15.41 22.35 15.49 22.139999 15.49 21.9 C 15.49 21.68 15.41 21.49 15.24 21.32 C 15.07 21.15 14.87 21.07 14.64 21.07 C 14.42 21.07 14.23 21.15 14.06 21.32 C 13.89 21.49 13.81 21.68 13.81 21.9 Z M 13.81 18.309999 C 13.81 18.540001 13.89 18.73 14.05 18.889999 C 14.21 19.049999 14.41 19.129999 14.64 19.129999 C 14.88 19.129999 15.08 19.049999 15.24 18.889999 C 15.4 18.73 15.49 18.540001 15.49 18.299999 C 15.49 18.059999 15.41 17.870001 15.24 17.700001 C 15.07 17.530001 14.87 17.450001 14.64 17.450001 C 14.41 17.450001 14.22 17.530001 14.05 17.700001 C 13.88 17.870001 13.81 18.08 13.81 18.309999 Z M 13.81 25.58 C 13.81 25.809999 13.89 26.01 14.06 26.18 C 14.23 26.35 14.42 26.43 14.65 26.43 C 14.88 26.43 15.08 26.35 15.25 26.18 C 15.42 26.01 15.5 25.809999 15.5 25.58 C 15.5 25.360001 15.42 25.17 15.25 25 C 15.08 24.83 14.88 24.75 14.65 24.75 C 14.43 24.75 14.24 24.83 14.07 25 C 13.9 25.17 13.81 25.360001 13.81 25.58 Z M 17.049999 20.01 C 17.049999 20.219999 17.129999 20.41 17.290001 20.58 C 17.459999 20.75 17.66 20.83 17.889999 20.83 C 18.120001 20.83 18.32 20.75 18.48 20.6 C 18.639999 20.440001 18.719999 20.25 18.719999 20.01 C 18.719999 19.77 18.639999 19.58 18.49 19.42 C 18.33 19.26 18.139999 19.190001 17.9 19.190001 C 17.66 19.190001 17.459999 19.27 17.299999 19.42 C 17.129999 19.57 17.049999 19.77 17.049999 20.01 Z M 17.049999 23.639999 C 17.049999 23.860001 17.129999 24.059999 17.290001 24.219999 C 17.450001 24.379999 17.65 24.459999 17.889999 24.459999 C 18.129999 24.459999 18.32 24.379999 18.48 24.23 C 18.639999 24.07 18.709999 23.879999 18.709999 23.639999 C 18.709999 23.4 18.629999 23.200001 18.469999 23.040001 C 18.309999 22.870001 18.120001 22.790001 17.879999 22.790001 C 17.65 22.790001 17.450001 22.870001 17.280001 23.040001 C 17.110001 23.209999 17.049999 23.4 17.049999 23.639999 Z M 18.030001 8.02 C 18.709999 7.34 19.530001 7.01 20.51 7.01 C 21.49 7.01 22.32 7.360001 23.01 8.049999 C 23.700001 8.74 24.040001 9.58 24.040001 10.57 C 24.040001 11.16 23.870001 11.77 23.530001 12.41 C 22.57 11.450001 21.4 10.970001 20.030001 10.970001 L 19.719999 10.970001 C 19.440001 9.799999 18.870001 8.82 18.030001 8.02 Z"/>
</svg>
