<?xml version="1.0" encoding="UTF-8"?>
<!-- Generated by Pixelmator Pro 3.6.18 -->
<svg width="30" height="30" viewBox="0 0 30 30" xmlns="http://www.w3.org/2000/svg">
    <path id="Path" fill="#000000" stroke="none" d="M 4.3 17.889999 C 4.3 18.780001 4.52 19.610001 4.96 20.370001 C 5.4 21.129999 5.99 21.73 6.75 22.17 C 7.51 22.610001 8.33 22.84 9.23 22.84 L 20.040001 22.84 C 20.93 22.84 21.76 22.620001 22.52 22.17 C 23.280001 21.719999 23.879999 21.120001 24.32 20.370001 C 24.76 19.610001 24.99 18.780001 24.99 17.889999 C 24.99 17.25 24.85 16.59 24.57 15.89 C 25.33 14.959999 25.700001 13.860001 25.700001 12.59 C 25.700001 11.639999 25.469999 10.76 25.01 9.959999 C 24.549999 9.16 23.91 8.52 23.110001 8.049999 C 22.309999 7.58 21.43 7.35 20.48 7.35 C 18.99 7.35 17.700001 7.93 16.610001 9.09 C 15.85 8.66 14.95 8.440001 13.92 8.440001 C 12.51 8.440001 11.27 8.869999 10.19 9.74 C 9.11 10.610001 8.42 11.720001 8.11 13.09 C 6.99 13.34 6.08 13.91 5.37 14.810001 C 4.66 15.71 4.3 16.74 4.3 17.889999 Z M 6.01 17.889999 C 6.01 17.059999 6.29 16.34 6.84 15.73 C 7.4 15.12 8.1 14.77 8.94 14.67 L 9.62 14.639999 L 9.69 13.92 C 9.83 12.84 10.3 11.93 11.1 11.209999 C 11.9 10.48 12.84 10.119999 13.91 10.119999 C 15 10.119999 15.96 10.49 16.77 11.220001 C 17.58 11.950001 18.040001 12.85 18.15 13.93 L 18.25 14.68 L 20.030001 14.68 C 20.91 14.68 21.67 15 22.309999 15.63 C 22.950001 16.26 23.27 17.02 23.27 17.889999 C 23.27 18.790001 22.950001 19.559999 22.32 20.209999 C 21.690001 20.860001 20.92 21.18 20.040001 21.18 L 9.23 21.18 C 8.36 21.18 7.61 20.860001 6.97 20.209999 C 6.33 19.549999 6.01 18.780001 6.01 17.889999 Z M 18.040001 10.060001 C 18.73 9.4 19.540001 9.07 20.48 9.07 C 21.469999 9.07 22.309999 9.41 23 10.1 C 23.690001 10.779999 24.040001 11.619999 24.040001 12.610001 C 24.040001 13.23 23.870001 13.84 23.52 14.450001 C 22.559999 13.48 21.4 13 20.030001 13 L 19.719999 13 C 19.450001 11.889999 18.889999 10.91 18.040001 10.060001 Z"/>
</svg>
