<?xml version="1.0" encoding="UTF-8"?>
<!-- Generated by Pixelmator Pro 3.6.18 -->
<svg width="30" height="30" viewBox="0 0 30 30" xmlns="http://www.w3.org/2000/svg">
    <path id="Path" fill="#000000" stroke="none" d="M 4.26 15.93 C 4.26 16.59 4.38 17.209999 4.64 17.809999 C 4.9 18.41 5.23 18.92 5.66 19.360001 C 6.09 19.790001 6.6 20.15 7.19 20.41 C 7.78 20.67 8.4 20.83 9.06 20.860001 C 9.17 20.860001 9.23 20.799999 9.23 20.690001 L 9.23 19.35 C 9.23 19.24 9.17 19.18 9.06 19.18 C 8.19 19.120001 7.46 18.77 6.87 18.15 C 6.28 17.530001 5.98 16.780001 5.98 15.93 C 5.98 15.09 6.26 14.36 6.83 13.74 C 7.4 13.119999 8.09 12.77 8.93 12.700001 L 9.46 12.639999 C 9.59 12.639999 9.66 12.58 9.66 12.450001 L 9.72 11.939999 C 9.83 10.85 10.28 9.950001 11.09 9.23 C 11.9 8.51 12.85 8.15 13.95 8.15 C 15.04 8.15 16 8.51 16.799999 9.220001 C 17.610001 9.939999 18.07 10.83 18.18 11.91 L 18.25 12.49 C 18.25 12.610001 18.309999 12.67 18.440001 12.67 L 20.040001 12.67 C 20.940001 12.67 21.709999 12.99 22.360001 13.629999 C 23.01 14.27 23.33 15.030001 23.33 15.92 C 23.33 16.780001 23.030001 17.52 22.440001 18.139999 C 21.85 18.76 21.110001 19.110001 20.25 19.17 C 20.120001 19.17 20.049999 19.23 20.049999 19.34 L 20.049999 20.68 C 20.049999 20.790001 20.120001 20.85 20.25 20.85 C 21.59 20.790001 22.719999 20.280001 23.639999 19.34 C 24.559999 18.389999 25.02 17.25 25.02 15.92 C 25.02 15.200001 24.879999 14.54 24.6 13.93 C 25.379999 12.99 25.77 11.869999 25.77 10.57 C 25.77 9.630001 25.540001 8.76 25.07 7.950001 C 24.6 7.139999 23.959999 6.5 23.16 6.030001 C 22.360001 5.559999 21.48 5.32 20.540001 5.32 C 18.98 5.32 17.690001 5.9 16.66 7.049999 C 15.78 6.619999 14.88 6.4 13.96 6.4 C 12.55 6.4 11.3 6.84 10.21 7.720001 C 9.12 8.6 8.42 9.720001 8.11 11.1 C 7.01 11.360001 6.1 11.93 5.38 12.83 C 4.62 13.76 4.26 14.78 4.26 15.93 Z M 9.75 22.610001 C 9.75 23.01 9.97 23.27 10.4 23.389999 C 10.61 23.459999 10.82 23.440001 11.03 23.33 C 11.24 23.219999 11.38 23.049999 11.44 22.83 L 12.94 17.1 C 13 16.879999 12.97 16.67 12.85 16.469999 C 12.73 16.27 12.55 16.139999 12.31 16.07 C 12.09 16 11.88 16.02 11.68 16.139999 C 11.48 16.26 11.35 16.43 11.29 16.66 L 9.79 22.360001 C 9.76 22.469999 9.75 22.549999 9.75 22.610001 Z M 12.34 25.66 C 12.34 25.780001 12.37 25.9 12.42 26.030001 C 12.52 26.24 12.69 26.379999 12.93 26.459999 C 12.95 26.459999 12.99 26.459999 13.03 26.469999 C 13.07 26.48 13.11 26.48 13.14 26.48 C 13.17 26.48 13.2 26.48 13.23 26.48 C 13.66 26.48 13.91 26.26 13.99 25.82 L 16.290001 17.08 C 16.360001 16.860001 16.34 16.65 16.23 16.450001 C 16.120001 16.25 15.95 16.120001 15.73 16.049999 C 15.49 15.98 15.26 16 15.05 16.120001 C 14.84 16.24 14.72 16.41 14.67 16.639999 L 12.36 25.389999 C 12.35 25.49 12.34 25.58 12.34 25.66 Z M 16.5 22.6 C 16.5 22.76 16.549999 22.91 16.66 23.07 C 16.77 23.23 16.92 23.33 17.110001 23.389999 C 17.17 23.41 17.25 23.42 17.34 23.42 C 17.51 23.42 17.67 23.370001 17.83 23.280001 C 17.99 23.190001 18.09 23.040001 18.15 22.83 L 19.65 17.1 C 19.73 16.889999 19.700001 16.690001 19.58 16.48 C 19.459999 16.27 19.290001 16.139999 19.059999 16.07 C 18.82 16 18.6 16.02 18.4 16.139999 C 18.200001 16.26 18.08 16.43 18.040001 16.66 L 16.540001 22.360001 C 16.51 22.469999 16.5 22.549999 16.5 22.6 Z M 18.030001 8.08 C 18.700001 7.41 19.52 7.08 20.51 7.08 C 21.49 7.08 22.32 7.42 23 8.1 C 23.690001 8.779999 24.030001 9.610001 24.030001 10.58 C 24.030001 11.209999 23.860001 11.82 23.51 12.43 C 22.559999 11.48 21.4 11 20.02 11 L 19.709999 11 C 19.43 9.83 18.870001 8.860001 18.030001 8.08 Z"/>
</svg>
