<?xml version="1.0" encoding="UTF-8"?>
<!-- Generated by Pixelmator Pro 3.6.18 -->
<svg width="30" height="30" viewBox="0 0 30 30" xmlns="http://www.w3.org/2000/svg">
    <path id="Path" fill="#000000" stroke="none" d="M 4.28 14.889999 C 4.28 16 4.61 17 5.27 17.870001 C 5.93 18.74 6.79 19.33 7.83 19.620001 L 7.19 21.299999 C 7.14 21.440001 7.19 21.52 7.33 21.52 L 9.45 21.52 L 8.41 25.709999 L 8.69 25.709999 L 12.66 20.09 C 12.7 20.049999 12.7 20 12.67 19.950001 C 12.64 19.9 12.59 19.879999 12.52 19.879999 L 10.35 19.879999 L 12.82 15.27 C 12.89 15.129999 12.84 15.049999 12.68 15.049999 L 9.74 15.049999 C 9.65 15.049999 9.58 15.1 9.51 15.190001 L 8.44 18.059999 C 7.73 17.889999 7.14 17.5 6.67 16.92 C 6.2 16.34 5.97 15.66 5.97 14.9 C 5.97 14.07 6.25 13.35 6.81 12.74 C 7.37 12.130001 8.07 11.779999 8.91 11.68 L 9.44 11.639999 C 9.56 11.639999 9.62 11.58 9.62 11.459999 L 9.69 10.93 C 9.76 10.220001 9.99 9.58 10.38 8.99 C 10.77 8.41 11.28 7.950001 11.9 7.619999 C 12.52 7.290001 13.19 7.119999 13.91 7.119999 C 14.99 7.119999 15.94 7.49 16.75 8.220001 C 17.559999 8.950001 18.02 9.85 18.139999 10.93 L 18.219999 11.49 C 18.219999 11.610001 18.280001 11.68 18.389999 11.68 L 20.01 11.68 C 20.9 11.68 21.66 12 22.309999 12.640001 C 22.959999 13.280001 23.280001 14.030001 23.280001 14.91 C 23.280001 15.77 22.98 16.52 22.379999 17.16 C 21.780001 17.799999 21.049999 18.129999 20.200001 18.18 C 20.07 18.18 20 18.24 20 18.360001 L 20 19.700001 C 20 19.809999 20.07 19.870001 20.200001 19.870001 C 21.07 19.85 21.870001 19.610001 22.6 19.15 C 23.33 18.700001 23.91 18.1 24.32 17.35 C 24.73 16.6 24.950001 15.790001 24.950001 14.92 C 24.950001 14.190001 24.809999 13.52 24.530001 12.91 C 25.309999 11.98 25.700001 10.880001 25.700001 9.6 C 25.700001 8.889999 25.559999 8.220001 25.280001 7.58 C 25 6.939999 24.629999 6.380001 24.16 5.91 C 23.690001 5.440001 23.139999 5.07 22.49 4.790001 C 21.85 4.51 21.17 4.369999 20.469999 4.369999 C 18.93 4.369999 17.639999 4.950001 16.610001 6.1 C 15.8 5.67 14.9 5.450001 13.91 5.450001 C 12.5 5.450001 11.25 5.889999 10.16 6.76 C 9.07 7.630001 8.37 8.75 8.06 10.110001 C 6.96 10.369999 6.05 10.939999 5.33 11.84 C 4.61 12.74 4.28 13.74 4.28 14.889999 Z M 12.21 24.77 C 12.21 24.93 12.26 25.09 12.36 25.23 C 12.46 25.370001 12.61 25.48 12.81 25.540001 L 13.06 25.57 C 13.48 25.57 13.74 25.370001 13.86 24.969999 L 16.290001 16.08 C 16.35 15.85 16.33 15.629999 16.219999 15.440001 C 16.110001 15.24 15.95 15.110001 15.73 15.040001 C 15.5 14.969999 15.28 14.99 15.08 15.1 C 14.88 15.209999 14.74 15.379999 14.68 15.6 L 12.23 24.5 C 12.22 24.67 12.21 24.76 12.21 24.77 Z M 16.35 21.74 C 16.35 22.139999 16.559999 22.41 16.969999 22.540001 C 17.139999 22.559999 17.23 22.57 17.23 22.57 C 17.34 22.57 17.459999 22.549999 17.58 22.49 C 17.780001 22.4 17.92 22.219999 18 21.940001 L 19.639999 16.09 C 19.700001 15.860001 19.68 15.639999 19.559999 15.450001 C 19.450001 15.25 19.280001 15.120001 19.049999 15.049999 C 18.82 14.98 18.6 15 18.4 15.110001 C 18.200001 15.219999 18.07 15.389999 18.01 15.610001 L 16.389999 21.5 C 16.370001 21.639999 16.35 21.719999 16.35 21.74 Z M 18.02 7.040001 C 18.700001 6.4 19.52 6.08 20.5 6.08 C 21.469999 6.08 22.299999 6.42 22.98 7.1 C 23.67 7.779999 24.01 8.610001 24.01 9.58 C 24.01 10.209999 23.84 10.83 23.5 11.43 C 22.540001 10.470001 21.379999 9.99 20.02 9.99 L 19.700001 9.99 C 19.42 8.84 18.860001 7.860001 18.02 7.040001 Z"/>
</svg>
