<?xml version="1.0" encoding="UTF-8"?>
<!-- Generated by Pixelmator Pro 3.6.18 -->
<svg width="30" height="30" viewBox="0 0 30 30" xmlns="http://www.w3.org/2000/svg">
    <path id="Path" fill="#000000" stroke="none" d="M 2.43 21 C 2.43 21.25 2.52 21.450001 2.7 21.6 C 2.87 21.77 3.07 21.860001 3.31 21.860001 L 12.85 21.860001 C 13.08 21.860001 13.28 21.780001 13.44 21.610001 C 13.6 21.440001 13.68 21.24 13.68 21 C 13.68 20.76 13.6 20.559999 13.44 20.389999 C 13.28 20.219999 13.09 20.139999 12.85 20.139999 L 3.31 20.139999 C 3.07 20.139999 2.87 20.23 2.69 20.4 C 2.52 20.57 2.43 20.77 2.43 21 Z M 5.07 17.969999 C 5.07 18.200001 5.16 18.389999 5.34 18.549999 C 5.5 18.709999 5.7 18.790001 5.94 18.790001 L 15.49 18.790001 C 15.73 18.790001 15.92 18.709999 16.08 18.559999 C 16.24 18.4 16.309999 18.209999 16.309999 17.969999 C 16.309999 17.73 16.23 17.530001 16.07 17.370001 C 15.91 17.200001 15.72 17.120001 15.48 17.120001 L 5.94 17.120001 C 5.7 17.120001 5.5 17.200001 5.33 17.370001 C 5.15 17.540001 5.07 17.74 5.07 17.969999 Z M 6.21 15.64 C 6.21 15.71 6.28 15.75 6.41 15.75 L 7.83 15.75 C 7.92 15.75 7.99 15.7 8.06 15.61 C 8.28 15.07 8.63 14.62 9.11 14.26 C 9.58 13.9 10.11 13.700001 10.69 13.66 L 11.23 13.59 C 11.35 13.59 11.41 13.529999 11.41 13.41 L 11.48 12.9 C 11.59 11.82 12.05 10.91 12.86 10.18 C 13.67 9.450001 14.63 9.08 15.73 9.08 C 16.83 9.08 17.790001 9.439999 18.6 10.17 C 19.41 10.889999 19.879999 11.799999 19.99 12.9 L 20.07 13.470001 C 20.07 13.59 20.129999 13.66 20.24 13.66 L 21.860001 13.66 C 22.77 13.66 23.549999 13.98 24.190001 14.61 C 24.83 15.24 25.15 16 25.15 16.9 C 25.15 17.790001 24.83 18.549999 24.190001 19.190001 C 23.549999 19.83 22.77 20.15 21.860001 20.15 L 14.95 20.15 C 14.84 20.15 14.78 20.209999 14.78 20.32 L 14.78 21.700001 C 14.78 21.82 14.84 21.879999 14.95 21.879999 L 21.860001 21.879999 C 22.77 21.879999 23.6 21.66 24.370001 21.209999 C 25.139999 20.77 25.74 20.16 26.190001 19.4 C 26.639999 18.639999 26.860001 17.809999 26.860001 16.91 C 26.860001 16.200001 26.709999 15.54 26.42 14.9 C 27.190001 13.889999 27.57 12.799999 27.57 11.610001 C 27.57 10.66 27.33 9.779999 26.860001 8.970001 C 26.389999 8.16 25.75 7.52 24.940001 7.049999 C 24.129999 6.58 23.25 6.35 22.299999 6.35 C 20.780001 6.35 19.49 6.91 18.459999 8.02 C 17.6 7.6 16.700001 7.4 15.74 7.4 C 14.81 7.4 13.93 7.6 13.11 7.99 C 12.29 8.380001 11.6 8.939999 11.04 9.65 C 10.48 10.360001 10.1 11.17 9.91 12.08 C 9.03 12.279999 8.27 12.68 7.62 13.279999 C 6.97 13.880001 6.51 14.61 6.26 15.45 L 6.21 15.64 Z M 6.83 24.09 C 6.83 24.32 6.92 24.52 7.09 24.67 C 7.25 24.83 7.45 24.91 7.69 24.91 L 17.25 24.91 C 17.49 24.91 17.690001 24.83 17.85 24.68 C 18.01 24.530001 18.1 24.33 18.1 24.09 C 18.1 23.85 18.02 23.65 17.85 23.48 C 17.68 23.309999 17.48 23.23 17.25 23.23 L 7.69 23.23 C 7.46 23.23 7.26 23.32 7.09 23.49 C 6.92 23.66 6.83 23.860001 6.83 24.09 Z M 19.83 9.02 C 20.5 8.369999 21.33 8.040001 22.299999 8.040001 C 23.290001 8.040001 24.129999 8.389999 24.82 9.08 C 25.51 9.77 25.860001 10.610001 25.860001 11.6 C 25.860001 12.23 25.700001 12.82 25.370001 13.369999 C 24.389999 12.41 23.219999 11.939999 21.85 11.939999 L 21.530001 11.939999 C 21.299999 10.84 20.73 9.869999 19.83 9.02 Z"/>
</svg>
