<?xml version="1.0" encoding="UTF-8"?>
<!-- Generated by Pixelmator Pro 3.6.18 -->
<svg width="30" height="30" viewBox="0 0 30 30" xmlns="http://www.w3.org/2000/svg">
    <path id="Path" fill="#000000" stroke="none" d="M 4.23 15.889999 C 4.23 17.219999 4.7 18.370001 5.63 19.33 C 6.56 20.290001 7.7 20.799999 9.03 20.860001 C 9.15 20.860001 9.21 20.799999 9.21 20.690001 L 9.21 19.35 C 9.21 19.24 9.15 19.18 9.03 19.18 C 8.17 19.129999 7.44 18.790001 6.84 18.15 C 6.24 17.51 5.94 16.76 5.94 15.889999 C 5.94 15.059999 6.22 14.34 6.79 13.719999 C 7.36 13.109999 8.06 12.75 8.89 12.65 L 9.42 12.610001 C 9.55 12.610001 9.62 12.549999 9.62 12.43 L 9.69 11.889999 C 9.8 10.810001 10.25 9.9 11.06 9.17 C 11.87 8.439999 12.82 8.07 13.91 8.07 C 15 8.07 15.95 8.439999 16.77 9.17 C 17.59 9.9 18.049999 10.810001 18.17 11.889999 L 18.25 12.459999 C 18.25 12.58 18.309999 12.65 18.42 12.65 L 20.040001 12.65 C 20.950001 12.65 21.719999 12.970001 22.370001 13.6 C 23.01 14.23 23.34 15 23.34 15.879999 C 23.34 16.74 23.040001 17.49 22.43 18.129999 C 21.82 18.77 21.09 19.120001 20.24 19.17 C 20.120001 19.17 20.049999 19.23 20.049999 19.34 L 20.049999 20.68 C 20.049999 20.790001 20.110001 20.85 20.24 20.85 C 21.58 20.809999 22.709999 20.299999 23.639999 19.34 C 24.57 18.370001 25.030001 17.219999 25.030001 15.889999 C 25.030001 15.18 24.889999 14.51 24.6 13.879999 C 25.389999 12.92 25.780001 11.810001 25.780001 10.560001 C 25.780001 9.610001 25.540001 8.73 25.07 7.92 C 24.6 7.110001 23.959999 6.469999 23.15 6 C 22.34 5.530001 21.469999 5.299999 20.530001 5.299999 C 18.98 5.299999 17.68 5.880001 16.639999 7.029999 C 15.83 6.6 14.93 6.380001 13.93 6.380001 C 12.52 6.380001 11.26 6.82 10.17 7.700001 C 9.08 8.58 8.37 9.700001 8.06 11.060001 C 6.95 11.32 6.04 11.9 5.32 12.799999 C 4.59 13.709999 4.23 14.74 4.23 15.889999 Z M 9.72 23.610001 C 9.72 23.82 9.8 24.01 9.96 24.18 C 10.14 24.34 10.33 24.42 10.54 24.42 C 10.78 24.42 10.97 24.34 11.13 24.190001 C 11.29 24.030001 11.36 23.84 11.36 23.610001 C 11.36 23.370001 11.28 23.18 11.12 23.02 C 10.96 22.860001 10.77 22.790001 10.53 22.790001 C 10.3 22.790001 10.1 22.870001 9.94 23.02 C 9.8 23.17 9.72 23.370001 9.72 23.610001 Z M 10.58 19.98 C 10.58 20.219999 10.66 20.42 10.82 20.59 C 10.98 20.76 11.17 20.84 11.41 20.84 C 11.64 20.84 11.84 20.76 12 20.59 C 12.16 20.42 12.24 20.219999 12.24 19.98 C 12.24 19.75 12.16 19.559999 12 19.4 C 11.84 19.24 11.65 19.16 11.41 19.16 C 11.18 19.16 10.98 19.24 10.82 19.4 C 10.66 19.559999 10.58 19.76 10.58 19.98 Z M 12.47 25.559999 C 12.47 25.780001 12.55 25.969999 12.71 26.129999 C 12.88 26.299999 13.07 26.379999 13.29 26.379999 C 13.53 26.379999 13.73 26.299999 13.89 26.15 C 14.06 25.99 14.14 25.799999 14.14 25.559999 C 14.14 25.32 14.06 25.120001 13.89 24.959999 C 13.72 24.790001 13.52 24.709999 13.29 24.709999 C 13.07 24.709999 12.88 24.790001 12.71 24.959999 C 12.56 25.129999 12.47 25.33 12.47 25.559999 Z M 13.33 21.9 C 13.33 22.120001 13.41 22.32 13.58 22.5 C 13.74 22.66 13.93 22.74 14.15 22.74 C 14.39 22.74 14.59 22.66 14.76 22.5 C 14.93 22.34 15.01 22.139999 15.01 21.9 C 15.01 21.67 14.93 21.469999 14.76 21.299999 C 14.59 21.129999 14.39 21.049999 14.15 21.049999 C 13.92 21.049999 13.73 21.129999 13.57 21.299999 C 13.41 21.469999 13.33 21.67 13.33 21.9 Z M 13.76 18.299999 C 13.76 18.530001 13.84 18.719999 14 18.879999 C 14.16 19.040001 14.36 19.120001 14.58 19.120001 C 14.82 19.120001 15.02 19.040001 15.18 18.879999 C 15.35 18.719999 15.43 18.530001 15.43 18.290001 C 15.43 18.059999 15.35 17.860001 15.18 17.700001 C 15.01 17.540001 14.81 17.459999 14.58 17.459999 C 14.36 17.459999 14.16 17.540001 14 17.700001 C 13.84 17.860001 13.76 18.07 13.76 18.299999 Z M 16.129999 23.610001 C 16.129999 23.82 16.209999 24.01 16.360001 24.18 C 16.530001 24.34 16.74 24.42 16.959999 24.42 C 17.200001 24.42 17.389999 24.34 17.549999 24.190001 C 17.709999 24.030001 17.780001 23.84 17.780001 23.610001 C 17.780001 23.370001 17.700001 23.18 17.549999 23.02 C 17.389999 22.860001 17.200001 22.790001 16.959999 22.790001 C 16.719999 22.790001 16.52 22.870001 16.360001 23.030001 C 16.209999 23.18 16.129999 23.379999 16.129999 23.610001 Z M 16.98 19.98 C 16.98 20.219999 17.059999 20.42 17.219999 20.59 C 17.379999 20.76 17.58 20.84 17.809999 20.84 C 18.040001 20.84 18.24 20.76 18.4 20.59 C 18.559999 20.42 18.639999 20.219999 18.639999 19.98 C 18.639999 19.75 18.559999 19.559999 18.4 19.4 C 18.24 19.24 18.049999 19.16 17.809999 19.16 C 17.58 19.16 17.379999 19.24 17.219999 19.4 C 17.059999 19.559999 16.98 19.76 16.98 19.98 Z M 18.030001 8.02 C 18.709999 7.34 19.530001 7.01 20.51 7.01 C 21.49 7.01 22.32 7.360001 23.01 8.049999 C 23.700001 8.74 24.040001 9.58 24.040001 10.57 C 24.040001 11.16 23.870001 11.77 23.530001 12.41 C 22.57 11.450001 21.4 10.970001 20.030001 10.970001 L 19.719999 10.970001 C 19.440001 9.799999 18.870001 8.82 18.030001 8.02 Z"/>
</svg>
