<?xml version="1.0" encoding="UTF-8"?>
<!-- Generated by Pixelmator Pro 3.6.18 -->
<svg width="30" height="30" viewBox="0 0 30 30" xmlns="http://www.w3.org/2000/svg">
    <path id="Path" fill="#000000" stroke="none" d="M 4.09 16.129999 L 4.09 15.76 C 4.13 14.64 4.51 13.65 5.22 12.790001 C 5.93 11.93 6.83 11.369999 7.9 11.119999 C 8.21 9.76 8.92 8.639999 10.01 7.76 C 11.1 6.880001 12.36 6.450001 13.77 6.450001 C 14.51 6.450001 15.3 6.6 16.15 6.91 C 16.43 6.450001 16.76 6.049999 17.139999 5.709999 C 17.52 5.369999 17.91 5.110001 18.32 4.92 C 18.73 4.74 19.120001 4.6 19.51 4.52 C 19.889999 4.440001 20.27 4.4 20.639999 4.4 C 21.030001 4.4 21.440001 4.440001 21.879999 4.530001 L 22.68 4.780001 C 22.799999 4.84 22.85 4.91 22.82 5.01 L 22.700001 5.630001 C 22.629999 5.92 22.6 6.200001 22.6 6.469999 C 22.6 6.780001 22.65 7.09 22.75 7.42 C 22.85 7.74 22.99 8.060001 23.190001 8.369999 C 23.389999 8.68 23.65 8.959999 23.99 9.220001 C 24.33 9.48 24.709999 9.67 25.15 9.799999 L 25.77 9.970001 C 25.870001 10 25.92 10.049999 25.92 10.130001 C 25.92 10.17 25.92 10.189999 25.91 10.200001 L 25.719999 10.880001 C 25.48 11.889999 24.969999 12.77 24.209999 13.5 C 24.65 14.26 24.870001 15.08 24.870001 15.950001 C 24.870001 17.290001 24.41 18.440001 23.48 19.4 C 22.549999 20.370001 21.42 20.870001 20.09 20.91 C 19.969999 20.91 19.9 20.85 19.9 20.719999 L 19.9 19.360001 C 19.9 19.24 19.959999 19.18 20.09 19.18 C 20.959999 19.120001 21.690001 18.77 22.290001 18.15 C 22.889999 17.530001 23.190001 16.790001 23.190001 15.940001 C 23.190001 15.049999 22.870001 14.28 22.219999 13.65 C 21.57 13.02 20.799999 12.700001 19.889999 12.700001 L 18.27 12.700001 C 18.16 12.700001 18.1 12.639999 18.1 12.52 L 18.030001 11.939999 C 17.92 10.869999 17.450001 9.959999 16.629999 9.23 C 15.81 8.5 14.86 8.130001 13.77 8.130001 C 12.68 8.130001 11.72 8.5 10.92 9.23 C 10.11 9.959999 9.65 10.869999 9.55 11.950001 L 9.48 12.470001 C 9.48 12.58 9.41 12.639999 9.28 12.639999 L 8.75 12.709999 C 7.91 12.810001 7.21 13.17 6.65 13.780001 C 6.08 14.4 5.8 15.120001 5.8 15.950001 L 5.8 15.969999 L 5.81 15.98 L 5.83 15.98 C 5.83 16.5 5.95 17 6.19 17.459999 C 6.43 17.92 6.75 18.299999 7.16 18.6 L 7.17 18.6 L 7.18 18.610001 L 7.19 18.620001 C 7.41 18.780001 7.61 18.889999 7.81 18.969999 C 8.15 19.120001 8.5 19.200001 8.88 19.209999 C 8.99 19.209999 9.05 19.27 9.05 19.379999 L 9.05 20.719999 C 9.05 20.84 8.99 20.9 8.88 20.9 C 7.95 20.860001 7.1 20.58 6.33 20.08 L 6.32 20.08 C 5.66 19.65 5.13 19.09 4.73 18.389999 C 4.33 17.690001 4.12 16.940001 4.09 16.129999 Z M 9.59 23.1 C 9.59 23.07 9.6 23.030001 9.61 22.969999 C 9.62 22.91 9.63 22.879999 9.63 22.85 L 9.72 22.26 C 9.79 22.02 9.92 21.85 10.13 21.73 C 10.34 21.610001 10.56 21.59 10.81 21.65 C 11.04 21.719999 11.2 21.860001 11.32 22.059999 C 11.43 22.27 11.45 22.48 11.39 22.690001 L 11.25 23.290001 C 11.15 23.719999 10.9 23.940001 10.49 23.940001 C 10.46 23.940001 10.41 23.940001 10.34 23.93 C 10.27 23.92 10.23 23.92 10.21 23.92 C 10 23.860001 9.85 23.75 9.75 23.59 C 9.64 23.43 9.59 23.27 9.59 23.1 Z M 10.33 20.16 C 10.33 19.92 10.41 19.73 10.56 19.57 C 10.71 19.41 10.91 19.34 11.15 19.34 C 11.39 19.34 11.58 19.42 11.74 19.57 C 11.9 19.719999 11.97 19.92 11.97 20.16 C 11.97 20.389999 11.89 20.59 11.74 20.74 C 11.59 20.889999 11.39 20.969999 11.15 20.969999 C 10.92 20.969999 10.73 20.889999 10.58 20.719999 C 10.42 20.57 10.33 20.379999 10.33 20.16 Z M 11.97 26.16 C 11.97 26.120001 11.98 26.049999 12.01 25.940001 L 12.14 25.35 C 12.21 25.120001 12.35 24.950001 12.55 24.84 C 12.76 24.719999 12.97 24.700001 13.18 24.77 C 13.41 24.809999 13.59 24.940001 13.71 25.139999 C 13.83 25.34 13.86 25.57 13.79 25.82 L 13.66 26.41 C 13.56 26.82 13.29 27.02 12.86 27.02 C 12.79 27.02 12.7 27.01 12.62 26.99 C 12.4 26.93 12.24 26.82 12.13 26.66 C 12.03 26.49 11.97 26.33 11.97 26.16 Z M 12.76 23.25 C 12.76 23.02 12.84 22.83 12.99 22.67 C 13.15 22.51 13.34 22.440001 13.58 22.440001 C 13.82 22.440001 14.01 22.52 14.17 22.67 C 14.33 22.83 14.4 23.02 14.4 23.25 C 14.4 23.49 14.32 23.68 14.17 23.84 C 14.01 24 13.82 24.07 13.58 24.07 C 13.35 24.07 13.16 23.99 13 23.83 C 12.84 23.67 12.76 23.48 12.76 23.25 Z M 13.38 20.98 C 13.38 20.889999 13.39 20.799999 13.41 20.709999 L 13.64 19.809999 C 13.71 19.58 13.85 19.4 14.05 19.280001 C 14.26 19.16 14.47 19.129999 14.69 19.200001 C 14.93 19.27 15.1 19.4 15.22 19.6 C 15.34 19.799999 15.36 20.01 15.29 20.23 L 15.03 21.129999 C 14.95 21.41 14.81 21.59 14.62 21.690001 C 14.43 21.790001 14.21 21.809999 13.98 21.75 C 13.78 21.709999 13.63 21.610001 13.53 21.450001 C 13.41 21.290001 13.37 21.129999 13.38 20.98 Z M 16.139999 23.120001 C 16.139999 23.09 16.139999 23.040001 16.15 22.99 C 16.16 22.940001 16.16 22.9 16.16 22.879999 L 16.25 22.290001 C 16.32 22.049999 16.450001 21.879999 16.66 21.76 C 16.870001 21.639999 17.09 21.620001 17.34 21.68 C 17.57 21.75 17.74 21.889999 17.85 22.09 C 17.969999 22.299999 17.99 22.51 17.92 22.719999 L 17.780001 23.32 C 17.68 23.76 17.43 23.98 17.02 23.98 C 16.99 23.98 16.940001 23.969999 16.879999 23.959999 C 16.82 23.950001 16.77 23.940001 16.74 23.940001 C 16.540001 23.879999 16.389999 23.77 16.290001 23.610001 C 16.190001 23.450001 16.139999 23.290001 16.139999 23.120001 Z M 16.879999 20.18 C 16.879999 19.940001 16.959999 19.75 17.110001 19.59 C 17.26 19.43 17.459999 19.360001 17.700001 19.360001 C 17.940001 19.360001 18.129999 19.440001 18.290001 19.59 C 18.450001 19.75 18.52 19.940001 18.52 20.18 C 18.52 20.41 18.440001 20.6 18.290001 20.76 C 18.129999 20.92 17.940001 20.99 17.700001 20.99 C 17.459999 20.99 17.27 20.91 17.120001 20.75 C 16.969999 20.6 16.879999 20.41 16.879999 20.18 Z M 17.59 7.82 C 18.629999 8.67 19.290001 9.720001 19.57 10.98 L 19.9 10.98 C 21.129999 10.98 22.200001 11.369999 23.120001 12.16 C 23.459999 11.85 23.709999 11.51 23.879999 11.119999 C 23.26 10.82 22.73 10.42 22.27 9.91 C 21.82 9.4 21.48 8.85 21.25 8.25 C 21.02 7.65 20.91 7.029999 20.91 6.389999 L 20.91 6.09 L 20.690001 6.09 C 20.07 6.09 19.48 6.24 18.92 6.540001 C 18.360001 6.84 17.92 7.27 17.59 7.82 Z"/>
</svg>
