<?xml version="1.0" encoding="UTF-8"?>
<!-- Generated by Pixelmator Pro 3.6.18 -->
<svg width="30" height="30" viewBox="0 0 30 30" xmlns="http://www.w3.org/2000/svg">
    <path id="Path" fill="#000000" stroke="none" d="M 4.12 16.91 C 4.12 18.24 4.58 19.389999 5.51 20.34 C 6.44 21.290001 7.57 21.809999 8.91 21.870001 C 9.02 21.870001 9.08 21.809999 9.08 21.700001 L 9.08 20.33 C 9.08 20.209999 9.02 20.15 8.91 20.15 C 8.04 20.08 7.31 19.74 6.72 19.110001 C 6.13 18.49 5.83 17.75 5.83 16.9 C 5.83 16.059999 6.11 15.33 6.68 14.71 C 7.25 14.09 7.94 13.74 8.78 13.67 L 9.31 13.6 C 9.44 13.6 9.51 13.540001 9.51 13.43 L 9.58 12.91 C 9.69 11.83 10.14 10.92 10.95 10.200001 C 11.76 9.470001 12.71 9.110001 13.8 9.110001 C 14.89 9.110001 15.84 9.470001 16.65 10.200001 C 17.459999 10.92 17.92 11.83 18.040001 12.92 L 18.110001 13.5 C 18.110001 13.619999 18.17 13.68 18.290001 13.68 L 19.9 13.68 C 20.809999 13.68 21.58 14 22.219999 14.63 C 22.860001 15.26 23.18 16.02 23.18 16.91 C 23.18 17.76 22.879999 18.5 22.290001 19.120001 C 21.700001 19.74 20.969999 20.09 20.1 20.16 C 19.969999 20.16 19.9 20.219999 19.9 20.34 L 19.9 21.709999 C 19.9 21.82 19.969999 21.879999 20.1 21.879999 C 21.43 21.84 22.559999 21.33 23.48 20.370001 C 24.4 19.41 24.860001 18.26 24.860001 16.92 C 24.860001 16.030001 24.629999 15.2 24.18 14.44 C 24.98 13.720001 25.5 12.860001 25.73 11.860001 L 25.879999 11.139999 C 25.889999 11.130001 25.889999 11.110001 25.889999 11.07 C 25.889999 11 25.84 10.939999 25.73 10.91 L 25.15 10.74 C 24.58 10.58 24.1 10.299999 23.700001 9.92 C 23.299999 9.529999 23.02 9.119999 22.85 8.689999 C 22.68 8.26 22.6 7.82 22.6 7.369999 C 22.6 7.130001 22.629999 6.860001 22.690001 6.58 L 22.83 5.959999 C 22.860001 5.869999 22.809999 5.790001 22.690001 5.74 L 21.9 5.5 C 21.459999 5.389999 21.049999 5.34 20.65 5.34 C 20.290001 5.34 19.92 5.380001 19.530001 5.469999 C 19.15 5.559999 18.75 5.690001 18.34 5.880001 C 17.93 6.059999 17.530001 6.33 17.139999 6.68 C 16.75 7.030001 16.42 7.43 16.139999 7.9 C 15.43 7.6 14.66 7.450001 13.81 7.450001 C 12.4 7.450001 11.15 7.889999 10.06 8.76 C 8.97 9.630001 8.27 10.75 7.96 12.110001 C 6.86 12.369999 5.95 12.950001 5.23 13.85 C 4.48 14.74 4.12 15.76 4.12 16.91 Z M 11.79 21.559999 C 11.74 21.700001 11.79 21.780001 11.93 21.780001 L 14.09 21.780001 L 12.78 25.92 L 13.08 25.92 L 17.25 20.33 C 17.290001 20.290001 17.299999 20.24 17.280001 20.190001 C 17.26 20.139999 17.219999 20.120001 17.15 20.120001 L 14.95 20.120001 L 17.26 15.91 C 17.33 15.77 17.280001 15.69 17.120001 15.69 L 14.18 15.69 C 14.1 15.69 14.03 15.74 13.96 15.83 L 11.79 21.559999 Z M 17.6 8.810001 C 17.93 8.24 18.370001 7.809999 18.93 7.51 C 19.48 7.209999 20.059999 7.059999 20.65 7.059999 C 20.780001 7.059999 20.870001 7.07 20.92 7.08 L 20.92 7.389999 C 20.92 8.35 21.18 9.26 21.700001 10.119999 C 22.219999 10.98 22.940001 11.630001 23.870001 12.08 C 23.709999 12.450001 23.459999 12.810001 23.120001 13.15 C 22.200001 12.360001 21.129999 11.970001 19.9 11.970001 L 19.58 11.970001 C 19.290001 10.709999 18.629999 9.66 17.6 8.810001 Z"/>
</svg>
