<?xml version="1.0" encoding="UTF-8"?>
<!-- Generated by Pixelmator Pro 3.6.18 -->
<svg width="30" height="30" viewBox="0 0 30 30" xmlns="http://www.w3.org/2000/svg">
    <path id="Path" fill="#000000" stroke="none" d="M 4.23 14.99 L 4.23 14.969999 C 4.23 13.810001 4.59 12.780001 5.31 11.880001 C 6.03 10.98 6.95 10.389999 8.05 10.139999 C 8.36 8.77 9.06 7.65 10.15 6.77 C 11.24 5.889999 12.5 5.450001 13.92 5.450001 C 14.91 5.450001 15.82 5.67 16.639999 6.110001 C 17.139999 5.58 17.73 5.16 18.4 4.860001 C 19.07 4.559999 19.77 4.41 20.49 4.41 C 21.440001 4.41 22.32 4.65 23.129999 5.119999 C 23.940001 5.59 24.58 6.23 25.049999 7.040001 C 25.52 7.85 25.76 8.73 25.76 9.68 C 25.76 10.91 25.379999 12.01 24.620001 12.970001 C 24.91 13.58 25.049999 14.25 25.049999 14.99 C 25.049999 15.870001 24.84 16.690001 24.41 17.440001 C 23.99 18.190001 23.41 18.799999 22.67 19.25 C 21.940001 19.700001 21.129999 19.940001 20.25 19.969999 C 20.120001 19.969999 20.049999 19.91 20.049999 19.799999 L 20.049999 18.459999 C 20.049999 18.34 20.120001 18.280001 20.25 18.280001 C 21.110001 18.24 21.83 17.889999 22.43 17.25 C 23.030001 16.610001 23.33 15.85 23.33 14.99 C 23.33 14.1 23.01 13.34 22.360001 12.700001 C 21.719999 12.060001 20.950001 11.74 20.049999 11.74 L 18.440001 11.74 C 18.32 11.74 18.26 11.68 18.26 11.560001 L 18.18 10.970001 C 18.07 9.889999 17.6 8.98 16.780001 8.25 C 15.96 7.52 15 7.15 13.92 7.15 C 12.82 7.15 11.87 7.52 11.06 8.25 C 10.25 8.98 9.79 9.889999 9.69 10.970001 L 9.61 11.560001 C 9.58 11.65 9.5 11.700001 9.39 11.700001 L 8.88 11.74 C 8.04 11.84 7.33 12.190001 6.77 12.800001 C 6.21 13.41 5.93 14.139999 5.93 14.98 L 5.93 15.02 C 5.94 15.030001 5.95 15.040001 5.96 15.040001 C 5.97 15.889999 6.27 16.629999 6.86 17.26 C 7.14 17.549999 7.45 17.780001 7.78 17.93 L 7.78 17.950001 C 8.16 18.139999 8.57 18.26 9.02 18.290001 C 9.13 18.290001 9.19 18.35 9.19 18.459999 L 9.19 19.799999 C 9.19 19.91 9.13 19.969999 9.02 19.969999 C 8.53 19.950001 8.05 19.85 7.59 19.68 C 6.83 19.41 6.17 19 5.62 18.42 C 5.07 17.84 4.67 17.18 4.44 16.42 C 4.3 15.950001 4.23 15.48 4.23 14.99 Z M 9.73 22.16 C 9.73 22.129999 9.74 22.09 9.75 22.030001 C 9.76 21.969999 9.77 21.93 9.77 21.91 L 9.86 21.33 C 9.93 21.09 10.07 20.91 10.27 20.799999 C 10.48 20.68 10.7 20.65 10.95 20.719999 C 11.18 20.790001 11.34 20.93 11.46 21.129999 C 11.57 21.34 11.59 21.549999 11.53 21.76 L 11.39 22.360001 C 11.29 22.799999 11.04 23.02 10.63 23.02 C 10.6 23.02 10.55 23.02 10.48 23.01 C 10.41 23 10.37 23 10.35 23 C 10.14 22.940001 9.99 22.83 9.89 22.67 C 9.78 22.49 9.73 22.33 9.73 22.16 Z M 10.47 19.209999 C 10.47 18.969999 10.55 18.780001 10.7 18.620001 C 10.85 18.459999 11.05 18.389999 11.29 18.389999 C 11.53 18.389999 11.72 18.469999 11.88 18.620001 C 12.04 18.77 12.11 18.969999 12.11 19.209999 C 12.11 19.440001 12.03 19.639999 11.88 19.790001 C 11.73 19.940001 11.53 20.02 11.29 20.02 C 11.06 20.02 10.87 19.940001 10.72 19.780001 C 10.56 19.620001 10.47 19.43 10.47 19.209999 Z M 12.11 25.190001 C 12.11 25.15 12.12 25.08 12.15 24.959999 L 12.28 24.370001 C 12.35 24.139999 12.49 23.98 12.69 23.860001 C 12.9 23.75 13.11 23.73 13.32 23.790001 C 13.55 23.83 13.73 23.959999 13.85 24.16 C 13.97 24.360001 14 24.59 13.93 24.84 L 13.8 25.42 C 13.69 25.83 13.43 26.040001 13 26.040001 C 12.95 26.040001 12.87 26.030001 12.76 26 C 12.54 25.940001 12.38 25.83 12.27 25.67 C 12.16 25.51 12.11 25.360001 12.11 25.190001 Z M 12.9 22.280001 C 12.9 22.049999 12.98 21.860001 13.13 21.700001 C 13.29 21.549999 13.48 21.469999 13.72 21.469999 C 13.96 21.469999 14.15 21.549999 14.31 21.700001 C 14.47 21.85 14.54 22.049999 14.54 22.280001 C 14.54 22.52 14.46 22.709999 14.31 22.870001 C 14.15 23.030001 13.96 23.1 13.72 23.1 C 13.49 23.1 13.3 23.02 13.14 22.860001 C 12.98 22.700001 12.9 22.51 12.9 22.280001 Z M 13.52 20.01 C 13.52 19.92 13.53 19.83 13.55 19.75 L 13.78 18.85 C 13.85 18.610001 13.99 18.43 14.19 18.32 C 14.39 18.209999 14.61 18.17 14.83 18.24 C 15.07 18.309999 15.24 18.440001 15.36 18.639999 C 15.48 18.84 15.5 19.049999 15.43 19.27 L 15.17 20.17 C 15.09 20.440001 14.95 20.629999 14.76 20.73 C 14.57 20.83 14.35 20.85 14.12 20.790001 C 13.92 20.75 13.77 20.65 13.67 20.49 C 13.55 20.32 13.51 20.16 13.52 20.01 Z M 16.280001 22.16 C 16.280001 22.129999 16.280001 22.08 16.290001 22.02 C 16.299999 21.959999 16.299999 21.92 16.299999 21.91 L 16.389999 21.33 C 16.459999 21.09 16.6 20.91 16.799999 20.799999 C 17.01 20.68 17.23 20.65 17.469999 20.719999 C 17.700001 20.790001 17.870001 20.93 17.98 21.129999 C 18.1 21.34 18.120001 21.549999 18.049999 21.76 L 17.91 22.360001 C 17.809999 22.799999 17.559999 23.02 17.15 23.02 C 17.120001 23.02 17.07 23.02 17 23.01 C 16.93 23 16.889999 23 16.870001 23 C 16.67 22.940001 16.52 22.83 16.42 22.67 C 16.32 22.51 16.280001 22.33 16.280001 22.16 Z M 17.02 19.209999 C 17.02 18.969999 17.1 18.780001 17.25 18.620001 C 17.4 18.459999 17.6 18.389999 17.84 18.389999 C 18.08 18.389999 18.27 18.469999 18.43 18.620001 C 18.59 18.780001 18.66 18.969999 18.66 19.209999 C 18.66 19.440001 18.58 19.639999 18.43 19.790001 C 18.27 19.950001 18.08 20.02 17.84 20.02 C 17.6 20.02 17.41 19.940001 17.26 19.780001 C 17.110001 19.629999 17.02 19.440001 17.02 19.209999 Z M 18.059999 7.1 C 18.9 7.860001 19.459999 8.84 19.76 10.029999 L 20.07 10.029999 C 21.450001 10.029999 22.620001 10.51 23.59 11.470001 C 23.9 10.92 24.059999 10.32 24.059999 9.66 C 24.059999 8.68 23.709999 7.85 23.02 7.16 C 22.33 6.48 21.49 6.130001 20.51 6.130001 C 19.540001 6.139999 18.73 6.459999 18.059999 7.1 Z"/>
</svg>
