<?xml version="1.0" encoding="UTF-8"?>
<!-- Generated by Pixelmator Pro 3.6.18 -->
<svg width="30" height="30" viewBox="0 0 30 30" xmlns="http://www.w3.org/2000/svg">
    <path id="Path" fill="#000000" stroke="none" d="M 4.25 14.860001 C 4.25 15.959999 4.58 16.950001 5.25 17.84 C 5.92 18.719999 6.77 19.32 7.82 19.639999 L 7.17 21.299999 C 7.13 21.440001 7.17 21.51 7.31 21.51 L 9.43 21.51 L 8.29 25.6 L 8.58 25.6 L 12.66 20.110001 C 12.7 20.07 12.7 20.02 12.67 19.969999 C 12.64 19.92 12.59 19.9 12.52 19.9 L 10.35 19.9 L 12.82 15.23 C 12.89 15.09 12.85 15.01 12.69 15.01 L 9.73 15.01 C 9.64 15.01 9.57 15.059999 9.54 15.15 L 8.43 18.08 C 7.72 17.9 7.13 17.51 6.65 16.91 C 6.18 16.309999 5.94 15.639999 5.94 14.889999 C 5.94 14.049999 6.22 13.32 6.79 12.700001 C 7.36 12.08 8.06 11.73 8.89 11.65 L 9.41 11.58 C 9.54 11.58 9.61 11.52 9.61 11.41 L 9.68 10.889999 C 9.79 9.799999 10.24 8.889999 11.05 8.17 C 11.86 7.439999 12.81 7.08 13.91 7.08 C 15 7.08 15.96 7.439999 16.77 8.17 C 17.58 8.9 18.049999 9.810001 18.17 10.889999 L 18.24 11.470001 C 18.24 11.58 18.299999 11.639999 18.42 11.639999 L 20.040001 11.639999 C 20.950001 11.639999 21.719999 11.959999 22.370001 12.59 C 23.01 13.220001 23.34 13.99 23.34 14.870001 C 23.34 15.73 23.040001 16.469999 22.440001 17.1 C 21.84 17.73 21.110001 18.07 20.24 18.139999 C 20.120001 18.139999 20.049999 18.200001 20.049999 18.32 L 20.049999 19.700001 C 20.049999 19.809999 20.110001 19.870001 20.24 19.870001 C 21.57 19.83 22.700001 19.32 23.629999 18.35 C 24.559999 17.379999 25.02 16.23 25.02 14.879999 C 25.02 14.15 24.879999 13.49 24.610001 12.880001 C 25.370001 11.880001 25.75 10.779999 25.75 9.59 C 25.75 8.880001 25.610001 8.200001 25.33 7.549999 C 25.049999 6.9 24.67 6.35 24.209999 5.880001 C 23.75 5.41 23.18 5.040001 22.530001 4.76 C 21.879999 4.48 21.200001 4.34 20.5 4.34 C 19.76 4.34 19.059999 4.49 18.379999 4.790001 C 17.709999 5.09 17.120001 5.51 16.639999 6.049999 C 15.82 5.610001 14.92 5.389999 13.94 5.389999 C 12.52 5.389999 11.26 5.83 10.17 6.700001 C 9.08 7.57 8.37 8.700001 8.06 10.07 C 6.95 10.33 6.04 10.9 5.32 11.799999 C 4.6 12.700001 4.25 13.710001 4.25 14.860001 Z M 12.42 24.73 C 12.42 24.91 12.47 25.08 12.58 25.24 C 12.69 25.41 12.84 25.51 13.04 25.540001 C 13.06 25.540001 13.09 25.540001 13.12 25.549999 C 13.15 25.559999 13.19 25.559999 13.21 25.559999 C 13.23 25.559999 13.26 25.559999 13.29 25.559999 C 13.72 25.530001 13.98 25.33 14.09 24.950001 L 14.38 23.889999 C 14.44 23.67 14.41 23.459999 14.29 23.26 C 14.17 23.059999 13.99 22.92 13.76 22.85 C 13.54 22.790001 13.33 22.82 13.13 22.93 C 12.93 23.049999 12.79 23.23 12.72 23.459999 L 12.47 24.459999 C 12.44 24.639999 12.42 24.719999 12.42 24.73 Z M 13.76 19.959999 C 13.76 20.110001 13.81 20.26 13.91 20.41 C 14.01 20.559999 14.17 20.67 14.37 20.75 C 14.59 20.83 14.8 20.809999 15 20.700001 C 15.2 20.59 15.33 20.41 15.4 20.17 L 15.7 19.129999 C 15.76 18.879999 15.74 18.65 15.62 18.450001 C 15.5 18.25 15.33 18.129999 15.09 18.08 C 14.87 18.01 14.65 18.030001 14.45 18.15 C 14.25 18.27 14.11 18.440001 14.03 18.68 L 13.78 19.700001 C 13.78 19.719999 13.78 19.75 13.77 19.780001 C 13.76 19.809999 13.76 19.85 13.76 19.870001 C 13.76 19.9 13.76 19.93 13.76 19.959999 Z M 16.59 21.58 C 16.59 21.77 16.639999 21.940001 16.75 22.1 C 16.860001 22.26 17.01 22.370001 17.219999 22.42 C 17.379999 22.450001 17.469999 22.469999 17.49 22.469999 C 17.879999 22.469999 18.139999 22.27 18.26 21.870001 L 18.5 20.809999 C 18.57 20.59 18.549999 20.379999 18.440001 20.18 C 18.33 19.98 18.17 19.84 17.940001 19.77 C 17.690001 19.709999 17.459999 19.74 17.26 19.860001 C 17.049999 19.98 16.93 20.16 16.879999 20.389999 L 16.6 21.379999 C 16.6 21.43 16.59 21.5 16.59 21.58 Z M 17.950001 16.83 C 17.950001 16.99 18 17.15 18.110001 17.299999 C 18.219999 17.450001 18.379999 17.57 18.6 17.639999 C 18.77 17.66 18.860001 17.67 18.860001 17.67 C 18.98 17.67 19.1 17.639999 19.24 17.59 C 19.43 17.49 19.57 17.32 19.629999 17.07 L 19.92 16.030001 C 19.98 15.809999 19.950001 15.6 19.83 15.4 C 19.709999 15.200001 19.530001 15.059999 19.299999 14.99 C 19.07 14.92 18.860001 14.940001 18.66 15.059999 C 18.459999 15.18 18.33 15.35 18.26 15.59 L 17.98 16.610001 C 17.959999 16.700001 17.950001 16.77 17.950001 16.83 Z M 18.059999 6.98 C 18.719999 6.34 19.540001 6.02 20.51 6.02 C 21.49 6.02 22.33 6.369999 23.01 7.060001 C 23.700001 7.75 24.040001 8.59 24.040001 9.57 C 24.040001 10.200001 23.879999 10.790001 23.549999 11.35 C 22.559999 10.389999 21.4 9.91 20.059999 9.91 L 19.74 9.91 C 19.440001 8.75 18.879999 7.77 18.059999 6.98 Z"/>
</svg>
