<?xml version="1.0" encoding="UTF-8"?>
<!-- Generated by Pixelmator Pro 3.6.18 -->
<svg width="30" height="30" viewBox="0 0 30 30" xmlns="http://www.w3.org/2000/svg">
    <path id="Path" fill="#000000" stroke="none" d="M 4.23 14.879999 C 4.23 16 4.56 17 5.23 17.879999 C 5.9 18.76 6.76 19.35 7.81 19.639999 L 7.15 21.34 C 7.1 21.48 7.15 21.559999 7.29 21.559999 L 9.42 21.559999 L 8 25.77 L 8.29 25.77 L 12.65 20.110001 C 12.69 20.07 12.69 20.02 12.67 19.969999 C 12.65 19.92 12.6 19.9 12.53 19.9 L 10.34 19.9 L 12.83 15.25 C 12.9 15.110001 12.86 15.030001 12.69 15.030001 L 9.72 15.030001 C 9.63 15.030001 9.55 15.08 9.49 15.18 L 8.42 18.059999 C 7.7 17.879999 7.11 17.5 6.64 16.9 C 6.17 16.309999 5.94 15.639999 5.94 14.879999 C 5.94 14.040001 6.22 13.309999 6.78 12.699999 C 7.34 12.09 8.05 11.73 8.89 11.630001 L 9.4 11.6 C 9.52 11.6 9.59 11.549999 9.62 11.459999 L 9.7 10.869999 C 9.81 9.790001 10.26 8.880001 11.07 8.15 C 11.88 7.42 12.83 7.049999 13.93 7.049999 C 15.02 7.049999 15.97 7.42 16.790001 8.15 C 17.610001 8.880001 18.08 9.790001 18.190001 10.869999 L 18.27 11.459999 C 18.27 11.57 18.33 11.630001 18.450001 11.630001 L 20.059999 11.630001 C 20.950001 11.630001 21.719999 11.950001 22.370001 12.59 C 23.02 13.23 23.34 13.99 23.34 14.879999 C 23.34 15.75 23.040001 16.5 22.440001 17.139999 C 21.84 17.780001 21.120001 18.120001 20.26 18.17 C 20.129999 18.17 20.059999 18.23 20.059999 18.35 L 20.059999 19.690001 C 20.059999 19.799999 20.129999 19.860001 20.26 19.860001 C 21.139999 19.84 21.950001 19.6 22.68 19.139999 C 23.41 18.690001 23.99 18.08 24.42 17.33 C 24.85 16.58 25.059999 15.76 25.059999 14.879999 C 25.059999 14.15 24.92 13.48 24.629999 12.859999 C 25.389999 11.9 25.77 10.799999 25.77 9.57 C 25.77 8.619999 25.530001 7.74 25.059999 6.93 C 24.59 6.119999 23.950001 5.48 23.139999 5.01 C 22.33 4.540001 21.450001 4.299999 20.5 4.299999 C 19.780001 4.299999 19.08 4.450001 18.4 4.75 C 17.719999 5.049999 17.139999 5.469999 16.639999 6 C 15.83 5.57 14.93 5.35 13.92 5.35 C 12.5 5.35 11.24 5.790001 10.15 6.67 C 9.06 7.549999 8.35 8.67 8.05 10.040001 C 6.94 10.299999 6.03 10.880001 5.31 11.779999 C 4.59 12.699999 4.23 13.73 4.23 14.879999 Z M 13.82 20.959999 C 13.82 21.200001 13.9 21.4 14.06 21.549999 C 14.22 21.709999 14.42 21.790001 14.64 21.790001 C 14.88 21.790001 15.08 21.709999 15.25 21.549999 C 15.42 21.389999 15.5 21.190001 15.5 20.959999 C 15.5 20.719999 15.42 20.52 15.25 20.35 C 15.08 20.18 14.88 20.09 14.64 20.09 C 14.42 20.09 14.23 20.18 14.06 20.35 C 13.89 20.52 13.82 20.719999 13.82 20.959999 Z M 13.82 17.32 C 13.82 17.559999 13.9 17.75 14.06 17.9 C 14.22 18.059999 14.42 18.139999 14.64 18.139999 C 14.88 18.139999 15.09 18.059999 15.25 17.91 C 15.41 17.76 15.5 17.559999 15.5 17.32 C 15.5 17.09 15.42 16.889999 15.25 16.719999 C 15.08 16.549999 14.88 16.469999 14.64 16.469999 C 14.41 16.469999 14.22 16.549999 14.06 16.719999 C 13.9 16.889999 13.82 17.09 13.82 17.32 Z M 13.82 24.629999 C 13.82 24.85 13.9 25.040001 14.06 25.200001 C 14.23 25.370001 14.42 25.450001 14.64 25.450001 C 14.88 25.450001 15.08 25.370001 15.25 25.209999 C 15.42 25.049999 15.5 24.860001 15.5 24.620001 C 15.5 24.379999 15.42 24.18 15.25 24.01 C 15.08 23.84 14.88 23.75 14.64 23.75 C 14.42 23.75 14.23 23.84 14.06 24.01 C 13.9 24.190001 13.82 24.4 13.82 24.629999 Z M 17.049999 19.02 C 17.049999 19.26 17.129999 19.459999 17.299999 19.620001 C 17.469999 19.780001 17.66 19.870001 17.9 19.870001 C 18.129999 19.870001 18.33 19.790001 18.49 19.620001 C 18.65 19.450001 18.73 19.25 18.73 19.02 C 18.73 18.799999 18.65 18.6 18.49 18.440001 C 18.33 18.280001 18.139999 18.200001 17.9 18.200001 C 17.67 18.200001 17.469999 18.280001 17.299999 18.440001 C 17.129999 18.6 17.049999 18.790001 17.049999 19.02 Z M 17.049999 22.66 C 17.049999 22.889999 17.129999 23.08 17.290001 23.24 C 17.450001 23.4 17.65 23.48 17.889999 23.48 C 18.129999 23.48 18.32 23.4 18.48 23.24 C 18.639999 23.08 18.709999 22.889999 18.709999 22.65 C 18.709999 22.41 18.629999 22.219999 18.48 22.059999 C 18.32 21.9 18.129999 21.83 17.889999 21.83 C 17.65 21.83 17.450001 21.91 17.290001 22.059999 C 17.129999 22.219999 17.049999 22.42 17.049999 22.66 Z M 18.059999 7.02 C 18.73 6.380001 19.540001 6.049999 20.51 6.049999 C 21.49 6.049999 22.33 6.389999 23.02 7.08 C 23.709999 7.76 24.059999 8.6 24.059999 9.58 C 24.059999 10.24 23.9 10.84 23.59 11.389999 C 22.629999 10.43 21.459999 9.950001 20.07 9.950001 L 19.76 9.950001 C 19.459999 8.76 18.889999 7.779999 18.059999 7.02 Z"/>
</svg>
