<?xml version="1.0" encoding="UTF-8"?>
<!-- Generated by Pixelmator Pro 3.6.18 -->
<svg width="30" height="30" viewBox="0 0 30 30" xmlns="http://www.w3.org/2000/svg">
    <path id="Path" fill="#000000" stroke="none" d="M 2.35 21.049999 C 2.35 21.290001 2.43 21.48 2.6 21.639999 C 2.77 21.799999 2.98 21.870001 3.23 21.870001 L 12.63 21.870001 C 12.87 21.870001 13.06 21.790001 13.22 21.639999 C 13.38 21.48 13.45 21.290001 13.45 21.049999 C 13.45 20.799999 13.37 20.6 13.22 20.440001 C 13.06 20.280001 12.87 20.200001 12.63 20.200001 L 3.23 20.200001 C 2.98 20.200001 2.77 20.280001 2.6 20.440001 C 2.43 20.6 2.35 20.799999 2.35 21.049999 Z M 4.98 18 C 4.98 18.24 5.07 18.440001 5.24 18.6 C 5.4 18.77 5.6 18.85 5.84 18.85 L 15.26 18.85 C 15.49 18.85 15.69 18.77 15.85 18.6 C 16.01 18.43 16.09 18.23 16.09 18 C 16.09 17.77 16.01 17.57 15.86 17.41 C 15.71 17.25 15.51 17.17 15.27 17.17 L 5.85 17.17 C 5.61 17.17 5.41 17.25 5.24 17.41 C 5.07 17.57 4.98 17.77 4.98 18 Z M 6.02 15.66 C 6.02 15.75 6.08 15.8 6.2 15.8 L 7.63 15.8 C 7.72 15.8 7.79 15.75 7.85 15.66 C 8.08 15.12 8.42 14.67 8.89 14.31 C 9.36 13.950001 9.88 13.75 10.47 13.709999 L 11.02 13.639999 C 11.14 13.639999 11.2 13.58 11.2 13.470001 L 11.27 12.950001 C 11.38 11.860001 11.84 10.950001 12.65 10.23 C 13.47 9.5 14.42 9.139999 15.52 9.139999 C 16.610001 9.139999 17.559999 9.5 18.360001 10.220001 C 19.16 10.939999 19.629999 11.84 19.77 12.93 L 19.85 13.51 C 19.85 13.619999 19.91 13.68 20.030001 13.68 L 21.639999 13.68 C 22.549999 13.68 23.32 14 23.959999 14.64 C 24.6 15.28 24.92 16.049999 24.92 16.950001 C 24.92 17.83 24.6 18.6 23.950001 19.24 C 23.299999 19.889999 22.540001 20.209999 21.65 20.209999 L 14.74 20.209999 C 14.63 20.209999 14.57 20.27 14.57 20.379999 L 14.57 21.719999 C 14.57 21.83 14.63 21.889999 14.74 21.889999 L 21.65 21.889999 C 22.549999 21.889999 23.379999 21.67 24.139999 21.23 C 24.9 20.790001 25.51 20.190001 25.950001 19.43 C 26.389999 18.67 26.620001 17.84 26.620001 16.940001 C 26.620001 16.040001 26.4 15.22 25.969999 14.47 C 26.690001 13.83 27.190001 12.970001 27.48 11.889999 L 27.66 11.209999 C 27.67 11.200001 27.67 11.18 27.67 11.139999 C 27.67 11.060001 27.620001 11.01 27.52 10.98 L 26.9 10.76 C 26.459999 10.630001 26.07 10.439999 25.74 10.189999 C 25.4 9.939999 25.139999 9.66 24.940001 9.35 C 24.74 9.040001 24.6 8.73 24.5 8.41 C 24.4 8.09 24.35 7.780001 24.35 7.459999 C 24.35 7.219999 24.389999 6.93 24.459999 6.59 L 24.59 5.98 C 24.629999 5.889999 24.59 5.809999 24.459999 5.75 L 23.620001 5.5 C 23.18 5.389999 22.77 5.34 22.370001 5.34 C 21.99 5.34 21.620001 5.380001 21.24 5.469999 C 20.860001 5.559999 20.469999 5.690001 20.059999 5.880001 C 19.65 6.059999 19.26 6.33 18.879999 6.68 C 18.5 7.030001 18.17 7.43 17.889999 7.9 C 17.120001 7.58 16.32 7.42 15.52 7.42 C 14.11 7.42 12.86 7.860001 11.77 8.74 C 10.68 9.619999 9.99 10.74 9.69 12.119999 C 8.82 12.32 8.06 12.73 7.41 13.34 C 6.76 13.959999 6.3 14.69 6.05 15.55 L 6.05 15.58 C 6.03 15.59 6.02 15.62 6.02 15.66 Z M 6.75 24.15 C 6.75 24.389999 6.83 24.59 7 24.75 C 7.16 24.92 7.36 25 7.6 25 L 17.030001 25 C 17.27 25 17.469999 24.92 17.639999 24.75 C 17.809999 24.58 17.889999 24.379999 17.889999 24.15 C 17.889999 23.92 17.809999 23.719999 17.639999 23.559999 C 17.469999 23.4 17.27 23.32 17.030001 23.32 L 7.6 23.32 C 7.36 23.32 7.16 23.4 7 23.559999 C 6.83 23.719999 6.75 23.92 6.75 24.15 Z M 19.33 8.779999 C 19.67 8.23 20.120001 7.799999 20.68 7.5 C 21.23 7.200001 21.799999 7.049999 22.379999 7.059999 C 22.49 7.059999 22.58 7.059999 22.629999 7.07 L 22.629999 7.309999 C 22.629999 8.279999 22.889999 9.209999 23.42 10.1 C 23.950001 10.98 24.67 11.65 25.59 12.08 C 25.42 12.48 25.16 12.84 24.83 13.15 C 23.950001 12.360001 22.879999 11.970001 21.629999 11.970001 L 21.309999 11.970001 C 21.059999 10.77 20.4 9.709999 19.33 8.779999 Z"/>
</svg>
