<?xml version="1.0" encoding="UTF-8"?>
<!-- Generated by Pixelmator Pro 3.6.18 -->
<svg width="30" height="30" viewBox="0 0 30 30" xmlns="http://www.w3.org/2000/svg">
    <path id="Path" fill="#000000" stroke="none" d="M 6.77 19.65 C 6.77 18.860001 7 18.17 7.45 17.559999 C 7.9 16.950001 8.51 16.530001 9.26 16.290001 C 9.58 15.2 10.24 14.37 11.25 13.799999 L 11.25 13.450001 C 11.25 11.99 11.71 10.709999 12.63 9.6 C 13.55 8.49 14.72 7.799999 16.129999 7.540001 C 16.49 7.48 16.85 7.450001 17.209999 7.450001 L 17.24 7.450001 C 17.450001 7.450001 17.68 7.469999 17.940001 7.5 C 18.200001 7.52 18.440001 7.559999 18.67 7.610001 L 19.58 7.889999 C 19.709999 7.959999 19.76 8.049999 19.74 8.15 L 19.610001 8.85 C 19.540001 9.18 19.5 9.5 19.5 9.82 C 19.5 10.17 19.549999 10.529999 19.66 10.889999 C 19.77 11.26 19.93 11.610001 20.16 11.970001 C 20.389999 12.33 20.68 12.65 21.07 12.939999 C 21.450001 13.23 21.9 13.450001 22.4 13.6 L 23.110001 13.810001 C 23.219999 13.84 23.280001 13.889999 23.280001 13.99 C 23.280001 14.03 23.280001 14.05 23.27 14.06 L 23.09 14.74 C 23.030001 14.98 22.959999 15.23 22.870001 15.47 C 22.719999 15.91 22.49 16.360001 22.17 16.84 C 22.17 16.83 22.17 16.83 22.16 16.83 C 21.719999 17.459999 21.18 17.99 20.52 18.41 C 20.66 18.75 20.73 19.16 20.73 19.65 C 20.73 20.639999 20.379999 21.48 19.690001 22.18 C 19 22.879999 18.17 23.23 17.200001 23.23 L 10.35 23.23 C 9.38 23.23 8.54 22.879999 7.83 22.17 C 7.13 21.459999 6.77 20.620001 6.77 19.65 Z M 8.75 19.65 C 8.75 20.1 8.9 20.48 9.21 20.799999 C 9.52 21.120001 9.9 21.27 10.35 21.27 L 17.200001 21.27 C 17.629999 21.27 18 21.110001 18.32 20.790001 C 18.639999 20.469999 18.790001 20.09 18.790001 19.65 C 18.790001 19.219999 18.629999 18.85 18.32 18.530001 C 18.01 18.209999 17.629999 18.059999 17.200001 18.059999 L 15.9 18.059999 C 15.79 18.059999 15.71 17.99 15.65 17.83 L 15.57 17.190001 C 15.5 16.610001 15.25 16.129999 14.82 15.75 C 14.39 15.37 13.89 15.17 13.31 15.17 C 12.74 15.17 12.25 15.36 11.83 15.75 C 11.41 16.139999 11.17 16.620001 11.1 17.190001 L 11 17.74 C 11 17.889999 10.94 17.959999 10.81 17.959999 L 10.18 18.040001 C 9.77 18.08 9.43 18.25 9.16 18.549999 C 8.89 18.870001 8.75 19.23 8.75 19.65 Z M 13.18 13.25 L 13.3 13.25 C 14.23 13.25 15.05 13.51 15.79 14.03 C 16.52 14.55 17.040001 15.25 17.33 16.129999 C 18.1 16.129999 18.780001 16.370001 19.360001 16.85 C 20.049999 16.42 20.559999 15.83 20.889999 15.1 C 19.85 14.58 19.040001 13.83 18.459999 12.85 C 17.879999 11.869999 17.58 10.84 17.58 9.74 L 17.58 9.389999 C 17.549999 9.389999 17.51 9.389999 17.459999 9.389999 C 17.41 9.389999 17.370001 9.389999 17.34 9.389999 C 16.73 9.389999 16.139999 9.52 15.57 9.779999 C 15 10.040001 14.52 10.42 14.13 10.9 L 14.1 10.880001 C 13.55 11.560001 13.25 12.35 13.18 13.25 Z"/>
</svg>
