<?xml version="1.0" encoding="UTF-8"?>
<!-- Generated by Pixelmator Pro 3.6.18 -->
<svg width="30" height="30" viewBox="0 0 30 30" xmlns="http://www.w3.org/2000/svg">
    <path id="Path" fill="#000000" stroke="none" d="M 4.07 15.93 C 4.07 17.26 4.54 18.4 5.47 19.360001 C 6.4 20.32 7.54 20.83 8.87 20.870001 C 8.99 20.870001 9.05 20.809999 9.05 20.700001 L 9.05 19.360001 C 9.05 19.25 8.99 19.190001 8.87 19.190001 C 8.02 19.15 7.29 18.799999 6.69 18.16 C 6.09 17.52 5.78 16.77 5.78 15.93 C 5.78 15.08 6.06 14.34 6.63 13.720001 C 7.2 13.1 7.9 12.75 8.73 12.68 L 9.26 12.610001 C 9.39 12.610001 9.46 12.549999 9.46 12.43 L 9.53 11.92 C 9.64 10.82 10.09 9.9 10.9 9.17 C 11.71 8.439999 12.66 8.07 13.76 8.07 C 14.85 8.07 15.8 8.439999 16.620001 9.17 C 17.440001 9.9 17.91 10.810001 18.02 11.889999 L 18.09 12.459999 C 18.09 12.58 18.15 12.65 18.26 12.65 L 19.879999 12.65 C 20.790001 12.65 21.559999 12.970001 22.209999 13.620001 C 22.860001 14.26 23.18 15.030001 23.18 15.93 C 23.18 16.48 23.040001 17 22.77 17.49 C 22.5 17.98 22.120001 18.379999 21.639999 18.690001 C 21.16 19 20.639999 19.17 20.08 19.200001 C 19.950001 19.200001 19.879999 19.26 19.879999 19.370001 L 19.879999 20.709999 C 19.879999 20.82 19.950001 20.879999 20.08 20.879999 C 20.959999 20.860001 21.77 20.620001 22.5 20.17 C 23.23 19.719999 23.809999 19.120001 24.23 18.370001 C 24.65 17.620001 24.860001 16.809999 24.860001 15.940001 C 24.860001 15.059999 24.629999 14.22 24.18 13.43 C 25.01 12.689999 25.540001 11.810001 25.76 10.810001 L 25.9 10.130001 C 25.92 10.110001 25.93 10.09 25.93 10.060001 C 25.93 10 25.870001 9.950001 25.76 9.9 L 25.209999 9.720001 C 24.639999 9.549999 24.139999 9.27 23.74 8.869999 C 23.33 8.470001 23.040001 8.060001 22.870001 7.619999 C 22.700001 7.189999 22.610001 6.76 22.610001 6.33 C 22.59 6.119999 22.620001 5.84 22.700001 5.51 L 22.83 4.93 C 22.870001 4.83 22.83 4.75 22.700001 4.700001 L 21.9 4.459999 C 21.49 4.35 21.059999 4.290001 20.610001 4.290001 C 20.25 4.290001 19.870001 4.33 19.49 4.42 C 19.110001 4.51 18.709999 4.639999 18.299999 4.83 C 17.889999 5.02 17.49 5.290001 17.1 5.639999 C 16.709999 5.99 16.379999 6.4 16.1 6.869999 C 15.29 6.559999 14.5 6.41 13.75 6.41 C 12.34 6.41 11.08 6.85 9.99 7.73 C 8.9 8.610001 8.19 9.73 7.88 11.1 C 6.76 11.389999 5.84 11.98 5.13 12.869999 C 4.42 13.74 4.07 14.77 4.07 15.93 Z M 9.48 22.98 C 9.48 23.15 9.53 23.32 9.64 23.49 C 9.75 23.66 9.91 23.77 10.11 23.84 C 10.34 23.91 10.55 23.9 10.75 23.799999 C 10.95 23.700001 11.07 23.52 11.14 23.24 L 11.28 22.629999 C 11.33 22.4 11.3 22.190001 11.19 22 C 11.08 21.799999 10.91 21.67 10.67 21.6 C 10.44 21.530001 10.23 21.559999 10.03 21.68 C 9.83 21.799999 9.69 21.98 9.63 22.209999 L 9.5 22.790001 C 9.48 22.83 9.48 22.889999 9.48 22.98 Z M 10.24 20.08 C 10.24 20.290001 10.32 20.48 10.49 20.65 C 10.65 20.82 10.83 20.9 11.05 20.9 C 11.29 20.9 11.49 20.82 11.65 20.66 C 11.81 20.5 11.89 20.309999 11.89 20.07 C 11.89 19.84 11.81 19.639999 11.65 19.48 C 11.49 19.32 11.29 19.24 11.05 19.24 C 10.82 19.24 10.62 19.32 10.47 19.469999 C 10.32 19.620001 10.24 19.85 10.24 20.08 Z M 10.85 17.809999 C 10.84 17.969999 10.88 18.120001 10.99 18.26 C 11.09 18.41 11.25 18.51 11.47 18.58 C 11.68 18.639999 11.88 18.620001 12.09 18.51 C 12.3 18.4 12.43 18.23 12.5 18 L 12.78 17.1 C 12.85 16.860001 12.83 16.639999 12.71 16.450001 C 12.59 16.26 12.41 16.129999 12.17 16.059999 C 11.95 15.99 11.74 16.01 11.54 16.129999 C 11.34 16.24 11.2 16.41 11.13 16.629999 L 10.89 17.549999 C 10.89 17.57 10.88 17.610001 10.87 17.67 C 10.85 17.719999 10.85 17.77 10.85 17.809999 Z M 12.01 26.1 C 12.01 26.280001 12.06 26.440001 12.16 26.6 C 12.26 26.76 12.42 26.870001 12.64 26.93 C 12.72 26.950001 12.81 26.959999 12.89 26.959999 C 13.32 26.959999 13.58 26.76 13.68 26.35 L 13.82 25.76 C 13.88 25.5 13.85 25.280001 13.74 25.08 C 13.63 24.879999 13.45 24.76 13.22 24.709999 C 13.01 24.639999 12.8 24.66 12.59 24.780001 C 12.38 24.9 12.25 25.07 12.18 25.290001 L 12.04 25.879999 C 12.02 25.969999 12.01 26.040001 12.01 26.1 Z M 12.79 23.200001 C 12.79 23.42 12.87 23.610001 13.04 23.780001 C 13.2 23.940001 13.39 24.02 13.61 24.02 C 13.85 24.02 14.04 23.940001 14.2 23.790001 C 14.36 23.629999 14.43 23.440001 14.43 23.200001 C 14.43 22.969999 14.35 22.780001 14.2 22.620001 C 14.05 22.459999 13.85 22.389999 13.61 22.389999 C 13.37 22.389999 13.18 22.469999 13.02 22.620001 C 12.87 22.77 12.79 22.969999 12.79 23.200001 Z M 13.42 20.93 C 13.41 21.08 13.45 21.24 13.55 21.4 C 13.65 21.559999 13.8 21.66 14 21.700001 C 14.23 21.76 14.44 21.74 14.64 21.639999 C 14.83 21.540001 14.97 21.35 15.05 21.08 L 15.32 20.18 C 15.39 19.959999 15.37 19.75 15.25 19.549999 C 15.13 19.35 14.96 19.219999 14.72 19.15 C 14.5 19.08 14.29 19.110001 14.08 19.23 C 13.87 19.35 13.74 19.530001 13.67 19.76 L 13.45 20.66 C 13.43 20.74 13.42 20.83 13.42 20.93 Z M 16.17 23.08 C 16.17 23.24 16.219999 23.4 16.32 23.559999 C 16.42 23.719999 16.58 23.83 16.780001 23.889999 C 16.809999 23.889999 16.860001 23.9 16.92 23.91 C 16.98 23.92 17.02 23.93 17.059999 23.93 C 17.469999 23.93 17.719999 23.709999 17.82 23.27 L 17.959999 22.67 C 18.030001 22.459999 18.01 22.25 17.889999 22.040001 C 17.780001 21.83 17.610001 21.700001 17.379999 21.629999 C 17.129999 21.57 16.9 21.59 16.700001 21.709999 C 16.5 21.83 16.360001 22 16.290001 22.24 L 16.200001 22.83 C 16.200001 22.85 16.190001 22.9 16.18 22.950001 C 16.18 23 16.17 23.040001 16.17 23.08 Z M 16.91 20.120001 C 16.91 20.34 16.99 20.540001 17.16 20.690001 C 17.309999 20.85 17.5 20.93 17.73 20.93 C 17.969999 20.93 18.16 20.85 18.32 20.700001 C 18.48 20.549999 18.549999 20.35 18.549999 20.120001 C 18.549999 19.879999 18.469999 19.690001 18.32 19.530001 C 18.17 19.370001 17.969999 19.299999 17.73 19.299999 C 17.49 19.299999 17.299999 19.379999 17.139999 19.530001 C 16.98 19.68 16.91 19.879999 16.91 20.120001 Z M 17.52 17.809999 C 17.52 17.98 17.57 18.139999 17.68 18.290001 C 17.790001 18.440001 17.950001 18.549999 18.17 18.610001 C 18.190001 18.610001 18.23 18.620001 18.290001 18.629999 C 18.35 18.639999 18.4 18.65 18.43 18.65 C 18.530001 18.65 18.65 18.620001 18.790001 18.559999 C 19 18.450001 19.139999 18.27 19.200001 18.040001 L 19.440001 17.139999 C 19.5 16.91 19.48 16.700001 19.360001 16.51 C 19.25 16.309999 19.08 16.18 18.85 16.110001 C 18.620001 16.040001 18.41 16.059999 18.209999 16.17 C 18.01 16.280001 17.889999 16.440001 17.82 16.68 L 17.540001 17.59 C 17.540001 17.610001 17.530001 17.65 17.52 17.709999 C 17.530001 17.74 17.52 17.780001 17.52 17.809999 Z M 17.59 7.76 C 17.91 7.18 18.35 6.74 18.9 6.42 C 19.459999 6.1 20.030001 5.950001 20.629999 5.959999 C 20.719999 5.959999 20.82 5.969999 20.93 5.99 L 20.93 6.299999 C 20.92 7.279999 21.18 8.200001 21.700001 9.060001 C 22.23 9.92 22.969999 10.560001 23.92 11 C 23.73 11.41 23.459999 11.779999 23.120001 12.110001 C 22.200001 11.35 21.120001 10.970001 19.889999 10.970001 L 19.58 10.970001 C 19.27 9.66 18.610001 8.59 17.59 7.76 Z"/>
</svg>
