<?xml version="1.0" encoding="UTF-8"?>
<!-- Generated by Pixelmator Pro 3.6.18 -->
<svg width="30" height="30" viewBox="0 0 30 30" xmlns="http://www.w3.org/2000/svg">
    <path id="Path" fill="#000000" stroke="none" d="M 4.07 15.93 C 4.07 17.26 4.54 18.4 5.47 19.360001 C 6.4 20.32 7.54 20.83 8.87 20.870001 C 8.99 20.870001 9.05 20.809999 9.05 20.700001 L 9.05 19.360001 C 9.05 19.25 8.99 19.190001 8.87 19.190001 C 8.02 19.15 7.29 18.799999 6.69 18.16 C 6.08 17.52 5.78 16.77 5.78 15.92 C 5.78 15.07 6.06 14.34 6.63 13.719999 C 7.2 13.1 7.9 12.76 8.73 12.689999 L 9.26 12.619999 C 9.39 12.619999 9.46 12.560001 9.46 12.450001 L 9.53 11.93 C 9.64 10.84 10.09 9.92 10.9 9.18 C 11.71 8.439999 12.66 8.07 13.76 8.07 C 14.85 8.07 15.8 8.439999 16.620001 9.17 C 17.440001 9.9 17.9 10.810001 18.02 11.889999 L 18.1 12.459999 C 18.1 12.58 18.16 12.639999 18.27 12.639999 L 19.889999 12.639999 C 20.799999 12.639999 21.57 12.959999 22.219999 13.609999 C 22.870001 14.25 23.190001 15.02 23.190001 15.92 C 23.190001 16.77 22.889999 17.52 22.280001 18.16 C 21.67 18.799999 20.950001 19.139999 20.1 19.190001 C 19.959999 19.190001 19.889999 19.25 19.889999 19.360001 L 19.889999 20.700001 C 19.889999 20.809999 19.959999 20.870001 20.1 20.870001 C 20.98 20.85 21.780001 20.610001 22.51 20.16 C 23.24 19.709999 23.82 19.110001 24.24 18.360001 C 24.66 17.610001 24.870001 16.799999 24.870001 15.93 C 24.870001 15.02 24.65 14.19 24.219999 13.449999 C 24.959999 12.790001 25.459999 11.93 25.74 10.869999 L 25.91 10.15 C 25.92 10.139999 25.93 10.110001 25.93 10.07 C 25.93 10 25.879999 9.939999 25.77 9.91 L 25.16 9.74 C 24.719999 9.610001 24.33 9.42 23.99 9.17 C 23.65 8.92 23.379999 8.639999 23.18 8.33 C 22.98 8.02 22.84 7.709999 22.74 7.380001 C 22.639999 7.060001 22.59 6.74 22.59 6.43 C 22.59 6.16 22.620001 5.869999 22.690001 5.57 L 22.799999 4.950001 C 22.82 4.860001 22.780001 4.780001 22.66 4.73 L 21.860001 4.49 C 21.42 4.380001 21.01 4.33 20.610001 4.33 C 20.24 4.33 19.870001 4.369999 19.49 4.459999 C 19.110001 4.549999 18.719999 4.68 18.309999 4.869999 C 17.9 5.059999 17.51 5.32 17.129999 5.67 C 16.75 6.02 16.42 6.42 16.139999 6.889999 C 15.33 6.559999 14.54 6.389999 13.76 6.389999 C 12.35 6.389999 11.09 6.83 10 7.709999 C 8.91 8.59 8.2 9.709999 7.89 11.08 C 6.77 11.360001 5.85 11.950001 5.14 12.84 C 4.43 13.74 4.07 14.77 4.07 15.93 Z M 10.46 20.02 C 10.46 20.26 10.54 20.459999 10.7 20.620001 C 10.86 20.790001 11.05 20.870001 11.29 20.870001 C 11.53 20.870001 11.73 20.790001 11.89 20.620001 C 12.05 20.450001 12.13 20.25 12.13 20.02 C 12.13 19.799999 12.05 19.6 11.89 19.440001 C 11.73 19.280001 11.53 19.200001 11.29 19.200001 C 11.06 19.200001 10.86 19.280001 10.7 19.440001 C 10.54 19.6 10.46 19.790001 10.46 20.02 Z M 10.46 23.66 C 10.46 23.889999 10.54 24.08 10.7 24.24 C 10.86 24.4 11.06 24.48 11.28 24.48 C 11.52 24.48 11.72 24.4 11.88 24.25 C 12.04 24.09 12.12 23.9 12.12 23.66 C 12.12 23.42 12.04 23.23 11.88 23.07 C 11.72 22.91 11.52 22.84 11.28 22.84 C 11.04 22.84 10.85 22.92 10.69 23.07 C 10.54 23.219999 10.46 23.42 10.46 23.66 Z M 13.66 21.959999 C 13.66 22.200001 13.74 22.4 13.9 22.549999 C 14.06 22.709999 14.26 22.790001 14.48 22.790001 C 14.72 22.790001 14.92 22.709999 15.09 22.549999 C 15.26 22.389999 15.34 22.190001 15.34 21.959999 C 15.34 21.719999 15.26 21.52 15.09 21.35 C 14.92 21.18 14.72 21.09 14.48 21.09 C 14.26 21.09 14.07 21.18 13.9 21.35 C 13.73 21.52 13.66 21.719999 13.66 21.959999 Z M 13.66 18.32 C 13.66 18.559999 13.74 18.75 13.9 18.9 C 14.06 19.059999 14.26 19.139999 14.48 19.139999 C 14.72 19.139999 14.93 19.059999 15.09 18.91 C 15.25 18.76 15.34 18.559999 15.34 18.32 C 15.34 18.09 15.26 17.889999 15.09 17.719999 C 14.92 17.549999 14.72 17.469999 14.48 17.469999 C 14.26 17.469999 14.06 17.549999 13.9 17.719999 C 13.74 17.889999 13.66 18.09 13.66 18.32 Z M 13.66 25.629999 C 13.66 25.85 13.74 26.040001 13.9 26.200001 C 14.07 26.370001 14.26 26.450001 14.48 26.450001 C 14.72 26.450001 14.92 26.370001 15.09 26.209999 C 15.26 26.049999 15.34 25.860001 15.34 25.620001 C 15.34 25.379999 15.26 25.18 15.09 25.01 C 14.92 24.84 14.72 24.75 14.48 24.75 C 14.26 24.75 14.07 24.84 13.9 25.01 C 13.75 25.190001 13.66 25.4 13.66 25.629999 Z M 16.9 20.02 C 16.9 20.26 16.98 20.459999 17.15 20.620001 C 17.32 20.780001 17.51 20.870001 17.75 20.870001 C 17.99 20.870001 18.18 20.790001 18.34 20.620001 C 18.5 20.450001 18.58 20.25 18.58 20.02 C 18.58 19.799999 18.5 19.6 18.34 19.440001 C 18.18 19.280001 17.99 19.200001 17.75 19.200001 C 17.51 19.200001 17.32 19.280001 17.15 19.440001 C 16.98 19.6 16.9 19.790001 16.9 20.02 Z M 16.9 23.66 C 16.9 23.889999 16.98 24.08 17.139999 24.24 C 17.299999 24.4 17.5 24.48 17.74 24.48 C 17.98 24.48 18.17 24.4 18.33 24.24 C 18.49 24.08 18.559999 23.889999 18.559999 23.65 C 18.559999 23.41 18.48 23.219999 18.33 23.059999 C 18.17 22.9 17.98 22.83 17.74 22.83 C 17.5 22.83 17.299999 22.91 17.139999 23.059999 C 16.98 23.219999 16.9 23.42 16.9 23.66 Z M 17.58 7.77 C 17.889999 7.23 18.33 6.809999 18.879999 6.51 C 19.43 6.209999 20 6.059999 20.59 6.049999 C 20.74 6.049999 20.85 6.059999 20.92 6.07 L 20.92 6.380001 C 20.92 7.35 21.18 8.26 21.700001 9.119999 C 22.219999 9.98 22.950001 10.630001 23.870001 11.08 C 23.709999 11.439999 23.459999 11.799999 23.110001 12.15 C 22.219999 11.360001 21.15 10.970001 19.879999 10.970001 L 19.57 10.970001 C 19.299999 9.74 18.639999 8.68 17.58 7.77 Z"/>
</svg>
