<?xml version="1.0" encoding="UTF-8"?>
<!-- Generated by Pixelmator Pro 3.6.18 -->
<svg width="30" height="30" viewBox="0 0 30 30" xmlns="http://www.w3.org/2000/svg">
    <path id="Path" fill="#000000" stroke="none" d="M 4.08 15.879999 C 4.08 16.99 4.41 17.98 5.07 18.860001 C 5.73 19.74 6.59 20.33 7.65 20.65 L 6.99 22.34 C 6.96 22.48 7.01 22.549999 7.14 22.549999 L 9.26 22.549999 L 8.29 26.059999 L 8.58 26.059999 L 12.49 21.120001 C 12.53 21.07 12.53 21.02 12.5 20.969999 C 12.47 20.92 12.42 20.9 12.35 20.9 L 10.17 20.9 L 12.65 16.27 C 12.72 16.129999 12.68 16.049999 12.52 16.049999 L 9.56 16.049999 C 9.47 16.049999 9.4 16.1 9.33 16.190001 L 8.26 19.07 C 7.54 18.889999 6.95 18.5 6.48 17.9 C 6.01 17.299999 5.78 16.629999 5.78 15.889999 C 5.78 15.059999 6.06 14.34 6.63 13.719999 C 7.2 13.1 7.9 12.75 8.73 12.65 L 9.25 12.57 C 9.38 12.57 9.45 12.51 9.45 12.4 L 9.52 11.880001 C 9.63 10.799999 10.08 9.889999 10.89 9.16 C 11.7 8.43 12.65 8.060001 13.74 8.060001 C 14.82 8.060001 15.77 8.43 16.59 9.16 C 17.41 9.889999 17.879999 10.799999 18 11.869999 L 18.07 12.459999 C 18.07 12.57 18.129999 12.630001 18.25 12.630001 L 19.870001 12.630001 C 20.780001 12.630001 21.549999 12.950001 22.200001 13.58 C 22.85 14.21 23.17 14.98 23.17 15.870001 C 23.17 16.719999 22.870001 17.459999 22.27 18.08 C 21.67 18.700001 20.940001 19.049999 20.07 19.120001 C 19.950001 19.120001 19.879999 19.18 19.879999 19.290001 L 19.879999 20.67 C 19.879999 20.790001 19.940001 20.85 20.07 20.85 C 20.950001 20.82 21.75 20.58 22.48 20.129999 C 23.209999 19.68 23.790001 19.08 24.209999 18.33 C 24.629999 17.58 24.84 16.76 24.84 15.879999 C 24.84 15.01 24.620001 14.2 24.18 13.43 C 24.969999 12.67 25.49 11.799999 25.74 10.810001 L 25.879999 10.09 C 25.889999 10.08 25.9 10.049999 25.9 10.02 C 25.9 9.950001 25.85 9.9 25.74 9.869999 L 25.18 9.689999 C 24.610001 9.529999 24.120001 9.25 23.719999 8.869999 C 23.309999 8.49 23.02 8.07 22.85 7.639999 C 22.68 7.200001 22.59 6.76 22.59 6.32 C 22.59 6.059999 22.620001 5.790001 22.67 5.52 L 22.809999 4.91 C 22.85 4.809999 22.809999 4.73 22.67 4.68 C 22.459999 4.59 22.16 4.51 21.77 4.42 C 21.379999 4.33 21 4.290001 20.620001 4.290001 C 20.26 4.290001 19.889999 4.33 19.5 4.42 C 19.120001 4.51 18.719999 4.639999 18.309999 4.83 C 17.9 5.01 17.5 5.280001 17.110001 5.630001 C 16.719999 5.98 16.389999 6.380001 16.110001 6.85 C 15.29 6.549999 14.49 6.4 13.73 6.4 C 12.32 6.4 11.06 6.84 9.97 7.709999 C 8.88 8.58 8.17 9.700001 7.86 11.07 C 6.75 11.33 5.84 11.91 5.12 12.810001 C 4.44 13.689999 4.08 14.72 4.08 15.879999 Z M 12.18 25.700001 C 12.18 25.860001 12.23 26.02 12.33 26.16 C 12.43 26.309999 12.58 26.41 12.78 26.459999 C 12.89 26.48 12.99 26.49 13.08 26.49 C 13.49 26.49 13.74 26.280001 13.84 25.860001 L 16.16 17.07 C 16.219999 16.83 16.200001 16.620001 16.09 16.42 C 15.98 16.219999 15.81 16.09 15.59 16.030001 C 15.36 15.959999 15.14 15.98 14.94 16.09 C 14.74 16.200001 14.6 16.360001 14.54 16.58 L 12.22 25.42 C 12.19 25.52 12.18 25.610001 12.18 25.700001 Z M 16.35 22.68 C 16.35 22.84 16.4 23 16.5 23.139999 C 16.6 23.280001 16.75 23.389999 16.959999 23.450001 C 16.99 23.450001 17.040001 23.450001 17.110001 23.459999 C 17.18 23.469999 17.24 23.469999 17.27 23.469999 C 17.65 23.469999 17.889999 23.26 17.99 22.84 L 19.49 17.07 C 19.549999 16.83 19.530001 16.610001 19.41 16.41 C 19.299999 16.219999 19.129999 16.09 18.9 16.030001 C 18.67 15.959999 18.450001 15.98 18.25 16.09 C 18.049999 16.200001 17.92 16.360001 17.860001 16.59 L 16.360001 22.41 C 16.360001 22.51 16.35 22.6 16.35 22.68 Z M 17.59 7.75 C 17.92 7.18 18.360001 6.75 18.92 6.450001 C 19.469999 6.15 20.059999 6 20.68 6 C 20.799999 6 20.9 6 20.950001 6.01 L 20.950001 6.33 C 20.950001 7.290001 21.209999 8.200001 21.73 9.060001 C 22.25 9.92 22.98 10.57 23.9 11.029999 C 23.719999 11.450001 23.459999 11.799999 23.110001 12.1 C 22.190001 11.310001 21.120001 10.92 19.889999 10.92 L 19.57 10.92 C 19.290001 9.66 18.629999 8.610001 17.59 7.75 Z"/>
</svg>
