<?xml version="1.0" encoding="UTF-8"?>
<!-- Generated by Pixelmator Pro 3.6.18 -->
<svg width="30" height="30" viewBox="0 0 30 30" xmlns="http://www.w3.org/2000/svg">
    <path id="Path" fill="#000000" stroke="none" d="M 4.63 14.93 C 4.63 16.049999 4.96 17.040001 5.61 17.92 C 6.26 18.790001 7.11 19.389999 8.16 19.709999 C 8.25 19.73 8.33 19.700001 8.4 19.629999 L 9.56 18.200001 C 8.67 18.200001 7.91 17.879999 7.28 17.24 C 6.65 16.6 6.33 15.83 6.33 14.93 C 6.33 14.09 6.61 13.35 7.17 12.73 C 7.73 12.109999 8.43 11.76 9.27 11.689999 L 9.8 11.619999 C 9.91 11.619999 9.96 11.58 9.96 11.49 L 10.04 10.939999 C 10.16 9.84 10.63 8.93 11.43 8.209999 C 12.23 7.49 13.18 7.130001 14.28 7.130001 C 15.38 7.130001 16.34 7.49 17.15 8.220001 C 17.969999 8.950001 18.42 9.860001 18.52 10.939999 L 18.59 11.52 C 18.610001 11.630001 18.690001 11.689999 18.809999 11.689999 L 20.43 11.689999 C 21.33 11.689999 22.1 12.01 22.73 12.639999 C 23.360001 13.27 23.68 14.030001 23.68 14.93 C 23.68 15.76 23.4 16.49 22.84 17.110001 C 22.280001 17.73 21.59 18.09 20.77 18.190001 C 20.65 18.190001 20.49 18.209999 20.280001 18.25 C 20.09 18.27 19.950001 18.34 19.870001 18.48 L 17.51 21.27 C 17.370001 21.450001 17.309999 21.66 17.35 21.9 C 17.379999 22.139999 17.49 22.33 17.66 22.469999 C 17.77 22.59 17.950001 22.66 18.219999 22.66 C 18.48 22.66 18.690001 22.540001 18.83 22.309999 L 20.950001 19.870001 C 22.190001 19.74 23.24 19.209999 24.1 18.26 C 24.959999 17.309999 25.379999 16.200001 25.379999 14.93 C 25.379999 14.26 25.25 13.609999 24.99 13 C 24.73 12.389999 24.379999 11.860001 23.940001 11.42 C 23.5 10.98 22.969999 10.630001 22.360001 10.369999 C 21.75 10.110001 21.110001 9.98 20.43 9.98 L 20.110001 9.98 C 19.780001 8.66 19.07 7.57 17.99 6.720001 C 16.91 5.869999 15.67 5.450001 14.27 5.450001 C 13.34 5.450001 12.46 5.65 11.64 6.049999 C 10.82 6.450001 10.13 7 9.56 7.709999 C 8.99 8.42 8.62 9.23 8.43 10.130001 C 7.31 10.380001 6.39 10.950001 5.68 11.85 C 4.98 12.74 4.63 13.77 4.63 14.93 Z M 8.01 22.950001 C 8.01 23.01 8.03 23.110001 8.07 23.25 C 8.16 23.459999 8.3 23.610001 8.51 23.690001 C 8.73 23.790001 8.95 23.799999 9.18 23.709999 C 9.41 23.620001 9.56 23.469999 9.64 23.26 C 9.74 23.040001 9.75 22.83 9.66 22.610001 C 9.57 22.4 9.42 22.25 9.2 22.18 C 8.98 22.07 8.76 22.059999 8.55 22.15 C 8.34 22.24 8.19 22.389999 8.09 22.620001 C 8.04 22.719999 8.01 22.83 8.01 22.950001 Z M 9.86 20.51 L 9.86 20.610001 C 9.88 20.84 9.98 21.02 10.16 21.17 C 10.39 21.299999 10.59 21.360001 10.78 21.360001 C 11 21.360001 11.21 21.25 11.39 21.030001 L 13.71 18.26 C 13.85 18.09 13.92 17.870001 13.91 17.6 C 13.89 17.389999 13.79 17.209999 13.63 17.07 C 13.47 16.93 13.3 16.85 13.11 16.85 C 13.05 16.85 13.01 16.85 12.97 16.860001 C 12.74 16.9 12.55 17.01 12.41 17.190001 L 10.05 19.959999 C 9.92 20.120001 9.86 20.299999 9.86 20.51 Z M 10.63 25.23 C 10.63 25.35 10.66 25.459999 10.71 25.549999 C 10.79 25.76 10.94 25.92 11.15 26.02 C 11.26 26.07 11.37 26.09 11.48 26.09 C 11.6 26.09 11.71 26.07 11.79 26.02 C 12.02 25.93 12.18 25.790001 12.26 25.610001 C 12.36 25.389999 12.37 25.17 12.28 24.940001 C 12.2 24.709999 12.05 24.559999 11.83 24.48 C 11.61 24.379999 11.39 24.370001 11.16 24.459999 C 10.93 24.549999 10.78 24.700001 10.71 24.91 C 10.65 25 10.63 25.110001 10.63 25.23 Z M 12.3 22.879999 L 12.3 22.99 C 12.32 23.209999 12.43 23.389999 12.61 23.540001 C 12.79 23.690001 12.98 23.76 13.16 23.76 C 13.39 23.76 13.59 23.65 13.79 23.43 L 18.139999 18.190001 C 18.25 18.07 18.309999 17.889999 18.309999 17.67 L 18.309999 17.549999 C 18.290001 17.32 18.190001 17.15 18.040001 17.02 C 17.889999 16.889999 17.709999 16.82 17.52 16.82 L 17.389999 16.82 C 17.16 16.83 16.969999 16.940001 16.84 17.129999 L 12.49 22.33 C 12.35 22.51 12.3 22.690001 12.3 22.879999 Z M 15.81 24.030001 C 15.81 24.120001 15.83 24.219999 15.87 24.33 C 15.96 24.549999 16.110001 24.709999 16.33 24.799999 C 16.469999 24.84 16.57 24.860001 16.639999 24.860001 C 16.780001 24.860001 16.9 24.83 16.98 24.780001 C 17.200001 24.690001 17.360001 24.549999 17.440001 24.360001 C 17.540001 24.190001 17.549999 23.969999 17.459999 23.690001 C 17.379999 23.48 17.23 23.34 17.02 23.25 L 16.66 23.16 C 16.57 23.18 16.469999 23.200001 16.34 23.23 C 16.120001 23.309999 15.97 23.459999 15.89 23.67 C 15.84 23.799999 15.81 23.92 15.81 24.030001 Z"/>
</svg>
