<?xml version="1.0" encoding="UTF-8"?>
<!-- Generated by Pixelmator Pro 3.6.18 -->
<svg width="30" height="30" viewBox="0 0 30 30" xmlns="http://www.w3.org/2000/svg">
    <path id="Path" fill="#000000" stroke="none" d="M 11.01 14.23 C 11.01 13.970001 11.14 13.639999 11.39 13.220001 C 11.64 12.799999 11.89 12.450001 12.12 12.18 C 12.18 12.110001 12.26 12.01 12.35 11.9 C 12.44 11.790001 12.5 11.73 12.51 11.720001 L 12.88 12.15 C 13.16 12.459999 13.41 12.810001 13.64 13.220001 C 13.87 13.630001 13.99 13.959999 13.99 14.23 C 13.99 14.639999 13.85 15 13.56 15.290001 C 13.28 15.58 12.93 15.73 12.51 15.73 C 12.1 15.73 11.74 15.58 11.45 15.290001 C 11.16 14.99 11.01 14.639999 11.01 14.23 Z M 14.13 18.379999 C 14.13 18.09 14.21 17.76 14.37 17.369999 C 14.53 16.99 14.73 16.630001 14.97 16.310001 C 15.43 15.700001 15.86 15.189999 16.280001 14.779999 C 16.32 14.75 16.41 14.67 16.540001 14.540001 L 16.790001 14.779999 C 17.18 15.15 17.620001 15.66 18.110001 16.299999 C 18.370001 16.639999 18.57 17 18.73 17.380001 C 18.889999 17.76 18.969999 18.09 18.969999 18.379999 C 18.969999 19.07 18.74 19.639999 18.27 20.110001 C 17.799999 20.58 17.219999 20.809999 16.540001 20.809999 C 15.86 20.809999 15.29 20.57 14.82 20.1 C 14.35 19.629999 14.13 19.049999 14.13 18.379999 Z M 15.65 11.48 C 15.65 11.049999 15.98 10.48 16.65 9.780001 L 16.9 10.060001 C 17.09 10.279999 17.26 10.52 17.41 10.799999 C 17.559999 11.07 17.639999 11.299999 17.639999 11.48 C 17.639999 11.76 17.540001 11.98 17.35 12.17 C 17.16 12.35 16.93 12.450001 16.65 12.450001 C 16.360001 12.450001 16.120001 12.360001 15.93 12.17 C 15.75 11.98 15.65 11.75 15.65 11.48 Z"/>
</svg>
