<?xml version="1.0" encoding="UTF-8"?>
<!-- Generated by Pixelmator Pro 3.6.18 -->
<svg width="30" height="30" viewBox="0 0 30 30" xmlns="http://www.w3.org/2000/svg">
    <path id="Path" fill="#000000" stroke="none" d="M 4.64 14.91 C 4.64 13.76 5 12.74 5.72 11.84 C 6.44 10.939999 7.35 10.369999 8.45 10.110001 C 8.76 8.75 9.47 7.630001 10.56 6.75 C 11.65 5.869999 12.9 5.440001 14.31 5.440001 C 15.69 5.440001 16.91 5.869999 17.99 6.720001 C 19.07 7.57 19.77 8.67 20.09 10.01 L 20.41 10.01 C 21.299999 10.01 22.129999 10.23 22.889999 10.66 C 23.65 11.09 24.26 11.689999 24.700001 12.439999 C 25.139999 13.189999 25.370001 14.02 25.370001 14.91 C 25.370001 15.790001 25.16 16.6 24.74 17.35 C 24.32 18.1 23.74 18.700001 23.01 19.15 C 22.280001 19.6 21.48 19.84 20.610001 19.860001 C 20.48 19.860001 20.41 19.799999 20.41 19.690001 L 20.41 18.360001 C 20.41 18.24 20.48 18.18 20.610001 18.18 C 21.459999 18.139999 22.190001 17.799999 22.790001 17.16 C 23.389999 16.52 23.690001 15.77 23.690001 14.9 C 23.690001 14.030001 23.360001 13.279999 22.709999 12.639999 C 22.059999 12 21.290001 11.68 20.4 11.68 L 18.790001 11.68 C 18.67 11.68 18.610001 11.619999 18.610001 11.51 L 18.530001 10.93 C 18.42 9.85 17.950001 8.939999 17.139999 8.220001 C 16.32 7.49 15.38 7.130001 14.29 7.130001 C 13.2 7.130001 12.24 7.49 11.44 8.220001 C 10.63 8.950001 10.18 9.85 10.08 10.93 L 10.01 11.459999 C 10.01 11.58 9.94 11.65 9.81 11.65 L 9.28 11.68 C 8.45 11.779999 7.75 12.139999 7.18 12.75 C 6.61 13.360001 6.33 14.08 6.33 14.91 C 6.33 15.780001 6.63 16.530001 7.23 17.17 C 7.83 17.809999 8.56 18.15 9.41 18.190001 C 9.52 18.190001 9.58 18.25 9.58 18.370001 L 9.58 19.700001 C 9.58 19.809999 9.52 19.870001 9.41 19.870001 C 8.07 19.809999 6.94 19.299999 6.01 18.34 C 5.08 17.379999 4.64 16.24 4.64 14.91 Z M 9.99 21.6 C 9.99 21.559999 10 21.49 10.03 21.4 L 11.66 15.629999 C 11.72 15.440001 11.83 15.290001 11.98 15.190001 C 12.13 15.09 12.29 15.040001 12.44 15.040001 C 12.51 15.040001 12.59 15.049999 12.68 15.07 C 12.92 15.110001 13.1 15.24 13.22 15.440001 C 13.34 15.639999 13.37 15.860001 13.3 16.110001 L 11.67 21.84 C 11.55 22.27 11.27 22.48 10.85 22.48 C 10.81 22.48 10.78 22.469999 10.74 22.459999 C 10.68 22.440001 10.65 22.43 10.64 22.43 C 10.42 22.370001 10.26 22.26 10.15 22.1 C 10.04 21.93 9.99 21.77 9.99 21.6 Z M 12.61 24.41 L 15.05 15.639999 C 15.09 15.450001 15.19 15.299999 15.35 15.200001 C 15.51 15.1 15.67 15.049999 15.84 15.049999 C 15.93 15.049999 16.02 15.059999 16.110001 15.08 C 16.33 15.139999 16.49 15.27 16.6 15.469999 C 16.709999 15.67 16.73 15.879999 16.67 16.110001 L 14.24 24.889999 C 14.2 25.059999 14.11 25.200001 13.95 25.32 C 13.79 25.440001 13.63 25.5 13.44 25.5 C 13.35 25.5 13.26 25.48 13.19 25.450001 C 12.99 25.4 12.82 25.27 12.67 25.059999 C 12.56 24.879999 12.54 24.67 12.61 24.41 Z M 16.74 21.620001 C 16.74 21.58 16.75 21.51 16.780001 21.389999 L 18.41 15.620001 C 18.469999 15.43 18.57 15.280001 18.709999 15.18 C 18.860001 15.08 19.01 15.030001 19.17 15.030001 C 19.25 15.030001 19.34 15.040001 19.43 15.059999 C 19.639999 15.120001 19.790001 15.219999 19.889999 15.370001 C 19.99 15.52 20.040001 15.68 20.040001 15.84 C 20.040001 15.870001 20.030001 15.92 20.02 15.98 C 20.01 16.040001 20 16.08 20 16.1 L 18.370001 21.83 C 18.33 22.02 18.24 22.18 18.09 22.290001 C 17.940001 22.4 17.77 22.459999 17.58 22.459999 L 17.34 22.41 C 17.139999 22.35 16.99 22.25 16.879999 22.09 C 16.790001 21.940001 16.74 21.780001 16.74 21.620001 Z"/>
</svg>
