<?xml version="1.0" encoding="UTF-8"?>
<!-- Generated by Pixelmator Pro 3.6.18 -->
<svg width="30" height="30" viewBox="0 0 30 30" xmlns="http://www.w3.org/2000/svg">
    <path id="Path" fill="#000000" stroke="none" d="M 9.81 17.25 C 9.81 18.17 10.04 19.030001 10.51 19.82 C 10.98 20.610001 11.61 21.25 12.41 21.719999 C 13.21 22.190001 14.07 22.43 15 22.43 C 15.93 22.43 16.799999 22.190001 17.610001 21.719999 C 18.42 21.25 19.059999 20.610001 19.530001 19.82 C 20 19.02 20.24 18.17 20.24 17.25 C 20.24 16.65 20.07 15.939999 19.719999 15.110001 C 19.370001 14.279999 18.950001 13.51 18.459999 12.810001 C 18.02 12.24 17.5 11.610001 16.9 10.93 C 16.299999 10.25 15.25 9.200001 15.01 8.959999 L 13.73 10.25 C 13.11 10.85 12.51 11.540001 11.94 12.33 C 11.37 13.119999 10.87 13.970001 10.45 14.880001 C 10.01 15.790001 9.81 16.58 9.81 17.25 Z"/>
</svg>
