<?xml version="1.0" encoding="UTF-8"?>
<!-- Generated by Pixelmator Pro 3.6.18 -->
<svg width="30" height="30" viewBox="0 0 30 30" xmlns="http://www.w3.org/2000/svg">
    <path id="Path" fill="#000000" stroke="none" d="M 4.65 14.959999 C 4.65 16.280001 5.12 17.42 6.05 18.370001 C 6.98 19.33 8.11 19.83 9.43 19.870001 C 9.55 19.870001 9.61 19.809999 9.61 19.700001 L 9.61 18.370001 C 9.61 18.25 9.55 18.190001 9.43 18.190001 C 8.59 18.15 7.86 17.809999 7.26 17.17 C 6.66 16.530001 6.35 15.799999 6.35 14.950001 C 6.35 14.110001 6.63 13.380001 7.2 12.76 C 7.77 12.140001 8.46 11.790001 9.3 11.720001 L 9.83 11.65 C 9.95 11.65 10.02 11.59 10.02 11.470001 L 10.09 10.970001 C 10.19 9.880001 10.64 8.959999 11.45 8.220001 C 12.26 7.48 13.21 7.110001 14.31 7.110001 C 15.39 7.110001 16.34 7.48 17.15 8.209999 C 17.959999 8.939999 18.43 9.84 18.549999 10.92 L 18.620001 11.5 C 18.620001 11.619999 18.68 11.68 18.809999 11.68 L 20.41 11.68 C 21.309999 11.68 22.08 12 22.73 12.65 C 23.370001 13.290001 23.700001 14.059999 23.700001 14.950001 C 23.700001 15.790001 23.4 16.530001 22.799999 17.17 C 22.200001 17.799999 21.469999 18.139999 20.620001 18.190001 C 20.49 18.190001 20.42 18.25 20.42 18.370001 L 20.42 19.700001 C 20.42 19.809999 20.49 19.870001 20.620001 19.870001 C 21.950001 19.83 23.08 19.33 24 18.370001 C 24.92 17.41 25.379999 16.280001 25.379999 14.950001 C 25.379999 14.059999 25.16 13.23 24.709999 12.470001 C 24.27 11.709999 23.66 11.110001 22.9 10.67 C 22.139999 10.23 21.309999 10.01 20.42 10.01 L 20.110001 10.01 C 19.780001 8.67 19.08 7.58 18 6.720001 C 16.93 5.869999 15.7 5.440001 14.32 5.440001 C 12.91 5.440001 11.66 5.880001 10.57 6.75 C 9.48 7.619999 8.78 8.74 8.47 10.1 C 7.34 10.389999 6.43 10.98 5.72 11.869999 C 5.01 12.76 4.65 13.800001 4.65 14.959999 Z M 10.05 21.98 C 10.05 22.15 10.1 22.32 10.21 22.49 C 10.32 22.66 10.48 22.77 10.68 22.84 C 10.91 22.91 11.12 22.9 11.32 22.799999 C 11.51 22.709999 11.65 22.52 11.71 22.24 L 11.85 21.629999 C 11.9 21.4 11.87 21.190001 11.76 21 C 11.65 20.809999 11.48 20.67 11.24 20.6 C 11.02 20.530001 10.8 20.559999 10.6 20.68 C 10.4 20.799999 10.26 20.98 10.2 21.209999 L 10.06 21.799999 C 10.06 21.83 10.05 21.889999 10.05 21.98 Z M 10.81 19.08 C 10.81 19.290001 10.89 19.48 11.06 19.65 C 11.22 19.82 11.4 19.9 11.62 19.9 C 11.86 19.9 12.06 19.82 12.22 19.66 C 12.38 19.5 12.46 19.309999 12.46 19.07 C 12.46 18.84 12.38 18.639999 12.22 18.48 C 12.06 18.32 11.86 18.24 11.62 18.24 C 11.39 18.24 11.2 18.32 11.04 18.469999 C 10.89 18.65 10.81 18.85 10.81 19.08 Z M 11.42 16.809999 C 11.41 16.969999 11.45 17.120001 11.56 17.26 C 11.66 17.41 11.82 17.51 12.04 17.58 C 12.25 17.639999 12.45 17.620001 12.66 17.51 C 12.87 17.4 13 17.23 13.07 17 L 13.35 16.1 C 13.42 15.860001 13.4 15.639999 13.28 15.450001 C 13.16 15.26 12.98 15.129999 12.74 15.059999 C 12.52 14.99 12.31 15.01 12.11 15.129999 C 11.91 15.24 11.77 15.41 11.7 15.629999 L 11.46 16.549999 C 11.46 16.57 11.45 16.610001 11.44 16.67 C 11.43 16.719999 11.42 16.77 11.42 16.809999 Z M 12.59 25.1 C 12.59 25.280001 12.64 25.440001 12.74 25.6 C 12.84 25.76 13 25.870001 13.22 25.93 C 13.3 25.950001 13.39 25.959999 13.47 25.959999 C 13.9 25.959999 14.16 25.76 14.26 25.35 L 14.4 24.76 C 14.46 24.5 14.43 24.280001 14.32 24.08 C 14.2 23.879999 14.03 23.76 13.8 23.709999 C 13.59 23.639999 13.38 23.66 13.17 23.780001 C 12.96 23.9 12.83 24.07 12.76 24.290001 L 12.62 24.879999 C 12.6 24.969999 12.59 25.040001 12.59 25.1 Z M 13.36 22.200001 C 13.36 22.42 13.44 22.610001 13.61 22.780001 C 13.77 22.940001 13.96 23.02 14.18 23.02 C 14.42 23.02 14.61 22.940001 14.77 22.790001 C 14.93 22.629999 15 22.440001 15 22.200001 C 15 21.969999 14.92 21.780001 14.77 21.620001 C 14.61 21.459999 14.42 21.389999 14.18 21.389999 C 13.94 21.389999 13.75 21.469999 13.59 21.620001 C 13.43 21.77 13.36 21.969999 13.36 22.200001 Z M 13.99 19.93 C 13.98 20.08 14.02 20.24 14.12 20.4 C 14.22 20.559999 14.37 20.66 14.57 20.700001 C 14.8 20.76 15.01 20.74 15.21 20.639999 C 15.41 20.540001 15.54 20.35 15.62 20.08 L 15.89 19.18 C 15.96 18.959999 15.94 18.75 15.82 18.549999 C 15.7 18.35 15.53 18.219999 15.29 18.15 C 15.07 18.08 14.86 18.110001 14.65 18.23 C 14.44 18.35 14.31 18.530001 14.24 18.76 L 14.01 19.66 C 14 19.74 13.99 19.83 13.99 19.93 Z M 16.75 22.08 C 16.75 22.24 16.799999 22.4 16.9 22.559999 C 17 22.719999 17.16 22.83 17.360001 22.889999 C 17.389999 22.889999 17.440001 22.9 17.5 22.91 C 17.559999 22.92 17.6 22.93 17.639999 22.93 C 18.049999 22.93 18.299999 22.709999 18.4 22.27 L 18.540001 21.67 C 18.610001 21.459999 18.59 21.25 18.469999 21.040001 C 18.360001 20.83 18.190001 20.700001 17.959999 20.629999 C 17.709999 20.57 17.48 20.59 17.280001 20.709999 C 17.08 20.83 16.940001 21 16.870001 21.24 L 16.780001 21.83 C 16.780001 21.85 16.77 21.9 16.76 21.950001 C 16.75 22 16.75 22.040001 16.75 22.08 Z M 17.49 19.120001 C 17.49 19.34 17.57 19.540001 17.74 19.690001 C 17.889999 19.85 18.08 19.93 18.309999 19.93 C 18.549999 19.93 18.74 19.85 18.9 19.700001 C 19.059999 19.549999 19.129999 19.35 19.129999 19.120001 C 19.129999 18.879999 19.049999 18.690001 18.9 18.530001 C 18.75 18.370001 18.549999 18.299999 18.309999 18.299999 C 18.07 18.299999 17.879999 18.379999 17.719999 18.530001 C 17.57 18.690001 17.49 18.879999 17.49 19.120001 Z M 18.1 16.809999 C 18.1 16.98 18.15 17.139999 18.26 17.290001 C 18.370001 17.440001 18.530001 17.549999 18.75 17.610001 C 18.77 17.610001 18.809999 17.620001 18.870001 17.629999 C 18.93 17.639999 18.98 17.65 19.01 17.65 C 19.110001 17.65 19.23 17.620001 19.370001 17.559999 C 19.58 17.450001 19.719999 17.27 19.780001 17.040001 L 20.02 16.139999 C 20.08 15.91 20.059999 15.700001 19.940001 15.51 C 19.83 15.309999 19.66 15.18 19.43 15.110001 C 19.200001 15.040001 18.99 15.059999 18.790001 15.17 C 18.6 15.280001 18.459999 15.440001 18.4 15.68 L 18.120001 16.59 C 18.120001 16.610001 18.110001 16.65 18.1 16.709999 C 18.1 16.74 18.1 16.780001 18.1 16.809999 Z"/>
</svg>
