<?xml version="1.0" encoding="UTF-8"?>
<!-- Generated by Pixelmator Pro 3.6.18 -->
<svg width="30" height="30" viewBox="0 0 30 30" xmlns="http://www.w3.org/2000/svg">
    <path id="Path" fill="#000000" stroke="none" d="M 4.64 16.91 C 4.64 15.76 5 14.74 5.72 13.84 C 6.44 12.939999 7.35 12.369999 8.45 12.110001 C 8.76 10.75 9.46 9.630001 10.55 8.76 C 11.64 7.889999 12.9 7.450001 14.31 7.450001 C 15.69 7.450001 16.91 7.880001 17.99 8.720001 C 19.059999 9.57 19.77 10.66 20.1 12 L 20.41 12 C 21.299999 12 22.129999 12.220001 22.889999 12.65 C 23.65 13.08 24.26 13.68 24.700001 14.43 C 25.139999 15.18 25.370001 16.01 25.370001 16.9 C 25.370001 18.24 24.91 19.389999 23.99 20.35 C 23.07 21.309999 21.940001 21.82 20.610001 21.860001 C 20.48 21.860001 20.41 21.799999 20.41 21.690001 L 20.41 20.360001 C 20.41 20.24 20.48 20.18 20.610001 20.18 C 21.469999 20.139999 22.190001 19.799999 22.790001 19.16 C 23.389999 18.52 23.690001 17.77 23.690001 16.9 C 23.690001 16.030001 23.370001 15.28 22.709999 14.64 C 22.059999 14 21.290001 13.68 20.4 13.68 L 18.799999 13.68 C 18.68 13.68 18.610001 13.619999 18.610001 13.51 L 18.540001 12.93 C 18.43 11.860001 17.969999 10.950001 17.16 10.220001 C 16.34 9.49 15.39 9.119999 14.31 9.119999 C 13.22 9.119999 12.26 9.48 11.45 10.209999 C 10.64 10.939999 10.18 11.84 10.07 12.92 L 10.01 13.459999 C 10.01 13.58 9.94 13.639999 9.81 13.639999 L 9.28 13.67 C 8.46 13.709999 7.77 14.04 7.19 14.67 C 6.61 15.3 6.33 16.040001 6.33 16.889999 C 6.33 17.76 6.63 18.51 7.23 19.15 C 7.83 19.790001 8.56 20.129999 9.41 20.17 C 9.52 20.17 9.58 20.23 9.58 20.35 L 9.58 21.68 C 9.58 21.790001 9.52 21.85 9.41 21.85 C 8.07 21.790001 6.94 21.280001 6.01 20.32 C 5.08 19.360001 4.64 18.24 4.64 16.91 Z M 10.57 17.790001 C 10.57 17.549999 10.69 17.219999 10.94 16.799999 C 11.18 16.379999 11.41 16.049999 11.62 15.79 C 11.83 15.55 11.96 15.41 12 15.37 L 12.36 15.77 C 12.62 16.049999 12.86 16.379999 13.08 16.790001 C 13.3 17.190001 13.41 17.530001 13.41 17.790001 C 13.41 18.18 13.28 18.51 13.01 18.77 C 12.74 19.030001 12.41 19.16 12.01 19.16 C 11.62 19.16 11.28 19.030001 11 18.76 C 10.71 18.5 10.57 18.17 10.57 17.790001 Z M 13.55 21.780001 C 13.55 21.5 13.63 21.190001 13.79 20.82 C 13.95 20.450001 14.14 20.120001 14.38 19.799999 C 14.56 19.540001 14.78 19.26 15.05 18.959999 C 15.31 18.66 15.51 18.440001 15.65 18.309999 C 15.72 18.25 15.8 18.17 15.89 18.08 L 16.129999 18.309999 C 16.51 18.639999 16.93 19.129999 17.4 19.77 C 17.639999 20.1 17.83 20.450001 17.99 20.809999 C 18.15 21.17 18.219999 21.49 18.219999 21.780001 C 18.219999 22.42 17.99 22.969999 17.540001 23.43 C 17.09 23.889999 16.530001 24.110001 15.88 24.110001 C 15.24 24.110001 14.69 23.879999 14.23 23.440001 C 13.77 22.98 13.55 22.43 13.55 21.780001 Z M 15.02 15.12 C 15.02 14.7 15.34 14.17 15.99 13.52 L 16.23 13.77 C 16.41 13.98 16.559999 14.22 16.709999 14.48 C 16.85 14.74 16.93 14.95 16.93 15.12 C 16.93 15.38 16.84 15.6 16.65 15.78 C 16.469999 15.96 16.25 16.059999 15.99 16.059999 C 15.72 16.059999 15.49 15.97 15.3 15.78 C 15.11 15.6 15.02 15.38 15.02 15.12 Z"/>
</svg>
