<?xml version="1.0" encoding="UTF-8"?>
<!-- Generated by Pixelmator Pro 3.6.18 -->
<svg width="30" height="30" viewBox="0 0 30 30" xmlns="http://www.w3.org/2000/svg">
    <path id="Path" fill="#000000" stroke="none" d="M 4.64 14.950001 C 4.64 13.790001 4.99 12.77 5.7 11.869999 C 6.41 10.970001 7.32 10.389999 8.44 10.110001 C 8.75 8.75 9.45 7.630001 10.54 6.75 C 11.63 5.869999 12.88 5.440001 14.29 5.440001 C 15.67 5.440001 16.889999 5.869999 17.969999 6.720001 C 19.049999 7.57 19.75 8.67 20.07 10.01 L 20.389999 10.01 C 21.280001 10.01 22.110001 10.23 22.870001 10.67 C 23.629999 11.110001 24.24 11.709999 24.68 12.470001 C 25.120001 13.23 25.35 14.059999 25.35 14.950001 C 25.35 16.27 24.889999 17.42 23.959999 18.370001 C 23.040001 19.33 21.91 19.83 20.58 19.870001 C 20.450001 19.870001 20.379999 19.809999 20.379999 19.700001 L 20.379999 18.370001 C 20.379999 18.25 20.450001 18.190001 20.58 18.190001 C 21.43 18.15 22.16 17.809999 22.76 17.17 C 23.360001 16.530001 23.66 15.790001 23.66 14.940001 C 23.66 14.049999 23.34 13.290001 22.690001 12.640001 C 22.040001 11.99 21.27 11.67 20.370001 11.67 L 18.76 11.67 C 18.639999 11.67 18.58 11.610001 18.58 11.5 L 18.5 10.92 C 18.389999 9.84 17.92 8.93 17.110001 8.200001 C 16.290001 7.470001 15.35 7.1 14.26 7.1 C 13.16 7.1 12.21 7.470001 11.4 8.209999 C 10.59 8.950001 10.13 9.860001 10.03 10.959999 L 9.97 11.459999 C 9.97 11.58 9.9 11.65 9.77 11.65 L 9.24 11.720001 C 8.41 11.790001 7.71 12.130001 7.14 12.76 C 6.57 13.390001 6.29 14.110001 6.29 14.950001 C 6.29 15.799999 6.59 16.540001 7.19 17.18 C 7.79 17.82 8.52 18.15 9.37 18.200001 C 9.48 18.200001 9.54 18.26 9.54 18.379999 L 9.54 19.709999 C 9.54 19.82 9.48 19.879999 9.37 19.879999 C 8.03 19.84 6.9 19.34 5.97 18.379999 C 5.1 17.42 4.64 16.27 4.64 14.950001 Z M 10.14 22.65 C 10.14 22.42 10.22 22.219999 10.39 22.049999 C 10.55 21.9 10.74 21.82 10.96 21.82 C 11.19 21.82 11.39 21.9 11.55 22.049999 C 11.71 22.200001 11.79 22.4 11.79 22.639999 C 11.79 22.879999 11.71 23.07 11.55 23.23 C 11.39 23.389999 11.2 23.459999 10.96 23.459999 C 10.73 23.459999 10.53 23.379999 10.37 23.23 C 10.22 23.08 10.14 22.879999 10.14 22.65 Z M 11 19.02 C 11 18.799999 11.08 18.6 11.24 18.440001 C 11.4 18.280001 11.59 18.200001 11.83 18.200001 C 12.06 18.200001 12.26 18.280001 12.42 18.440001 C 12.58 18.6 12.66 18.799999 12.66 19.02 C 12.66 19.26 12.58 19.459999 12.42 19.620001 C 12.26 19.790001 12.07 19.870001 11.83 19.870001 C 11.6 19.870001 11.4 19.790001 11.24 19.620001 C 11.08 19.459999 11 19.26 11 19.02 Z M 12.9 24.610001 C 12.9 24.379999 12.98 24.18 13.15 24 C 13.31 23.84 13.5 23.76 13.72 23.76 C 13.96 23.76 14.16 23.84 14.33 24.01 C 14.5 24.18 14.58 24.379999 14.58 24.610001 C 14.58 24.84 14.5 25.040001 14.33 25.200001 C 14.16 25.360001 13.96 25.440001 13.72 25.440001 C 13.49 25.440001 13.3 25.360001 13.14 25.200001 C 12.99 25.030001 12.9 24.84 12.9 24.610001 Z M 13.77 20.950001 C 13.77 20.709999 13.85 20.51 14.01 20.33 C 14.17 20.17 14.37 20.09 14.59 20.09 C 14.82 20.09 15.02 20.17 15.19 20.34 C 15.36 20.51 15.44 20.709999 15.44 20.950001 C 15.44 21.18 15.36 21.379999 15.19 21.549999 C 15.02 21.719999 14.82 21.799999 14.59 21.799999 C 14.36 21.799999 14.17 21.719999 14.01 21.549999 C 13.85 21.379999 13.77 21.18 13.77 20.950001 Z M 14.19 17.33 C 14.19 17.1 14.27 16.9 14.44 16.73 C 14.62 16.57 14.81 16.49 15.01 16.49 C 15.25 16.49 15.45 16.57 15.62 16.74 C 15.79 16.91 15.87 17.1 15.87 17.34 C 15.87 17.57 15.79 17.77 15.62 17.93 C 15.45 18.09 15.25 18.17 15.01 18.17 C 14.78 18.17 14.59 18.09 14.43 17.93 C 14.27 17.76 14.19 17.559999 14.19 17.33 Z M 16.559999 22.65 C 16.559999 22.42 16.639999 22.219999 16.799999 22.049999 C 16.959999 21.9 17.16 21.82 17.4 21.82 C 17.639999 21.82 17.83 21.9 17.99 22.049999 C 18.15 22.209999 18.219999 22.4 18.219999 22.639999 C 18.219999 22.879999 18.139999 23.07 17.99 23.23 C 17.83 23.389999 17.639999 23.459999 17.4 23.459999 C 17.16 23.459999 16.959999 23.379999 16.799999 23.219999 C 16.639999 23.07 16.559999 22.879999 16.559999 22.65 Z M 17.41 19.02 C 17.41 18.799999 17.49 18.610001 17.66 18.440001 C 17.83 18.27 18.030001 18.190001 18.26 18.190001 C 18.49 18.190001 18.690001 18.27 18.85 18.43 C 19.01 18.59 19.09 18.790001 19.09 19.01 C 19.09 19.25 19.01 19.450001 18.85 19.610001 C 18.690001 19.780001 18.5 19.860001 18.26 19.860001 C 18.02 19.860001 17.82 19.780001 17.66 19.610001 C 17.5 19.450001 17.41 19.25 17.41 19.02 Z"/>
</svg>
