<?xml version="1.0" encoding="UTF-8"?>
<!-- Generated by Pixelmator Pro 3.6.18 -->
<svg width="30" height="30" viewBox="0 0 30 30" xmlns="http://www.w3.org/2000/svg">
    <path id="Path" fill="#000000" stroke="none" d="M 4.63 14.91 C 4.63 16.02 4.96 17.01 5.62 17.879999 C 6.28 18.75 7.13 19.35 8.18 19.67 L 7.53 21.35 C 7.5 21.49 7.55 21.57 7.67 21.57 L 9.8 21.57 L 8.76 25.35 L 9.04 25.35 L 13.01 20.129999 C 13.05 20.09 13.05 20.040001 13.03 19.99 C 13.01 19.940001 12.96 19.92 12.89 19.92 L 10.71 19.92 L 13.19 15.280001 C 13.25 15.139999 13.21 15.07 13.05 15.07 L 10.11 15.07 C 10.02 15.07 9.94 15.120001 9.89 15.209999 L 8.8 18.08 C 8.09 17.9 7.5 17.51 7.03 16.92 C 6.56 16.33 6.33 15.66 6.33 14.91 C 6.33 14.08 6.61 13.359999 7.17 12.75 C 7.73 12.139999 8.43 11.790001 9.27 11.689999 L 9.79 11.619999 C 9.92 11.619999 9.99 11.560001 9.99 11.450001 L 10.06 10.93 C 10.16 9.85 10.61 8.939999 11.42 8.209999 C 12.23 7.48 13.18 7.110001 14.27 7.110001 C 15.36 7.110001 16.309999 7.48 17.120001 8.209999 C 17.940001 8.939999 18.4 9.85 18.52 10.93 L 18.58 11.51 C 18.58 11.630001 18.639999 11.689999 18.77 11.689999 L 20.379999 11.689999 C 21.290001 11.689999 22.059999 12.01 22.700001 12.639999 C 23.34 13.27 23.66 14.030001 23.66 14.92 C 23.66 15.77 23.360001 16.51 22.77 17.129999 C 22.18 17.75 21.450001 18.09 20.58 18.16 C 20.450001 18.16 20.379999 18.219999 20.379999 18.35 L 20.379999 19.719999 C 20.379999 19.83 20.450001 19.889999 20.58 19.889999 C 21.23 19.870001 21.85 19.719999 22.440001 19.450001 C 23.030001 19.18 23.540001 18.82 23.959999 18.379999 C 24.379999 17.940001 24.719999 17.42 24.969999 16.809999 C 25.219999 16.209999 25.35 15.58 25.35 14.93 C 25.35 14.030001 25.129999 13.199999 24.68 12.439999 C 24.23 11.68 23.629999 11.08 22.870001 10.639999 C 22.110001 10.200001 21.280001 9.98 20.389999 9.98 L 20.07 9.98 C 19.74 8.65 19.040001 7.560001 17.959999 6.720001 C 16.879999 5.880001 15.66 5.450001 14.28 5.450001 C 12.87 5.450001 11.61 5.889999 10.52 6.76 C 9.43 7.630001 8.73 8.75 8.42 10.119999 C 7.32 10.380001 6.41 10.950001 5.69 11.85 C 4.97 12.75 4.63 13.76 4.63 14.91 Z M 12.79 24.77 C 12.79 24.93 12.84 25.08 12.94 25.23 C 13.04 25.379999 13.2 25.49 13.4 25.549999 C 13.54 25.58 13.62 25.6 13.65 25.6 C 13.74 25.6 13.86 25.57 14.03 25.5 C 14.24 25.41 14.38 25.23 14.45 24.98 L 14.73 23.93 C 14.79 23.709999 14.77 23.5 14.65 23.299999 C 14.53 23.1 14.36 22.969999 14.12 22.9 C 13.9 22.84 13.69 22.860001 13.49 22.98 C 13.29 23.1 13.15 23.27 13.08 23.51 L 12.81 24.51 C 12.8 24.68 12.79 24.77 12.79 24.77 Z M 14.13 20 C 14.13 20.139999 14.18 20.290001 14.28 20.440001 C 14.38 20.59 14.53 20.700001 14.73 20.77 C 14.95 20.84 15.17 20.83 15.37 20.719999 C 15.57 20.610001 15.7 20.440001 15.77 20.200001 L 16.07 19.16 C 16.129999 18.940001 16.1 18.73 15.99 18.530001 C 15.87 18.33 15.69 18.190001 15.46 18.120001 C 15.23 18.059999 15.02 18.08 14.81 18.200001 C 14.6 18.32 14.47 18.49 14.4 18.719999 L 14.16 19.73 C 14.14 19.9 14.13 19.99 14.13 20 Z M 16.950001 21.65 C 16.950001 21.82 17 21.99 17.110001 22.16 C 17.219999 22.33 17.379999 22.440001 17.58 22.51 C 17.6 22.51 17.639999 22.52 17.700001 22.530001 C 17.75 22.540001 17.790001 22.549999 17.82 22.549999 C 17.950001 22.549999 18.08 22.530001 18.200001 22.469999 C 18.389999 22.4 18.530001 22.209999 18.610001 21.9 L 18.860001 20.889999 C 18.93 20.66 18.91 20.440001 18.799999 20.23 C 18.690001 20.02 18.52 19.879999 18.299999 19.809999 C 18.049999 19.75 17.82 19.780001 17.620001 19.889999 C 17.42 20.01 17.290001 20.190001 17.25 20.42 L 16.98 21.450001 C 16.959999 21.51 16.950001 21.58 16.950001 21.65 Z M 18.309999 16.860001 C 18.299999 17.02 18.35 17.17 18.459999 17.33 C 18.57 17.49 18.73 17.610001 18.950001 17.709999 C 19.030001 17.75 19.110001 17.77 19.209999 17.77 C 19.32 17.77 19.43 17.74 19.549999 17.690001 C 19.76 17.59 19.9 17.4 19.99 17.120001 L 20.280001 16.09 C 20.299999 15.959999 20.309999 15.889999 20.309999 15.870001 C 20.309999 15.700001 20.26 15.540001 20.15 15.379999 C 20.040001 15.219999 19.879999 15.110001 19.66 15.049999 C 19.639999 15.049999 19.6 15.040001 19.549999 15.030001 C 19.49 15 19.450001 15 19.42 15 C 19.25 15 19.09 15.049999 18.93 15.15 C 18.77 15.25 18.66 15.41 18.6 15.629999 L 18.33 16.639999 C 18.32 16.719999 18.309999 16.790001 18.309999 16.860001 Z"/>
</svg>
