<?xml version="1.0" encoding="UTF-8"?>
<!-- Generated by Pixelmator Pro 3.6.18 -->
<svg width="30" height="30" viewBox="0 0 30 30" xmlns="http://www.w3.org/2000/svg">
    <path id="Path" fill="#000000" stroke="none" d="M 6.34 13.48 C 6.34 12.540001 6.64 11.700001 7.23 10.959999 C 7.82 10.220001 8.57 9.75 9.48 9.549999 C 9.73 8.43 10.3 7.5 11.2 6.780001 C 12.1 6.059999 13.12 5.700001 14.28 5.700001 C 15.4 5.700001 16.41 6.049999 17.299999 6.75 C 18.190001 7.450001 18.76 8.35 19.030001 9.439999 L 19.299999 9.439999 C 20.42 9.439999 21.379999 9.83 22.18 10.619999 C 22.969999 11.4 23.370001 12.360001 23.370001 13.470001 C 23.370001 14.07 23.25 14.639999 23 15.17 C 22.75 15.7 22.41 16.16 21.969999 16.540001 L 21.969999 16.57 C 21.969999 17.16 21.780001 17.690001 21.41 18.16 C 21.040001 18.629999 20.57 18.92 20.01 19.049999 C 19.870001 19.67 19.559999 20.200001 19.1 20.629999 C 18.639999 21.059999 18.09 21.33 17.469999 21.43 C 17.76 21.77 17.9 22.15 17.9 22.559999 C 17.9 23.040001 17.73 23.450001 17.389999 23.799999 C 17.049999 24.139999 16.639999 24.32 16.16 24.32 C 15.68 24.32 15.27 24.15 14.93 23.799999 C 14.59 23.459999 14.42 23.040001 14.42 22.559999 C 14.42 22.370001 14.45 22.18 14.52 21.99 L 14.42 21.99 C 13.84 21.99 13.34 21.780001 12.92 21.360001 C 12.5 20.940001 12.29 20.440001 12.29 19.860001 C 12.29 19.459999 12.39 19.1 12.59 18.790001 C 12.07 18.5 11.7 18.09 11.47 17.540001 L 10.19 17.540001 L 10.19 17.530001 C 9.12 17.459999 8.21 17.040001 7.46 16.26 C 6.71 15.48 6.34 14.560001 6.34 13.48 Z M 7.74 13.23 C 7.74 14.029999 8.02 14.709999 8.58 15.27 C 9.14 15.83 9.82 16.110001 10.61 16.110001 C 11.1 16.110001 11.56 16 11.98 15.77 C 12.1 16.51 12.45 17.129999 13.02 17.629999 C 13.59 18.129999 14.27 18.370001 15.04 18.370001 C 15.91 18.370001 16.65 18.059999 17.26 17.450001 C 17.67 17.93 18.18 18.16 18.799999 18.16 C 19.370001 18.16 19.85 17.959999 20.26 17.559999 C 20.66 17.16 20.860001 16.67 20.860001 16.1 C 21.26 15.83 21.58 15.49 21.809999 15.06 C 22.040001 14.639999 22.16 14.18 22.16 13.689999 C 22.16 12.9 21.879999 12.220001 21.309999 11.67 C 20.74 11.119999 20.059999 10.84 19.26 10.84 C 18.700001 10.84 18.190001 10.99 17.73 11.279999 C 17.790001 11.040001 17.809999 10.77 17.809999 10.49 C 17.809999 9.529999 17.469999 8.709999 16.780001 8.030001 C 16.09 7.35 15.26 7.02 14.29 7.02 C 13.35 7.02 12.54 7.35 11.86 7.99 C 11.18 8.630001 10.82 9.43 10.79 10.360001 C 10.77 10.360001 10.74 10.360001 10.71 10.360001 C 10.67 10.360001 10.64 10.360001 10.62 10.360001 C 9.83 10.360001 9.16 10.639999 8.59 11.200001 C 8.02 11.76 7.74 12.450001 7.74 13.23 Z"/>
</svg>
