<?xml version="1.0" encoding="UTF-8"?>
<!-- Generated by Pixelmator Pro 3.6.18 -->
<svg width="30" height="30" viewBox="0 0 30 30" xmlns="http://www.w3.org/2000/svg">
    <path id="Path" fill="#000000" stroke="none" d="M 5.37 18.18 C 6.02 18.15 6.57 17.9 7.02 17.43 C 7.47 16.959999 7.7 16.4 7.7 15.75 C 7.7 16.4 7.92 16.959999 8.37 17.43 C 8.82 17.9 9.37 18.15 10.02 18.18 C 9.37 18.209999 8.82 18.459999 8.37 18.93 C 7.92 19.4 7.7 19.959999 7.7 20.610001 C 7.7 19.959999 7.48 19.4 7.02 18.93 C 6.57 18.459999 6.02 18.209999 5.37 18.18 Z M 7.7 10.98 C 8.96 10.92 10.03 10.43 10.91 9.51 C 11.79 8.59 12.23 7.5 12.23 6.23 C 12.23 7.5 12.67 8.59 13.55 9.51 C 14.43 10.43 15.5 10.91 16.77 10.98 C 15.94 11.02 15.18 11.25 14.48 11.689999 C 13.79 12.119999 13.24 12.700001 12.83 13.42 C 12.43 14.139999 12.23 14.91 12.23 15.75 C 12.23 14.48 11.79 13.380001 10.91 12.459999 C 10.03 11.529999 8.96 11.040001 7.7 10.98 Z M 11.02 21.75 C 11.97 21.709999 12.78 21.34 13.44 20.65 C 14.1 19.959999 14.43 19.139999 14.43 18.18 C 14.43 19.139999 14.76 19.959999 15.42 20.65 C 16.08 21.34 16.879999 21.709999 17.83 21.75 C 16.879999 21.790001 16.08 22.16 15.42 22.85 C 14.76 23.540001 14.43 24.360001 14.43 25.32 C 14.43 24.360001 14.1 23.540001 13.44 22.85 C 12.77 22.16 11.97 21.799999 11.02 21.75 Z M 17.83 17.01 C 18.780001 16.970001 19.58 16.6 20.24 15.91 C 20.9 15.220001 21.219999 14.4 21.219999 13.43 C 21.219999 14.389999 21.549999 15.209999 22.209999 15.9 C 22.870001 16.59 23.68 16.959999 24.629999 17 C 23.68 17.040001 22.870001 17.41 22.209999 18.1 C 21.549999 18.790001 21.219999 19.610001 21.219999 20.57 C 21.219999 19.610001 20.889999 18.790001 20.24 18.1 C 19.58 17.42 18.780001 17.049999 17.83 17.01 Z"/>
</svg>
