<?xml version="1.0" encoding="UTF-8"?>
<!-- Generated by Pixelmator Pro 3.6.18 -->
<svg width="30" height="30" viewBox="0 0 30 30" xmlns="http://www.w3.org/2000/svg">
    <path id="Path" fill="#000000" stroke="none" d="M 3.1 16.969999 C 3.1 17.209999 3.19 17.42 3.38 17.59 C 3.54 17.780001 3.75 17.870001 4.01 17.870001 L 18.700001 17.870001 C 18.99 17.870001 19.23 17.969999 19.43 18.17 C 19.629999 18.370001 19.73 18.620001 19.73 18.91 C 19.73 19.200001 19.629999 19.440001 19.43 19.629999 C 19.23 19.82 18.99 19.92 18.690001 19.92 C 18.4 19.92 18.15 19.82 17.959999 19.629999 C 17.799999 19.450001 17.6 19.370001 17.360001 19.370001 C 17.110001 19.370001 16.9 19.459999 16.719999 19.629999 C 16.540001 19.799999 16.450001 20.01 16.450001 20.24 C 16.450001 20.49 16.540001 20.700001 16.73 20.870001 C 17.290001 21.42 17.950001 21.700001 18.690001 21.700001 C 19.469999 21.700001 20.139999 21.43 20.700001 20.889999 C 21.26 20.35 21.530001 19.700001 21.530001 18.92 C 21.530001 18.139999 21.25 17.48 20.690001 16.92 C 20.129999 16.360001 19.459999 16.08 18.690001 16.08 L 4.01 16.08 C 3.76 16.08 3.55 16.17 3.37 16.34 C 3.19 16.51 3.1 16.719999 3.1 16.969999 Z M 3.1 13.689999 C 3.1 13.92 3.19 14.12 3.38 14.3 C 3.55 14.48 3.76 14.56 4.01 14.56 L 24.049999 14.56 C 24.83 14.56 25.5 14.29 26.059999 13.74 C 26.620001 13.200001 26.9 12.540001 26.9 11.77 C 26.9 11 26.620001 10.33 26.059999 9.779999 C 25.5 9.23 24.83 8.950001 24.049999 8.950001 C 23.280001 8.950001 22.629999 9.220001 22.1 9.75 C 21.92 9.91 21.83 10.130001 21.83 10.42 C 21.83 10.68 21.92 10.889999 22.09 11.049999 C 22.26 11.209999 22.469999 11.290001 22.719999 11.290001 C 22.959999 11.290001 23.17 11.209999 23.35 11.049999 C 23.540001 10.84 23.77 10.74 24.049999 10.74 C 24.34 10.74 24.58 10.84 24.780001 11.040001 C 24.98 11.24 25.08 11.48 25.08 11.77 C 25.08 12.060001 24.98 12.299999 24.780001 12.49 C 24.58 12.68 24.34 12.779999 24.049999 12.779999 L 4.01 12.779999 C 3.76 12.779999 3.55 12.869999 3.37 13.040001 C 3.19 13.23 3.1 13.439999 3.1 13.689999 Z M 4.67 20.610001 C 4.67 20.85 4.75 21.040001 4.91 21.190001 C 5.07 21.35 5.27 21.43 5.49 21.43 C 5.73 21.43 5.94 21.35 6.11 21.200001 C 6.28 21.049999 6.36 20.85 6.36 20.610001 C 6.36 20.379999 6.27 20.18 6.1 20.01 C 5.93 19.84 5.72 19.76 5.49 19.76 C 5.27 19.76 5.07 19.84 4.91 20.01 C 4.75 20.18 4.67 20.379999 4.67 20.610001 Z M 5.62 10.68 C 5.62 10.92 5.7 11.110001 5.86 11.26 C 6.02 11.42 6.22 11.5 6.44 11.5 C 6.68 11.5 6.89 11.42 7.05 11.27 C 7.22 11.110001 7.3 10.92 7.3 10.68 C 7.3 10.450001 7.22 10.25 7.05 10.08 C 6.89 9.92 6.68 9.83 6.45 9.83 C 6.23 9.83 6.03 9.91 5.87 10.08 C 5.7 10.25 5.62 10.450001 5.62 10.68 Z M 8.65 8.369999 C 8.65 8.610001 8.73 8.799999 8.89 8.950001 C 9.05 9.119999 9.25 9.200001 9.47 9.200001 C 9.71 9.200001 9.92 9.119999 10.09 8.970001 C 10.26 8.810001 10.34 8.619999 10.34 8.380001 C 10.34 8.15 10.25 7.950001 10.08 7.780001 C 9.92 7.610001 9.71 7.530001 9.47 7.530001 C 9.25 7.530001 9.05 7.610001 8.89 7.780001 C 8.73 7.940001 8.65 8.139999 8.65 8.369999 Z M 8.74 19.969999 C 8.74 20.200001 8.82 20.4 8.99 20.549999 C 9.15 20.709999 9.34 20.790001 9.56 20.790001 C 9.8 20.790001 10.01 20.709999 10.18 20.559999 C 10.35 20.4 10.43 20.209999 10.43 19.969999 C 10.43 19.74 10.34 19.540001 10.17 19.370001 C 10 19.200001 9.79 19.120001 9.56 19.120001 C 9.34 19.120001 9.14 19.200001 8.98 19.370001 C 8.82 19.540001 8.74 19.74 8.74 19.969999 Z M 12.92 10.139999 C 12.92 10.380001 13 10.57 13.16 10.720001 C 13.32 10.880001 13.52 10.959999 13.74 10.959999 C 13.98 10.959999 14.19 10.880001 14.36 10.73 C 14.53 10.58 14.61 10.380001 14.61 10.139999 C 14.61 9.91 14.52 9.709999 14.35 9.540001 C 14.18 9.369999 13.97 9.290001 13.74 9.290001 C 13.51 9.290001 13.32 9.369999 13.16 9.540001 C 13 9.709999 12.92 9.91 12.92 10.139999 Z M 13.24 21.129999 C 13.24 21.360001 13.32 21.549999 13.49 21.709999 C 13.65 21.870001 13.84 21.950001 14.06 21.950001 C 14.3 21.950001 14.51 21.870001 14.68 21.719999 C 14.85 21.559999 14.93 21.370001 14.93 21.129999 C 14.93 20.9 14.84 20.700001 14.67 20.530001 C 14.5 20.360001 14.29 20.280001 14.06 20.280001 C 13.84 20.280001 13.64 20.360001 13.48 20.530001 C 13.32 20.700001 13.24 20.9 13.24 21.129999 Z M 17.719999 9.98 C 17.719999 10.209999 17.799999 10.4 17.959999 10.549999 C 18.129999 10.720001 18.32 10.799999 18.540001 10.799999 C 18.780001 10.799999 18.99 10.720001 19.16 10.57 C 19.33 10.41 19.41 10.220001 19.41 9.98 C 19.41 9.75 19.32 9.549999 19.15 9.380001 C 18.98 9.209999 18.77 9.130001 18.540001 9.130001 C 18.32 9.130001 18.129999 9.209999 17.959999 9.380001 C 17.809999 9.549999 17.719999 9.75 17.719999 9.98 Z M 22.809999 17.040001 C 22.809999 17.280001 22.889999 17.469999 23.049999 17.620001 C 23.209999 17.780001 23.41 17.860001 23.629999 17.860001 C 23.870001 17.860001 24.08 17.780001 24.24 17.629999 C 24.41 17.469999 24.49 17.280001 24.49 17.040001 C 24.49 16.809999 24.41 16.610001 24.24 16.440001 C 24.07 16.27 23.870001 16.190001 23.629999 16.190001 C 23.4 16.190001 23.209999 16.27 23.049999 16.440001 C 22.9 16.610001 22.809999 16.809999 22.809999 17.040001 Z"/>
</svg>
