<?xml version="1.0" encoding="UTF-8"?>
<!-- Generated by Pixelmator Pro 3.6.18 -->
<svg width="30" height="30" viewBox="0 0 30 30" xmlns="http://www.w3.org/2000/svg">
    <path id="Path" fill="#000000" stroke="none" d="M 3.1 16.969999 C 3.1 17.209999 3.19 17.42 3.38 17.59 C 3.54 17.780001 3.75 17.870001 4.01 17.870001 L 18.700001 17.870001 C 18.99 17.870001 19.23 17.969999 19.43 18.17 C 19.629999 18.370001 19.73 18.620001 19.73 18.91 C 19.73 19.200001 19.629999 19.440001 19.43 19.629999 C 19.23 19.82 18.99 19.92 18.690001 19.92 C 18.4 19.92 18.15 19.82 17.959999 19.629999 C 17.799999 19.450001 17.6 19.370001 17.360001 19.370001 C 17.110001 19.370001 16.9 19.459999 16.719999 19.629999 C 16.540001 19.799999 16.450001 20.01 16.450001 20.24 C 16.450001 20.49 16.540001 20.700001 16.73 20.870001 C 17.290001 21.42 17.950001 21.700001 18.690001 21.700001 C 19.469999 21.700001 20.139999 21.43 20.700001 20.889999 C 21.26 20.35 21.530001 19.700001 21.530001 18.92 C 21.530001 18.139999 21.25 17.48 20.690001 16.92 C 20.129999 16.360001 19.459999 16.08 18.690001 16.08 L 4.01 16.08 C 3.76 16.08 3.55 16.17 3.37 16.34 C 3.19 16.51 3.1 16.719999 3.1 16.969999 Z M 3.1 13.689999 C 3.1 13.92 3.19 14.12 3.38 14.3 C 3.55 14.48 3.76 14.56 4.01 14.56 L 24.049999 14.56 C 24.83 14.56 25.5 14.29 26.059999 13.74 C 26.620001 13.200001 26.9 12.540001 26.9 11.77 C 26.9 11 26.620001 10.33 26.059999 9.779999 C 25.5 9.23 24.83 8.950001 24.049999 8.950001 C 23.280001 8.950001 22.629999 9.220001 22.1 9.75 C 21.92 9.91 21.83 10.130001 21.83 10.42 C 21.83 10.68 21.92 10.889999 22.09 11.049999 C 22.26 11.209999 22.469999 11.290001 22.719999 11.290001 C 22.959999 11.290001 23.17 11.209999 23.35 11.049999 C 23.540001 10.84 23.77 10.74 24.049999 10.74 C 24.34 10.74 24.58 10.84 24.780001 11.040001 C 24.98 11.24 25.08 11.48 25.08 11.77 C 25.08 12.060001 24.98 12.299999 24.780001 12.49 C 24.58 12.68 24.34 12.779999 24.049999 12.779999 L 4.01 12.779999 C 3.76 12.779999 3.55 12.869999 3.37 13.040001 C 3.19 13.23 3.1 13.439999 3.1 13.689999 Z"/>
</svg>
