<?xml version="1.0" encoding="UTF-8"?>
<!-- Generated by Pixelmator Pro 3.6.18 -->
<svg width="30" height="30" viewBox="0 0 30 30" xmlns="http://www.w3.org/2000/svg">
    <path id="Path" fill="#000000" stroke="none" d="M 4.09 14.950001 C 4.09 13.790001 4.45 12.76 5.17 11.860001 C 5.89 10.959999 6.81 10.369999 7.91 10.119999 C 8.22 8.75 8.92 7.630001 10.01 6.75 C 11.1 5.869999 12.36 5.43 13.78 5.43 C 14.59 5.43 15.33 5.559999 15.98 5.83 C 15.98 5.84 15.98 5.84 15.99 5.85 C 16.83 6.17 17.57 6.689999 18.200001 7.4 L 18.23 7.4 C 18.91 8.130001 19.360001 9 19.6 10.02 L 19.91 10.02 C 20.99 10.02 21.93 10.310001 22.74 10.880001 L 22.74 10.869999 C 23.27 11.23 23.719999 11.67 24.08 12.200001 C 24.440001 12.73 24.68 13.310001 24.809999 13.940001 C 24.85 14.15 24.870001 14.32 24.889999 14.459999 L 24.889999 14.52 C 24.889999 14.530001 24.889999 14.58 24.9 14.690001 C 24.91 14.799999 24.91 14.879999 24.91 14.93 L 24.91 14.959999 C 24.91 15.84 24.700001 16.66 24.27 17.41 C 23.85 18.16 23.27 18.77 22.530001 19.219999 C 21.799999 19.67 20.99 19.91 20.110001 19.940001 C 19.98 19.940001 19.91 19.879999 19.91 19.77 L 19.91 18.43 C 19.91 18.299999 19.98 18.24 20.110001 18.24 C 20.969999 18.200001 21.690001 17.860001 22.290001 17.219999 C 22.889999 16.58 23.190001 15.83 23.190001 14.959999 C 23.190001 14.07 22.870001 13.310001 22.219999 12.67 C 21.58 12.030001 20.809999 11.709999 19.91 11.709999 L 18.299999 11.709999 C 18.18 11.709999 18.120001 11.65 18.120001 11.540001 L 18.040001 10.950001 C 17.940001 9.950001 17.52 9.09 16.77 8.360001 C 16.76 8.35 16.76 8.34 16.75 8.33 C 16.74 8.32 16.73 8.310001 16.73 8.299999 C 16.719999 8.290001 16.709999 8.279999 16.690001 8.279999 C 16.690001 8.26 16.68 8.25 16.67 8.25 C 15.94 7.59 15.09 7.209999 14.11 7.130001 C 14.04 7.119999 13.93 7.119999 13.77 7.119999 C 12.67 7.119999 11.72 7.49 10.91 8.220001 C 10.1 8.950001 9.64 9.860001 9.54 10.939999 L 9.46 11.529999 C 9.43 11.619999 9.35 11.67 9.24 11.67 L 8.75 11.700001 C 7.91 11.799999 7.2 12.16 6.64 12.77 C 6.08 13.380001 5.8 14.110001 5.8 14.950001 L 5.8 14.99 L 5.83 14.99 C 5.84 15.469999 5.94 15.92 6.13 16.34 C 6.33 16.77 6.59 17.129999 6.93 17.43 C 7.14 17.610001 7.38 17.77 7.67 17.91 L 7.67 17.92 C 8.07 18.110001 8.47 18.219999 8.88 18.24 C 8.99 18.24 9.05 18.299999 9.05 18.42 L 9.05 19.76 C 9.05 19.870001 8.99 19.93 8.88 19.93 C 8.36 19.9 7.87 19.799999 7.4 19.629999 L 7.4 19.639999 C 6.57 19.35 5.86 18.870001 5.29 18.209999 C 4.72 17.549999 4.34 16.77 4.18 15.9 L 4.18 15.870001 C 4.17 15.860001 4.17 15.85 4.17 15.83 C 4.11 15.57 4.09 15.27 4.09 14.950001 Z M 9.59 22.120001 C 9.59 22.09 9.6 22.049999 9.61 21.99 C 9.62 21.940001 9.63 21.9 9.63 21.870001 L 9.72 21.280001 C 9.79 21.040001 9.92 20.870001 10.13 20.75 C 10.34 20.629999 10.56 20.610001 10.81 20.67 C 11.04 20.74 11.2 20.879999 11.32 21.08 C 11.43 21.290001 11.45 21.5 11.39 21.709999 L 11.25 22.309999 C 11.15 22.75 10.9 22.969999 10.49 22.969999 C 10.46 22.969999 10.41 22.959999 10.35 22.950001 C 10.29 22.940001 10.25 22.93 10.21 22.93 C 10 22.870001 9.85 22.76 9.75 22.6 C 9.64 22.450001 9.59 22.290001 9.59 22.120001 Z M 10.33 19.18 C 10.33 18.940001 10.41 18.75 10.56 18.59 C 10.71 18.43 10.91 18.360001 11.15 18.360001 C 11.39 18.360001 11.58 18.440001 11.74 18.59 C 11.9 18.74 11.97 18.940001 11.97 19.18 C 11.97 19.41 11.89 19.6 11.74 19.76 C 11.59 19.92 11.39 19.99 11.15 19.99 C 10.92 19.99 10.73 19.91 10.58 19.75 C 10.42 19.59 10.33 19.4 10.33 19.18 Z M 11.97 25.17 C 11.97 25.129999 11.98 25.059999 12.01 24.940001 L 12.14 24.35 C 12.21 24.120001 12.35 23.950001 12.55 23.84 C 12.76 23.719999 12.97 23.700001 13.18 23.77 C 13.41 23.809999 13.59 23.940001 13.71 24.139999 C 13.83 24.34 13.86 24.57 13.79 24.82 L 13.66 25.41 C 13.56 25.82 13.29 26.02 12.86 26.02 C 12.79 26.02 12.7 26.01 12.62 25.99 C 12.4 25.93 12.24 25.82 12.13 25.66 C 12.03 25.5 11.97 25.34 11.97 25.17 Z M 12.76 22.26 C 12.76 22.030001 12.84 21.83 12.99 21.68 C 13.15 21.52 13.34 21.450001 13.58 21.450001 C 13.82 21.450001 14.01 21.530001 14.17 21.68 C 14.33 21.84 14.4 22.030001 14.4 22.26 C 14.4 22.5 14.32 22.690001 14.17 22.85 C 14.01 23.01 13.82 23.08 13.58 23.08 C 13.35 23.08 13.16 23 13 22.84 C 12.84 22.68 12.76 22.49 12.76 22.26 Z M 13.38 19.99 C 13.38 19.889999 13.39 19.799999 13.41 19.719999 L 13.64 18.82 C 13.71 18.59 13.85 18.41 14.05 18.290001 C 14.26 18.17 14.47 18.139999 14.69 18.209999 C 14.93 18.280001 15.1 18.41 15.22 18.610001 C 15.34 18.809999 15.36 19.02 15.29 19.24 L 15.03 20.139999 C 14.95 20.42 14.81 20.6 14.62 20.700001 C 14.43 20.799999 14.21 20.82 13.98 20.76 C 13.78 20.719999 13.63 20.620001 13.53 20.459999 C 13.41 20.299999 13.37 20.139999 13.38 19.99 Z M 16.139999 22.129999 C 16.139999 22.1 16.139999 22.049999 16.15 22 C 16.16 21.950001 16.16 21.91 16.16 21.889999 L 16.25 21.299999 C 16.32 21.059999 16.450001 20.889999 16.66 20.77 C 16.870001 20.65 17.09 20.629999 17.34 20.690001 C 17.57 20.76 17.74 20.9 17.85 21.1 C 17.969999 21.309999 17.99 21.52 17.92 21.73 L 17.780001 22.33 C 17.68 22.77 17.43 22.99 17.02 22.99 C 16.99 22.99 16.940001 22.98 16.879999 22.969999 C 16.82 22.959999 16.77 22.950001 16.74 22.950001 C 16.540001 22.889999 16.389999 22.780001 16.290001 22.620001 C 16.200001 22.459999 16.139999 22.299999 16.139999 22.129999 Z M 16.879999 19.190001 C 16.879999 18.950001 16.959999 18.76 17.110001 18.6 C 17.27 18.440001 17.459999 18.370001 17.700001 18.370001 C 17.940001 18.370001 18.129999 18.450001 18.290001 18.6 C 18.450001 18.76 18.52 18.950001 18.52 19.190001 C 18.52 19.42 18.440001 19.620001 18.290001 19.77 C 18.139999 19.92 17.950001 20 17.709999 20 C 17.469999 20 17.280001 19.92 17.129999 19.76 C 16.969999 19.610001 16.879999 19.42 16.879999 19.190001 Z"/>
</svg>
