<?xml version="1.0" encoding="UTF-8"?>
<!-- Generated by Pixelmator Pro 3.6.18 -->
<svg width="30" height="30" viewBox="0 0 30 30" xmlns="http://www.w3.org/2000/svg">
    <path id="Path" fill="#000000" stroke="none" d="M 6.35 13.459999 C 6.35 12.52 6.65 11.689999 7.25 10.959999 C 7.85 10.23 8.62 9.75 9.56 9.529999 C 9.79 8.42 10.35 7.5 11.26 6.780001 C 12.17 6.059999 13.21 5.700001 14.38 5.700001 C 15.5 5.700001 16.51 6.049999 17.379999 6.74 C 18.26 7.43 18.83 8.33 19.1 9.439999 L 19.379999 9.439999 C 20.139999 9.439999 20.84 9.6 21.5 9.93 C 22.16 10.26 22.68 10.700001 23.07 11.27 C 23.459999 11.84 23.66 12.450001 23.66 13.110001 C 23.66 14.23 23.23 15.19 22.370001 15.97 C 22.370001 16.32 22.26 16.720001 22.049999 17.17 C 21.83 17.620001 21.549999 18.030001 21.18 18.4 C 20.82 18.77 20.450001 18.99 20.08 19.08 C 19.959999 19.700001 19.67 20.219999 19.219999 20.65 C 18.77 21.08 18.23 21.360001 17.59 21.5 C 17.889999 21.799999 18.040001 22.15 18.040001 22.559999 C 18.040001 23.049999 17.870001 23.469999 17.52 23.82 C 17.17 24.17 16.75 24.34 16.25 24.34 C 15.76 24.34 15.34 24.17 14.99 23.82 C 14.64 23.469999 14.46 23.049999 14.46 22.559999 C 14.46 22.5 14.47 22.42 14.5 22.299999 C 14.53 22.18 14.54 22.09 14.54 22.030001 L 14.46 22.030001 C 13.87 22.030001 13.37 21.82 12.95 21.4 C 12.53 20.98 12.32 20.469999 12.32 19.889999 C 12.32 19.66 12.44 19.309999 12.69 18.83 C 12.2 18.57 11.81 18.16 11.52 17.57 L 10.27 17.57 C 9.18 17.48 8.25 17.040001 7.49 16.27 C 6.73 15.49 6.35 14.549999 6.35 13.459999 Z"/>
</svg>
