<?xml version="1.0" encoding="UTF-8"?>
<!-- Generated by Pixelmator Pro 3.6.18 -->
<svg width="30" height="30" viewBox="0 0 30 30" xmlns="http://www.w3.org/2000/svg">
    <path id="Path" fill="#000000" stroke="none" d="M 7.46 15.41 C 7.46 15.22 7.53 15.05 7.66 14.91 C 7.79 14.77 7.95 14.700001 8.14 14.700001 C 8.33 14.700001 8.5 14.77 8.63 14.91 C 8.76 15.05 8.83 15.21 8.83 15.41 C 8.83 15.6 8.76 15.76 8.63 15.89 C 8.5 16.02 8.33 16.09 8.15 16.09 C 7.97 16.09 7.8 16.02 7.67 15.89 C 7.52 15.75 7.46 15.59 7.46 15.41 Z M 9.44 15.41 C 9.44 15.22 9.51 15.05 9.64 14.91 C 9.77 14.77 9.93 14.700001 10.12 14.700001 L 13.35 14.700001 L 11.07 12.42 C 10.93 12.299999 10.86 12.139999 10.86 11.950001 C 10.86 11.76 10.93 11.6 11.07 11.459999 C 11.21 11.32 11.37 11.25 11.56 11.25 C 11.75 11.25 11.91 11.32 12.05 11.459999 L 14.32 13.73 L 14.32 10.52 C 14.32 10.33 14.39 10.16 14.53 10.02 C 14.67 9.880001 14.83 9.810001 15.03 9.810001 C 15.22 9.810001 15.38 9.880001 15.51 10.02 C 15.64 10.16 15.71 10.32 15.71 10.52 L 15.71 13.75 L 18 11.450001 C 18.139999 11.310001 18.299999 11.24 18.48 11.24 C 18.66 11.24 18.83 11.310001 18.969999 11.450001 C 19.09 11.59 19.15 11.75 19.15 11.939999 C 19.15 12.130001 19.09 12.290001 18.969999 12.41 L 16.690001 14.689999 L 19.92 14.689999 C 20.1 14.689999 20.26 14.76 20.389999 14.9 C 20.52 15.04 20.59 15.2 20.59 15.4 C 20.59 15.58 20.52 15.74 20.389999 15.87 C 20.26 16 20.1 16.07 19.92 16.07 L 16.690001 16.07 L 18.98 18.360001 C 19.1 18.48 19.16 18.639999 19.16 18.83 C 19.16 19.02 19.1 19.18 18.98 19.32 C 18.84 19.459999 18.67 19.530001 18.49 19.530001 C 18.309999 19.530001 18.139999 19.459999 18.01 19.32 L 15.72 17.02 L 15.72 20.26 C 15.72 20.450001 15.65 20.620001 15.52 20.75 C 15.39 20.879999 15.23 20.950001 15.04 20.950001 C 14.85 20.950001 14.68 20.879999 14.54 20.75 C 14.4 20.620001 14.33 20.450001 14.33 20.26 L 14.33 17.040001 L 12.06 19.309999 C 11.92 19.450001 11.76 19.52 11.57 19.52 C 11.38 19.52 11.22 19.450001 11.08 19.309999 C 10.94 19.17 10.87 19.01 10.87 18.82 C 10.87 18.629999 10.94 18.48 11.08 18.35 L 13.38 16.060001 L 10.14 16.060001 C 9.95 16.060001 9.79 15.99 9.66 15.86 C 9.5 15.75 9.44 15.59 9.44 15.41 Z M 9.45 20.25 C 9.45 20.07 9.52 19.9 9.66 19.77 C 9.78 19.629999 9.94 19.559999 10.13 19.559999 C 10.32 19.559999 10.48 19.629999 10.62 19.77 C 10.76 19.91 10.83 20.07 10.83 20.25 C 10.83 20.43 10.76 20.6 10.62 20.73 C 10.48 20.870001 10.32 20.940001 10.13 20.940001 C 9.94 20.940001 9.78 20.870001 9.66 20.73 C 9.52 20.6 9.45 20.440001 9.45 20.25 Z M 9.45 10.540001 C 9.45 10.360001 9.52 10.189999 9.66 10.060001 C 9.78 9.92 9.94 9.85 10.13 9.85 C 10.32 9.85 10.48 9.92 10.62 10.060001 C 10.76 10.200001 10.83 10.360001 10.83 10.540001 C 10.83 10.720001 10.76 10.889999 10.62 11.029999 C 10.48 11.17 10.32 11.24 10.13 11.24 C 9.94 11.24 9.78 11.17 9.66 11.029999 C 9.52 10.889999 9.45 10.720001 9.45 10.540001 Z M 14.3 22.25 C 14.3 22.07 14.37 21.91 14.51 21.780001 C 14.65 21.65 14.81 21.58 15.01 21.58 C 15.2 21.58 15.36 21.65 15.49 21.780001 C 15.62 21.91 15.69 22.07 15.69 22.25 C 15.69 22.440001 15.62 22.610001 15.49 22.74 C 15.36 22.870001 15.2 22.940001 15.01 22.940001 C 14.82 22.940001 14.65 22.870001 14.51 22.74 C 14.37 22.610001 14.3 22.450001 14.3 22.25 Z M 14.3 8.540001 C 14.3 8.35 14.37 8.18 14.51 8.049999 C 14.65 7.92 14.81 7.85 15.01 7.85 C 15.2 7.85 15.36 7.92 15.49 8.049999 C 15.62 8.18 15.69 8.35 15.69 8.540001 C 15.69 8.719999 15.62 8.880001 15.49 9.01 C 15.36 9.139999 15.2 9.209999 15.01 9.209999 C 14.82 9.209999 14.65 9.139999 14.51 9.01 C 14.37 8.880001 14.3 8.719999 14.3 8.540001 Z M 19.17 20.25 C 19.17 20.07 19.24 19.9 19.379999 19.77 C 19.5 19.629999 19.66 19.559999 19.85 19.559999 C 20.040001 19.559999 20.200001 19.629999 20.34 19.77 C 20.48 19.91 20.549999 20.07 20.549999 20.25 C 20.549999 20.43 20.48 20.6 20.34 20.73 C 20.200001 20.870001 20.040001 20.940001 19.85 20.940001 C 19.66 20.940001 19.5 20.870001 19.379999 20.73 C 19.24 20.6 19.17 20.440001 19.17 20.25 Z M 19.17 10.540001 C 19.17 10.360001 19.24 10.189999 19.379999 10.060001 C 19.5 9.92 19.66 9.85 19.85 9.85 C 20.040001 9.85 20.200001 9.92 20.34 10.060001 C 20.48 10.200001 20.549999 10.360001 20.549999 10.540001 C 20.549999 10.720001 20.48 10.889999 20.34 11.029999 C 20.200001 11.17 20.040001 11.24 19.85 11.24 C 19.66 11.24 19.5 11.17 19.379999 11.029999 C 19.24 10.889999 19.17 10.720001 19.17 10.540001 Z M 21.17 15.41 C 21.17 15.22 21.24 15.05 21.370001 14.91 C 21.5 14.77 21.67 14.700001 21.860001 14.700001 C 22.040001 14.700001 22.200001 14.77 22.33 14.91 C 22.459999 15.05 22.530001 15.21 22.530001 15.41 C 22.530001 15.59 22.459999 15.75 22.33 15.88 C 22.200001 16.01 22.040001 16.08 21.860001 16.08 C 21.67 16.08 21.5 16.01 21.370001 15.88 C 21.24 15.75 21.17 15.59 21.17 15.41 Z"/>
</svg>
