<?xml version="1.0" encoding="UTF-8"?>
<!-- Generated by Pixelmator Pro 3.6.18 -->
<svg width="30" height="30" viewBox="0 0 30 30" xmlns="http://www.w3.org/2000/svg">
    <path id="Path" fill="#000000" stroke="none" d="M 4.6 14.93 C 4.6 13.77 4.96 12.75 5.69 11.85 C 6.41 10.950001 7.34 10.369999 8.47 10.119999 C 8.76 8.74 9.45 7.619999 10.54 6.73 C 11.63 5.84 12.88 5.4 14.3 5.4 C 15.69 5.4 16.93 5.83 18.02 6.68 C 19.1 7.529999 19.809999 8.630001 20.139999 9.98 L 20.48 9.98 C 21.379999 9.98 22.209999 10.200001 22.959999 10.639999 C 23.719999 11.08 24.309999 11.68 24.75 12.439999 C 25.18 13.199999 25.4 14.030001 25.4 14.93 C 25.4 16.27 24.940001 17.41 24.030001 18.370001 C 23.110001 19.33 21.99 19.83 20.66 19.870001 C 20.540001 19.870001 20.48 19.809999 20.48 19.700001 L 20.48 18.360001 C 20.48 18.25 20.540001 18.190001 20.66 18.190001 C 21.5 18.120001 22.23 17.77 22.83 17.139999 C 23.43 16.51 23.73 15.77 23.73 14.92 C 23.73 14.030001 23.41 13.26 22.77 12.609999 C 22.129999 11.970001 21.370001 11.639999 20.48 11.639999 L 18.85 11.639999 C 18.73 11.639999 18.66 11.58 18.629999 11.459999 L 18.559999 10.889999 C 18.49 10.18 18.26 9.529999 17.860001 8.950001 C 17.459999 8.369999 16.950001 7.92 16.33 7.59 C 15.71 7.26 15.03 7.1 14.31 7.1 C 13.21 7.1 12.26 7.459999 11.45 8.189999 C 10.64 8.92 10.18 9.83 10.08 10.91 L 10.01 11.450001 C 10.01 11.540001 9.96 11.59 9.85 11.59 L 9.31 11.700001 C 8.47 11.77 7.76 12.109999 7.2 12.73 C 6.63 13.35 6.35 14.08 6.35 14.93 C 6.35 15.799999 6.65 16.549999 7.24 17.18 C 7.83 17.809999 8.55 18.15 9.41 18.200001 C 9.53 18.200001 9.59 18.26 9.59 18.370001 L 9.59 19.709999 C 9.59 19.82 9.53 19.879999 9.41 19.879999 C 8.75 19.85 8.13 19.700001 7.53 19.43 C 6.93 19.16 6.42 18.799999 6 18.360001 C 5.57 17.92 5.23 17.41 4.98 16.809999 C 4.73 16.209999 4.6 15.59 4.6 14.93 Z M 10.02 21.700001 C 10.02 21.67 10.03 21.620001 10.04 21.57 C 10.05 21.52 10.06 21.48 10.06 21.459999 L 10.33 20.43 C 10.4 20.209999 10.53 20.030001 10.73 19.92 C 10.93 19.799999 11.14 19.780001 11.37 19.85 C 11.6 19.92 11.77 20.049999 11.89 20.25 C 12.01 20.450001 12.03 20.66 11.96 20.889999 L 11.72 21.9 C 11.59 22.34 11.34 22.559999 10.96 22.559999 C 10.93 22.559999 10.91 22.559999 10.87 22.559999 C 10.84 22.559999 10.8 22.549999 10.76 22.549999 C 10.72 22.540001 10.69 22.540001 10.66 22.540001 C 10.45 22.48 10.29 22.360001 10.18 22.200001 C 10.07 22.040001 10.02 21.860001 10.02 21.700001 Z M 11.34 16.879999 C 11.34 16.860001 11.34 16.82 11.35 16.77 C 11.36 16.719999 11.36 16.690001 11.36 16.68 L 11.66 15.629999 C 11.72 15.440001 11.83 15.290001 11.98 15.18 C 12.13 15.08 12.29 15.030001 12.45 15.030001 C 12.47 15.030001 12.5 15.030001 12.53 15.030001 C 12.56 15.030001 12.59 15.040001 12.62 15.040001 C 12.65 15.049999 12.68 15.049999 12.7 15.049999 C 12.93 15.120001 13.1 15.25 13.21 15.450001 C 13.33 15.65 13.35 15.860001 13.28 16.09 L 13.04 17.09 C 12.97 17.370001 12.84 17.559999 12.64 17.68 C 12.44 17.799999 12.22 17.799999 11.99 17.700001 C 11.77 17.639999 11.61 17.530001 11.5 17.360001 C 11.39 17.190001 11.34 17.040001 11.34 16.879999 Z M 12.57 24.83 C 12.57 24.799999 12.58 24.76 12.59 24.700001 C 12.6 24.639999 12.61 24.610001 12.61 24.58 L 12.9 23.59 C 12.96 23.35 13.1 23.17 13.3 23.049999 C 13.5 22.93 13.72 22.9 13.95 22.969999 C 14.18 23.040001 14.34 23.17 14.46 23.379999 C 14.58 23.59 14.59 23.799999 14.53 24.030001 L 14.28 25.07 C 14.17 25.48 13.91 25.68 13.48 25.68 C 13.43 25.68 13.35 25.67 13.24 25.639999 C 13.02 25.6 12.86 25.5 12.75 25.34 C 12.63 25.18 12.57 25.01 12.57 24.83 Z M 13.91 20.059999 C 13.91 20 13.92 19.92 13.95 19.809999 L 14.22 18.780001 C 14.29 18.549999 14.42 18.379999 14.63 18.27 C 14.83 18.15 15.05 18.129999 15.28 18.200001 C 15.51 18.26 15.67 18.389999 15.79 18.59 C 15.9 18.790001 15.92 19 15.85 19.24 L 15.61 20.23 C 15.48 20.68 15.24 20.91 14.89 20.91 C 14.85 20.91 14.74 20.889999 14.58 20.85 C 14.36 20.809999 14.2 20.709999 14.09 20.549999 C 13.97 20.4 13.91 20.23 13.91 20.059999 Z M 16.73 21.74 C 16.73 21.67 16.74 21.59 16.76 21.5 L 17.040001 20.51 C 17.110001 20.27 17.24 20.09 17.450001 19.969999 C 17.66 19.85 17.860001 19.82 18.08 19.879999 C 18.309999 19.950001 18.49 20.08 18.610001 20.290001 C 18.73 20.49 18.76 20.700001 18.700001 20.92 L 18.41 21.98 C 18.309999 22.389999 18.049999 22.59 17.620001 22.59 C 17.530001 22.59 17.440001 22.58 17.360001 22.559999 C 17.16 22.52 17.01 22.42 16.9 22.26 C 16.799999 22.08 16.74 21.91 16.73 21.74 Z M 18.110001 16.98 C 18.110001 16.950001 18.129999 16.860001 18.16 16.719999 L 18.459999 15.690001 C 18.5 15.48 18.59 15.32 18.75 15.219999 C 18.91 15.120001 19.07 15.07 19.24 15.08 C 19.280001 15.07 19.370001 15.08 19.48 15.110001 C 19.700001 15.16 19.870001 15.290001 20 15.49 C 20.120001 15.66 20.139999 15.870001 20.07 16.139999 L 19.83 17.17 C 19.700001 17.6 19.450001 17.82 19.07 17.82 C 19.01 17.82 18.9 17.799999 18.73 17.76 C 18.52 17.700001 18.370001 17.59 18.27 17.450001 C 18.16 17.290001 18.110001 17.139999 18.110001 16.98 Z"/>
</svg>
