<?xml version="1.0" encoding="UTF-8"?>
<!-- Generated by Pixelmator Pro 3.6.18 -->
<svg width="30" height="30" viewBox="0 0 30 30" xmlns="http://www.w3.org/2000/svg">
    <path id="Path" fill="#000000" stroke="none" d="M 9.91 20.559999 C 9.91 19.709999 10.11 18.92 10.5 18.18 C 10.89 17.440001 11.44 16.83 12.15 16.34 L 12.15 6.42 C 12.15 5.619999 12.42 4.940001 12.97 4.389999 C 13.52 3.84 14.2 3.549999 15 3.549999 C 15.81 3.549999 16.49 3.83 17.040001 4.380001 C 17.59 4.940001 17.870001 5.610001 17.870001 6.41 L 17.870001 16.33 C 18.58 16.82 19.120001 17.440001 19.51 18.17 C 19.9 18.9 20.09 19.700001 20.09 20.549999 C 20.09 21.469999 19.860001 22.33 19.41 23.110001 C 18.959999 23.889999 18.34 24.51 17.559999 24.959999 C 16.780001 25.41 15.93 25.639999 15 25.639999 C 14.08 25.639999 13.23 25.41 12.45 24.959999 C 11.67 24.51 11.05 23.889999 10.59 23.110001 C 10.13 22.33 9.91 21.48 9.91 20.559999 Z M 11.67 20.559999 C 11.67 21.49 12 22.290001 12.65 22.950001 C 13.3 23.610001 14.09 23.940001 15.01 23.940001 C 15.94 23.940001 16.74 23.610001 17.41 22.940001 C 18.08 22.27 18.42 21.48 18.42 20.57 C 18.42 19.950001 18.26 19.370001 17.940001 18.84 C 17.620001 18.309999 17.18 17.9 16.620001 17.610001 L 16.34 17.469999 C 16.24 17.43 16.190001 17.33 16.190001 17.18 L 16.190001 6.42 C 16.190001 6.1 16.08 5.83 15.85 5.610001 C 15.62 5.4 15.34 5.290001 15 5.290001 C 14.68 5.290001 14.4 5.4 14.17 5.610001 C 13.94 5.82 13.83 6.09 13.83 6.42 L 13.83 17.16 C 13.83 17.309999 13.78 17.41 13.69 17.450001 L 13.42 17.59 C 12.87 17.879999 12.44 18.290001 12.13 18.82 C 11.82 19.35 11.67 19.92 11.67 20.559999 Z"/>
</svg>
