<?xml version="1.0" encoding="UTF-8"?>
<!-- Generated by Pixelmator Pro 3.6.18 -->
<svg width="30" height="30" viewBox="0 0 30 30" xmlns="http://www.w3.org/2000/svg">
    <path id="Path" fill="#000000" stroke="none" d="M 4.63 14.91 C 4.63 16.02 4.96 17.01 5.62 17.879999 C 6.28 18.75 7.14 19.35 8.2 19.67 L 7.54 21.35 C 7.51 21.49 7.56 21.57 7.68 21.57 L 9.81 21.57 L 8.83 25.870001 L 9.11 25.870001 L 13.03 20.120001 C 13.07 20.08 13.07 20.030001 13.04 19.98 C 13.01 19.93 12.96 19.91 12.89 19.91 L 10.71 19.91 L 13.19 15.27 C 13.26 15.129999 13.21 15.049999 13.05 15.049999 L 10.11 15.049999 C 10.02 15.049999 9.94 15.1 9.88 15.200001 L 8.81 18.07 C 8.1 17.889999 7.51 17.5 7.04 16.91 C 6.57 16.32 6.34 15.65 6.34 14.9 C 6.34 14.07 6.62 13.35 7.19 12.73 C 7.76 12.119999 8.46 11.76 9.29 11.66 L 9.82 11.59 C 9.95 11.59 10.02 11.529999 10.02 11.41 L 10.09 10.9 C 10.2 9.82 10.65 8.91 11.46 8.18 C 12.27 7.450001 13.22 7.08 14.31 7.08 C 15.4 7.08 16.35 7.450001 17.16 8.18 C 17.98 8.91 18.440001 9.82 18.559999 10.9 L 18.629999 11.48 C 18.629999 11.59 18.690001 11.65 18.809999 11.65 L 20.41 11.65 C 21.32 11.65 22.09 11.970001 22.73 12.6 C 23.370001 13.23 23.700001 14 23.700001 14.879999 C 23.700001 15.73 23.4 16.469999 22.809999 17.09 C 22.219999 17.709999 21.48 18.059999 20.610001 18.129999 C 20.48 18.129999 20.41 18.190001 20.41 18.309999 L 20.41 19.68 C 20.41 19.790001 20.48 19.85 20.610001 19.85 C 21.940001 19.809999 23.07 19.299999 24 18.34 C 24.93 17.379999 25.389999 16.23 25.389999 14.889999 C 25.389999 13.99 25.17 13.16 24.719999 12.4 C 24.280001 11.639999 23.67 11.040001 22.91 10.6 C 22.139999 10.16 21.309999 9.939999 20.41 9.939999 L 20.1 9.939999 C 19.77 8.610001 19.059999 7.52 17.99 6.68 C 16.92 5.84 15.69 5.41 14.31 5.41 C 12.9 5.41 11.64 5.85 10.55 6.720001 C 9.46 7.59 8.76 8.709999 8.45 10.08 C 7.34 10.34 6.43 10.91 5.71 11.810001 C 4.99 12.709999 4.63 13.76 4.63 14.91 Z M 12.77 24.620001 C 12.77 25.01 12.96 25.27 13.35 25.389999 C 13.36 25.389999 13.4 25.389999 13.46 25.4 C 13.52 25.41 13.57 25.41 13.6 25.41 C 13.77 25.41 13.93 25.360001 14.09 25.26 C 14.25 25.16 14.36 25 14.41 24.780001 L 16.66 16.09 C 16.719999 15.85 16.700001 15.639999 16.59 15.440001 C 16.48 15.25 16.32 15.120001 16.09 15.049999 C 15.92 15.030001 15.83 15.02 15.83 15.02 C 15.67 15.02 15.51 15.07 15.36 15.17 C 15.21 15.27 15.1 15.42 15.05 15.620001 L 12.79 24.34 C 12.78 24.440001 12.77 24.530001 12.77 24.620001 Z M 16.93 21.559999 C 16.93 21.690001 16.959999 21.82 17.030001 21.940001 C 17.17 22.16 17.34 22.309999 17.540001 22.379999 C 17.65 22.41 17.75 22.43 17.84 22.43 C 17.93 22.43 18.040001 22.41 18.16 22.35 C 18.370001 22.26 18.51 22.07 18.58 21.780001 L 20.02 16.110001 C 20.049999 15.969999 20.07 15.879999 20.07 15.84 C 20.07 15.690001 20.02 15.540001 19.91 15.389999 C 19.799999 15.24 19.65 15.129999 19.450001 15.07 C 19.280001 15.049999 19.190001 15.040001 19.190001 15.040001 C 19.02 15.040001 18.860001 15.09 18.719999 15.190001 C 18.58 15.290001 18.48 15.440001 18.42 15.639999 L 16.959999 21.34 C 16.959999 21.360001 16.959999 21.389999 16.950001 21.450001 C 16.93 21.5 16.93 21.530001 16.93 21.559999 Z"/>
</svg>
