<?xml version="1.0" encoding="UTF-8"?>
<!-- Generated by Pixelmator Pro 3.6.18 -->
<svg width="30" height="30" viewBox="0 0 30 30" xmlns="http://www.w3.org/2000/svg">
    <path id="Path" fill="#000000" stroke="none" d="M 12.48 19.559999 C 12.48 20.27 12.72 20.879999 13.21 21.379999 C 13.7 21.879999 14.28 22.129999 14.97 22.129999 C 15.66 22.129999 16.25 21.879999 16.76 21.379999 C 17.27 20.879999 17.52 20.27 17.52 19.57 C 17.52 18.940001 17.299999 18.379999 16.870001 17.9 C 16.440001 17.42 15.91 17.129999 15.3 17.049999 L 15.3 9.689999 C 15.3 9.630001 15.27 9.560001 15.2 9.5 C 15.13 9.43 15.06 9.4 14.98 9.4 C 14.89 9.4 14.82 9.43 14.77 9.48 C 14.72 9.540001 14.69 9.6 14.69 9.689999 L 14.69 17.030001 C 14.08 17.120001 13.56 17.4 13.13 17.879999 C 12.69 18.370001 12.48 18.92 12.48 19.559999 Z"/>
</svg>
