<?xml version="1.0" encoding="UTF-8"?>
<!-- Generated by Pixelmator Pro 3.6.18 -->
<svg width="30" height="30" viewBox="0 0 30 30" xmlns="http://www.w3.org/2000/svg">
    <path id="Path" fill="#000000" stroke="none" d="M 4.65 15.5 C 4.65 15.28 4.73 15.09 4.88 14.94 C 5.04 14.79 5.23 14.72 5.45 14.72 L 17.530001 14.72 C 17.75 14.72 17.93 14.79 18.07 14.94 C 18.209999 15.09 18.290001 15.28 18.290001 15.51 C 18.290001 15.73 18.219999 15.91 18.07 16.049999 C 17.93 16.190001 17.75 16.27 17.530001 16.27 L 5.45 16.27 C 5.23 16.27 5.03 16.200001 4.88 16.049999 C 4.72 15.9 4.65 15.72 4.65 15.5 Z M 7.06 12.6 C 7.06 12.380001 7.14 12.200001 7.29 12.049999 C 7.44 11.9 7.63 11.82 7.85 11.82 L 19.940001 11.82 C 20.15 11.82 20.33 11.9 20.48 12.049999 C 20.629999 12.200001 20.700001 12.380001 20.700001 12.6 C 20.700001 12.82 20.629999 13 20.48 13.16 C 20.33 13.310001 20.15 13.389999 19.940001 13.389999 L 7.86 13.389999 C 7.64 13.389999 7.45 13.310001 7.3 13.16 C 7.15 13.01 7.06 12.82 7.06 12.6 Z M 8.68 18.34 C 8.68 18.129999 8.76 17.950001 8.92 17.799999 C 9.06 17.66 9.24 17.58 9.46 17.58 L 21.559999 17.58 C 21.780001 17.58 21.969999 17.65 22.120001 17.799999 C 22.27 17.940001 22.34 18.120001 22.34 18.34 C 22.34 18.559999 22.26 18.75 22.110001 18.9 C 21.959999 19.049999 21.77 19.129999 21.549999 19.129999 L 9.46 19.129999 C 9.24 19.129999 9.06 19.049999 8.9 18.9 C 8.74 18.75 8.68 18.559999 8.68 18.34 Z M 19.26 15.5 C 19.26 15.27 19.33 15.08 19.48 14.93 C 19.629999 14.78 19.82 14.71 20.049999 14.71 L 24.57 14.71 C 24.799999 14.71 24.99 14.78 25.139999 14.93 C 25.290001 15.08 25.360001 15.27 25.360001 15.49 C 25.360001 15.71 25.290001 15.89 25.139999 16.030001 C 24.99 16.17 24.799999 16.25 24.58 16.25 L 20.059999 16.25 C 19.83 16.25 19.639999 16.18 19.49 16.030001 C 19.33 15.9 19.26 15.72 19.26 15.5 Z"/>
</svg>
